<?xml version="1.0" encoding="utf-8"?>
<!-- Generator: Adobe Illustrator 27.7.0, SVG Export Plug-In . SVG Version: 6.00 Build 0)  -->
<svg version="1.1" id="Layer_1" xmlns="http://www.w3.org/2000/svg" xmlns:xlink="http://www.w3.org/1999/xlink" x="0px" y="0px"
	 viewBox="0 0 325 88" style="enable-background:new 0 0 325 88;" xml:space="preserve">
<style type="text/css">
	.st0{fill:none;stroke:#808080;stroke-width:0;stroke-miterlimit:10;}
	.st1{fill:#FFFFFF;}
</style>
<g>
	<path class="st0" d="M308.1,43.46c0-15.06-12.21-27.27-27.27-27.27H35.67C20.61,16.19,8.4,28.4,8.4,43.46v1.08
		c0,15.06,12.21,27.27,27.27,27.27h245.16c15.06,0,27.27-12.21,27.27-27.27V43.46"/>
	<path class="st0" d="M112.37,58.54c-0.13-1.7,0.37-3.67-0.44-5.54c-0.08-0.16-0.06-0.32,0.04-0.46l0.52-0.72
		c0.22-0.3,0.17-0.55-0.12-0.77c-0.46-0.34-0.57-0.64-0.32-0.94c0.15-0.17,0.23-0.38,0.24-0.61l1.29-22.27
		c0.04-0.68-0.28-1.01-0.96-0.99l-7.32,0.16c-0.34,0.01-0.61,0.27-0.64,0.6c-1.01,11.45-1.53,22.92-1.58,34.41
		c0,0.33,0.17,0.49,0.49,0.49l8.17-0.16c0.26,0,0.41-0.13,0.46-0.38C112.39,60.41,112.44,59.46,112.37,58.54"/>
	<path class="st0" d="M128.37,52.09c-0.58,1.77-3,2.9-4.45,1.81c-3.05-2.28-1.07-19.75,4.56-19.5c0.28,0.01,0.52,0.19,0.6,0.46
		c0.42,1.44,0.46,2.89,0.13,4.34c-0.18,0.75,0.41,1.47,1.19,1.44l6.6-0.22c0.24-0.01,0.4-0.13,0.47-0.36
		c1.31-4.51,0.79-10.72-3.95-12.59c-19.22-7.57-26.75,32.69-10.51,34.28c7.85,0.77,12.71-2.65,14.59-10.25
		c2.28-9.23-3.77-9.74-10.62-8.08c-0.29,0.07-0.45,0.24-0.49,0.53l-1.11,7.18c-0.06,0.38,0.25,0.71,0.63,0.7l2.12-0.08
		C128.36,51.75,128.45,51.86,128.37,52.09"/>
	<path class="st0" d="M149.6,43.69l6.59,17.33c0.19,0.51,0.69,0.84,1.23,0.82l7.04-0.27c0.31-0.01,0.46-0.16,0.46-0.47
		c0.06-2.24,0.05-6.26-0.03-12.05c-0.05-3.16,0.34-10.33,1.14-21.52c0.02-0.29-0.19-0.52-0.48-0.54l-7.06-0.32
		c-0.23-0.01-0.43,0.17-0.44,0.4l-0.9,13.36c-0.04,0.52-0.15,0.53-0.34,0.04c-1.31-3.37-2.64-6.72-4-10.07
		c-1.86-4.59-5.87-4.06-10.13-3.32c-0.23,0.04-0.36,0.18-0.38,0.41c-1.1,11.3-1.87,22.64-2.31,33.98c-0.01,0.3,0.14,0.45,0.44,0.46
		l7.6,0.06c0.53,0.01,0.81-0.26,0.82-0.79l0.47-17.46C149.31,43.57,149.54,43.53,149.6,43.69"/>
	<path class="st0" d="M218.71,51.74c4.65-0.62,10.04-1.97,13.06-5.58c4.16-4.97,4.04-15.46-2.81-18.57c-4.3-1.96-12.7,0.34-17.3,1.6
		c-0.3,0.08-0.51,0.35-0.53,0.67l-1.39,31.5c-0.01,0.33,0.25,0.61,0.58,0.61h7.12c0.26,0,0.48-0.21,0.5-0.48l0.37-9.29
		C218.3,51.93,218.45,51.78,218.71,51.74"/>
	<path class="st0" d="M84.35,45.86c2.14,1.4,8.21,4.52,7.33,7.51c-1.11,3.83-7.64,0.01-9.6-1.18c-0.32-0.2-0.74-0.07-0.91,0.26
		l-2.54,5.17c-0.11,0.23-0.07,0.42,0.14,0.56c7.1,4.91,20.91,6.16,22.23-5.01c0.59-4.99-2.29-8.81-6.44-11.13
		c-3.11-1.75-6.82-4.87-3.35-8.41c0.71-0.72,1.93-0.26,2,0.74l0.26,4.13c0.01,0.22,0.2,0.4,0.43,0.4h6.77
		c0.25,0,0.39-0.12,0.43-0.36c1.65-8.51-2.11-12.33-10.57-11.66C81.76,27.58,76.16,40.53,84.35,45.86"/>
	<path class="st0" d="M194.08,54.09c-0.01-0.1-0.01-0.2-0.01-0.29c0.01-0.26-0.11-0.43-0.36-0.52c-1.33-0.41-1.98-1.2-1.95-2.36
		c0.18-7.33,0.67-14.88,1.47-22.65c0.1-0.9-0.31-1.35-1.21-1.35h-6.02c-0.69,0-1.07,0.35-1.15,1.04c-0.68,6.38-1.22,12.35-1.62,17.9
		c-0.46,6.47-0.4,14.82,7.04,15.83c12.81,1.73,17-5.62,17.28-17.14c0.13-5.35,0.32-10.77,0.58-16.27c0.04-0.9-0.38-1.35-1.28-1.35
		h-6.38c-0.34,0-0.61,0.26-0.62,0.59c-0.29,7.28-0.72,14.58-1.28,21.9c-0.16,1.99-1.16,3.28-3.01,3.85
		c-0.21,0.06-0.38,0.18-0.52,0.36l-0.46,0.61C194.42,54.43,194.1,54.34,194.08,54.09"/>
	<path class="st0" d="M105.17,27.84c-0.33,6.57-0.45,13.24-0.73,19.85c0,0.04,0.03,0.08,0.08,0.09c0.04,0.01,0.08-0.03,0.09-0.07
		c0.67-5.23,1.06-9.92,1.15-14.05c0.05-2.04,0.62-3.83,1.7-5.38c0.14-0.2,0.02-0.49-0.22-0.53l-1.6-0.29
		C105.35,27.4,105.19,27.52,105.17,27.84"/>
	<path class="st0" d="M107.81,28.12c0.38,0.31,0.76,0.35,1.12,0.13c0.16-0.09,0.22-0.29,0.14-0.45c-0.08-0.16-0.27-0.25-0.44-0.18
		l-0.8,0.3C107.76,27.96,107.75,28.07,107.81,28.12"/>
	<path class="st0" d="M110.71,48.53l0.16-0.59c0.18-0.64,0.07-0.69-0.35-0.17c-0.46,0.59-1.54,1.59-0.04,1.94
		c0.07,0.02,0.13-0.04,0.13-0.11c0-0.14,0-0.29,0-0.46C110.63,48.93,110.66,48.73,110.71,48.53"/>
	<path class="st0" d="M109.4,50.83c-0.38-0.11-0.55,0.04-0.52,0.46c0.01,0.23,0.12,0.29,0.32,0.17l0.26-0.15
		C109.81,51.1,109.79,50.94,109.4,50.83"/>
	<path class="st0" d="M110.69,54.85c0.52-0.43,0.24-0.83-0.82-1.18c-0.4-0.13-0.5-0.01-0.31,0.36c0.07,0.14,0.13,0.32,0.18,0.5
		C109.83,54.96,110.35,55.14,110.69,54.85"/>
	<path class="st0" d="M111,56.2c-0.52,0.33-1.01,0.68-1.49,1.07c-0.05,0.04-0.07,0.12-0.03,0.18c0.04,0.06,0.12,0.07,0.18,0.04
		l1.75-0.94c0.23-0.12,0.26-0.28,0.11-0.49l-0.18-0.24c-0.01-0.01-0.04,0-0.1,0.05c-0.02,0.02-0.04,0.04-0.06,0.08
		C111.11,56.08,111.05,56.18,111,56.2"/>
	<path class="st0" d="M111.05,58.43c-1.03-0.07-1,0.17,0.09,0.74c0.16,0.08,0.24,0.03,0.24-0.15c0-0.07,0-0.15,0-0.23
		C111.38,58.6,111.23,58.45,111.05,58.43"/>
	<path class="st0" d="M134.61,45.31c-0.25,1.79-0.26,3.61-0.03,5.44c0.01,0.07,0.07,0.12,0.14,0.12c0.07-0.01,0.13-0.07,0.13-0.13
		c0.05-2.05,0.06-3.85,0.01-5.41c0-0.07-0.05-0.12-0.12-0.13C134.68,45.19,134.62,45.24,134.61,45.31"/>
	<path class="st0" d="M146.45,50.47c-0.23,0.08-0.35,0.19-0.33,0.35c0.02,0.36,0.11,0.36,0.26-0.01c0.2-0.53-0.1-3.34-0.97-2.88
		c-0.08,0.04-0.1,0.1-0.05,0.18l1.2,2.08C146.62,50.29,146.57,50.43,146.45,50.47"/>
	<path class="st0" d="M158.09,53.98c-0.01-0.05-0.04-0.11-0.07-0.18c-0.01-0.02-0.02-0.02-0.04-0.01l-1.98,1.77
		c-0.35,0.31-0.31,0.36,0.1,0.16l2.03-1c0.17-0.08,0.23-0.29,0.13-0.44l-0.13-0.23C158.11,54.03,158.09,54.01,158.09,53.98"/>
	<path class="st0" d="M219.25,35.81l-0.46,7.39c-0.02,0.29,0.11,0.41,0.4,0.38c4.1-0.44,10.1-3.84,5.54-8.68
		c-0.17-0.17-0.4-0.25-0.63-0.21l-4.48,0.72C219.41,35.44,219.26,35.61,219.25,35.81"/>
	<path class="st0" d="M228.73,38.07l-0.38-0.3c-0.35-0.27-0.48-0.19-0.4,0.24c0.06,0.35,0.26,0.53,0.61,0.54
		C228.81,38.56,228.93,38.23,228.73,38.07"/>
	<path class="st0" d="M211.09,60.78l0.88,0.08c0.11,0.01,0.2-0.07,0.2-0.17l0.01-0.1c0.44-5.2,0.52-9.44,0.17-9.46
		c-0.35-0.03-0.98,4.16-1.43,9.36l-0.01,0.11C210.91,60.67,210.98,60.76,211.09,60.78"/>
	<path class="st0" d="M96.24,53.8c-0.2,0.32-0.33,0.68-0.38,1.07c-0.04,0.29,0.27,0.49,0.52,0.35c0.45-0.25,0.74-0.6,0.86-1.05
		c0.05-0.17,0.01-0.36-0.11-0.5c-0.43-0.53-0.7-0.58-0.79-0.14C96.33,53.63,96.29,53.72,96.24,53.8"/>
	<path class="st0" d="M206.64,30.66c0.21,0,0.38-0.61,0.36-1.34c-0.01-0.74-0.19-1.33-0.4-1.33c-0.21,0-0.38,0.61-0.36,1.34
		C206.25,30.07,206.43,30.66,206.64,30.66"/>
	<path class="st0" d="M185.15,36.27h0.51c0.08,0.01,0.14-0.06,0.14-0.14v-0.1c0.05-3.88-0.04-7.04-0.22-7.04h-0.18
		c-0.17,0-0.35,3.14-0.4,7.03v0.1C185.01,36.2,185.08,36.26,185.15,36.27"/>
</g>
<path d="M194.08,54.09c-0.01-0.1-0.01-0.2-0.01-0.29c0.01-0.26-0.11-0.43-0.36-0.52c-1.33-0.41-1.98-1.2-1.95-2.36
	c0.18-7.33,0.67-14.88,1.47-22.65c0.1-0.9-0.31-1.35-1.21-1.35h-6.02c-0.69,0-1.07,0.35-1.15,1.04c-0.68,6.38-1.22,12.35-1.62,17.9
	c-0.46,6.47-0.4,14.82,7.04,15.83c12.81,1.73,17-5.62,17.28-17.14c0.13-5.35,0.32-10.77,0.58-16.27c0.04-0.9-0.38-1.35-1.28-1.35
	h-6.38c-0.34,0-0.61,0.26-0.62,0.59c-0.29,7.28-0.72,14.58-1.28,21.9c-0.16,1.99-1.16,3.28-3.01,3.85
	c-0.21,0.06-0.38,0.18-0.52,0.36l-0.46,0.61C194.42,54.43,194.1,54.34,194.08,54.09z M84.35,45.86c2.14,1.4,8.21,4.52,7.33,7.51
	c-1.11,3.83-7.64,0.01-9.6-1.18c-0.32-0.2-0.74-0.07-0.91,0.26l-2.54,5.17c-0.11,0.23-0.07,0.42,0.14,0.56
	c7.1,4.91,20.91,6.16,22.23-5.01c0.59-4.99-2.29-8.81-6.44-11.13c-3.11-1.75-6.82-4.87-3.35-8.41c0.71-0.72,1.93-0.26,2,0.74
	l0.26,4.13c0.01,0.22,0.2,0.4,0.43,0.4h6.77c0.25,0,0.39-0.12,0.43-0.36c1.65-8.51-2.11-12.33-10.57-11.66
	C81.76,27.58,76.16,40.53,84.35,45.86 M218.71,51.74c4.65-0.62,10.04-1.97,13.06-5.58c4.16-4.97,4.04-15.46-2.81-18.57
	c-4.3-1.96-12.7,0.34-17.3,1.6c-0.3,0.08-0.51,0.35-0.53,0.67l-1.39,31.5c-0.01,0.33,0.25,0.61,0.58,0.61h7.12
	c0.26,0,0.48-0.21,0.5-0.48l0.37-9.29C218.3,51.93,218.45,51.78,218.71,51.74 M149.6,43.69l6.59,17.33
	c0.19,0.51,0.69,0.84,1.23,0.82l7.04-0.27c0.31-0.01,0.46-0.16,0.46-0.47c0.06-2.24,0.05-6.26-0.03-12.05
	c-0.05-3.16,0.34-10.33,1.14-21.52c0.02-0.29-0.19-0.52-0.48-0.54l-7.06-0.32c-0.23-0.01-0.43,0.17-0.44,0.4l-0.9,13.36
	c-0.04,0.52-0.15,0.53-0.34,0.04c-1.31-3.37-2.64-6.72-4-10.07c-1.86-4.59-5.87-4.06-10.13-3.32c-0.23,0.04-0.36,0.18-0.38,0.41
	c-1.1,11.3-1.87,22.64-2.31,33.98c-0.01,0.3,0.14,0.45,0.44,0.46l7.6,0.06c0.53,0.01,0.81-0.26,0.82-0.79l0.47-17.46
	C149.31,43.57,149.54,43.53,149.6,43.69 M128.37,52.09c-0.58,1.77-3,2.9-4.45,1.81c-3.05-2.28-1.07-19.75,4.56-19.5
	c0.28,0.01,0.52,0.19,0.6,0.46c0.42,1.44,0.46,2.89,0.13,4.34c-0.18,0.75,0.41,1.47,1.19,1.44l6.6-0.22
	c0.24-0.01,0.4-0.13,0.47-0.36c1.31-4.51,0.79-10.72-3.95-12.59c-19.22-7.57-26.75,32.69-10.51,34.28
	c7.85,0.77,12.71-2.65,14.59-10.25c2.28-9.23-3.77-9.74-10.62-8.08c-0.29,0.07-0.45,0.24-0.49,0.53l-1.11,7.18
	c-0.06,0.38,0.25,0.71,0.63,0.7l2.12-0.08C128.36,51.75,128.45,51.86,128.37,52.09 M112.37,58.54c-0.13-1.7,0.37-3.67-0.44-5.54
	c-0.08-0.16-0.06-0.32,0.04-0.46l0.52-0.72c0.22-0.3,0.17-0.55-0.12-0.77c-0.46-0.34-0.57-0.64-0.32-0.94
	c0.15-0.17,0.23-0.38,0.24-0.61l1.29-22.27c0.04-0.68-0.28-1.01-0.96-0.99l-7.32,0.16c-0.34,0.01-0.61,0.27-0.64,0.6
	c-1.01,11.45-1.53,22.92-1.58,34.41c0,0.33,0.17,0.49,0.49,0.49l8.17-0.16c0.26,0,0.41-0.13,0.46-0.38
	C112.39,60.41,112.44,59.46,112.37,58.54 M308.1,44.54c0,15.06-12.21,27.27-27.27,27.27H35.67C20.61,71.81,8.4,59.6,8.4,44.54v-1.08
	c0-15.06,12.21-27.27,27.27-27.27h245.16c15.06,0,27.27,12.21,27.27,27.27V44.54"/>
<path class="st1" d="M111.05,58.43c-1.03-0.07-1,0.17,0.09,0.74c0.16,0.08,0.24,0.03,0.24-0.15c0-0.07,0-0.15,0-0.23
	C111.38,58.6,111.23,58.45,111.05,58.43z M111,56.2c-0.52,0.33-1.01,0.68-1.49,1.07c-0.05,0.04-0.07,0.12-0.03,0.18
	c0.04,0.06,0.12,0.07,0.18,0.04l1.75-0.94c0.23-0.12,0.26-0.28,0.11-0.49l-0.18-0.24c-0.01-0.01-0.04,0-0.1,0.05
	c-0.02,0.02-0.04,0.04-0.06,0.08C111.11,56.08,111.05,56.18,111,56.2 M110.69,54.85c0.52-0.43,0.24-0.83-0.82-1.18
	c-0.4-0.13-0.5-0.01-0.31,0.36c0.07,0.14,0.13,0.32,0.18,0.5C109.83,54.96,110.35,55.14,110.69,54.85 M109.4,50.83
	c-0.38-0.11-0.55,0.04-0.52,0.46c0.01,0.23,0.12,0.29,0.32,0.17l0.26-0.15C109.81,51.1,109.79,50.94,109.4,50.83 M110.71,48.53
	l0.16-0.59c0.18-0.64,0.07-0.69-0.35-0.17c-0.46,0.59-1.54,1.59-0.04,1.94c0.07,0.02,0.13-0.04,0.13-0.11c0-0.14,0-0.29,0-0.46
	C110.63,48.93,110.66,48.73,110.71,48.53 M107.81,28.12c0.38,0.31,0.76,0.35,1.12,0.13c0.16-0.09,0.22-0.29,0.14-0.45
	c-0.08-0.16-0.27-0.25-0.44-0.18l-0.8,0.3C107.76,27.96,107.75,28.07,107.81,28.12 M105.17,27.84c-0.33,6.57-0.45,13.24-0.73,19.85
	c0,0.04,0.03,0.08,0.08,0.09c0.04,0.01,0.08-0.03,0.09-0.07c0.67-5.23,1.06-9.92,1.15-14.05c0.05-2.04,0.62-3.83,1.7-5.38
	c0.14-0.2,0.02-0.49-0.22-0.53l-1.6-0.29C105.35,27.4,105.19,27.52,105.17,27.84 M112.37,58.54c0.07,0.92,0.02,1.87-0.16,2.82
	c-0.05,0.25-0.2,0.38-0.46,0.38l-8.17,0.16c-0.32,0.01-0.49-0.16-0.49-0.49c0.04-11.49,0.57-22.96,1.58-34.41
	c0.03-0.33,0.31-0.59,0.64-0.6l7.32-0.16c0.68-0.02,1,0.31,0.96,0.99l-1.29,22.27c-0.01,0.23-0.09,0.44-0.24,0.61
	c-0.25,0.29-0.13,0.6,0.32,0.94c0.29,0.22,0.34,0.47,0.12,0.77l-0.52,0.72c-0.11,0.14-0.12,0.3-0.04,0.46
	C112.74,54.88,112.25,56.85,112.37,58.54"/>
<path class="st1" d="M134.61,45.31c-0.25,1.79-0.26,3.61-0.03,5.44c0.01,0.07,0.07,0.12,0.14,0.12c0.07-0.01,0.13-0.07,0.13-0.13
	c0.05-2.05,0.06-3.85,0.01-5.41c0-0.07-0.05-0.12-0.12-0.13C134.68,45.19,134.62,45.24,134.61,45.31z M128.12,51.76L126,51.84
	c-0.38,0.01-0.69-0.32-0.63-0.7l1.11-7.18c0.04-0.29,0.2-0.46,0.49-0.53c6.85-1.66,12.9-1.15,10.62,8.08
	c-1.88,7.6-6.74,11.02-14.59,10.25c-16.24-1.59-8.71-41.84,10.51-34.28c4.75,1.88,5.26,8.09,3.95,12.59
	c-0.07,0.23-0.22,0.35-0.47,0.36l-6.6,0.22c-0.77,0.03-1.37-0.69-1.19-1.44c0.34-1.45,0.29-2.9-0.13-4.34
	c-0.08-0.27-0.32-0.46-0.6-0.46c-5.63-0.25-7.61,17.22-4.56,19.5c1.45,1.09,3.88-0.04,4.45-1.81
	C128.45,51.86,128.36,51.75,128.12,51.76"/>
<path class="st1" d="M158.09,53.98c-0.01-0.05-0.04-0.11-0.07-0.18c-0.01-0.02-0.02-0.02-0.04-0.01l-1.98,1.77
	c-0.35,0.31-0.31,0.36,0.1,0.16l2.03-1c0.17-0.08,0.23-0.29,0.13-0.44l-0.13-0.23C158.11,54.03,158.09,54.01,158.09,53.98z
	 M146.45,50.47c-0.23,0.08-0.35,0.19-0.33,0.35c0.02,0.36,0.11,0.36,0.26-0.01c0.2-0.53-0.1-3.34-0.97-2.88
	c-0.08,0.04-0.1,0.1-0.05,0.18l1.2,2.08C146.62,50.29,146.57,50.43,146.45,50.47 M149.3,43.74l-0.47,17.46
	c-0.01,0.53-0.29,0.79-0.82,0.79l-7.6-0.06c-0.3-0.01-0.44-0.16-0.44-0.46c0.44-11.35,1.21-22.68,2.31-33.98
	c0.02-0.23,0.15-0.38,0.38-0.41c4.27-0.74,8.27-1.27,10.13,3.32c1.36,3.35,2.68,6.7,4,10.07c0.19,0.49,0.3,0.47,0.34-0.04l0.9-13.36
	c0.01-0.23,0.21-0.41,0.44-0.4l7.06,0.32c0.29,0.02,0.5,0.26,0.48,0.54c-0.8,11.19-1.18,18.37-1.14,21.52
	c0.08,5.79,0.09,9.81,0.03,12.05c-0.01,0.31-0.16,0.46-0.46,0.47l-7.04,0.27c-0.54,0.02-1.04-0.31-1.23-0.82l-6.59-17.33
	C149.54,43.53,149.31,43.57,149.3,43.74"/>
<path class="st1" d="M211.09,60.78l0.88,0.08c0.11,0.01,0.2-0.07,0.2-0.17l0.01-0.1c0.44-5.2,0.52-9.44,0.17-9.46
	c-0.35-0.03-0.98,4.16-1.43,9.36l-0.01,0.11C210.91,60.67,210.98,60.76,211.09,60.78z M228.73,38.07l-0.38-0.3
	c-0.35-0.27-0.48-0.19-0.4,0.24c0.06,0.35,0.26,0.53,0.61,0.54C228.81,38.56,228.93,38.23,228.73,38.07 M219.25,35.81l-0.46,7.39
	c-0.02,0.29,0.11,0.41,0.4,0.38c4.1-0.44,10.1-3.84,5.54-8.68c-0.17-0.17-0.4-0.25-0.63-0.21l-4.48,0.72
	C219.41,35.44,219.26,35.61,219.25,35.81 M218.3,52.2l-0.37,9.29c-0.02,0.27-0.23,0.48-0.5,0.48h-7.12c-0.33,0-0.59-0.28-0.58-0.61
	l1.39-31.5c0.01-0.32,0.22-0.59,0.53-0.67c4.6-1.26,13-3.55,17.3-1.6c6.85,3.11,6.98,13.6,2.81,18.57
	c-3.02,3.61-8.41,4.96-13.06,5.58C218.45,51.78,218.3,51.93,218.3,52.2"/>
<path class="st1" d="M96.24,53.8c-0.2,0.32-0.33,0.68-0.38,1.07c-0.04,0.29,0.27,0.49,0.52,0.35c0.45-0.25,0.74-0.6,0.86-1.05
	c0.05-0.17,0.01-0.36-0.11-0.5c-0.43-0.53-0.7-0.58-0.79-0.14C96.33,53.63,96.29,53.72,96.24,53.8z M91.69,53.37
	c0.87-2.98-5.19-6.1-7.33-7.51c-8.19-5.33-2.6-18.28,6.19-18.97c8.46-0.67,12.22,3.16,10.57,11.66c-0.04,0.24-0.19,0.36-0.43,0.36
	H93.9c-0.22,0-0.41-0.18-0.43-0.4l-0.26-4.13c-0.07-1-1.29-1.46-2-0.74c-3.47,3.54,0.25,6.66,3.35,8.41
	c4.16,2.32,7.04,6.14,6.44,11.13c-1.32,11.17-15.13,9.92-22.23,5.01c-0.21-0.14-0.26-0.33-0.14-0.56l2.54-5.17
	c0.16-0.34,0.58-0.46,0.91-0.26C84.05,53.38,90.58,57.2,91.69,53.37"/>
<path class="st1" d="M185.15,36.27h0.51c0.08,0.01,0.14-0.06,0.14-0.14v-0.1c0.05-3.88-0.04-7.04-0.22-7.04h-0.18
	c-0.17,0-0.35,3.14-0.4,7.03v0.1C185.01,36.2,185.08,36.26,185.15,36.27z M206.64,30.66c0.21,0,0.38-0.61,0.36-1.34
	c-0.01-0.74-0.19-1.33-0.4-1.33c-0.21,0-0.38,0.61-0.36,1.34C206.25,30.07,206.43,30.66,206.64,30.66 M194.57,54.22l0.46-0.61
	c0.14-0.18,0.31-0.3,0.52-0.36c1.85-0.57,2.86-1.85,3.01-3.85c0.56-7.32,0.99-14.62,1.28-21.9c0.01-0.33,0.28-0.59,0.62-0.59h6.38
	c0.9,0,1.33,0.45,1.28,1.35c-0.26,5.5-0.46,10.93-0.58,16.27c-0.28,11.51-4.47,18.87-17.28,17.14c-7.45-1.01-7.51-9.35-7.04-15.83
	c0.4-5.56,0.94-11.53,1.62-17.9c0.07-0.69,0.46-1.04,1.15-1.04h6.02c0.91,0,1.31,0.45,1.21,1.35c-0.8,7.77-1.29,15.32-1.47,22.65
	c-0.03,1.16,0.62,1.95,1.95,2.36c0.25,0.08,0.37,0.26,0.36,0.52c0,0.1,0.01,0.2,0.01,0.29C194.1,54.34,194.42,54.43,194.57,54.22"/>
<path d="M104.45,47.69c0.28-6.61,0.4-13.28,0.73-19.85c0.01-0.32,0.17-0.44,0.48-0.38l1.6,0.29c0.24,0.04,0.36,0.33,0.22,0.53
	c-1.09,1.54-1.65,3.34-1.7,5.38c-0.1,4.13-0.49,8.82-1.15,14.05c-0.01,0.04-0.05,0.08-0.09,0.07
	C104.48,47.77,104.45,47.74,104.45,47.69z"/>
<path d="M107.81,28.12c-0.07-0.05-0.05-0.17,0.03-0.19l0.8-0.3c0.17-0.07,0.36,0.02,0.44,0.18c0.07,0.16,0.01,0.36-0.14,0.45
	C108.57,28.48,108.2,28.43,107.81,28.12z"/>
<path d="M206.64,30.66c-0.21,0-0.39-0.59-0.4-1.33c-0.02-0.73,0.15-1.34,0.36-1.34c0.21,0,0.39,0.59,0.4,1.33
	C207.02,30.05,206.85,30.66,206.64,30.66z"/>
<path d="M185.15,36.27c-0.08-0.01-0.14-0.07-0.14-0.15v-0.1c0.05-3.88,0.23-7.03,0.4-7.03h0.18c0.17,0,0.27,3.16,0.22,7.04v0.1
	c0,0.07-0.06,0.14-0.14,0.14H185.15z"/>
<path d="M218.79,43.2l0.46-7.39c0.02-0.2,0.16-0.37,0.37-0.4l4.48-0.72c0.23-0.04,0.47,0.04,0.63,0.21
	c4.56,4.84-1.44,8.24-5.54,8.68C218.9,43.61,218.77,43.48,218.79,43.2z"/>
<path d="M228.73,38.07c0.2,0.16,0.08,0.49-0.17,0.48c-0.35-0.01-0.55-0.19-0.61-0.54c-0.08-0.43,0.06-0.51,0.4-0.24L228.73,38.07z"
	/>
<path d="M134.61,45.31c0.01-0.07,0.07-0.11,0.13-0.11c0.07,0.01,0.12,0.06,0.12,0.13c0.04,1.55,0.04,3.35-0.01,5.41
	c0,0.07-0.06,0.13-0.13,0.13c-0.08,0-0.14-0.05-0.14-0.12C134.36,48.91,134.36,47.1,134.61,45.31z"/>
<path d="M110.63,49.14c0,0.17,0,0.32,0,0.46c0,0.08-0.07,0.13-0.13,0.11c-1.5-0.35-0.43-1.36,0.04-1.94
	c0.41-0.52,0.53-0.46,0.35,0.17l-0.16,0.59C110.66,48.73,110.63,48.93,110.63,49.14z"/>
<path d="M146.56,50.19l-1.2-2.08c-0.04-0.07-0.03-0.13,0.05-0.18c0.87-0.46,1.17,2.35,0.97,2.88c-0.14,0.37-0.23,0.37-0.26,0.01
	c-0.01-0.16,0.1-0.27,0.33-0.35C146.57,50.43,146.62,50.29,146.56,50.19z"/>
<path d="M109.46,51.3l-0.26,0.15c-0.2,0.12-0.31,0.06-0.32-0.17c-0.02-0.42,0.15-0.57,0.52-0.46
	C109.79,50.94,109.81,51.1,109.46,51.3z"/>
<path d="M211.09,60.78c-0.11-0.01-0.18-0.1-0.17-0.2l0.01-0.11c0.45-5.2,1.09-9.39,1.43-9.36c0.35,0.03,0.27,4.27-0.17,9.46
	l-0.01,0.1c-0.01,0.11-0.1,0.18-0.2,0.17L211.09,60.78z"/>
<path d="M96.35,53.53c0.1-0.44,0.37-0.4,0.79,0.14c0.12,0.14,0.16,0.33,0.11,0.5c-0.13,0.45-0.41,0.8-0.86,1.05
	c-0.26,0.14-0.56-0.06-0.52-0.35c0.04-0.39,0.17-0.75,0.38-1.07C96.29,53.72,96.33,53.63,96.35,53.53z"/>
<path d="M109.74,54.54c-0.05-0.19-0.11-0.36-0.18-0.5c-0.19-0.37-0.09-0.49,0.31-0.36c1.06,0.35,1.33,0.74,0.82,1.18
	C110.35,55.14,109.83,54.96,109.74,54.54z"/>
<path d="M158.12,54.05l0.13,0.23c0.09,0.16,0.03,0.36-0.13,0.44l-2.03,1c-0.41,0.2-0.45,0.15-0.1-0.16l1.98-1.77
	c0.02-0.01,0.04-0.01,0.04,0.01c0.04,0.07,0.06,0.13,0.07,0.18C158.09,54.01,158.11,54.03,158.12,54.05z"/>
<path d="M111.17,55.96c0.01-0.03,0.04-0.05,0.06-0.08c0.06-0.05,0.1-0.07,0.1-0.05l0.18,0.24c0.15,0.2,0.11,0.37-0.11,0.49
	l-1.75,0.94c-0.06,0.03-0.14,0.02-0.18-0.04c-0.04-0.06-0.02-0.14,0.03-0.18c0.48-0.38,0.98-0.74,1.49-1.07
	C111.05,56.18,111.11,56.08,111.17,55.96z"/>
<path d="M111.38,58.78c0,0.08,0,0.16,0,0.23c0,0.18-0.08,0.23-0.24,0.15c-1.09-0.56-1.12-0.81-0.09-0.74
	C111.23,58.45,111.38,58.6,111.38,58.78z"/>
</svg>
