<?xml version="1.0" encoding="utf-8"?>
<!-- Generator: Adobe Illustrator 27.7.0, SVG Export Plug-In . SVG Version: 6.00 Build 0)  -->
<svg version="1.1" id="Layer_1" xmlns="http://www.w3.org/2000/svg" xmlns:xlink="http://www.w3.org/1999/xlink" x="0px" y="0px"
	 viewBox="0 0 307.86 64.08" style="enable-background:new 0 0 307.86 64.08;" xml:space="preserve">
<style type="text/css">
	.st0{fill:#E6C4A3;}
	.st1{font-family:'Mobtakar-Fat';}
	.st2{font-size:34.2825px;}
</style>
<g>
	<path d="M295.24,59.78H11.09c-4.37,0-7.91-3.54-7.91-7.91V11.93c0-4.37,3.54-7.91,7.91-7.91h284.15c4.37,0,7.91,3.54,7.91,7.91
		v39.95C303.15,56.24,299.61,59.78,295.24,59.78z"/>
</g>
<g>
	<path class="st0" d="M30.93,16.69V13.5c0-1.1,0.23-1.95,0.69-2.57c0.46-0.62,1.05-1.05,1.78-1.3c0.73-0.25,1.5-0.38,2.3-0.38v2.5
		c-0.41,0-0.78,0.11-1.11,0.34c-0.33,0.23-0.5,0.7-0.5,1.41h3.63v3.19H30.93z M30.93,42.16V18.37h6.79v23.79H30.93z"/>
	<path class="st0" d="M41.14,42.16v-6.82H51.6c0-0.91-0.17-1.62-0.5-2.11c-0.33-0.49-0.76-0.83-1.29-1.01
		c-0.53-0.18-1.07-0.27-1.65-0.27H44.5v-5.66h3.43c1.28,0,2.53,0.13,3.74,0.38c1.21,0.25,2.31,0.7,3.29,1.35
		c0.98,0.65,1.76,1.57,2.33,2.74c0.57,1.18,0.86,2.7,0.86,4.58v6.82H41.14z"/>
	<path class="st0" d="M55.74,42.16v-6.82h5.86v-6.79h6.82v13.61H55.74z M63.29,51.04c-0.94,0-1.74-0.34-2.42-1.01
		c-0.67-0.67-1.01-1.48-1.01-2.42c0-0.94,0.34-1.74,1.01-2.42c0.67-0.67,1.48-1.01,2.42-1.01c0.94,0,1.74,0.34,2.42,1.01
		c0.67,0.67,1.01,1.48,1.01,2.42c0,0.94-0.34,1.74-1.01,2.42C65.03,50.7,64.22,51.04,63.29,51.04z"/>
	<path class="st0" d="M66.03,42.16v-6.82h5.86v-6.79h6.82v13.61H66.03z M75.22,27.14c-0.94,0-1.74-0.34-2.42-1.01
		c-0.67-0.67-1.01-1.48-1.01-2.42c0-0.94,0.34-1.74,1.01-2.42c0.67-0.67,1.48-1.01,2.42-1.01c0.94,0,1.74,0.34,2.42,1.01
		c0.67,0.67,1.01,1.48,1.01,2.42c0,0.94-0.34,1.74-1.01,2.42C76.96,26.81,76.15,27.14,75.22,27.14z"/>
	<polygon class="st0" points="76.31,42.16 76.31,35.37 82.1,35.37 82.1,18.37 88.93,18.37 88.93,42.16 	"/>
	<text transform="matrix(1 0 0 1 90.6388 42.1597)" class="st0 st1 st2"> </text>
	<rect x="103.15" y="18.37" class="st0" width="6.79" height="23.79"/>
	<path class="st0" d="M107.54,42.16v-6.82h5.86v-6.79h6.82v13.61H107.54z M116.72,27.14c-0.94,0-1.74-0.34-2.42-1.01
		c-0.67-0.67-1.01-1.48-1.01-2.42c0-0.94,0.34-1.74,1.01-2.42c0.67-0.67,1.48-1.01,2.42-1.01c0.94,0,1.74,0.34,2.42,1.01
		c0.67,0.67,1.01,1.48,1.01,2.42c0,0.94-0.34,1.74-1.01,2.42C118.47,26.81,117.66,27.14,116.72,27.14z"/>
	<path class="st0" d="M148.61,37.33l-4.8,4.83l-5.07-5.07c-0.43,1.17-1.06,2.12-1.89,2.86c-0.82,0.74-1.75,1.29-2.78,1.65
		c-1.03,0.35-2.09,0.54-3.19,0.57h-13.06v-6.82h4.73c-0.05-0.3-0.08-0.61-0.1-0.93c-0.02-0.32-0.03-0.65-0.03-0.99
		c0-2.01,0.47-3.66,1.41-4.95c0.94-1.29,2.09-2.23,3.46-2.83l-2.71-2.71l4.8-4.83L148.61,37.33z M130.88,35.34
		c0.48,0,0.93-0.16,1.34-0.48c0.41-0.32,0.62-0.8,0.62-1.44c0-0.66-0.2-1.15-0.6-1.47c-0.4-0.32-0.84-0.48-1.32-0.48
		c-0.48-0.02-0.93,0.13-1.35,0.46c-0.42,0.33-0.63,0.83-0.63,1.49c0,0.64,0.2,1.12,0.6,1.44C129.93,35.18,130.38,35.34,130.88,35.34
		z"/>
	<text transform="matrix(1 0 0 1 148.6017 42.1597)" class="st0 st1 st2"> </text>
	<path class="st0" d="M196.73,46.69l-4.53-4.53h-19.85l-4.53,4.53l-4.53-4.53h-2.19v-6.82h8.47l12.72-12.68l12.68,12.68h4.83v4.83
		l1.71,1.71L196.73,46.69z M175.07,18.37v8.81L168.28,34V18.37H175.07z M179.21,35.34h6.17l-3.09-3.09L179.21,35.34z"/>
	<path class="st0" d="M218.6,35.37h8.3v6.79h-29.48v-6.79h11.9l0.07-0.07l-7.44-7.17l4.8-4.83l7.2,7.92l7.2-7.92l4.8,4.83
		l-7.41,7.17L218.6,35.37z M214.25,22.86c-0.94,0-1.74-0.34-2.42-1.01c-0.67-0.67-1.01-1.48-1.01-2.42c0-0.94,0.34-1.74,1.01-2.42
		c0.67-0.67,1.48-1.01,2.42-1.01c0.94,0,1.74,0.34,2.42,1.01c0.67,0.67,1.01,1.48,1.01,2.42c0,0.94-0.34,1.74-1.01,2.42
		C215.99,22.52,215.18,22.86,214.25,22.86z"/>
	<path class="st0" d="M262.07,46.69l-4.53-4.53h-33.05v-6.82h5.79l-1.68-1.68l4.8-4.83l4.01,4.01l0.62-0.55l9.63-9.63l19.2,19.23
		L262.07,46.69z M238,27.21c-0.94,0-1.74-0.34-2.42-1.01c-0.67-0.67-1.01-1.48-1.01-2.42c0-0.94,0.34-1.74,1.01-2.42
		c0.67-0.67,1.48-1.01,2.42-1.01c0.94,0,1.74,0.34,2.42,1.01c0.67,0.67,1.01,1.48,1.01,2.42c0,0.94-0.34,1.74-1.01,2.42
		C239.74,26.88,238.94,27.21,238,27.21z M244.55,35.34h6.17l-3.05-3.05L244.55,35.34z"/>
	<rect x="268.57" y="18.37" class="st0" width="6.79" height="23.79"/>
</g>
<rect x="90.37" y="13.29" width="8.32" height="37.75"/>
<rect x="147.99" y="13.29" width="8.32" height="37.75"/>
</svg>
