<?xml version="1.0" encoding="utf-8"?>
<!-- Generator: Adobe Illustrator 27.7.0, SVG Export Plug-In . SVG Version: 6.00 Build 0)  -->
<svg version="1.1" id="Layer_1" xmlns="http://www.w3.org/2000/svg" xmlns:xlink="http://www.w3.org/1999/xlink" x="0px" y="0px"
	 viewBox="0 0 305.84 63.16" style="enable-background:new 0 0 305.84 63.16;" xml:space="preserve">
<style type="text/css">
	.st0{fill:#E6C4A3;}
	.st1{font-family:'Mobtakar-Fat';}
	.st2{font-size:34.2825px;}
	.st3{font-family:'AdobeArabic-Regular';}
</style>
<path d="M295.17,59.84H10.52c-4.24,0-7.68-3.44-7.68-7.68v-40.9c0-4.24,3.44-7.68,7.68-7.68h284.65c4.24,0,7.68,3.44,7.68,7.68v40.9
	C302.84,56.4,299.41,59.84,295.17,59.84z"/>
<g>
	<path class="st0" d="M98.32,16.74v-3.19c0-1.1,0.23-1.95,0.69-2.57c0.46-0.62,1.05-1.05,1.78-1.3c0.73-0.25,1.5-0.38,2.3-0.38v2.5
		c-0.41,0-0.78,0.11-1.11,0.34c-0.33,0.23-0.5,0.7-0.5,1.41h3.63v3.19H98.32z M98.32,42.21V18.42h6.79v23.79H98.32z"/>
	<path class="st0" d="M108.53,42.21v-6.82h10.46c0-0.91-0.17-1.62-0.5-2.11c-0.33-0.49-0.76-0.83-1.29-1.01
		c-0.53-0.18-1.07-0.27-1.65-0.27h-3.67v-5.66h3.43c1.28,0,2.53,0.13,3.74,0.38c1.21,0.25,2.31,0.7,3.29,1.35
		c0.98,0.65,1.76,1.57,2.33,2.74c0.57,1.18,0.86,2.7,0.86,4.58v6.82H108.53z"/>
	<path class="st0" d="M123.13,42.21v-6.82h5.86V28.6h6.82v13.61H123.13z M130.67,51.09c-0.94,0-1.74-0.34-2.42-1.01
		c-0.67-0.67-1.01-1.48-1.01-2.42c0-0.94,0.34-1.74,1.01-2.42c0.67-0.67,1.48-1.01,2.42-1.01c0.94,0,1.74,0.34,2.42,1.01
		c0.67,0.67,1.01,1.48,1.01,2.42c0,0.94-0.34,1.74-1.01,2.42C132.42,50.75,131.61,51.09,130.67,51.09z"/>
	<path class="st0" d="M133.42,42.21v-6.82h5.86V28.6h6.82v13.61H133.42z M142.6,27.19c-0.94,0-1.74-0.34-2.42-1.01
		c-0.67-0.67-1.01-1.48-1.01-2.42c0-0.94,0.34-1.74,1.01-2.42c0.67-0.67,1.48-1.01,2.42-1.01c0.94,0,1.74,0.34,2.42,1.01
		c0.67,0.67,1.01,1.48,1.01,2.42c0,0.94-0.34,1.74-1.01,2.42C144.35,26.86,143.54,27.19,142.6,27.19z"/>
	<text transform="matrix(1 0 0 1 147.7782 42.2104)" class="st0 st1 st2"> </text>
	<rect x="160.29" y="18.42" class="st0" width="6.79" height="23.79"/>
	<text transform="matrix(1 0 0 1 176.264 38.5766)" class="st0 st3 st2">ّ</text>
	<path class="st0" d="M164.68,42.21v-6.82h9.19V28.6h6.82v13.61H164.68z M173.28,50.23c-0.64,0.57-1.39,0.86-2.26,0.86
		c-0.94,0-1.74-0.34-2.42-1.01c-0.67-0.67-1.01-1.48-1.01-2.42c0-0.94,0.34-1.74,1.01-2.42c0.67-0.67,1.48-1.01,2.42-1.01
		c0.85,0,1.6,0.27,2.26,0.82c-0.62,0.75-0.93,1.62-0.93,2.61C172.36,48.64,172.66,49.5,173.28,50.23L173.28,50.23z M176.47,51.09
		c-0.94,0-1.74-0.34-2.42-1.01c-0.67-0.67-1.01-1.48-1.01-2.42c0-0.94,0.34-1.74,1.01-2.42c0.67-0.67,1.48-1.01,2.42-1.01
		c0.94,0,1.74,0.34,2.42,1.01c0.67,0.67,1.01,1.48,1.01,2.42c0,0.94-0.34,1.74-1.01,2.42C178.21,50.75,177.41,51.09,176.47,51.09z"
		/>
	<path class="st0" d="M209.07,37.38l-4.8,4.83l-5.07-5.07c-0.43,1.17-1.06,2.12-1.89,2.86c-0.82,0.74-1.75,1.29-2.78,1.65
		c-1.03,0.35-2.09,0.54-3.19,0.57h-13.06v-6.82h4.73c-0.05-0.3-0.08-0.61-0.1-0.93c-0.02-0.32-0.03-0.65-0.03-0.99
		c0-2.01,0.47-3.66,1.41-4.95c0.94-1.29,2.09-2.23,3.46-2.83l-2.71-2.71l4.8-4.83L209.07,37.38z M191.35,35.39
		c0.48,0,0.93-0.16,1.34-0.48c0.41-0.32,0.62-0.8,0.62-1.44c0-0.66-0.2-1.15-0.6-1.47c-0.4-0.32-0.84-0.48-1.32-0.48
		c-0.48-0.02-0.93,0.13-1.35,0.46c-0.42,0.33-0.63,0.83-0.63,1.49c0,0.64,0.2,1.12,0.6,1.44C190.39,35.23,190.84,35.39,191.35,35.39
		z"/>
</g>
<rect x="146.77" y="12.86" width="9.45" height="39.66"/>
</svg>
