<?xml version="1.0" encoding="utf-8"?>
<!-- Generator: Adobe Illustrator 27.7.0, SVG Export Plug-In . SVG Version: 6.00 Build 0)  -->
<svg version="1.1" id="Layer_1" xmlns="http://www.w3.org/2000/svg" xmlns:xlink="http://www.w3.org/1999/xlink" x="0px" y="0px"
	 viewBox="0 0 375 89" style="enable-background:new 0 0 375 89;" xml:space="preserve">
<style type="text/css">
	.st0{fill:none;stroke:#808080;stroke-width:0;stroke-miterlimit:10;}
	.st1{fill:none;stroke:#726254;stroke-width:0;stroke-miterlimit:10;}
	.st2{fill:#E3C4A8;}
</style>
<g>
	<path class="st0" d="M337.49,23.81c0-3.9-3.16-7.06-7.06-7.06H44.57c-3.9,0-7.06,3.16-7.06,7.06v41.39c0,3.9,3.16,7.06,7.06,7.06
		h285.85c3.9,0,7.06-3.16,7.06-7.06V23.81"/>
	<path class="st1" d="M304.78,44.84c0,0.08,0.08,0.11,0.13,0.06c3.11-3.05,5.36-6.64,6.74-10.78c0.06-0.2-0.08-0.4-0.29-0.4
		l-9.11-0.1c-0.22-0.01-0.41-0.17-0.45-0.39l-0.66-3.85c-0.04-0.26-0.31-0.44-0.57-0.38l-4.93,1.09c-0.22,0.05-0.32,0.18-0.3,0.4
		l0.48,8.83c0.02,0.2,0.12,0.31,0.32,0.31h8.29c0.33,0,0.49,0.17,0.48,0.49L304.78,44.84"/>
	<path class="st1" d="M78.21,33.65l-8.98,0.06c-0.17,0.01-0.28-0.08-0.3-0.26l-0.6-3.94c-0.04-0.3-0.33-0.5-0.62-0.44l-4.91,0.95
		c-0.23,0.04-0.35,0.19-0.34,0.43l0.48,8.87c0.01,0.2,0.12,0.31,0.33,0.31h8.28c0.32,0,0.49,0.17,0.48,0.49l-0.07,4.06
		c-0.01,0.58,0.19,0.65,0.58,0.24c2.8-2.9,4.85-6.27,6.14-10.12C78.78,33.98,78.54,33.65,78.21,33.65"/>
	<path class="st1" d="M220.39,50.66c-5.11-5.66-11.13-11.06-15.72-17.77c-0.17-0.25-0.38-0.3-0.63-0.16l-4.48,2.38
		c-0.29,0.16-0.41,0.52-0.25,0.82c0.91,1.72,2.05,3.32,3.4,4.79c4.39,4.76,8.84,9.46,13.37,14.09c0.16,0.17,0.34,0.17,0.51,0.01
		l3.77-3.51C220.54,51.14,220.56,50.85,220.39,50.66"/>
	<path class="st1" d="M257.49,60.67c-0.03,0.4,0.15,0.57,0.55,0.53l5.95-0.56c0.23-0.02,0.35-0.15,0.36-0.38
		c0.19-5.08,0.44-10.94-2.4-15.16c-2.71-4.01-5.42-8.06-8.15-12.11c-0.13-0.19-0.29-0.22-0.48-0.1l-4.93,2.93
		c-0.14,0.08-0.19,0.27-0.1,0.4c2.18,3.29,4.4,6.59,6.62,9.91C257.89,50.58,257.87,55.32,257.49,60.67"/>
	<path class="st1" d="M162.19,33.76c-7.31,0.08-13.82,0.73-18.61-0.77c-0.25-0.08-0.41,0.01-0.48,0.27l-1.27,4.97
		c-0.07,0.26,0.07,0.53,0.33,0.63c3.71,1.45,9.42,0.73,13.48,0.8c0.2,0.01,0.37,0.16,0.37,0.37v6.35c0,0.1,0.08,0.19,0.18,0.21
		c0.1,0.01,0.2-0.05,0.22-0.16c1.07-4.54,3.06-8.62,5.99-12.23C162.64,33.9,162.57,33.75,162.19,33.76"/>
	<path class="st1" d="M213.95,39.91l-0.49,1.31c-0.1,0.26-0.05,0.48,0.14,0.67l3.35,3.49c0.21,0.22,0.41,0.21,0.6-0.03
		c2.53-3.25,3.47-6.95,2.84-11.11c-0.04-0.2-0.15-0.32-0.35-0.34l-7.9-0.83c-0.17-0.02-0.29,0.05-0.34,0.22l-1.43,4.59
		c-0.11,0.34,0.01,0.56,0.35,0.66l2.98,0.88C213.96,39.49,214.04,39.65,213.95,39.91"/>
	<path class="st1" d="M91.54,33.61c-3.1,0.34-6.23,0.1-9.26-0.49c-0.29-0.06-0.48,0.05-0.56,0.34l-1.34,4.92
		c-0.08,0.31,0.03,0.51,0.34,0.6c5.27,1.54,8.97-0.13,11.09-5C91.93,33.7,91.84,33.58,91.54,33.61"/>
	<path class="st1" d="M117.17,33.6c-6.97,0.32-15.09,0.82-21.91-0.47c-0.29-0.05-0.48,0.06-0.55,0.35l-1.21,4.99
		c-0.06,0.25,0.1,0.49,0.35,0.53c3.94,0.69,6.98,2.68,9.11,5.98c0.23,0.35,0.35,0.32,0.35-0.1v-4.79c0-0.31,0.16-0.46,0.47-0.46
		h12.63c0.23,0,0.37-0.12,0.4-0.35l0.73-5.25C117.58,33.8,117.4,33.59,117.17,33.6"/>
	<path class="st1" d="M132.94,40.01v6.54c0,0.08,0.06,0.15,0.14,0.16c0.08,0.01,0.16-0.05,0.18-0.13c1.11-4.63,3.15-8.8,6.12-12.49
		c0.25-0.32,0.18-0.47-0.23-0.44c-6.21,0.37-12.4,0.22-18.59-0.45c-0.32-0.04-0.53,0.1-0.61,0.42l-1.18,4.73
		c-0.07,0.27,0.04,0.45,0.3,0.54c3.96,1.34,9.31,0.7,13.5,0.74C132.81,39.65,132.94,39.77,132.94,40.01"/>
	<path class="st1" d="M169.03,40.15l-0.01,5.4c0,0.06,0.04,0.11,0.1,0.12c0.06,0.01,0.12-0.03,0.13-0.08
		c1.37-4.24,3.49-8.06,6.35-11.48c0.18-0.22,0.01-0.54-0.26-0.52c-3.01,0.26-5.98,0.08-8.92-0.51c-0.24-0.04-0.48,0.1-0.55,0.34
		l-1.3,4.88c-0.08,0.31,0.11,0.61,0.41,0.68l3.76,0.81C168.91,39.82,169.03,39.98,169.03,40.15"/>
	<path class="st1" d="M197.5,34.08l-10.35-0.92c-0.1-0.01-0.19,0.07-0.2,0.17l-0.4,4.39c-0.09,1,0.61,1.88,1.55,1.96l7.3,0.65
		c0.94,0.08,1.79-0.65,1.88-1.65l0.39-4.4C197.68,34.19,197.6,34.1,197.5,34.08"/>
	<path class="st1" d="M262.67,40.09l-1.22,1.73c-0.14,0.2-0.15,0.41-0.01,0.62l2.42,3.66c0.15,0.23,0.35,0.28,0.59,0.14
		c4.62-2.65,5.12-7.16,4.75-12.05c-0.02-0.23-0.14-0.36-0.38-0.38l-7.56-0.59c-0.19-0.01-0.31,0.07-0.36,0.25l-1.33,4.6
		c-0.08,0.29,0.02,0.47,0.31,0.55l2.56,0.78C262.72,39.5,262.85,39.84,262.67,40.09"/>
	<path class="st1" d="M271.74,33.57l-1.23,4.72c-0.06,0.24,0.07,0.49,0.32,0.57c3.9,1.33,6.76,2.29,9.12,6.13
		c0.25,0.4,0.37,0.36,0.37-0.1V40.1c0-0.32,0.16-0.47,0.47-0.47h12.64c0.25,0,0.38-0.12,0.41-0.37l0.62-4.99
		c0.04-0.3-0.1-0.45-0.39-0.45c-6.26-0.1-12.5-0.17-18.72-0.21c-0.94-0.01-2.03-0.44-3.01-0.48
		C272.03,33.11,271.82,33.26,271.74,33.57"/>
	<path class="st1" d="M238.92,42.11c1.14-10.84-10.07-9.01-16.17-8.06c-0.25,0.04-0.41,0.26-0.38,0.51l0.65,5.01
		c0.04,0.31,0.33,0.51,0.63,0.45c4.5-0.9,11.29-1.23,14.98,2.21C238.79,42.38,238.9,42.34,238.92,42.11"/>
	<path class="st1" d="M139.32,35.94c-3.42,5.02-6.2,11.8-6.31,17.95c0,0.24,0.12,0.36,0.36,0.36l5.93-0.01c0.26,0,0.4-0.13,0.4-0.4
		l0.01-17.78C139.7,35.85,139.44,35.77,139.32,35.94"/>
	<path class="st1" d="M162.38,35.93c-3.56,5.29-6.13,11.72-6.34,17.95c-0.01,0.24,0.11,0.36,0.35,0.36h6.01c0.26,0,0.4-0.13,0.4-0.4
		l-0.05-17.81C162.74,35.85,162.49,35.77,162.38,35.93"/>
	<path class="st1" d="M175.48,36.12c-3.84,4.82-6.66,11.7-6.35,18.04c0.01,0.25,0.14,0.36,0.39,0.33l5.95-0.68
		c0.23-0.02,0.41-0.23,0.41-0.46V36.25C175.88,35.82,175.74,35.78,175.48,36.12"/>
	<path class="st1" d="M91.81,36.33c-1.38,2.32-3.4,3.73-6.05,4.24c-0.29,0.05-0.44,0.23-0.44,0.53v5.65c0,0.25,0.12,0.35,0.37,0.32
		l5.95-0.74c0.28-0.04,0.41-0.19,0.41-0.46l0.07-9.46C92.11,36.25,91.89,36.18,91.81,36.33"/>
	<path class="st1" d="M311.39,37.71c-2.3,5.38-6.17,9.16-11.58,11.35c-0.27,0.11-0.35,0.3-0.22,0.56l2.02,4.45
		c0.09,0.2,0.24,0.28,0.46,0.23c8.84-1.92,9.92-8.67,9.75-16.51C311.79,37.12,311.65,37.09,311.39,37.71"/>
	<path class="st1" d="M69.28,54.38c9.07-2.47,9.7-8.65,9.58-16.72c0-0.21-0.29-0.26-0.38-0.07c-2.23,5.45-6.06,9.26-11.51,11.42
		c-0.28,0.11-0.35,0.3-0.24,0.56l1.96,4.53C68.8,54.33,69.04,54.45,69.28,54.38"/>
	<path class="st1" d="M238.87,46.8c-0.13-3.83-2.38-5.84-6.75-6.03c-0.24-0.01-0.33,0.11-0.28,0.35c1.06,4.2,0.71,10.27-3.01,13.16
		c-0.26,0.2-0.23,0.32,0.1,0.33C234.11,54.86,239.08,52.94,238.87,46.8"/>
	<path class="st1" d="M115.11,40.97c0-0.11-0.09-0.21-0.21-0.21l-6.15,0.01c-0.12,0-0.21,0.09-0.21,0.21l0.02,13.06
		c0,0.11,0.09,0.21,0.21,0.21l6.15-0.01c0.12,0,0.21-0.09,0.21-0.21L115.11,40.97"/>
	<path class="st1" d="M120.99,50.01l-2.56,0.71c-0.32,0.09-0.43,0.29-0.32,0.61l1.4,4.25c0.08,0.25,0.25,0.34,0.51,0.27l8.44-2.39
		c0.29-0.08,0.39-0.27,0.29-0.56c-1.28-3.91-2.68-7.4-1.49-11.61c0.07-0.26-0.03-0.4-0.31-0.4l-5.24-0.08
		c-0.26-0.01-0.45,0.11-0.55,0.36c-1.12,2.75-1.09,5.5,0.12,8.23C121.4,49.64,121.25,49.94,120.99,50.01"/>
	<path class="st1" d="M144.01,50l-2.5,0.7c-0.32,0.1-0.43,0.3-0.33,0.61l1.36,4.18c0.1,0.31,0.31,0.41,0.62,0.33l8.36-2.36
		c0.28-0.07,0.37-0.25,0.28-0.53c-1.15-3.41-2.8-7.88-1.39-11.64c0.1-0.26,0.01-0.4-0.28-0.41l-5.21-0.1
		c-0.23-0.01-0.44,0.12-0.55,0.33c-1.71,3.33-0.75,5.29-0.05,8.35C144.38,49.69,144.24,49.93,144.01,50"/>
	<path class="st1" d="M292.11,41.07c0-0.17-0.14-0.31-0.31-0.31l-5.95,0.01c-0.17,0-0.31,0.14-0.31,0.31l0.02,12.87
		c0,0.17,0.14,0.31,0.31,0.31l5.96-0.01c0.17,0,0.31-0.14,0.31-0.31L292.11,41.07"/>
	<path class="st1" d="M97.97,41.46c-0.82-0.56-1.22-0.35-1.22,0.64v11.77c0,0.25,0.13,0.38,0.38,0.38h5.57
		c0.28,0,0.43-0.13,0.47-0.4C103.95,48.52,102.22,44.4,97.97,41.46"/>
	<path class="st1" d="M197.06,41.41c0-0.1-0.09-0.2-0.2-0.2h-6.36c-0.1,0-0.19,0.09-0.19,0.2v19.23c0,0.11,0.09,0.2,0.19,0.2h6.36
		c0.11,0,0.2-0.09,0.2-0.2V41.41"/>
	<path class="st1" d="M274.93,41.44c-0.79-0.54-1.18-0.33-1.18,0.62v11.81c0,0.21,0.17,0.38,0.38,0.38h5.62
		c0.26,0,0.4-0.13,0.44-0.38C280.97,48.54,279.22,44.39,274.93,41.44"/>
	<path class="st1" d="M206.25,48.25v-1.64c0-0.25-0.1-0.48-0.26-0.65l-3.34-3.5c-0.27-0.29-0.74-0.24-0.95,0.09
		c-2.21,3.44-2.93,7.24-2.16,11.39c0.04,0.21,0.17,0.32,0.38,0.32l8.43-0.02c0.29,0,0.53-0.24,0.53-0.53v-4.6
		c0-0.32-0.16-0.47-0.46-0.47h-1.79C206.38,48.62,206.25,48.5,206.25,48.25"/>
	<path class="st1" d="M222.63,53.85c4.57,0.79,7.52-0.65,8.24-5.28c0.05-0.29-0.07-0.41-0.37-0.37c-2.33,0.38-4.64,0.32-6.96-0.19
		c-0.25-0.05-0.49,0.11-0.52,0.36l-0.67,5.09C222.32,53.68,222.41,53.81,222.63,53.85"/>
</g>
<path d="M222.63,53.85c4.57,0.79,7.52-0.65,8.24-5.28c0.05-0.29-0.07-0.41-0.37-0.37c-2.33,0.38-4.64,0.32-6.96-0.19
	c-0.25-0.05-0.49,0.11-0.52,0.36l-0.67,5.09C222.32,53.68,222.41,53.81,222.63,53.85z M206.25,48.25v-1.64
	c0-0.25-0.1-0.48-0.26-0.65l-3.34-3.5c-0.27-0.29-0.74-0.24-0.95,0.09c-2.21,3.44-2.93,7.24-2.16,11.39
	c0.04,0.21,0.17,0.32,0.38,0.32l8.43-0.02c0.29,0,0.53-0.24,0.53-0.53v-4.6c0-0.32-0.16-0.47-0.46-0.47h-1.79
	C206.38,48.62,206.25,48.5,206.25,48.25 M274.93,41.44c-0.79-0.54-1.18-0.33-1.18,0.62v11.81c0,0.21,0.17,0.38,0.38,0.38h5.62
	c0.26,0,0.4-0.13,0.44-0.38C280.97,48.54,279.22,44.39,274.93,41.44 M197.06,41.41c0-0.1-0.09-0.2-0.2-0.2h-6.36
	c-0.1,0-0.19,0.09-0.19,0.2v19.23c0,0.11,0.09,0.2,0.19,0.2h6.36c0.11,0,0.2-0.09,0.2-0.2V41.41 M97.97,41.46
	c-0.82-0.56-1.22-0.35-1.22,0.64v11.77c0,0.25,0.13,0.38,0.38,0.38h5.57c0.28,0,0.43-0.13,0.47-0.4
	C103.95,48.52,102.22,44.4,97.97,41.46 M292.11,41.07c0-0.17-0.14-0.31-0.31-0.31l-5.95,0.01c-0.17,0-0.31,0.14-0.31,0.31
	l0.02,12.87c0,0.17,0.14,0.31,0.31,0.31l5.96-0.01c0.17,0,0.31-0.14,0.31-0.31L292.11,41.07 M144.01,50l-2.5,0.7
	c-0.32,0.1-0.43,0.3-0.33,0.61l1.36,4.18c0.1,0.31,0.31,0.41,0.62,0.33l8.36-2.36c0.28-0.07,0.37-0.25,0.28-0.53
	c-1.15-3.41-2.8-7.88-1.39-11.64c0.1-0.26,0.01-0.4-0.28-0.41l-5.21-0.1c-0.23-0.01-0.44,0.12-0.55,0.33
	c-1.71,3.33-0.75,5.29-0.05,8.35C144.38,49.69,144.24,49.93,144.01,50 M120.99,50.01l-2.56,0.71c-0.32,0.09-0.43,0.29-0.32,0.61
	l1.4,4.25c0.08,0.25,0.25,0.34,0.51,0.27l8.44-2.39c0.29-0.08,0.39-0.27,0.29-0.56c-1.28-3.91-2.68-7.4-1.49-11.61
	c0.07-0.26-0.03-0.4-0.31-0.4l-5.24-0.08c-0.26-0.01-0.45,0.11-0.55,0.36c-1.12,2.75-1.09,5.5,0.12,8.23
	C121.4,49.64,121.25,49.94,120.99,50.01 M115.11,40.97c0-0.11-0.09-0.21-0.21-0.21l-6.15,0.01c-0.12,0-0.21,0.09-0.21,0.21
	l0.02,13.06c0,0.11,0.09,0.21,0.21,0.21l6.15-0.01c0.12,0,0.21-0.09,0.21-0.21L115.11,40.97 M238.87,46.8
	c-0.13-3.83-2.38-5.84-6.75-6.03c-0.24-0.01-0.33,0.11-0.28,0.35c1.06,4.2,0.71,10.27-3.01,13.16c-0.26,0.2-0.23,0.32,0.1,0.33
	C234.11,54.86,239.08,52.94,238.87,46.8 M69.28,54.38c9.07-2.47,9.7-8.65,9.58-16.72c0-0.21-0.29-0.26-0.38-0.07
	c-2.23,5.45-6.06,9.26-11.51,11.42c-0.28,0.11-0.35,0.3-0.24,0.56l1.96,4.53C68.8,54.33,69.04,54.45,69.28,54.38 M311.39,37.71
	c-2.3,5.38-6.17,9.16-11.58,11.35c-0.27,0.11-0.35,0.3-0.22,0.56l2.02,4.45c0.09,0.2,0.24,0.28,0.46,0.23
	c8.84-1.92,9.92-8.67,9.75-16.51C311.79,37.12,311.65,37.09,311.39,37.71 M91.81,36.33c-1.38,2.32-3.4,3.73-6.05,4.24
	c-0.29,0.05-0.44,0.23-0.44,0.53v5.65c0,0.25,0.12,0.35,0.37,0.32l5.95-0.74c0.28-0.04,0.41-0.19,0.41-0.46l0.07-9.46
	C92.11,36.25,91.89,36.18,91.81,36.33 M175.48,36.12c-3.84,4.82-6.66,11.7-6.35,18.04c0.01,0.25,0.14,0.36,0.39,0.33l5.95-0.68
	c0.23-0.02,0.41-0.23,0.41-0.46V36.25C175.88,35.82,175.74,35.78,175.48,36.12 M162.38,35.93c-3.56,5.29-6.13,11.72-6.34,17.95
	c-0.01,0.24,0.11,0.36,0.35,0.36h6.01c0.26,0,0.4-0.13,0.4-0.4l-0.05-17.81C162.74,35.85,162.49,35.77,162.38,35.93 M139.32,35.94
	c-3.42,5.02-6.2,11.8-6.31,17.95c0,0.24,0.12,0.36,0.36,0.36l5.93-0.01c0.26,0,0.4-0.13,0.4-0.4l0.01-17.78
	C139.7,35.85,139.44,35.77,139.32,35.94 M238.92,42.11c1.14-10.84-10.07-9.01-16.17-8.06c-0.25,0.04-0.41,0.26-0.38,0.51l0.65,5.01
	c0.04,0.31,0.33,0.51,0.63,0.45c4.5-0.9,11.29-1.23,14.98,2.21C238.79,42.38,238.9,42.34,238.92,42.11 M271.74,33.57l-1.23,4.72
	c-0.06,0.24,0.07,0.49,0.32,0.57c3.9,1.33,6.76,2.29,9.12,6.13c0.25,0.4,0.37,0.36,0.37-0.1V40.1c0-0.32,0.16-0.47,0.47-0.47h12.64
	c0.25,0,0.38-0.12,0.41-0.37l0.62-4.99c0.04-0.3-0.1-0.45-0.39-0.45c-6.26-0.1-12.5-0.17-18.72-0.21c-0.94-0.01-2.03-0.44-3.01-0.48
	C272.03,33.11,271.82,33.26,271.74,33.57 M262.67,40.09l-1.22,1.73c-0.14,0.2-0.15,0.41-0.01,0.62l2.42,3.66
	c0.15,0.23,0.35,0.28,0.59,0.14c4.62-2.65,5.12-7.16,4.75-12.05c-0.02-0.23-0.14-0.36-0.38-0.38l-7.56-0.59
	c-0.19-0.01-0.31,0.07-0.36,0.25l-1.33,4.6c-0.08,0.29,0.02,0.47,0.31,0.55l2.56,0.78C262.72,39.5,262.85,39.84,262.67,40.09
	 M197.5,34.08l-10.35-0.92c-0.1-0.01-0.19,0.07-0.2,0.17l-0.4,4.39c-0.09,1,0.61,1.88,1.55,1.96l7.3,0.65
	c0.94,0.08,1.79-0.65,1.88-1.65l0.39-4.4C197.68,34.19,197.6,34.1,197.5,34.08 M169.03,40.15l-0.01,5.4c0,0.06,0.04,0.11,0.1,0.12
	c0.06,0.01,0.12-0.03,0.13-0.08c1.37-4.24,3.49-8.06,6.35-11.48c0.18-0.22,0.01-0.54-0.26-0.52c-3.01,0.26-5.98,0.08-8.92-0.51
	c-0.24-0.04-0.48,0.1-0.55,0.34l-1.3,4.88c-0.08,0.31,0.11,0.61,0.41,0.68l3.76,0.81C168.91,39.82,169.03,39.98,169.03,40.15
	 M132.94,40.01v6.54c0,0.08,0.06,0.15,0.14,0.16c0.08,0.01,0.16-0.05,0.18-0.13c1.11-4.63,3.15-8.8,6.12-12.49
	c0.25-0.32,0.18-0.47-0.23-0.44c-6.21,0.37-12.4,0.22-18.59-0.45c-0.32-0.04-0.53,0.1-0.61,0.42l-1.18,4.73
	c-0.07,0.27,0.04,0.45,0.3,0.54c3.96,1.34,9.31,0.7,13.5,0.74C132.81,39.65,132.94,39.77,132.94,40.01 M117.17,33.6
	c-6.97,0.32-15.09,0.82-21.91-0.47c-0.29-0.05-0.48,0.06-0.55,0.35l-1.21,4.99c-0.06,0.25,0.1,0.49,0.35,0.53
	c3.94,0.69,6.98,2.68,9.11,5.98c0.23,0.35,0.35,0.32,0.35-0.1v-4.79c0-0.31,0.16-0.46,0.47-0.46h12.63c0.23,0,0.37-0.12,0.4-0.35
	l0.73-5.25C117.58,33.8,117.4,33.59,117.17,33.6 M91.54,33.61c-3.1,0.34-6.23,0.1-9.26-0.49c-0.29-0.06-0.48,0.05-0.56,0.34
	l-1.34,4.92c-0.08,0.31,0.03,0.51,0.34,0.6c5.27,1.54,8.97-0.13,11.09-5C91.93,33.7,91.84,33.58,91.54,33.61 M213.95,39.91
	l-0.49,1.31c-0.1,0.26-0.05,0.48,0.14,0.67l3.35,3.49c0.21,0.22,0.41,0.21,0.6-0.03c2.53-3.25,3.47-6.95,2.84-11.11
	c-0.04-0.2-0.15-0.32-0.35-0.34l-7.9-0.83c-0.17-0.02-0.29,0.05-0.34,0.22l-1.43,4.59c-0.11,0.34,0.01,0.56,0.35,0.66l2.98,0.88
	C213.96,39.49,214.04,39.65,213.95,39.91 M162.19,33.76c-7.31,0.08-13.82,0.73-18.61-0.77c-0.25-0.08-0.41,0.01-0.48,0.27
	l-1.27,4.97c-0.07,0.26,0.07,0.53,0.33,0.63c3.71,1.45,9.42,0.73,13.48,0.8c0.2,0.01,0.37,0.16,0.37,0.37v6.35
	c0,0.1,0.08,0.19,0.18,0.21c0.1,0.01,0.2-0.05,0.22-0.16c1.07-4.54,3.06-8.62,5.99-12.23C162.64,33.9,162.57,33.75,162.19,33.76
	 M257.49,60.67c-0.03,0.4,0.15,0.57,0.55,0.53l5.95-0.56c0.23-0.02,0.35-0.15,0.36-0.38c0.19-5.08,0.44-10.94-2.4-15.16
	c-2.71-4.01-5.42-8.06-8.15-12.11c-0.13-0.19-0.29-0.22-0.48-0.1l-4.93,2.93c-0.14,0.08-0.19,0.27-0.1,0.4
	c2.18,3.29,4.4,6.59,6.62,9.91C257.89,50.58,257.87,55.32,257.49,60.67 M220.39,50.66c-5.11-5.66-11.13-11.06-15.72-17.77
	c-0.17-0.25-0.38-0.3-0.63-0.16l-4.48,2.38c-0.29,0.16-0.41,0.52-0.25,0.82c0.91,1.72,2.05,3.32,3.4,4.79
	c4.39,4.76,8.84,9.46,13.37,14.09c0.16,0.17,0.34,0.17,0.51,0.01l3.77-3.51C220.54,51.14,220.56,50.85,220.39,50.66 M78.21,33.65
	l-8.98,0.06c-0.17,0.01-0.28-0.08-0.3-0.26l-0.6-3.94c-0.04-0.3-0.33-0.5-0.62-0.44l-4.91,0.95c-0.23,0.04-0.35,0.19-0.34,0.43
	l0.48,8.87c0.01,0.2,0.12,0.31,0.33,0.31h8.28c0.32,0,0.49,0.17,0.48,0.49l-0.07,4.06c-0.01,0.58,0.19,0.65,0.58,0.24
	c2.8-2.9,4.85-6.27,6.14-10.12C78.78,33.98,78.54,33.65,78.21,33.65 M304.78,44.84c0,0.08,0.08,0.11,0.13,0.06
	c3.11-3.05,5.36-6.64,6.74-10.78c0.06-0.2-0.08-0.4-0.29-0.4l-9.11-0.1c-0.22-0.01-0.41-0.17-0.45-0.39l-0.66-3.85
	c-0.04-0.26-0.31-0.44-0.57-0.38l-4.93,1.09c-0.22,0.05-0.32,0.18-0.3,0.4l0.48,8.83c0.02,0.2,0.12,0.31,0.32,0.31h8.29
	c0.33,0,0.49,0.17,0.48,0.49L304.78,44.84 M337.49,65.19c0,3.9-3.16,7.06-7.06,7.06H44.57c-3.9,0-7.06-3.16-7.06-7.06V23.81
	c0-3.9,3.16-7.06,7.06-7.06h285.85c3.9,0,7.06,3.16,7.06,7.06V65.19"/>
<path class="st2" d="M304.78,44.84l0.13-4.72c0.01-0.33-0.15-0.49-0.48-0.49h-8.29c-0.2,0-0.31-0.1-0.32-0.31l-0.48-8.83
	c-0.01-0.22,0.08-0.35,0.3-0.4l4.93-1.09c0.26-0.06,0.52,0.11,0.57,0.38l0.66,3.85c0.04,0.22,0.23,0.38,0.45,0.39l9.11,0.1
	c0.2,0,0.35,0.2,0.29,0.4c-1.37,4.13-3.62,7.73-6.74,10.78C304.86,44.95,304.78,44.91,304.78,44.84z"/>
<path class="st2" d="M69.23,33.71l8.98-0.06c0.33,0,0.57,0.32,0.47,0.64c-1.3,3.85-3.35,7.21-6.14,10.12
	c-0.4,0.41-0.59,0.34-0.58-0.24l0.07-4.06c0.01-0.32-0.16-0.49-0.48-0.49h-8.28c-0.21,0-0.32-0.1-0.33-0.31l-0.48-8.87
	c-0.01-0.24,0.11-0.38,0.34-0.43l4.91-0.95c0.29-0.06,0.58,0.14,0.62,0.44l0.6,3.94C68.95,33.63,69.05,33.72,69.23,33.71z"/>
<path class="st2" d="M204.67,32.89c4.59,6.71,10.61,12.1,15.72,17.77c0.17,0.19,0.16,0.49-0.03,0.66l-3.77,3.51
	c-0.17,0.17-0.34,0.17-0.51-0.01c-4.52-4.63-8.98-9.33-13.37-14.09c-1.36-1.48-2.5-3.08-3.4-4.79c-0.16-0.3-0.04-0.67,0.25-0.82
	l4.48-2.38C204.29,32.59,204.5,32.64,204.67,32.89z"/>
<path class="st2" d="M257.49,60.67c0.38-5.35,0.4-10.09-2.58-14.54c-2.23-3.32-4.44-6.62-6.62-9.91c-0.09-0.14-0.04-0.32,0.1-0.4
	l4.93-2.93c0.2-0.11,0.35-0.08,0.48,0.1c2.73,4.06,5.44,8.1,8.15,12.11c2.84,4.21,2.59,10.08,2.4,15.16
	c-0.01,0.23-0.13,0.36-0.36,0.38l-5.95,0.56C257.64,61.24,257.46,61.07,257.49,60.67z"/>
<path class="st2" d="M143.58,32.99c4.79,1.5,11.29,0.86,18.61,0.77c0.38-0.01,0.45,0.14,0.21,0.43c-2.93,3.62-4.93,7.69-5.99,12.23
	c-0.02,0.1-0.12,0.16-0.22,0.16c-0.1-0.01-0.18-0.1-0.18-0.21v-6.35c0-0.2-0.17-0.36-0.37-0.37c-4.06-0.07-9.77,0.65-13.48-0.8
	c-0.26-0.1-0.4-0.37-0.33-0.63l1.27-4.97C143.17,32.99,143.33,32.9,143.58,32.99z"/>
<path class="st2" d="M213.7,39.42l-2.98-0.88c-0.34-0.1-0.46-0.32-0.35-0.66l1.43-4.59c0.05-0.17,0.16-0.24,0.34-0.22l7.9,0.83
	c0.2,0.02,0.31,0.14,0.35,0.34c0.63,4.16-0.32,7.87-2.84,11.11c-0.19,0.24-0.39,0.25-0.6,0.03l-3.35-3.49
	c-0.19-0.19-0.24-0.42-0.14-0.67l0.49-1.31C214.04,39.65,213.96,39.49,213.7,39.42z"/>
<path class="st2" d="M82.28,33.12c3.03,0.6,6.16,0.83,9.26,0.49c0.3-0.03,0.39,0.09,0.27,0.37c-2.12,4.87-5.82,6.54-11.09,5
	c-0.31-0.09-0.42-0.29-0.34-0.6l1.34-4.92C81.8,33.17,81.99,33.06,82.28,33.12z"/>
<path class="st2" d="M95.26,33.13c6.82,1.29,14.94,0.79,21.91,0.47c0.23-0.02,0.42,0.19,0.38,0.42l-0.73,5.25
	c-0.04,0.23-0.17,0.35-0.4,0.35h-12.63c-0.32,0-0.47,0.16-0.47,0.46v4.79c0,0.43-0.11,0.46-0.35,0.1c-2.14-3.3-5.18-5.29-9.11-5.98
	c-0.25-0.04-0.41-0.29-0.35-0.53l1.21-4.99C94.78,33.19,94.97,33.08,95.26,33.13z"/>
<path class="st2" d="M132.56,39.64c-4.19-0.04-9.54,0.6-13.5-0.74c-0.26-0.09-0.37-0.27-0.3-0.54l1.18-4.73
	c0.08-0.32,0.29-0.46,0.61-0.42c6.19,0.67,12.38,0.82,18.59,0.45c0.41-0.02,0.49,0.12,0.23,0.44c-2.97,3.7-5.01,7.86-6.12,12.49
	c-0.02,0.08-0.1,0.14-0.18,0.13c-0.08-0.01-0.14-0.08-0.14-0.16v-6.54C132.94,39.77,132.81,39.65,132.56,39.64z"/>
<path class="st2" d="M168.74,39.78l-3.76-0.81c-0.31-0.07-0.49-0.38-0.41-0.68l1.3-4.88c0.07-0.24,0.31-0.38,0.55-0.34
	c2.95,0.59,5.92,0.76,8.92,0.51c0.28-0.02,0.44,0.3,0.26,0.52c-2.87,3.42-4.98,7.25-6.35,11.48c-0.01,0.05-0.07,0.09-0.13,0.08
	c-0.05-0.01-0.1-0.06-0.1-0.12l0.01-5.4C169.03,39.98,168.91,39.82,168.74,39.78z"/>
<path class="st2" d="M197.5,34.08c0.11,0.01,0.18,0.1,0.17,0.2l-0.39,4.4c-0.09,1-0.93,1.73-1.88,1.65l-7.3-0.65
	c-0.95-0.08-1.64-0.96-1.55-1.96l0.4-4.39c0.01-0.1,0.1-0.18,0.2-0.17L197.5,34.08z"/>
<path class="st2" d="M262.44,39.42l-2.56-0.78c-0.29-0.08-0.39-0.27-0.31-0.55l1.33-4.6c0.05-0.18,0.17-0.26,0.36-0.25l7.56,0.59
	c0.23,0.01,0.36,0.14,0.38,0.38c0.38,4.89-0.13,9.4-4.75,12.05c-0.24,0.13-0.44,0.09-0.59-0.14l-2.42-3.66
	c-0.14-0.21-0.13-0.42,0.01-0.62l1.22-1.73C262.85,39.84,262.72,39.5,262.44,39.42z"/>
<path class="st2" d="M272.35,33.12c0.98,0.04,2.07,0.47,3.01,0.48c6.22,0.04,12.46,0.11,18.72,0.21c0.29,0,0.43,0.15,0.39,0.45
	l-0.62,4.99c-0.03,0.25-0.17,0.37-0.41,0.37h-12.64c-0.32,0-0.47,0.16-0.47,0.47v4.78c0,0.46-0.12,0.5-0.37,0.1
	c-2.36-3.83-5.22-4.8-9.12-6.13c-0.24-0.08-0.38-0.33-0.32-0.57l1.23-4.72C271.82,33.26,272.03,33.11,272.35,33.12z"/>
<path class="st2" d="M222.75,34.04c6.1-0.95,17.31-2.77,16.17,8.06c-0.02,0.23-0.13,0.27-0.3,0.11c-3.69-3.43-10.48-3.1-14.98-2.21
	c-0.3,0.06-0.59-0.14-0.63-0.45l-0.65-5.01C222.34,34.31,222.5,34.08,222.75,34.04z"/>
<path class="st2" d="M133.01,53.89c0.11-6.14,2.89-12.93,6.31-17.95c0.12-0.17,0.38-0.09,0.38,0.12l-0.01,17.78
	c0,0.26-0.13,0.4-0.4,0.4l-5.93,0.01C133.12,54.25,133.01,54.13,133.01,53.89z"/>
<path class="st2" d="M156.04,53.89c0.2-6.23,2.78-12.66,6.34-17.95c0.11-0.16,0.37-0.08,0.37,0.11l0.05,17.81
	c0,0.26-0.13,0.4-0.4,0.4h-6.01C156.15,54.25,156.03,54.13,156.04,53.89z"/>
<path class="st2" d="M169.12,54.15c-0.31-6.34,2.51-13.21,6.35-18.04c0.26-0.34,0.4-0.29,0.4,0.13v17.09c0,0.24-0.18,0.44-0.41,0.46
	l-5.95,0.68C169.27,54.51,169.14,54.4,169.12,54.15z"/>
<path class="st2" d="M91.81,36.33c0.08-0.14,0.3-0.08,0.3,0.09l-0.07,9.46c0,0.28-0.14,0.43-0.41,0.46l-5.95,0.74
	c-0.25,0.03-0.37-0.07-0.37-0.32V41.1c0-0.3,0.15-0.48,0.44-0.53C88.41,40.05,90.43,38.64,91.81,36.33z"/>
<path class="st2" d="M311.39,37.71c0.26-0.62,0.4-0.59,0.42,0.08c0.17,7.85-0.91,14.59-9.75,16.51c-0.22,0.05-0.37-0.03-0.46-0.23
	l-2.02-4.45c-0.12-0.26-0.05-0.45,0.22-0.56C305.22,46.87,309.08,43.09,311.39,37.71z"/>
<path class="st2" d="M78.86,37.66c0.11,8.08-0.51,14.25-9.58,16.72c-0.23,0.07-0.48-0.05-0.58-0.28l-1.96-4.53
	c-0.11-0.26-0.04-0.45,0.24-0.56c5.45-2.17,9.28-5.97,11.51-11.42C78.57,37.4,78.86,37.45,78.86,37.66z"/>
<path class="st2" d="M238.87,46.8c0.21,6.13-4.76,8.05-9.94,7.81c-0.33-0.02-0.37-0.13-0.1-0.33c3.73-2.9,4.07-8.96,3.01-13.16
	c-0.05-0.24,0.04-0.35,0.28-0.35C236.48,40.96,238.73,42.97,238.87,46.8z"/>
<path class="st2" d="M115.13,54.03c0,0.12-0.09,0.21-0.21,0.21l-6.15,0.01c-0.12,0-0.21-0.1-0.21-0.21l-0.02-13.06
	c0-0.12,0.09-0.21,0.21-0.21l6.15-0.01c0.12,0,0.21,0.1,0.21,0.21L115.13,54.03z"/>
<path class="st2" d="M121.28,49.4c-1.21-2.73-1.24-5.47-0.12-8.23c0.1-0.25,0.29-0.37,0.55-0.36l5.24,0.08
	c0.28,0.01,0.38,0.14,0.31,0.4c-1.18,4.21,0.21,7.7,1.49,11.61c0.1,0.29,0,0.47-0.29,0.56l-8.44,2.39
	c-0.25,0.07-0.43-0.02-0.51-0.27l-1.4-4.25c-0.11-0.31,0-0.52,0.32-0.61l2.56-0.71C121.25,49.94,121.4,49.64,121.28,49.4z"/>
<path class="st2" d="M144.32,49.46c-0.7-3.05-1.66-5.02,0.05-8.35c0.1-0.21,0.31-0.34,0.55-0.33l5.21,0.1
	c0.29,0.01,0.38,0.15,0.28,0.41c-1.41,3.76,0.24,8.23,1.39,11.64c0.09,0.28,0,0.45-0.28,0.53l-8.36,2.36
	c-0.32,0.08-0.53-0.02-0.62-0.33l-1.36-4.18c-0.1-0.32,0.01-0.52,0.33-0.61l2.5-0.7C144.24,49.93,144.38,49.69,144.32,49.46z"/>
<path class="st2" d="M292.13,53.94c0,0.17-0.14,0.31-0.31,0.31l-5.96,0.01c-0.17,0-0.3-0.14-0.31-0.31l-0.02-12.87
	c0-0.17,0.14-0.31,0.31-0.31l5.95-0.01c0.17,0,0.3,0.14,0.31,0.31L292.13,53.94z"/>
<path class="st2" d="M97.97,41.46c4.24,2.93,5.98,7.06,5.2,12.38c-0.04,0.27-0.19,0.4-0.47,0.4h-5.57c-0.25,0-0.38-0.13-0.38-0.38
	V42.1C96.75,41.11,97.15,40.9,97.97,41.46z"/>
<path class="st2" d="M197.06,60.64c0,0.11-0.09,0.2-0.2,0.2h-6.36c-0.1,0-0.19-0.09-0.19-0.2V41.41c0-0.1,0.09-0.2,0.19-0.2h6.36
	c0.11,0,0.2,0.09,0.2,0.2V60.64z"/>
<path class="st2" d="M274.93,41.44c4.28,2.95,6.04,7.1,5.26,12.43c-0.04,0.26-0.19,0.38-0.44,0.38h-5.62
	c-0.21,0-0.38-0.17-0.38-0.38V42.06C273.75,41.11,274.15,40.9,274.93,41.44z"/>
<path class="st2" d="M206.62,48.62h1.79c0.31,0,0.46,0.16,0.46,0.47v4.6c0,0.29-0.24,0.53-0.53,0.53l-8.43,0.02
	c-0.22,0-0.34-0.11-0.38-0.32c-0.77-4.16-0.05-7.95,2.16-11.39c0.22-0.33,0.68-0.38,0.95-0.09l3.34,3.5
	c0.17,0.17,0.26,0.4,0.26,0.65v1.64C206.25,48.5,206.38,48.62,206.62,48.62z"/>
<path class="st2" d="M230.87,48.57c-0.72,4.63-3.68,6.07-8.24,5.28c-0.22-0.04-0.31-0.17-0.28-0.38l0.67-5.09
	c0.03-0.25,0.27-0.41,0.52-0.36c2.32,0.5,4.63,0.56,6.96,0.19C230.8,48.15,230.92,48.27,230.87,48.57z"/>
</svg>
