<?xml version="1.0" encoding="utf-8"?>
<!-- Generator: Adobe Illustrator 27.7.0, SVG Export Plug-In . SVG Version: 6.00 Build 0)  -->
<svg version="1.1" id="Layer_1" xmlns="http://www.w3.org/2000/svg" xmlns:xlink="http://www.w3.org/1999/xlink" x="0px" y="0px"
	 viewBox="0 0 375 91" style="enable-background:new 0 0 375 91;" xml:space="preserve">
<style type="text/css">
	.st0{fill:none;stroke:#808080;stroke-width:0;stroke-miterlimit:10;}
	.st1{fill:none;stroke:#736252;stroke-width:0;stroke-miterlimit:10;}
	.st2{fill:#E6C4A3;}
</style>
<g>
	<path class="st0" d="M337.43,23.83c0-3.91-3.16-7.07-7.07-7.07H44.6c-3.91,0-7.07,3.16-7.07,7.07v41.38c0,3.91,3.16,7.07,7.07,7.07
		h285.76c3.91,0,7.07-3.16,7.07-7.07V23.83"/>
	<path class="st1" d="M234.52,50.76c-5.33-5.76-11.68-11.29-15.76-17.89c-0.14-0.23-0.34-0.28-0.58-0.16l-4.61,2.44
		c-0.22,0.12-0.29,0.3-0.19,0.53c0.81,1.95,1.94,3.7,3.4,5.23c4.41,4.67,8.86,9.31,13.36,13.92c0.16,0.16,0.32,0.16,0.49,0.01
		l3.88-3.61C234.67,51.09,234.68,50.93,234.52,50.76"/>
	<path class="st1" d="M122.82,33.64c-4.73,0.08-9.1,0.28-14.16-0.48c-0.26-0.04-0.43,0.07-0.5,0.32l-1.27,4.63
		c-0.12,0.43,0.15,0.88,0.6,0.97c2.77,0.57,5.57,0.73,8.41,0.5c0.28-0.02,0.55,0.09,0.72,0.31c3.05,3.76,5.11,8,6.19,12.75
		c0.37,1.61,0.55,1.59,0.55-0.07V34.17C123.36,33.81,123.18,33.63,122.82,33.64"/>
	<path class="st1" d="M136.36,33.86l-9.45-0.52c-0.22-0.01-0.36,0.08-0.42,0.3l-1.23,4.5c-0.07,0.24,0.01,0.42,0.22,0.55
		c4.43,2.52,9.28-0.14,11.02-4.59C136.57,33.94,136.52,33.87,136.36,33.86"/>
	<path class="st1" d="M157.38,34.32l-7.51-1.13c-0.17-0.03-0.28,0.04-0.33,0.21l-1.37,4.81c-0.1,0.33,0.02,0.55,0.35,0.66l2.14,0.7
		c0.23,0.07,0.32,0.23,0.27,0.46l-1.48,6.73c-0.05,0.25,0.05,0.38,0.31,0.38h4.84c0.22,0,0.36-0.11,0.4-0.33l2.62-12.13
		C157.68,34.48,157.6,34.36,157.38,34.32"/>
	<path class="st1" d="M160.86,39.76c0.04,2.57-0.71,4.84-2.26,6.82c-0.29,0.37-0.2,0.51,0.25,0.41c5.93-1.28,8.62-7.3,7.9-12.97
		c-0.04-0.31-0.21-0.44-0.51-0.41c-2.23,0.21-4.43,0.03-6.58-0.55c-0.24-0.06-0.39,0.03-0.46,0.26l-1.42,5.01
		c-0.07,0.23,0.07,0.47,0.31,0.53l2.56,0.64C160.78,39.53,160.86,39.64,160.86,39.76"/>
	<path class="st1" d="M202.48,33.64c-2.77,0.22-5.52,0.05-8.24-0.49c-0.24-0.05-0.39,0.04-0.46,0.28l-1.14,3.99
		c-0.3,1.05,0.09,1.66,1.17,1.84c2.87,0.46,5.78,0.58,8.74,0.33c0.2-0.01,0.3-0.12,0.3-0.32v-5.27
		C202.85,33.78,202.69,33.62,202.48,33.64"/>
	<path class="st1" d="M225.96,33.02l-1.58,4.88c-0.09,0.28,0.01,0.46,0.28,0.55l2.93,0.94c0.32,0.1,0.43,0.32,0.33,0.64l-0.42,1.33
		c-0.07,0.21-0.02,0.44,0.14,0.61l2.86,2.93c0.62,0.64,1.18,0.58,1.66-0.16c2.12-3.26,2.86-6.85,2.21-10.77
		c-0.04-0.25-0.19-0.36-0.44-0.34c-2.65,0.23-5.23-0.02-7.76-0.75C226.09,32.88,225.99,32.93,225.96,33.02"/>
	<path class="st1" d="M240.47,40.52l-0.05,5.25c0,0.07,0.04,0.12,0.11,0.13c0.07,0.01,0.13-0.03,0.15-0.1
		c1.27-4.28,3.35-8.13,6.26-11.53c0.25-0.3,0.02-0.75-0.37-0.71c-2.97,0.3-5.9,0.13-8.8-0.49c-0.19-0.04-0.37,0.07-0.42,0.25
		l-1.35,4.9c-0.09,0.31,0.1,0.62,0.4,0.7l3.56,0.93C240.26,39.94,240.47,40.21,240.47,40.52"/>
	<path class="st1" d="M141.26,39.97c-1.14,3.45-0.88,6.75,0.76,9.91c0.21,0.4,0.33,0.37,0.36-0.07c0.37-5.62,3.2-10.18,5.56-15.16
		c0.03-0.07-0.01-0.16-0.08-0.16l-7.84-1.3c-0.25-0.04-0.42,0.06-0.49,0.31l-1.32,4.74c-0.07,0.26,0.07,0.53,0.34,0.61l2.5,0.73
		C141.26,39.63,141.33,39.76,141.26,39.97"/>
	<path class="st1" d="M181.22,39.35c-1.63-3.69-7.54-5.8-11.11-6.22c-0.24-0.02-0.39,0.07-0.46,0.31l-1.26,4.38
		c-0.22,0.78,0.34,1.57,1.15,1.6l11.35,0.4C181.25,39.82,181.36,39.67,181.22,39.35"/>
	<path class="st1" d="M265.82,46.79c0.18-7.06-0.03-15.09-10.12-13.17c-0.18,0.04-0.19,0.1-0.05,0.22c3.38,2.59,3.4,9.07,3.26,12.9
		c-0.01,0.22,0.17,0.41,0.4,0.41h6.15C265.69,47.15,265.81,47.03,265.82,46.79"/>
	<path class="st1" d="M177.27,33.68c-0.13-0.08-0.28-0.07-0.43,0.02c-0.14,0.09-0.13,0.3,0.01,0.37c5.06,2.57,7.07,6.79,6.02,12.67
		c-0.05,0.26,0.06,0.4,0.33,0.4h5.97c0.29,0,0.46-0.15,0.49-0.44c0.87-8.71-2.8-13.76-12.04-12.94
		C177.5,33.78,177.38,33.75,177.27,33.68"/>
	<path class="st1" d="M257.28,39.32c-0.13-4.25-3.95-6.29-7.79-5.14c-0.19,0.06-0.28,0.19-0.24,0.39l0.85,4.94
		c0.04,0.23,0.18,0.34,0.41,0.33l6.58-0.32C257.22,39.51,257.28,39.45,257.28,39.32"/>
	<path class="st1" d="M246.87,36.15c-4.12,5.28-6.28,11.28-6.45,18c-0.01,0.32,0.15,0.46,0.47,0.42l6.01-0.76
		c0.22-0.03,0.37-0.21,0.37-0.43V36.29C247.28,35.84,247.15,35.8,246.87,36.15"/>
	<path class="st1" d="M136.45,36.68c-1.42,2.12-3.4,3.44-5.92,3.94c-0.28,0.05-0.42,0.22-0.42,0.52v5.63c0,0.25,0.13,0.37,0.37,0.33
		l5.95-0.74c0.23-0.03,0.41-0.23,0.41-0.47l0.04-9.07C136.89,36.28,136.74,36.24,136.45,36.68"/>
	<path class="st1" d="M148.37,47.88c-1.31-2.34-1.85-4.84-1.62-7.51c0.01-0.19-0.23-0.26-0.32-0.1c-2.07,3.77-4.37,9.78-1.59,13.62
		c0.19,0.25,0.44,0.38,0.76,0.38h14.89c0.24,0,0.47-0.1,0.62-0.29c2.71-3.29,4.58-7,5.62-11.14c0.04-0.13-0.04-0.27-0.17-0.32
		c-0.13-0.04-0.27,0.02-0.33,0.14c-3.07,6.73-11.18,5.84-17.3,5.56C148.68,48.22,148.49,48.1,148.37,47.88"/>
	<path class="st1" d="M176.85,40.89l-5-0.11c-0.24-0.01-0.43,0.09-0.57,0.28c-2.59,3.62-2.33,9.18-1.3,13.27
		c0.05,0.19,0.25,0.32,0.44,0.28l6.12-1.17c0.25-0.04,0.35-0.19,0.3-0.45c-0.86-4.2-1.48-8.52,0.26-11.65
		C177.22,41.15,177.08,40.9,176.85,40.89"/>
	<path class="st1" d="M195.19,48.48l-3.48-0.2c-0.21-0.01-0.33,0.09-0.36,0.3l-0.73,5.07c-0.02,0.18,0.1,0.35,0.28,0.39
		c3.25,0.7,10.76,1.53,11.74-2.8c0.37-1.63,0.4-4.98,0.09-10.04c-0.01-0.28-0.16-0.43-0.46-0.43h-5.83c-0.28,0-0.43,0.14-0.43,0.42
		l-0.16,6.68C195.83,48.23,195.53,48.51,195.19,48.48"/>
	<path class="st1" d="M123.26,60.32c-0.7-6.19-2.58-11.98-5.62-17.38c-0.68-1.21-1.02-1.12-1.02,0.27v17.47
		c0,0.28,0.14,0.41,0.42,0.39l5.93-0.4C123.14,60.65,123.28,60.5,123.26,60.32"/>
	<path class="st1" d="M215.61,42.73c-2.16,3.4-2.83,7.11-2,11.14c0.05,0.26,0.21,0.4,0.49,0.4h8.44c0.25,0,0.37-0.13,0.37-0.37
		v-4.78c0-0.31-0.16-0.47-0.47-0.47h-1.68c-0.31,0-0.47-0.16-0.47-0.47v-1.51c0-0.25-0.09-0.46-0.26-0.65l-3.22-3.4
		C216.47,42.25,215.88,42.31,215.61,42.73"/>
	<path class="st1" d="M180.06,48.27c-0.25,0-0.46,0.19-0.48,0.44l-0.4,5.04c-0.02,0.28,0.19,0.52,0.47,0.52h8.21
		c0.22,0,0.42-0.16,0.46-0.38l1.01-5.04c0.06-0.3-0.17-0.58-0.47-0.58H180.06"/>
	<path class="st1" d="M268.03,48.97c0.05-0.1,0.08-0.19,0.09-0.3c0.01-0.26-0.12-0.4-0.38-0.4h-17.51c-0.26,0-0.4,0.13-0.42,0.38
		l-0.4,5.16c-0.02,0.25,0.17,0.46,0.42,0.46h17.07c0.32,0,0.49-0.16,0.53-0.48l0.51-4.56C267.94,49.14,267.97,49.05,268.03,48.97"/>
</g>
<path d="M268.03,48.97c0.05-0.1,0.08-0.19,0.09-0.3c0.01-0.26-0.12-0.4-0.38-0.4h-17.51c-0.26,0-0.4,0.13-0.42,0.38l-0.4,5.16
	c-0.02,0.25,0.17,0.46,0.42,0.46h17.07c0.32,0,0.49-0.16,0.53-0.48l0.51-4.56C267.94,49.14,267.97,49.05,268.03,48.97z
	 M180.06,48.27c-0.25,0-0.46,0.19-0.48,0.44l-0.4,5.04c-0.02,0.28,0.19,0.52,0.47,0.52h8.21c0.22,0,0.42-0.16,0.46-0.38l1.01-5.04
	c0.06-0.3-0.17-0.58-0.47-0.58H180.06 M215.61,42.73c-2.16,3.4-2.83,7.11-2,11.14c0.05,0.26,0.21,0.4,0.49,0.4h8.44
	c0.25,0,0.37-0.13,0.37-0.37v-4.78c0-0.31-0.16-0.47-0.47-0.47h-1.68c-0.31,0-0.47-0.16-0.47-0.47v-1.51c0-0.25-0.09-0.46-0.26-0.65
	l-3.22-3.4C216.47,42.25,215.88,42.31,215.61,42.73 M123.26,60.32c-0.7-6.19-2.58-11.98-5.62-17.38c-0.68-1.21-1.02-1.12-1.02,0.27
	v17.47c0,0.28,0.14,0.41,0.42,0.39l5.93-0.4C123.14,60.65,123.28,60.5,123.26,60.32 M195.19,48.48l-3.48-0.2
	c-0.21-0.01-0.33,0.09-0.36,0.3l-0.73,5.07c-0.02,0.18,0.1,0.35,0.28,0.39c3.25,0.7,10.76,1.53,11.74-2.8
	c0.37-1.63,0.4-4.98,0.09-10.04c-0.01-0.28-0.16-0.43-0.46-0.43h-5.83c-0.28,0-0.43,0.14-0.43,0.42l-0.16,6.68
	C195.83,48.23,195.53,48.51,195.19,48.48 M176.85,40.89l-5-0.11c-0.24-0.01-0.43,0.09-0.57,0.28c-2.59,3.62-2.33,9.18-1.3,13.27
	c0.05,0.19,0.25,0.32,0.44,0.28l6.12-1.17c0.25-0.04,0.35-0.19,0.3-0.45c-0.86-4.2-1.48-8.52,0.26-11.65
	C177.22,41.15,177.08,40.9,176.85,40.89 M148.37,47.88c-1.31-2.34-1.85-4.84-1.62-7.51c0.01-0.19-0.23-0.26-0.32-0.1
	c-2.07,3.77-4.37,9.78-1.59,13.62c0.19,0.25,0.44,0.38,0.76,0.38h14.89c0.24,0,0.47-0.1,0.62-0.29c2.71-3.29,4.58-7,5.62-11.14
	c0.04-0.13-0.04-0.27-0.17-0.32c-0.13-0.04-0.27,0.02-0.33,0.14c-3.07,6.73-11.18,5.84-17.3,5.56
	C148.68,48.22,148.49,48.1,148.37,47.88 M136.45,36.68c-1.42,2.12-3.4,3.44-5.92,3.94c-0.28,0.05-0.42,0.22-0.42,0.52v5.63
	c0,0.25,0.13,0.37,0.37,0.33l5.95-0.74c0.23-0.03,0.41-0.23,0.41-0.47l0.04-9.07C136.89,36.28,136.74,36.24,136.45,36.68
	 M246.87,36.15c-4.12,5.28-6.28,11.28-6.45,18c-0.01,0.32,0.15,0.46,0.47,0.42l6.01-0.76c0.22-0.03,0.37-0.21,0.37-0.43V36.29
	C247.28,35.84,247.15,35.8,246.87,36.15 M257.28,39.32c-0.13-4.25-3.95-6.29-7.79-5.14c-0.19,0.06-0.28,0.19-0.24,0.39l0.85,4.94
	c0.04,0.23,0.18,0.34,0.41,0.33l6.58-0.32C257.22,39.51,257.28,39.45,257.28,39.32 M177.27,33.68c-0.13-0.08-0.28-0.07-0.43,0.02
	c-0.14,0.09-0.13,0.3,0.01,0.37c5.06,2.57,7.07,6.79,6.02,12.67c-0.05,0.26,0.06,0.4,0.33,0.4h5.97c0.29,0,0.46-0.15,0.49-0.44
	c0.87-8.71-2.8-13.76-12.04-12.94C177.5,33.78,177.38,33.75,177.27,33.68 M265.82,46.79c0.18-7.06-0.03-15.09-10.12-13.17
	c-0.18,0.04-0.19,0.1-0.05,0.22c3.38,2.59,3.4,9.07,3.26,12.9c-0.01,0.22,0.17,0.41,0.4,0.41h6.15
	C265.69,47.15,265.81,47.03,265.82,46.79 M181.22,39.35c-1.63-3.69-7.54-5.8-11.11-6.22c-0.24-0.02-0.39,0.07-0.46,0.31l-1.26,4.38
	c-0.22,0.78,0.34,1.57,1.15,1.6l11.35,0.4C181.25,39.82,181.36,39.67,181.22,39.35 M141.26,39.97c-1.14,3.45-0.88,6.75,0.76,9.91
	c0.21,0.4,0.33,0.37,0.36-0.07c0.37-5.62,3.2-10.18,5.56-15.16c0.03-0.07-0.01-0.16-0.08-0.16l-7.84-1.3
	c-0.25-0.04-0.42,0.06-0.49,0.31l-1.32,4.74c-0.07,0.26,0.07,0.53,0.34,0.61l2.5,0.73C141.26,39.63,141.33,39.76,141.26,39.97
	 M240.47,40.52l-0.05,5.25c0,0.07,0.04,0.12,0.11,0.13c0.07,0.01,0.13-0.03,0.15-0.1c1.27-4.28,3.35-8.13,6.26-11.53
	c0.25-0.3,0.02-0.75-0.37-0.71c-2.97,0.3-5.9,0.13-8.8-0.49c-0.19-0.04-0.37,0.07-0.42,0.25l-1.35,4.9c-0.09,0.31,0.1,0.62,0.4,0.7
	l3.56,0.93C240.26,39.94,240.47,40.21,240.47,40.52 M225.96,33.02l-1.58,4.88c-0.09,0.28,0.01,0.46,0.28,0.55l2.93,0.94
	c0.32,0.1,0.43,0.32,0.33,0.64l-0.42,1.33c-0.07,0.21-0.02,0.44,0.14,0.61l2.86,2.93c0.62,0.64,1.18,0.58,1.66-0.16
	c2.12-3.26,2.86-6.85,2.21-10.77c-0.04-0.25-0.19-0.36-0.44-0.34c-2.65,0.23-5.23-0.02-7.76-0.75
	C226.09,32.88,225.99,32.93,225.96,33.02 M202.48,33.64c-2.77,0.22-5.52,0.05-8.24-0.49c-0.24-0.05-0.39,0.04-0.46,0.28l-1.14,3.99
	c-0.3,1.05,0.09,1.66,1.17,1.84c2.87,0.46,5.78,0.58,8.74,0.33c0.2-0.01,0.3-0.12,0.3-0.32v-5.27
	C202.85,33.78,202.69,33.62,202.48,33.64 M160.86,39.76c0.04,2.57-0.71,4.84-2.26,6.82c-0.29,0.37-0.2,0.51,0.25,0.41
	c5.93-1.28,8.62-7.3,7.9-12.97c-0.04-0.31-0.21-0.44-0.51-0.41c-2.23,0.21-4.43,0.03-6.58-0.55c-0.24-0.06-0.39,0.03-0.46,0.26
	l-1.42,5.01c-0.07,0.23,0.07,0.47,0.31,0.53l2.56,0.64C160.78,39.53,160.86,39.64,160.86,39.76 M157.38,34.32l-7.51-1.13
	c-0.17-0.03-0.28,0.04-0.33,0.21l-1.37,4.81c-0.1,0.33,0.02,0.55,0.35,0.66l2.14,0.7c0.23,0.07,0.32,0.23,0.27,0.46l-1.48,6.73
	c-0.05,0.25,0.05,0.38,0.31,0.38h4.84c0.22,0,0.36-0.11,0.4-0.33l2.62-12.13C157.68,34.48,157.6,34.36,157.38,34.32 M136.36,33.86
	l-9.45-0.52c-0.22-0.01-0.36,0.08-0.42,0.3l-1.23,4.5c-0.07,0.24,0.01,0.42,0.22,0.55c4.43,2.52,9.28-0.14,11.02-4.59
	C136.57,33.94,136.52,33.87,136.36,33.86 M122.82,33.64c-4.73,0.08-9.1,0.28-14.16-0.48c-0.26-0.04-0.43,0.07-0.5,0.32l-1.27,4.63
	c-0.12,0.43,0.15,0.88,0.6,0.97c2.77,0.57,5.57,0.73,8.41,0.5c0.28-0.02,0.55,0.09,0.72,0.31c3.05,3.76,5.11,8,6.19,12.75
	c0.37,1.61,0.55,1.59,0.55-0.07V34.17C123.36,33.81,123.18,33.63,122.82,33.64 M234.52,50.76c-5.33-5.76-11.68-11.29-15.76-17.89
	c-0.14-0.23-0.34-0.28-0.58-0.16l-4.61,2.44c-0.22,0.12-0.29,0.3-0.19,0.53c0.81,1.95,1.94,3.7,3.4,5.23
	c4.41,4.67,8.86,9.31,13.36,13.92c0.16,0.16,0.32,0.16,0.49,0.01l3.88-3.61C234.67,51.09,234.68,50.93,234.52,50.76 M337.43,65.21
	c0,3.91-3.16,7.07-7.07,7.07H44.6c-3.91,0-7.07-3.16-7.07-7.07V23.83c0-3.91,3.16-7.07,7.07-7.07h285.76c3.91,0,7.07,3.16,7.07,7.07
	V65.21"/>
<path class="st2" d="M234.52,50.76c0.16,0.16,0.15,0.32-0.02,0.47l-3.88,3.61c-0.16,0.16-0.33,0.15-0.49-0.01
	c-4.5-4.6-8.95-9.25-13.36-13.92c-1.46-1.54-2.59-3.28-3.4-5.23c-0.1-0.23-0.03-0.41,0.19-0.53l4.61-2.44
	c0.25-0.13,0.44-0.07,0.58,0.16C222.84,39.47,229.19,45,234.52,50.76z"/>
<path class="st2" d="M108.66,33.16c5.05,0.76,9.43,0.56,14.16,0.48c0.36-0.01,0.54,0.17,0.54,0.53v18.41c0,1.66-0.18,1.68-0.55,0.07
	c-1.07-4.75-3.13-8.99-6.19-12.75c-0.17-0.22-0.44-0.33-0.72-0.31c-2.84,0.23-5.65,0.07-8.41-0.5c-0.45-0.09-0.72-0.54-0.6-0.97
	l1.27-4.63C108.23,33.22,108.4,33.12,108.66,33.16z"/>
<path class="st2" d="M126.91,33.34l9.45,0.52c0.16,0.01,0.21,0.08,0.15,0.23c-1.74,4.45-6.59,7.11-11.02,4.59
	c-0.22-0.13-0.29-0.31-0.22-0.55l1.23-4.5C126.55,33.42,126.7,33.32,126.91,33.34z"/>
<path class="st2" d="M157.38,34.32c0.22,0.04,0.3,0.16,0.25,0.37l-2.62,12.13c-0.04,0.22-0.18,0.33-0.4,0.33h-4.84
	c-0.26,0-0.37-0.13-0.31-0.38l1.48-6.73c0.05-0.23-0.04-0.39-0.27-0.46l-2.14-0.7c-0.33-0.11-0.45-0.33-0.35-0.66l1.37-4.81
	c0.04-0.17,0.16-0.24,0.33-0.21L157.38,34.32z"/>
<path class="st2" d="M160.66,39.5l-2.56-0.64c-0.23-0.06-0.37-0.3-0.31-0.53l1.42-5.01c0.07-0.23,0.22-0.32,0.46-0.26
	c2.15,0.58,4.35,0.76,6.58,0.55c0.3-0.03,0.47,0.1,0.51,0.41c0.73,5.67-1.96,11.69-7.9,12.97c-0.46,0.1-0.55-0.04-0.25-0.41
	c1.54-1.97,2.29-4.24,2.26-6.82C160.86,39.64,160.78,39.53,160.66,39.5z"/>
<path class="st2" d="M202.48,33.64c0.2-0.01,0.37,0.14,0.37,0.34v5.27c0,0.2-0.1,0.31-0.3,0.32c-2.95,0.25-5.86,0.13-8.74-0.33
	c-1.08-0.17-1.47-0.79-1.17-1.84l1.14-3.99c0.07-0.23,0.22-0.33,0.46-0.28C196.96,33.69,199.71,33.85,202.48,33.64z"/>
<path class="st2" d="M225.96,33.02c0.03-0.09,0.13-0.14,0.22-0.12c2.53,0.73,5.11,0.98,7.76,0.75c0.25-0.02,0.4,0.09,0.44,0.34
	c0.64,3.92-0.09,7.51-2.21,10.77c-0.49,0.74-1.04,0.79-1.66,0.16l-2.86-2.93c-0.16-0.16-0.21-0.4-0.14-0.61l0.42-1.33
	c0.1-0.32-0.01-0.54-0.33-0.64l-2.93-0.94c-0.28-0.09-0.37-0.28-0.28-0.55L225.96,33.02z"/>
<path class="st2" d="M240.47,40.52c0-0.31-0.21-0.58-0.5-0.65l-3.56-0.93c-0.31-0.08-0.49-0.4-0.4-0.7l1.35-4.9
	c0.05-0.19,0.23-0.3,0.42-0.25c2.9,0.62,5.83,0.79,8.8,0.49c0.39-0.04,0.62,0.41,0.37,0.71c-2.91,3.4-4.99,7.24-6.26,11.53
	c-0.02,0.07-0.08,0.1-0.15,0.1c-0.07-0.01-0.11-0.07-0.11-0.13L240.47,40.52z"/>
<path class="st2" d="M141.05,39.57l-2.5-0.73c-0.26-0.07-0.41-0.34-0.34-0.61l1.32-4.74c0.07-0.25,0.23-0.35,0.49-0.31l7.84,1.3
	c0.07,0.01,0.11,0.1,0.08,0.16c-2.36,4.98-5.19,9.54-5.56,15.16c-0.03,0.45-0.15,0.47-0.36,0.07c-1.64-3.16-1.9-6.46-0.76-9.91
	C141.33,39.76,141.26,39.63,141.05,39.57z"/>
<path class="st2" d="M170.11,33.13c3.56,0.42,9.47,2.53,11.11,6.22c0.14,0.32,0.04,0.47-0.31,0.46l-11.35-0.4
	c-0.82-0.03-1.38-0.82-1.15-1.6l1.26-4.38C169.72,33.21,169.87,33.11,170.11,33.13z"/>
<path class="st2" d="M255.7,33.62c10.09-1.92,10.3,6.11,10.12,13.17c-0.01,0.24-0.13,0.36-0.37,0.36h-6.15
	c-0.22,0-0.4-0.19-0.4-0.41c0.14-3.82,0.12-10.31-3.26-12.9C255.5,33.73,255.52,33.66,255.7,33.62z"/>
<path class="st2" d="M177.63,33.77c9.24-0.82,12.91,4.22,12.04,12.94c-0.03,0.29-0.19,0.44-0.49,0.44h-5.97
	c-0.27,0-0.38-0.13-0.33-0.4c1.05-5.88-0.96-10.1-6.02-12.67c-0.15-0.07-0.16-0.28-0.01-0.37c0.15-0.1,0.29-0.11,0.43-0.02
	C177.38,33.75,177.5,33.78,177.63,33.77z"/>
<path class="st2" d="M249.49,34.18c3.84-1.15,7.66,0.89,7.79,5.14c0,0.13-0.06,0.19-0.19,0.19l-6.58,0.32
	c-0.23,0.01-0.37-0.1-0.41-0.33l-0.85-4.94C249.21,34.36,249.29,34.24,249.49,34.18z"/>
<path class="st2" d="M246.87,36.15c0.28-0.35,0.41-0.31,0.41,0.14v17.09c0,0.22-0.16,0.4-0.37,0.43l-6.01,0.76
	c-0.32,0.04-0.48-0.1-0.47-0.42C240.59,47.43,242.75,41.43,246.87,36.15z"/>
<path class="st2" d="M136.45,36.68c0.29-0.44,0.44-0.4,0.44,0.13l-0.04,9.07c0,0.24-0.18,0.44-0.41,0.47l-5.95,0.74
	c-0.25,0.04-0.37-0.07-0.37-0.33v-5.63c0-0.29,0.14-0.46,0.42-0.52C133.05,40.12,135.02,38.8,136.45,36.68z"/>
<path class="st2" d="M148.92,48.23c6.12,0.28,14.23,1.17,17.3-5.56c0.06-0.13,0.2-0.19,0.33-0.14c0.13,0.05,0.21,0.19,0.17,0.32
	c-1.03,4.13-2.91,7.84-5.62,11.14c-0.15,0.19-0.38,0.29-0.62,0.29H145.6c-0.31,0-0.57-0.13-0.76-0.38
	c-2.78-3.84-0.48-9.85,1.59-13.62c0.09-0.16,0.34-0.09,0.32,0.1c-0.23,2.67,0.31,5.17,1.62,7.51
	C148.49,48.1,148.68,48.22,148.92,48.23z"/>
<path class="st2" d="M176.85,40.89c0.22,0.01,0.37,0.25,0.25,0.45c-1.74,3.13-1.12,7.45-0.26,11.65c0.05,0.25-0.04,0.4-0.3,0.45
	l-6.12,1.17c-0.19,0.04-0.39-0.09-0.44-0.28c-1.03-4.09-1.29-9.64,1.3-13.27c0.14-0.19,0.33-0.29,0.57-0.28L176.85,40.89z"/>
<path class="st2" d="M195.84,47.88l0.16-6.68c0.01-0.28,0.16-0.42,0.43-0.42h5.83c0.29,0,0.44,0.14,0.46,0.43
	c0.31,5.06,0.28,8.41-0.09,10.04c-0.97,4.33-8.48,3.49-11.74,2.8c-0.18-0.04-0.3-0.21-0.28-0.39l0.73-5.07
	c0.03-0.21,0.15-0.31,0.36-0.3l3.48,0.2C195.53,48.51,195.83,48.23,195.84,47.88z"/>
<path class="st2" d="M123.26,60.32c0.02,0.17-0.11,0.33-0.29,0.34l-5.93,0.4c-0.28,0.02-0.42-0.11-0.42-0.39V43.22
	c0-1.39,0.34-1.48,1.02-0.27C120.68,48.34,122.55,54.14,123.26,60.32z"/>
<path class="st2" d="M215.61,42.73c0.27-0.42,0.85-0.48,1.19-0.12l3.22,3.4c0.17,0.19,0.26,0.4,0.26,0.65v1.51
	c0,0.31,0.16,0.47,0.47,0.47h1.68c0.31,0,0.47,0.16,0.47,0.47v4.78c0,0.25-0.13,0.37-0.37,0.37h-8.44c-0.28,0-0.43-0.13-0.49-0.4
	C212.79,49.84,213.45,46.13,215.61,42.73z"/>
<path class="st2" d="M180.06,48.27h8.8c0.3,0,0.53,0.28,0.47,0.58l-1.01,5.04c-0.04,0.22-0.24,0.38-0.46,0.38h-8.21
	c-0.28,0-0.49-0.24-0.47-0.52l0.4-5.04C179.6,48.47,179.81,48.27,180.06,48.27z"/>
<path class="st2" d="M267.94,49.23l-0.51,4.56c-0.04,0.32-0.21,0.48-0.53,0.48h-17.07c-0.25,0-0.44-0.21-0.42-0.46l0.4-5.16
	c0.02-0.25,0.16-0.38,0.42-0.38h17.51c0.26,0,0.39,0.13,0.38,0.4c-0.01,0.1-0.04,0.2-0.09,0.3
	C267.97,49.05,267.94,49.14,267.94,49.23z"/>
</svg>
