<?xml version="1.0" encoding="utf-8"?>
<!-- Generator: Adobe Illustrator 27.7.0, SVG Export Plug-In . SVG Version: 6.00 Build 0)  -->
<svg version="1.1" id="Layer_1" xmlns="http://www.w3.org/2000/svg" xmlns:xlink="http://www.w3.org/1999/xlink" x="0px" y="0px"
	 viewBox="0 0 375 83.93" style="enable-background:new 0 0 375 83.93;" xml:space="preserve">
<style type="text/css">
	.st0{fill:none;stroke:#808080;stroke-width:0;stroke-miterlimit:10;}
	.st1{fill:none;stroke:#736252;stroke-width:0;stroke-miterlimit:10;}
	.st2{fill:#E6C4A3;}
</style>
<g>
	<g>
		<path class="st0" d="M337.45,20.19c0-3.91-3.16-7.07-7.07-7.07H44.57c-3.91,0-7.07,3.16-7.07,7.07v41.35
			c0,3.91,3.16,7.07,7.07,7.07h285.81c3.91,0,7.07-3.16,7.07-7.07V20.19"/>
		<path class="st1" d="M75.58,37.04l0.06,4.8c0,0.29,0.1,0.33,0.28,0.1c0.25-0.3,0.37-0.66,0.35-1.08
			c-0.01-0.25,0.04-0.49,0.13-0.73c1.28-3.08,2.97-5.93,5.05-8.55c0.16-0.21,0.01-0.52-0.25-0.5c-2.68,0.13-5.33-0.07-7.95-0.63
			c-0.26-0.05-0.43,0.04-0.49,0.3l-1.21,4.38c-0.07,0.28,0.08,0.56,0.36,0.64l3.37,0.87C75.47,36.7,75.58,36.83,75.58,37.04"/>
		<path class="st1" d="M101.4,31.12c-4.78,0.01-11.17,0.67-15.69-0.67c-0.24-0.07-0.49,0.07-0.55,0.31l-1.06,3.85
			c-0.23,0.82,0.37,1.63,1.22,1.67l10.18,0.37c0.24,0.01,0.35,0.13,0.34,0.37l-0.26,3.64c-0.02,0.29,0.35,0.44,0.54,0.22
			c2.37-2.8,4.23-5.91,5.57-9.33C101.8,31.26,101.7,31.12,101.4,31.12"/>
		<path class="st1" d="M113.5,31.06c-2.89,0.04-5.5,0.04-8.3-0.62c-0.28-0.07-0.46,0.04-0.55,0.32l-1.21,4.42
			c-0.07,0.27,0.08,0.55,0.35,0.63c4.69,1.44,8.02-0.01,9.98-4.33C113.9,31.19,113.81,31.05,113.5,31.06"/>
		<path class="st1" d="M154.16,37.71c0.45,1.65,0.49,3.32,0.14,5.02c-0.07,0.34,0.05,0.45,0.37,0.31c7.1-2.98,7.69-11.96-1.93-11.85
			c-3.22,0.04-6.44-0.19-9.66-0.67c-0.19-0.03-0.37,0.08-0.42,0.27l-1.17,4.24c-0.12,0.43,0.16,0.86,0.6,0.94
			c3.28,0.55,6.54,0.72,9.76,0.53c0.61-0.04,1.23,0.15,1.84,0.56C153.93,37.23,154.09,37.44,154.16,37.71"/>
		<path class="st1" d="M171.95,31.12c-2.85-0.01-5.49-0.02-8.26-0.7c-0.28-0.07-0.46,0.04-0.54,0.32l-1.16,4.3
			c-0.07,0.26,0.01,0.45,0.25,0.58c3.99,2.08,8.38-0.11,9.97-4.14C172.31,31.24,172.22,31.12,171.95,31.12"/>
		<path class="st1" d="M182.86,32.38c0.03-0.11-0.04-0.21-0.15-0.23l-7.46-1.68c-0.1-0.02-0.21,0.04-0.23,0.15l-1.12,4.96
			c-0.03,0.11,0.04,0.21,0.15,0.23l7.46,1.68c0.1,0.02,0.21-0.04,0.23-0.15L182.86,32.38"/>
		<path class="st1" d="M239.11,31.29l-0.8,3.07c-0.26,1,0.48,1.99,1.51,2.02l10.9,0.25c0.3,0.01,0.54,0.26,0.53,0.56l-0.14,5.88
			c0,0.02,0.01,0.03,0.02,0.04c0.03,0.01,0.06,0.01,0.09,0.01c0.1-0.02,0.16-0.08,0.19-0.19c1-4.27,2.87-8.1,5.62-11.5
			c0.25-0.31,0.18-0.46-0.22-0.44c-5.6,0.34-11.19,0.22-16.76-0.34C239.54,30.58,239.24,30.8,239.11,31.29"/>
		<path class="st1" d="M276.97,30.67l-1.23,4.47c-0.08,0.28,0.08,0.57,0.36,0.66c4.69,1.45,8.02-0.01,10.01-4.36
			c0.13-0.28,0.04-0.41-0.27-0.39c-2.86,0.2-5.68-0.01-8.47-0.61C277.2,30.39,277.02,30.5,276.97,30.67"/>
		<path class="st1" d="M289.1,30.47c-0.46,1.59-0.91,3.14-1.33,4.66c-0.1,0.33,0.02,0.53,0.36,0.61l2.38,0.58
			c0.16,0.04,0.28,0.19,0.28,0.35v4.17c0,0.22,0.11,0.34,0.34,0.37c2.98,0.29,8.32,0.88,9.67,4.07c0.5,1.19,0.29,2.82,0.31,4.2
			c0,0.25,0.13,0.37,0.37,0.37h4.85c0.35,0,0.66-0.25,0.73-0.59c1.52-7.12-4.08-10.77-10.3-11.77c-0.2-0.03-0.35-0.2-0.35-0.41v-5.6
			c0-0.3-0.15-0.44-0.45-0.43c-2.35,0.07-4.61-0.14-6.79-0.63C289.14,30.42,289.11,30.44,289.1,30.47"/>
		<path class="st1" d="M300.83,36.57l-0.08,0.4c-0.05,0.23,0.04,0.4,0.24,0.51l3.98,2.14c0.17,0.1,0.4,0.03,0.5-0.14
			c1.46-2.47,1.86-5.14,1.21-7.99c-0.05-0.2-0.18-0.31-0.38-0.33l-6.67-0.56c-0.22-0.02-0.35,0.07-0.4,0.28l-1.18,4.09
			c-0.07,0.23,0.07,0.47,0.3,0.54l2.23,0.63C300.79,36.2,300.87,36.34,300.83,36.57"/>
		<path class="st1" d="M309.59,30.7l-1.23,4.49c-0.08,0.28,0.09,0.57,0.37,0.65c4.75,1.39,8.1-0.12,10.03-4.54
			c0.11-0.25,0.03-0.37-0.25-0.34c-2.86,0.29-5.68,0.11-8.49-0.52C309.8,30.39,309.65,30.48,309.59,30.7"/>
		<path class="st1" d="M70.06,40.89c0.84-10.99-6.38-11.3-14.83-9.44c-0.2,0.04-0.34,0.24-0.31,0.45l0.76,4.63
			c0.04,0.23,0.27,0.38,0.49,0.31c5.21-1.5,11.02-0.97,13.57,4.1C69.92,41.31,70.03,41.28,70.06,40.89"/>
		<path class="st1" d="M130.97,43c0.61-6.44-0.09-13.57-8.92-12.16c-0.22,0.04-0.25,0.13-0.1,0.3c2.96,3.32,2.86,7.99,2.94,11.8
			c0.01,0.24,0.13,0.36,0.37,0.36h5.38C130.84,43.3,130.95,43.2,130.97,43"/>
		<path class="st1" d="M191.46,31.07c-5.59-1.63-9.07,2.71-8.65,8.04c0.02,0.22,0.14,0.37,0.36,0.42l3.7,0.99
			c0.2,0.05,0.31-0.02,0.35-0.22l0.55-3.49c0.19-1.17,1.69-1.56,2.41-0.62c2.28,2.92,3.21,6.23,2.78,9.94
			c-0.06,0.55,0.05,0.58,0.31,0.1C195.55,42.13,197.77,32.92,191.46,31.07"/>
		<path class="st1" d="M211.65,40.86c0.64-11.27-6.34-10.97-14.82-9.47c-0.27,0.05-0.38,0.21-0.34,0.48l0.69,4.48
			c0.04,0.31,0.22,0.43,0.53,0.37c4.88-1.1,11.08-1.08,13.55,4.21C211.35,41.13,211.63,41.07,211.65,40.86"/>
		<path class="st1" d="M228.58,38.7c1.21-9.78-9.22-8.4-14.75-7.28c-0.27,0.05-0.39,0.22-0.35,0.49l0.61,4.45
			c0.04,0.32,0.23,0.46,0.55,0.4c3.86-0.7,10.6-1.11,13.57,2.06C228.42,39.06,228.54,39.01,228.58,38.7"/>
		<path class="st1" d="M274.23,40.89c0.66-11.05-6.26-11.31-14.81-9.44c-0.23,0.05-0.33,0.19-0.29,0.43l0.72,4.66
			c0.04,0.22,0.26,0.37,0.49,0.31c5.07-1.48,11.17-1,13.57,4.1C274.09,41.37,274.2,41.34,274.23,40.89"/>
		<path class="st1" d="M123.26,36.11c-0.16-3.88-3.55-5.63-7.07-4.68c-0.22,0.06-0.31,0.19-0.27,0.41l0.72,4.34
			c0.04,0.25,0.25,0.43,0.51,0.41l5.92-0.28C123.2,36.31,123.27,36.25,123.26,36.11"/>
		<path class="st1" d="M256.93,33.06c-3.01,4.62-5.71,10.89-5.72,16.39c0,0.22,0.19,0.41,0.41,0.41h5.31c0.31,0,0.47-0.16,0.47-0.47
			V33.2C257.41,32.62,257.25,32.57,256.93,33.06"/>
		<path class="st1" d="M81.55,33.23c-3.67,4.62-5.99,10.66-5.83,16.6c0.01,0.23,0.12,0.33,0.35,0.3l5.44-0.68
			c0.28-0.04,0.42-0.19,0.42-0.48v-15.6C81.93,32.95,81.8,32.91,81.55,33.23"/>
		<path class="st1" d="M113.89,33.51c-1.33,2.03-3.19,3.32-5.56,3.87c-0.28,0.07-0.41,0.24-0.42,0.52l-0.14,5.03
			c-0.01,0.28,0.13,0.41,0.41,0.37l5.63-0.71c0.25-0.03,0.37-0.17,0.37-0.42l-0.01-8.58C114.17,33.44,113.97,33.38,113.89,33.51"/>
		<path class="st1" d="M172.38,33.51c-1.34,2.02-3.19,3.32-5.57,3.9c-0.22,0.05-0.37,0.25-0.38,0.47l-0.17,4.94
			c-0.02,0.34,0.15,0.49,0.49,0.45l5.47-0.67c0.31-0.04,0.46-0.22,0.46-0.52l-0.01-8.48C172.66,33.44,172.46,33.38,172.38,33.51"/>
		<path class="st1" d="M285.84,33.87c-1.27,1.86-3.01,3.01-5.2,3.47c-0.3,0.06-0.45,0.24-0.46,0.55l-0.12,5.04
			c-0.01,0.28,0.13,0.41,0.4,0.37l5.63-0.71c0.25-0.03,0.37-0.17,0.37-0.42l-0.01-8.35c0-0.11-0.08-0.22-0.19-0.25
			c-0.22-0.05-0.34-0.01-0.36,0.13C285.9,33.76,285.88,33.82,285.84,33.87"/>
		<path class="st1" d="M318.65,33.61c-1.36,2.06-3.21,3.32-5.56,3.79c-0.23,0.04-0.4,0.25-0.39,0.49l0.03,5.01
			c0,0.3,0.15,0.43,0.45,0.4l5.45-0.7c0.3-0.04,0.45-0.21,0.45-0.52l-0.01-8.34C319.08,33.5,318.78,33.41,318.65,33.61"/>
		<path class="st1" d="M101.97,35.12c0.15-0.38,0.13-0.73-0.07-1.03c-0.13-0.19-0.42-0.16-0.49,0.06
			c-1.66,4.71-4.65,8.27-8.96,10.69c-0.23,0.13-0.31,0.32-0.25,0.58l1.08,4.09c0.06,0.22,0.2,0.31,0.42,0.29
			c7.79-0.85,8.71-7.45,8.18-14C101.85,35.56,101.88,35.33,101.97,35.12"/>
		<path class="st1" d="M228.62,43.25c0-3.52-2.05-5.44-6.15-5.76c-0.24-0.02-0.34,0.09-0.28,0.32c0.82,3.98,0.64,9.31-2.72,12.12
			c-0.22,0.18-0.18,0.27,0.1,0.26C224.31,50.16,228.61,48.91,228.62,43.25"/>
		<path class="st1" d="M69.97,49.48c0.3-4.42-0.61-10.55-5.91-11.92c-0.2-0.05-0.3,0.03-0.3,0.23L64,49.53
			c0.01,0.22,0.12,0.34,0.34,0.34h5.21C69.81,49.86,69.94,49.74,69.97,49.48"/>
		<path class="st1" d="M143.71,37.81c-2.05,4.9-0.23,12.13,6.13,12.18c0.32,0.01,0.37-0.11,0.16-0.34
			c-2.69-2.92-1.84-7.97-0.76-11.65c0.1-0.34-0.02-0.5-0.37-0.5h-4.69C143.95,37.49,143.79,37.6,143.71,37.81"/>
		<path class="st1" d="M187.21,44.64l-3.85-0.04c-0.21,0-0.4-0.11-0.51-0.29c-1.03-1.72-1.48-3.58-1.36-5.6
			c0.01-0.24-0.1-0.38-0.34-0.42l-4.79-0.7c-0.23-0.03-0.38,0.06-0.46,0.28c-1.33,3.85,0.67,8.68,3.19,11.75
			c0.14,0.17,0.32,0.25,0.54,0.25h11.05c0.28,0,0.47-0.13,0.57-0.4c1.27-3.62,1.07-7.18-0.61-10.66c-0.1-0.2-0.38-0.19-0.46,0.02
			L188.16,44C187.99,44.44,187.68,44.65,187.21,44.64"/>
		<path class="st1" d="M205.66,49.84l5.4,0.03c0.28,0.01,0.43-0.14,0.44-0.41c0.33-4.74-0.72-10.55-5.97-11.86
			c-0.16-0.04-0.24,0.03-0.23,0.19l0.19,11.89C205.5,49.77,205.57,49.84,205.66,49.84"/>
		<path class="st1" d="M240.26,45.87l-2.56,0.85c-0.22,0.07-0.28,0.21-0.22,0.43l1.27,3.85c0.1,0.28,0.29,0.39,0.58,0.31l7.6-2.14
			c0.32-0.09,0.43-0.29,0.32-0.61c-1.27-3.64-2.55-7.21-1.25-10.6c0.08-0.22-0.07-0.45-0.31-0.45l-4.71-0.01
			c-0.22,0-0.37,0.1-0.47,0.28c-1.28,2.5-1.29,5-0.02,7.51C240.64,45.57,240.56,45.77,240.26,45.87"/>
		<path class="st1" d="M268.29,49.84l5.4,0.03c0.25,0.01,0.38-0.12,0.4-0.37c0.32-4.81-0.55-10.43-5.89-11.9
			c-0.16-0.04-0.25,0.01-0.24,0.19l0.16,11.89C268.13,49.79,268.18,49.84,268.29,49.84"/>
		<path class="st1" d="M151.2,44.58c-0.55,0-1.16-0.37-1.36-0.81c-0.08-0.18-0.29-0.28-0.49-0.22c-0.19,0.05-0.31,0.24-0.28,0.44
			c0.5,3.61,1.92,5.58,4.25,5.9c6.07,0.84,7.8-6.43,7.39-10.97c-0.02-0.3-0.1-0.31-0.24-0.05C158.53,42.68,155.44,44.58,151.2,44.58
			"/>
		<path class="st1" d="M90.21,39.84l-4.15-0.63c-1.01-0.16-1.55,0.28-1.62,1.31c-0.32,5.07-0.39,10.15-0.21,15.25
			c0.01,0.23,0.12,0.34,0.35,0.31l5.08-0.37c0.29-0.02,0.43-0.18,0.44-0.47l0.19-15.29C90.3,39.89,90.27,39.84,90.21,39.84"/>
		<path class="st1" d="M214.14,49.56c4.15,0.67,6.54-0.98,7.18-4.97c0.04-0.23-0.05-0.32-0.28-0.28c-2.15,0.33-4.3,0.28-6.46-0.16
			c-0.28-0.06-0.43,0.05-0.47,0.33l-0.63,4.2C213.4,49.19,213.62,49.48,214.14,49.56"/>
		<path class="st1" d="M132.53,44.43h-15.94c-0.26,0-0.47,0.21-0.47,0.47v2.43c0,1.4,0.27,2.54,0.61,2.54h15.67
			c0.34,0,0.61-1.14,0.61-2.54V44.9C133,44.64,132.79,44.43,132.53,44.43"/>
		<path class="st1" d="M290.28,49.87l9.22,0.03c0.34,0,0.61-0.27,0.61-0.61l0.01-1.53c0.01-1.84-0.55-3.34-1.25-3.34l-7.93-0.03
			c-0.7,0-1.26,1.49-1.27,3.34l-0.01,1.53C289.66,49.59,289.93,49.87,290.28,49.87"/>
	</g>
	<path d="M290.28,49.87l9.22,0.03c0.34,0,0.61-0.27,0.61-0.61l0.01-1.53c0.01-1.84-0.55-3.34-1.25-3.34l-7.93-0.03
		c-0.7,0-1.26,1.49-1.27,3.34l-0.01,1.53C289.66,49.59,289.93,49.87,290.28,49.87z M132.53,44.43h-15.94
		c-0.26,0-0.47,0.21-0.47,0.47v2.43c0,1.4,0.27,2.54,0.61,2.54h15.67c0.34,0,0.61-1.14,0.61-2.54V44.9
		C133,44.64,132.79,44.43,132.53,44.43 M214.14,49.56c4.15,0.67,6.54-0.98,7.18-4.97c0.04-0.23-0.05-0.32-0.28-0.28
		c-2.15,0.33-4.3,0.28-6.46-0.16c-0.28-0.06-0.43,0.05-0.47,0.33l-0.63,4.2C213.4,49.19,213.62,49.48,214.14,49.56 M90.21,39.84
		l-4.15-0.63c-1.01-0.16-1.55,0.28-1.62,1.31c-0.32,5.07-0.39,10.15-0.21,15.25c0.01,0.23,0.12,0.34,0.35,0.31l5.08-0.37
		c0.29-0.02,0.43-0.18,0.44-0.47l0.19-15.29C90.3,39.89,90.27,39.84,90.21,39.84 M151.2,44.58c-0.55,0-1.16-0.37-1.36-0.81
		c-0.08-0.18-0.29-0.28-0.49-0.22c-0.19,0.05-0.31,0.24-0.28,0.44c0.5,3.61,1.92,5.58,4.25,5.9c6.07,0.84,7.8-6.43,7.39-10.97
		c-0.02-0.3-0.1-0.31-0.24-0.05C158.53,42.68,155.44,44.58,151.2,44.58 M268.29,49.84l5.4,0.03c0.25,0.01,0.38-0.12,0.4-0.37
		c0.32-4.81-0.55-10.43-5.89-11.9c-0.16-0.04-0.25,0.01-0.24,0.19l0.16,11.89C268.13,49.79,268.18,49.84,268.29,49.84 M240.26,45.87
		l-2.56,0.85c-0.22,0.07-0.28,0.21-0.22,0.43l1.27,3.85c0.1,0.28,0.29,0.39,0.58,0.31l7.6-2.14c0.32-0.09,0.43-0.29,0.32-0.61
		c-1.27-3.64-2.55-7.21-1.25-10.6c0.08-0.22-0.07-0.45-0.31-0.45l-4.71-0.01c-0.22,0-0.37,0.1-0.47,0.28c-1.28,2.5-1.29,5-0.02,7.51
		C240.64,45.57,240.56,45.77,240.26,45.87 M205.66,49.84l5.4,0.03c0.28,0.01,0.43-0.14,0.44-0.41c0.33-4.74-0.72-10.55-5.97-11.86
		c-0.16-0.04-0.24,0.03-0.23,0.19l0.19,11.89C205.5,49.77,205.57,49.84,205.66,49.84 M187.21,44.64l-3.85-0.04
		c-0.21,0-0.4-0.11-0.51-0.29c-1.03-1.72-1.48-3.58-1.36-5.6c0.01-0.24-0.1-0.38-0.34-0.42l-4.79-0.7
		c-0.23-0.03-0.38,0.06-0.46,0.28c-1.33,3.85,0.67,8.68,3.19,11.75c0.14,0.17,0.32,0.25,0.54,0.25h11.05c0.28,0,0.47-0.13,0.57-0.4
		c1.27-3.62,1.07-7.18-0.61-10.66c-0.1-0.2-0.38-0.19-0.46,0.02L188.16,44C187.99,44.44,187.68,44.65,187.21,44.64 M143.71,37.81
		c-2.05,4.9-0.23,12.13,6.13,12.18c0.32,0.01,0.37-0.11,0.16-0.34c-2.69-2.92-1.84-7.97-0.76-11.65c0.1-0.34-0.02-0.5-0.37-0.5
		h-4.69C143.95,37.49,143.79,37.6,143.71,37.81 M69.97,49.48c0.3-4.42-0.61-10.55-5.91-11.92c-0.2-0.05-0.3,0.03-0.3,0.23L64,49.53
		c0.01,0.22,0.12,0.34,0.34,0.34h5.21C69.81,49.86,69.94,49.74,69.97,49.48 M228.62,43.25c0-3.52-2.05-5.44-6.15-5.76
		c-0.24-0.02-0.34,0.09-0.28,0.32c0.82,3.98,0.64,9.31-2.72,12.12c-0.22,0.18-0.18,0.27,0.1,0.26
		C224.31,50.16,228.61,48.91,228.62,43.25 M101.97,35.12c0.15-0.38,0.13-0.73-0.07-1.03c-0.13-0.19-0.42-0.16-0.49,0.06
		c-1.66,4.71-4.65,8.27-8.96,10.69c-0.23,0.13-0.31,0.32-0.25,0.58l1.08,4.09c0.06,0.22,0.2,0.31,0.42,0.29
		c7.79-0.85,8.71-7.45,8.18-14C101.85,35.56,101.88,35.33,101.97,35.12 M318.65,33.61c-1.36,2.06-3.21,3.32-5.56,3.79
		c-0.23,0.04-0.4,0.25-0.39,0.49l0.03,5.01c0,0.3,0.15,0.43,0.45,0.4l5.45-0.7c0.3-0.04,0.45-0.21,0.45-0.52l-0.01-8.34
		C319.08,33.5,318.78,33.41,318.65,33.61 M285.84,33.87c-1.27,1.86-3.01,3.01-5.2,3.47c-0.3,0.06-0.45,0.24-0.46,0.55l-0.12,5.04
		c-0.01,0.28,0.13,0.41,0.4,0.37l5.63-0.71c0.25-0.03,0.37-0.17,0.37-0.42l-0.01-8.35c0-0.11-0.08-0.22-0.19-0.25
		c-0.22-0.05-0.34-0.01-0.36,0.13C285.9,33.76,285.88,33.82,285.84,33.87 M172.38,33.51c-1.34,2.02-3.19,3.32-5.57,3.9
		c-0.22,0.05-0.37,0.25-0.38,0.47l-0.17,4.94c-0.02,0.34,0.15,0.49,0.49,0.45l5.47-0.67c0.31-0.04,0.46-0.22,0.46-0.52l-0.01-8.48
		C172.66,33.44,172.46,33.38,172.38,33.51 M113.89,33.51c-1.33,2.03-3.19,3.32-5.56,3.87c-0.28,0.07-0.41,0.24-0.42,0.52l-0.14,5.03
		c-0.01,0.28,0.13,0.41,0.41,0.37l5.63-0.71c0.25-0.03,0.37-0.17,0.37-0.42l-0.01-8.58C114.17,33.44,113.97,33.38,113.89,33.51
		 M81.55,33.23c-3.67,4.62-5.99,10.66-5.83,16.6c0.01,0.23,0.12,0.33,0.35,0.3l5.44-0.68c0.28-0.04,0.42-0.19,0.42-0.48v-15.6
		C81.93,32.95,81.8,32.91,81.55,33.23 M256.93,33.06c-3.01,4.62-5.71,10.89-5.72,16.39c0,0.22,0.19,0.41,0.41,0.41h5.31
		c0.31,0,0.47-0.16,0.47-0.47V33.2C257.41,32.62,257.25,32.57,256.93,33.06 M123.26,36.11c-0.16-3.88-3.55-5.63-7.07-4.68
		c-0.22,0.06-0.31,0.19-0.27,0.41l0.72,4.34c0.04,0.25,0.25,0.43,0.51,0.41l5.92-0.28C123.2,36.31,123.27,36.25,123.26,36.11
		 M274.23,40.89c0.66-11.05-6.26-11.31-14.81-9.44c-0.23,0.05-0.33,0.19-0.29,0.43l0.72,4.66c0.04,0.22,0.26,0.37,0.49,0.31
		c5.07-1.48,11.17-1,13.57,4.1C274.09,41.37,274.2,41.34,274.23,40.89 M228.58,38.7c1.21-9.78-9.22-8.4-14.75-7.28
		c-0.27,0.05-0.39,0.22-0.35,0.49l0.61,4.45c0.04,0.32,0.23,0.46,0.55,0.4c3.86-0.7,10.6-1.11,13.57,2.06
		C228.42,39.06,228.54,39.01,228.58,38.7 M211.65,40.86c0.64-11.27-6.34-10.97-14.82-9.47c-0.27,0.05-0.38,0.21-0.34,0.48l0.69,4.48
		c0.04,0.31,0.22,0.43,0.53,0.37c4.88-1.1,11.08-1.08,13.55,4.21C211.35,41.13,211.63,41.07,211.65,40.86 M191.46,31.07
		c-5.59-1.63-9.07,2.71-8.65,8.04c0.02,0.22,0.14,0.37,0.36,0.42l3.7,0.99c0.2,0.05,0.31-0.02,0.35-0.22l0.55-3.49
		c0.19-1.17,1.69-1.56,2.41-0.62c2.28,2.92,3.21,6.23,2.78,9.94c-0.06,0.55,0.05,0.58,0.31,0.1
		C195.55,42.13,197.77,32.92,191.46,31.07 M130.97,43c0.61-6.44-0.09-13.57-8.92-12.16c-0.22,0.04-0.25,0.13-0.1,0.3
		c2.96,3.32,2.86,7.99,2.94,11.8c0.01,0.24,0.13,0.36,0.37,0.36h5.38C130.84,43.3,130.95,43.2,130.97,43 M70.06,40.89
		c0.84-10.99-6.38-11.3-14.83-9.44c-0.2,0.04-0.34,0.24-0.31,0.45l0.76,4.63c0.04,0.23,0.27,0.38,0.49,0.31
		c5.21-1.5,11.02-0.97,13.57,4.1C69.92,41.31,70.03,41.28,70.06,40.89 M309.59,30.7l-1.23,4.49c-0.08,0.28,0.09,0.57,0.37,0.65
		c4.75,1.39,8.1-0.12,10.03-4.54c0.11-0.25,0.03-0.37-0.25-0.34c-2.86,0.29-5.68,0.11-8.49-0.52
		C309.8,30.39,309.65,30.48,309.59,30.7 M300.83,36.57l-0.08,0.4c-0.05,0.23,0.04,0.4,0.24,0.51l3.98,2.14
		c0.17,0.1,0.4,0.03,0.5-0.14c1.46-2.47,1.86-5.14,1.21-7.99c-0.05-0.2-0.18-0.31-0.38-0.33l-6.67-0.56
		c-0.22-0.02-0.35,0.07-0.4,0.28l-1.18,4.09c-0.07,0.23,0.07,0.47,0.3,0.54l2.23,0.63C300.79,36.2,300.87,36.34,300.83,36.57
		 M289.1,30.47c-0.46,1.59-0.91,3.14-1.33,4.66c-0.1,0.33,0.02,0.53,0.36,0.61l2.38,0.58c0.16,0.04,0.28,0.19,0.28,0.35v4.17
		c0,0.22,0.11,0.34,0.34,0.37c2.98,0.29,8.32,0.88,9.67,4.07c0.5,1.19,0.29,2.82,0.31,4.2c0,0.25,0.13,0.37,0.37,0.37h4.85
		c0.35,0,0.66-0.25,0.73-0.59c1.52-7.12-4.08-10.77-10.3-11.77c-0.2-0.03-0.35-0.2-0.35-0.41v-5.6c0-0.3-0.15-0.44-0.45-0.43
		c-2.35,0.07-4.61-0.14-6.79-0.63C289.14,30.42,289.11,30.44,289.1,30.47 M276.97,30.67l-1.23,4.47c-0.08,0.28,0.08,0.57,0.36,0.66
		c4.69,1.45,8.02-0.01,10.01-4.36c0.13-0.28,0.04-0.41-0.27-0.39c-2.86,0.2-5.68-0.01-8.47-0.61
		C277.2,30.39,277.02,30.5,276.97,30.67 M239.11,31.29l-0.8,3.07c-0.26,1,0.48,1.99,1.51,2.02l10.9,0.25
		c0.3,0.01,0.54,0.26,0.53,0.56l-0.14,5.88c0,0.02,0.01,0.03,0.02,0.04c0.03,0.01,0.06,0.01,0.09,0.01c0.1-0.02,0.16-0.08,0.19-0.19
		c1-4.27,2.87-8.1,5.62-11.5c0.25-0.31,0.18-0.46-0.22-0.44c-5.6,0.34-11.19,0.22-16.76-0.34C239.54,30.58,239.24,30.8,239.11,31.29
		 M182.86,32.38c0.03-0.11-0.04-0.21-0.15-0.23l-7.46-1.68c-0.1-0.02-0.21,0.04-0.23,0.15l-1.12,4.96
		c-0.03,0.11,0.04,0.21,0.15,0.23l7.46,1.68c0.1,0.02,0.21-0.04,0.23-0.15L182.86,32.38 M171.95,31.12
		c-2.85-0.01-5.49-0.02-8.26-0.7c-0.28-0.07-0.46,0.04-0.54,0.32l-1.16,4.3c-0.07,0.26,0.01,0.45,0.25,0.58
		c3.99,2.08,8.38-0.11,9.97-4.14C172.31,31.24,172.22,31.12,171.95,31.12 M154.16,37.71c0.45,1.65,0.49,3.32,0.14,5.02
		c-0.07,0.34,0.05,0.45,0.37,0.31c7.1-2.98,7.69-11.96-1.93-11.85c-3.22,0.04-6.44-0.19-9.66-0.67c-0.19-0.03-0.37,0.08-0.42,0.27
		l-1.17,4.24c-0.12,0.43,0.16,0.86,0.6,0.94c3.28,0.55,6.54,0.72,9.76,0.53c0.61-0.04,1.23,0.15,1.84,0.56
		C153.93,37.23,154.09,37.44,154.16,37.71 M113.5,31.06c-2.89,0.04-5.5,0.04-8.3-0.62c-0.28-0.07-0.46,0.04-0.55,0.32l-1.21,4.42
		c-0.07,0.27,0.08,0.55,0.35,0.63c4.69,1.44,8.02-0.01,9.98-4.33C113.9,31.19,113.81,31.05,113.5,31.06 M101.4,31.12
		c-4.78,0.01-11.17,0.67-15.69-0.67c-0.24-0.07-0.49,0.07-0.55,0.31l-1.06,3.85c-0.23,0.82,0.37,1.63,1.22,1.67l10.18,0.37
		c0.24,0.01,0.35,0.13,0.34,0.37l-0.26,3.64c-0.02,0.29,0.35,0.44,0.54,0.22c2.37-2.8,4.23-5.91,5.57-9.33
		C101.8,31.26,101.7,31.12,101.4,31.12 M75.58,37.04l0.06,4.8c0,0.29,0.1,0.33,0.28,0.1c0.25-0.3,0.37-0.66,0.35-1.08
		c-0.01-0.25,0.04-0.49,0.13-0.73c1.28-3.08,2.97-5.93,5.05-8.55c0.16-0.21,0.01-0.52-0.25-0.5c-2.68,0.13-5.33-0.07-7.95-0.63
		c-0.26-0.05-0.43,0.04-0.49,0.3l-1.21,4.38c-0.07,0.28,0.08,0.56,0.36,0.64l3.37,0.87C75.47,36.7,75.58,36.83,75.58,37.04
		 M337.45,61.54c0,3.91-3.16,7.07-7.07,7.07H44.57c-3.91,0-7.07-3.16-7.07-7.07V20.19c0-3.91,3.16-7.07,7.07-7.07h285.81
		c3.91,0,7.07,3.16,7.07,7.07V61.54"/>
	<path class="st2" d="M75.27,36.64l-3.37-0.87c-0.28-0.07-0.43-0.36-0.36-0.64l1.21-4.38c0.07-0.25,0.23-0.35,0.49-0.3
		c2.62,0.55,5.27,0.76,7.95,0.63c0.26-0.02,0.42,0.29,0.25,0.5c-2.08,2.62-3.76,5.47-5.05,8.55c-0.1,0.23-0.14,0.47-0.13,0.73
		c0.01,0.42-0.1,0.78-0.35,1.08c-0.19,0.22-0.28,0.19-0.28-0.1l-0.06-4.8C75.58,36.83,75.47,36.7,75.27,36.64z"/>
	<path class="st2" d="M85.71,30.44c4.51,1.35,10.91,0.68,15.69,0.67c0.31,0,0.4,0.14,0.29,0.43c-1.34,3.42-3.2,6.53-5.57,9.33
		c-0.19,0.22-0.56,0.07-0.54-0.22l0.26-3.64c0.01-0.23-0.1-0.36-0.34-0.37l-10.18-0.37c-0.85-0.04-1.45-0.85-1.22-1.67l1.06-3.85
		C85.22,30.51,85.47,30.37,85.71,30.44z"/>
	<path class="st2" d="M105.2,30.43c2.8,0.66,5.41,0.67,8.3,0.62c0.31-0.01,0.4,0.13,0.28,0.42c-1.96,4.33-5.29,5.77-9.98,4.33
		c-0.27-0.08-0.42-0.36-0.35-0.63l1.21-4.42C104.73,30.47,104.91,30.37,105.2,30.43z"/>
	<path class="st2" d="M153.7,37.07c-0.61-0.41-1.23-0.6-1.84-0.56c-3.22,0.19-6.47,0.01-9.76-0.53c-0.43-0.07-0.72-0.51-0.6-0.94
		l1.17-4.24c0.05-0.19,0.23-0.3,0.42-0.27c3.22,0.48,6.43,0.7,9.66,0.67c9.62-0.11,9.03,8.87,1.93,11.85
		c-0.32,0.13-0.45,0.03-0.37-0.31c0.35-1.69,0.31-3.37-0.14-5.02C154.09,37.44,153.93,37.23,153.7,37.07z"/>
	<path class="st2" d="M163.69,30.43c2.77,0.67,5.41,0.68,8.26,0.7c0.26,0,0.35,0.12,0.25,0.37c-1.59,4.03-5.98,6.22-9.97,4.14
		c-0.24-0.13-0.32-0.31-0.25-0.58l1.16-4.3C163.23,30.46,163.41,30.36,163.69,30.43z"/>
	<path class="st2" d="M181.74,37.34c-0.03,0.11-0.13,0.17-0.23,0.15l-7.46-1.68c-0.11-0.02-0.17-0.13-0.15-0.23l1.12-4.96
		c0.03-0.11,0.13-0.17,0.23-0.15l7.46,1.68c0.11,0.02,0.17,0.13,0.15,0.23L181.74,37.34z"/>
	<path class="st2" d="M239.11,31.29c0.13-0.49,0.43-0.7,0.94-0.65c5.57,0.56,11.16,0.68,16.76,0.34c0.4-0.02,0.48,0.13,0.22,0.44
		c-2.74,3.4-4.62,7.24-5.62,11.5c-0.02,0.1-0.09,0.16-0.19,0.19c-0.03,0.01-0.06,0-0.09-0.01c-0.02-0.01-0.02-0.02-0.02-0.04
		l0.14-5.88c0.01-0.3-0.23-0.55-0.53-0.56l-10.9-0.25c-1.03-0.02-1.78-1.01-1.51-2.02L239.11,31.29z"/>
	<path class="st2" d="M275.74,35.14l1.23-4.47c0.05-0.17,0.23-0.28,0.4-0.24c2.8,0.61,5.62,0.82,8.47,0.61
		c0.31-0.02,0.4,0.11,0.27,0.39c-1.99,4.36-5.32,5.81-10.01,4.36C275.82,35.71,275.66,35.42,275.74,35.14z"/>
	<path class="st2" d="M289.1,30.47c0.01-0.03,0.04-0.05,0.07-0.04c2.17,0.49,4.44,0.7,6.79,0.63c0.3-0.01,0.45,0.13,0.45,0.43v5.6
		c0,0.21,0.15,0.38,0.35,0.41c6.22,1,11.83,4.64,10.3,11.77c-0.07,0.34-0.38,0.59-0.73,0.59h-4.85c-0.25,0-0.37-0.13-0.37-0.37
		c-0.02-1.38,0.19-3.01-0.31-4.2c-1.34-3.19-6.69-3.78-9.67-4.07c-0.23-0.02-0.34-0.14-0.34-0.37v-4.17c0-0.16-0.11-0.31-0.28-0.35
		l-2.38-0.58c-0.34-0.08-0.46-0.28-0.36-0.61C288.19,33.61,288.64,32.06,289.1,30.47z"/>
	<path class="st2" d="M300.57,36.14l-2.23-0.63c-0.23-0.07-0.37-0.31-0.3-0.54l1.18-4.09c0.05-0.2,0.19-0.3,0.4-0.28l6.67,0.56
		c0.2,0.01,0.33,0.13,0.38,0.33c0.65,2.85,0.25,5.51-1.21,7.99c-0.1,0.17-0.33,0.24-0.5,0.14l-3.98-2.14
		c-0.2-0.11-0.28-0.28-0.24-0.51l0.08-0.4C300.87,36.34,300.79,36.2,300.57,36.14z"/>
	<path class="st2" d="M309.59,30.7c0.06-0.22,0.2-0.31,0.43-0.26c2.8,0.64,5.63,0.82,8.49,0.52c0.28-0.02,0.36,0.09,0.25,0.34
		c-1.93,4.42-5.28,5.92-10.03,4.54c-0.28-0.08-0.44-0.37-0.37-0.65L309.59,30.7z"/>
	<path class="st2" d="M55.23,31.45c8.44-1.86,15.67-1.54,14.83,9.44c-0.03,0.39-0.13,0.41-0.31,0.06c-2.55-5.08-8.36-5.6-13.57-4.1
		c-0.22,0.07-0.46-0.08-0.49-0.31l-0.76-4.63C54.89,31.69,55.03,31.5,55.23,31.45z"/>
	<path class="st2" d="M122.05,30.85c8.83-1.41,9.53,5.71,8.92,12.16c-0.02,0.2-0.13,0.3-0.34,0.3h-5.38c-0.24,0-0.36-0.12-0.37-0.36
		c-0.07-3.8,0.02-8.47-2.94-11.8C121.79,30.98,121.83,30.88,122.05,30.85z"/>
	<path class="st2" d="M191.46,31.07c6.31,1.84,4.09,11.06,1.82,15.15c-0.26,0.48-0.37,0.45-0.31-0.1c0.43-3.71-0.5-7.03-2.78-9.94
		c-0.73-0.94-2.23-0.55-2.41,0.62l-0.55,3.49c-0.04,0.2-0.15,0.28-0.35,0.22l-3.7-0.99c-0.22-0.05-0.34-0.19-0.36-0.42
		C182.39,33.78,185.87,29.44,191.46,31.07z"/>
	<path class="st2" d="M196.83,31.39c8.48-1.5,15.46-1.8,14.82,9.47c-0.02,0.21-0.3,0.27-0.39,0.07c-2.47-5.29-8.67-5.32-13.55-4.21
		c-0.31,0.07-0.49-0.05-0.53-0.37l-0.69-4.48C196.45,31.6,196.56,31.44,196.83,31.39z"/>
	<path class="st2" d="M213.83,31.42c5.53-1.12,15.96-2.5,14.75,7.28c-0.04,0.31-0.16,0.35-0.37,0.13c-2.97-3.17-9.7-2.76-13.57-2.06
		c-0.32,0.05-0.51-0.08-0.55-0.4l-0.61-4.45C213.44,31.64,213.56,31.48,213.83,31.42z"/>
	<path class="st2" d="M259.42,31.45c8.55-1.87,15.47-1.61,14.81,9.44c-0.02,0.45-0.13,0.47-0.33,0.06c-2.4-5.11-8.5-5.58-13.57-4.1
		c-0.22,0.07-0.45-0.08-0.49-0.31l-0.72-4.66C259.09,31.65,259.18,31.51,259.42,31.45z"/>
	<path class="st2" d="M116.19,31.43c3.52-0.95,6.91,0.79,7.07,4.68c0.01,0.13-0.06,0.2-0.19,0.21l-5.92,0.28
		c-0.25,0.01-0.47-0.16-0.51-0.41l-0.72-4.34C115.88,31.63,115.97,31.49,116.19,31.43z"/>
	<path class="st2" d="M251.21,49.45c0.01-5.5,2.71-11.77,5.72-16.39c0.31-0.49,0.47-0.43,0.47,0.14v16.19
		c0,0.31-0.16,0.47-0.47,0.47h-5.31C251.4,49.86,251.21,49.68,251.21,49.45z"/>
	<path class="st2" d="M75.71,49.83c-0.16-5.94,2.16-11.98,5.83-16.6c0.25-0.32,0.38-0.28,0.38,0.13v15.6c0,0.28-0.14,0.44-0.42,0.48
		l-5.44,0.68C75.83,50.16,75.72,50.06,75.71,49.83z"/>
	<path class="st2" d="M113.89,33.51c0.08-0.13,0.28-0.07,0.28,0.08l0.01,8.58c0,0.25-0.12,0.39-0.37,0.42l-5.63,0.71
		c-0.28,0.04-0.42-0.09-0.41-0.37l0.14-5.03c0.01-0.28,0.14-0.45,0.42-0.52C110.7,36.83,112.55,35.54,113.89,33.51z"/>
	<path class="st2" d="M172.38,33.51c0.08-0.13,0.28-0.07,0.28,0.08l0.01,8.48c0,0.31-0.15,0.49-0.46,0.52l-5.47,0.67
		c-0.34,0.04-0.5-0.11-0.49-0.45l0.17-4.94c0.01-0.22,0.16-0.42,0.38-0.47C169.19,36.83,171.04,35.53,172.38,33.51z"/>
	<path class="st2" d="M285.9,33.7c0.02-0.14,0.14-0.18,0.36-0.13c0.11,0.03,0.19,0.13,0.19,0.25l0.01,8.35
		c0,0.25-0.12,0.39-0.37,0.42l-5.63,0.71c-0.28,0.04-0.41-0.09-0.4-0.37l0.12-5.04c0.01-0.31,0.16-0.49,0.46-0.55
		c2.2-0.46,3.94-1.61,5.2-3.47C285.88,33.82,285.9,33.76,285.9,33.7z"/>
	<path class="st2" d="M319.08,33.73l0.01,8.34c0,0.31-0.15,0.48-0.45,0.52l-5.45,0.7c-0.3,0.04-0.45-0.1-0.45-0.4l-0.03-5.01
		c-0.01-0.23,0.16-0.44,0.39-0.49c2.35-0.46,4.2-1.72,5.56-3.79C318.78,33.41,319.08,33.5,319.08,33.73z"/>
	<path class="st2" d="M101.87,35.8c0.52,6.55-0.39,13.15-8.18,14c-0.22,0.02-0.36-0.07-0.42-0.29l-1.08-4.09
		c-0.07-0.25,0.01-0.45,0.25-0.58c4.31-2.41,7.3-5.98,8.96-10.69c0.07-0.22,0.37-0.25,0.49-0.06c0.2,0.3,0.22,0.64,0.07,1.03
		C101.88,35.33,101.85,35.56,101.87,35.8z"/>
	<path class="st2" d="M228.62,43.25c-0.01,5.66-4.3,6.91-9.06,6.94c-0.28,0.01-0.31-0.08-0.1-0.26c3.37-2.8,3.55-8.14,2.72-12.12
		c-0.05-0.23,0.04-0.34,0.28-0.32C226.57,37.81,228.62,39.73,228.62,43.25z"/>
	<path class="st2" d="M64.06,37.57c5.29,1.36,6.21,7.49,5.91,11.92c-0.02,0.25-0.16,0.38-0.41,0.38h-5.21
		c-0.22,0-0.34-0.11-0.34-0.34L63.76,37.8C63.76,37.6,63.85,37.51,64.06,37.57z"/>
	<path class="st2" d="M149.83,49.98c-6.36-0.04-8.17-7.27-6.13-12.18c0.08-0.21,0.24-0.31,0.46-0.31h4.69c0.35,0,0.47,0.16,0.37,0.5
		c-1.09,3.67-1.93,8.72,0.76,11.65C150.21,49.87,150.15,49.99,149.83,49.98z"/>
	<path class="st2" d="M187.21,44.64c0.47,0.01,0.79-0.2,0.95-0.64l2.01-5.18c0.08-0.21,0.37-0.22,0.46-0.02
		c1.69,3.49,1.89,7.04,0.61,10.66c-0.1,0.27-0.28,0.4-0.57,0.4h-11.05c-0.22,0-0.4-0.08-0.54-0.25c-2.52-3.07-4.52-7.9-3.19-11.75
		c0.07-0.22,0.22-0.31,0.46-0.28l4.79,0.7c0.24,0.04,0.35,0.18,0.34,0.42c-0.13,2.02,0.32,3.88,1.36,5.6
		c0.1,0.18,0.3,0.29,0.51,0.29L187.21,44.64z"/>
	<path class="st2" d="M205.66,49.84c-0.09,0-0.16-0.07-0.16-0.16l-0.19-11.89c-0.01-0.16,0.07-0.22,0.23-0.19
		c5.25,1.3,6.3,7.12,5.97,11.86c-0.02,0.28-0.16,0.42-0.44,0.41L205.66,49.84z"/>
	<path class="st2" d="M240.5,45.29c-1.27-2.51-1.26-5.02,0.02-7.51c0.1-0.19,0.25-0.28,0.47-0.28l4.71,0.01
		c0.23,0,0.39,0.23,0.31,0.45c-1.3,3.39-0.01,6.96,1.25,10.6c0.11,0.32,0,0.52-0.32,0.61l-7.6,2.14c-0.29,0.08-0.49-0.02-0.58-0.31
		l-1.27-3.85c-0.07-0.22,0-0.36,0.22-0.43l2.56-0.85C240.56,45.77,240.64,45.57,240.5,45.29z"/>
	<path class="st2" d="M268.29,49.84c-0.11,0-0.16-0.05-0.16-0.16l-0.16-11.89c-0.01-0.17,0.07-0.23,0.24-0.19
		c5.33,1.47,6.21,7.09,5.89,11.9c-0.01,0.25-0.15,0.37-0.4,0.37L268.29,49.84z"/>
	<path class="st2" d="M151.2,44.58c4.24,0.01,7.33-1.9,9.26-5.71c0.13-0.26,0.22-0.25,0.24,0.05c0.41,4.54-1.32,11.81-7.39,10.97
		c-2.33-0.32-3.75-2.29-4.25-5.9c-0.03-0.2,0.1-0.39,0.28-0.44c0.19-0.06,0.4,0.04,0.49,0.22C150.03,44.21,150.64,44.58,151.2,44.58
		z"/>
	<path class="st2" d="M90.21,39.84c0.05,0.01,0.09,0.05,0.09,0.11l-0.19,15.29c-0.01,0.29-0.15,0.45-0.44,0.47l-5.08,0.37
		c-0.23,0.02-0.34-0.08-0.35-0.31c-0.18-5.09-0.11-10.18,0.21-15.25c0.07-1.03,0.61-1.47,1.62-1.31L90.21,39.84z"/>
	<path class="st2" d="M214.14,49.56c-0.52-0.08-0.73-0.37-0.66-0.89l0.63-4.2c0.04-0.28,0.19-0.39,0.47-0.33
		c2.15,0.44,4.3,0.49,6.46,0.16c0.23-0.04,0.32,0.05,0.28,0.28C220.68,48.58,218.28,50.24,214.14,49.56z"/>
	<path class="st2" d="M132.53,44.43c0.26,0,0.47,0.21,0.47,0.47v2.43c0,1.4-0.27,2.54-0.61,2.54h-15.67c-0.34,0-0.61-1.14-0.61-2.54
		V44.9c0-0.26,0.21-0.47,0.47-0.47H132.53z"/>
	<path class="st2" d="M290.28,49.87c-0.34,0-0.61-0.28-0.61-0.61l0.01-1.53c0.01-1.85,0.57-3.34,1.27-3.34l7.93,0.03
		c0.7,0,1.26,1.5,1.25,3.34l-0.01,1.53c0,0.34-0.28,0.61-0.61,0.61L290.28,49.87z"/>
</g>
</svg>
