<?xml version="1.0" encoding="utf-8"?>
<!-- Generator: Adobe Illustrator 27.7.0, SVG Export Plug-In . SVG Version: 6.00 Build 0)  -->
<svg version="1.1" id="Layer_1" xmlns="http://www.w3.org/2000/svg" xmlns:xlink="http://www.w3.org/1999/xlink" x="0px" y="0px"
	 viewBox="0 0 375 375" style="enable-background:new 0 0 375 375;" xml:space="preserve">
<style type="text/css">
	.st0{fill:none;stroke:#86E0EF;stroke-width:0;stroke-miterlimit:10;}
	.st1{fill:none;stroke:#FFE680;stroke-width:0;stroke-miterlimit:10;}
	.st2{fill:none;stroke:#86C670;stroke-width:0;stroke-miterlimit:10;}
	.st3{fill:none;stroke:#CFE7FF;stroke-width:0;stroke-miterlimit:10;}
	.st4{fill:none;stroke:#80C5FD;stroke-width:0;stroke-miterlimit:10;}
	.st5{fill:none;stroke:#82809A;stroke-width:0;stroke-miterlimit:10;}
	.st6{fill:none;stroke:#51689A;stroke-width:0;stroke-miterlimit:10;}
	.st7{fill:none;stroke:#4FACFD;stroke-width:0;stroke-miterlimit:10;}
	.st8{fill:none;stroke:#024697;stroke-width:0;stroke-miterlimit:10;}
	.st9{fill:#FFCC00;}
	.st10{fill:#0CC0DF;}
	.st11{fill:#040134;}
	.st12{fill:#9ECEFF;}
	.st13{fill:#FFFFFF;}
	.st14{fill:#008AFA;}
</style>
<g>
	<line class="st0" x1="173.96" y1="26.53" x2="160.67" y2="29.32"/>
	<path class="st1" d="M160.67,29.32c-4.4,1-8.6,2.55-12.59,4.66"/>
	<path class="st0" d="M148.08,33.98c-4.23,1.77-8.28,3.88-12.16,6.34"/>
	<path class="st1" d="M135.92,40.32c-3.82,2.23-7.39,4.81-10.72,7.72"/>
	<line class="st0" x1="125.2" y1="48.04" x2="115.35" y2="57.5"/>
	<path class="st1" d="M115.35,57.5c-3.16,3.32-5.92,6.85-8.3,10.57"/>
	<line class="st0" x1="107.05" y1="68.07" x2="100.14" y2="79.72"/>
	<path class="st1" d="M100.14,79.72c-2.02,3.97-3.65,8.08-4.9,12.34"/>
	<path class="st0" d="M95.24,92.07c-1.51,4.27-2.63,8.65-3.37,13.12"/>
	<path class="st1" d="M91.86,105.19c-1,4.33-1.42,8.71-1.28,13.15"/>
	<line class="st0" x1="90.58" y1="118.35" x2="90.77" y2="132.03"/>
	<path class="st1" d="M90.77,132.03c0.22,4.45,0.91,8.82,2.06,13.12"/>
	<line class="st0" x1="92.83" y1="145.15" x2="96.93" y2="158.32"/>
	<line class="st1" x1="96.93" y1="158.32" x2="102.75" y2="170.34"/>
	<line class="st0" x1="102.75" y1="170.34" x2="110.05" y2="181.37"/>
	<path class="st1" d="M110.05,181.37c2.61,3.7,5.6,7.07,8.97,10.09"/>
	<path class="st0" d="M119.02,191.46c3.16,3.31,6.6,6.31,10.31,9"/>
	<path class="st1" d="M129.33,200.46c3.37,2.74,7,5.06,10.9,6.97"/>
	<path class="st0" d="M140.23,207.43c3.97,2.44,8.15,4.42,12.56,5.94"/>
	<path class="st1" d="M152.79,213.37c4.06,1.66,8.23,2.92,12.53,3.78"/>
	<path class="st0" d="M165.33,217.15c4.44,1.15,8.95,1.9,13.53,2.22"/>
	<path class="st1" d="M178.85,219.37c4.37,0.52,8.74,0.58,13.12,0.19"/>
	<path class="st0" d="M191.98,219.55c4.6-0.1,9.16-0.61,13.69-1.5"/>
	<path class="st1" d="M205.66,218.05c4.36-0.83,8.62-2.01,12.78-3.53"/>
	<path class="st0" d="M218.44,214.52c4.38-1.3,8.56-3.04,12.56-5.25"/>
	<path class="st1" d="M231,209.27c4.03-1.88,7.84-4.13,11.44-6.75"/>
	<line class="st0" x1="242.44" y1="202.52" x2="253.09" y2="193.93"/>
	<path class="st1" d="M253.09,193.93c3.36-2.86,6.37-6.06,9.03-9.59"/>
	<path class="st0" d="M262.12,184.34c2.96-3.47,5.63-7.15,8-11.06"/>
	<line class="st1" x1="270.13" y1="173.28" x2="276.3" y2="161.46"/>
	<path class="st0" d="M276.3,161.46c1.82-4.12,3.33-8.44,4.51-12.94"/>
	<path class="st1" d="M280.81,148.53c1.35-4.21,2.23-8.53,2.62-12.94"/>
	<path class="st0" d="M283.44,135.59c0.7-4.48,0.94-8.98,0.75-13.5"/>
	<path class="st1" d="M284.19,122.09c0.25-4.54-0.06-9.04-0.94-13.5"/>
	<path class="st0" d="M283.25,108.6c-0.52-4.49-1.51-8.88-2.97-13.15"/>
	<path class="st1" d="M280.28,95.44c-0.94-4.39-2.44-8.58-4.5-12.56"/>
	<path class="st0" d="M275.78,82.88c-1.7-4.17-3.82-8.11-6.37-11.81"/>
	<path class="st1" d="M269.41,71.07c-2.18-3.95-4.81-7.57-7.87-10.87"/>
	<line class="st0" x1="261.53" y1="60.2" x2="252.11" y2="50.4"/>
	<path class="st1" d="M252.11,50.4c-3.36-3.1-6.85-5.84-10.45-8.2"/>
	<line class="st0" x1="241.66" y1="42.2" x2="229.79" y2="35.43"/>
	<path class="st1" d="M229.79,35.43c-4.06-2.15-8.15-3.82-12.28-5.01"/>
	<path class="st0" d="M217.5,30.42c-4.27-1.54-8.65-2.59-13.15-3.16"/>
	<path class="st1" d="M204.35,27.26c-4.37-1.04-8.8-1.54-13.31-1.5"/>
	<path class="st0" d="M191.04,25.76c-1.26-0.27-2.51-0.27-3.75,0"/>
	<path class="st1" d="M187.29,25.76c-4.28-0.22-8.73,0.04-13.33,0.76"/>
	<line class="st2" x1="187.29" y1="25.76" x2="187.29" y2="39.01"/>
	<line class="st1" x1="187.29" y1="39.01" x2="175.67" y2="39.95"/>
	<line class="st2" x1="175.67" y1="39.95" x2="173.96" y2="26.53"/>
	<line class="st0" x1="175.67" y1="39.95" x2="164.23" y2="42.39"/>
	<line class="st2" x1="164.23" y1="42.39" x2="160.67" y2="29.32"/>
	<line class="st1" x1="234.13" y1="53.29" x2="243.14" y2="60.5"/>
	<line class="st0" x1="243.14" y1="60.5" x2="251.38" y2="68.85"/>
	<line class="st1" x1="251.38" y1="68.85" x2="257.97" y2="78.07"/>
	<line class="st0" x1="257.97" y1="78.07" x2="263.58" y2="88.54"/>
	<line class="st1" x1="263.58" y1="88.54" x2="267.56" y2="99.04"/>
	<line class="st0" x1="267.56" y1="99.04" x2="270.13" y2="111.78"/>
	<line class="st1" x1="270.13" y1="111.78" x2="270.93" y2="122.28"/>
	<line class="st0" x1="270.93" y1="122.28" x2="270.14" y2="134.05"/>
	<line class="st1" x1="270.14" y1="134.05" x2="267.83" y2="145.2"/>
	<line class="st0" x1="267.83" y1="145.2" x2="263.96" y2="156.06"/>
	<line class="st1" x1="263.96" y1="156.06" x2="258.62" y2="166.3"/>
	<line class="st0" x1="258.62" y1="166.3" x2="251.68" y2="175.98"/>
	<line class="st1" x1="251.68" y1="175.98" x2="243.98" y2="184.16"/>
	<line class="st0" x1="243.98" y1="184.16" x2="234.91" y2="191.49"/>
	<line class="st1" x1="234.91" y1="191.49" x2="224.94" y2="197.46"/>
	<line class="st0" x1="224.94" y1="197.46" x2="214.29" y2="201.99"/>
	<line class="st1" x1="214.29" y1="201.99" x2="203.2" y2="204.96"/>
	<line class="st0" x1="203.2" y1="204.96" x2="191.41" y2="206.3"/>
	<line class="st1" x1="191.41" y1="206.3" x2="180.02" y2="206.08"/>
	<line class="st0" x1="180.02" y1="206.08" x2="168.35" y2="204.24"/>
	<line class="st1" x1="168.35" y1="204.24" x2="157.48" y2="200.87"/>
	<line class="st0" x1="157.48" y1="200.87" x2="146.79" y2="196.12"/>
	<line class="st1" x1="146.79" y1="196.12" x2="137.08" y2="189.59"/>
	<line class="st0" x1="137.08" y1="189.59" x2="128.26" y2="182.09"/>
	<line class="st1" x1="128.26" y1="182.09" x2="120.8" y2="173.33"/>
	<line class="st0" x1="120.8" y1="173.33" x2="114.36" y2="163.55"/>
	<line class="st1" x1="114.36" y1="163.55" x2="109.3" y2="153.19"/>
	<line class="st0" x1="109.3" y1="153.19" x2="105.92" y2="141.94"/>
	<line class="st1" x1="105.92" y1="141.94" x2="104.02" y2="130.72"/>
	<line class="st0" x1="104.02" y1="130.72" x2="103.85" y2="118.92"/>
	<line class="st1" x1="103.85" y1="118.92" x2="104.96" y2="107.47"/>
	<line class="st0" x1="104.96" y1="107.47" x2="107.96" y2="96.04"/>
	<line class="st1" x1="107.96" y1="96.04" x2="112.3" y2="85.75"/>
	<line class="st0" x1="112.3" y1="85.75" x2="118.3" y2="75.44"/>
	<line class="st1" x1="118.3" y1="75.44" x2="125.38" y2="66.65"/>
	<line class="st0" x1="125.38" y1="66.65" x2="133.7" y2="58.54"/>
	<line class="st1" x1="133.7" y1="58.54" x2="143.08" y2="51.79"/>
	<line class="st2" x1="191.04" y1="25.76" x2="190.48" y2="39.2"/>
	<line class="st0" x1="190.48" y1="39.2" x2="187.29" y2="39.01"/>
	<line class="st1" x1="164.23" y1="42.39" x2="153.54" y2="46.01"/>
	<line class="st2" x1="153.54" y1="46.01" x2="148.08" y2="33.98"/>
	<line class="st2" x1="109.3" y1="153.19" x2="96.93" y2="158.32"/>
	<line class="st2" x1="137.08" y1="189.59" x2="129.33" y2="200.46"/>
	<line class="st2" x1="241.66" y1="42.2" x2="234.13" y2="53.29"/>
	<line class="st0" x1="234.13" y1="53.29" x2="224.01" y2="47.48"/>
	<line class="st2" x1="283.44" y1="135.59" x2="270.14" y2="134.05"/>
	<line class="st2" x1="270.13" y1="173.28" x2="258.62" y2="166.3"/>
	<line class="st2" x1="284.19" y1="122.09" x2="270.93" y2="122.28"/>
	<line class="st2" x1="118.3" y1="75.44" x2="107.05" y2="68.07"/>
	<line class="st2" x1="229.79" y1="35.43" x2="224.01" y2="47.48"/>
	<line class="st1" x1="224.01" y1="47.48" x2="213.35" y2="43.14"/>
	<line class="st2" x1="262.12" y1="184.34" x2="251.68" y2="175.98"/>
	<line class="st2" x1="168.35" y1="204.24" x2="165.33" y2="217.15"/>
	<line class="st2" x1="120.8" y1="173.33" x2="110.05" y2="181.37"/>
	<line class="st2" x1="114.36" y1="163.55" x2="102.75" y2="170.34"/>
	<line class="st0" x1="153.54" y1="46.01" x2="143.08" y2="51.79"/>
	<path class="st2" d="M143.08,51.79c-2.05-4.03-4.44-7.85-7.15-11.47"/>
	<line class="st2" x1="252.11" y1="50.4" x2="243.14" y2="60.5"/>
	<line class="st2" x1="107.96" y1="96.04" x2="95.24" y2="92.07"/>
	<path class="st2" d="M191.98,219.55c0.17-4.43-0.01-8.85-0.56-13.25"/>
	<line class="st2" x1="218.44" y1="214.52" x2="214.29" y2="201.99"/>
	<line class="st2" x1="231" y1="209.27" x2="224.94" y2="197.46"/>
	<line class="st2" x1="104.96" y1="107.47" x2="91.86" y2="105.19"/>
	<path class="st2" d="M112.3,85.75c-3.89-2.33-7.95-4.34-12.16-6.03"/>
	<line class="st2" x1="157.48" y1="200.87" x2="152.79" y2="213.37"/>
	<line class="st2" x1="276.3" y1="161.46" x2="263.96" y2="156.06"/>
	<line class="st2" x1="242.44" y1="202.52" x2="234.91" y2="191.49"/>
	<line class="st2" x1="205.66" y1="218.05" x2="203.2" y2="204.96"/>
	<line class="st2" x1="269.41" y1="71.07" x2="257.97" y2="78.07"/>
	<line class="st2" x1="146.79" y1="196.12" x2="140.23" y2="207.43"/>
	<path class="st2" d="M283.25,108.6c-5.85,1.01-9.84,1.63-11.97,1.87c-0.88,0.1-1.27,0.54-1.15,1.31"/>
	<line class="st2" x1="125.38" y1="66.65" x2="115.35" y2="57.5"/>
	<line class="st2" x1="133.7" y1="58.54" x2="125.2" y2="48.04"/>
	<line class="st2" x1="280.81" y1="148.53" x2="267.83" y2="145.2"/>
	<line class="st2" x1="128.26" y1="182.09" x2="119.02" y2="191.46"/>
	<line class="st2" x1="253.09" y1="193.93" x2="243.98" y2="184.16"/>
	<line class="st2" x1="280.28" y1="95.44" x2="267.56" y2="99.04"/>
	<line class="st2" x1="103.85" y1="118.92" x2="90.58" y2="118.35"/>
	<line class="st2" x1="261.53" y1="60.2" x2="251.38" y2="68.85"/>
	<line class="st2" x1="104.02" y1="130.72" x2="90.77" y2="132.03"/>
	<line class="st2" x1="180.02" y1="206.08" x2="178.85" y2="219.37"/>
	<line class="st2" x1="204.35" y1="27.26" x2="201.73" y2="40.32"/>
	<line class="st1" x1="201.73" y1="40.32" x2="190.48" y2="39.2"/>
	<line class="st2" x1="217.5" y1="30.42" x2="213.35" y2="43.14"/>
	<line class="st0" x1="213.35" y1="43.14" x2="201.73" y2="40.32"/>
	<line class="st2" x1="275.78" y1="82.88" x2="263.58" y2="88.54"/>
	<line class="st2" x1="105.92" y1="141.94" x2="92.83" y2="145.15"/>
	<path class="st3" d="M248.65,233.43c-0.22,0.34-0.42,0.54-0.61,0.6c-3.49,1.09-6.46,2.77-8.91,5.06c-0.7,0.65-0.44,1.81,0.46,2.11
		c1.97,0.66,3.91,0.9,5.81,0.71"/>
	<path class="st4" d="M245.41,241.92l-0.94,1.59c-0.4,0.66,0.07,1.5,0.85,1.51c4.86,0.08,5.78-1.57,8.91-4.66"/>
	<line class="st3" x1="254.22" y1="240.36" x2="277.97" y2="237.09"/>
	<path class="st4" d="M277.97,237.09l-5.18,7.97c-0.68,1.05,0.19,2.41,1.42,2.24l4.95-0.7c0.17-0.02,0.33-0.1,0.46-0.21l3.28-2.85"
		/>
	<path class="st5" d="M282.9,243.55c4.81,0.33,9.22-0.73,13.24-3.18c0.25-0.14,0.34-0.36,0.28-0.64l-1.05-5.17"/>
	<path class="st3" d="M295.38,234.56c8.92-1.15,17.75-2.56,26.49-4.21c4.77-0.9,8.58-3.34,12.28-6.17c0.3-0.23,0.25-0.7-0.09-0.87
		l-5.38-2.59"/>
	<path class="st5" d="M328.69,220.72c-2.32-1.48-4.77-2.47-7.35-2.98"/>
	<path class="st3" d="M321.34,217.74c-2.43-1.25-4.87-1.59-7.33-1.01c-6.19,1.45-15.16,3.76-26.89,6.91"/>
	<path class="st4" d="M287.12,223.63c-2.57-3.1-7.16-0.97-10.46-0.18c-0.34,0.08-0.38,0.24-0.13,0.49l1.84,1.84"/>
	<line class="st3" x1="278.36" y1="225.78" x2="269.81" y2="228.02"/>
	<path class="st5" d="M269.81,228.02c-4.91-0.53-8.49-1.22-10.72-2.05c-4.83-1.81-8.68-7.75-12.05-11.8
		c-1.48-1.78-2.38-2.27-4.62-1.87c-2.6,0.46-4.66,0.93-6.2,1.4c-0.32,0.1-0.39,0.29-0.2,0.57l12.64,19.17"/>
	<path class="st6" d="M269.81,228.02c-6.68,1.9-13.39,3.7-20.12,5.4c-0.02,0.01-0.13,0.04-0.3,0.13c-0.22,0.1-0.46,0.06-0.74-0.11"
		/>
	<path class="st6" d="M321.34,217.74l-7.42,1.64c-0.33,0.07-0.53,0.41-0.45,0.74c0.64,2.4,2.18,3.37,4.64,2.89
		c3.54-0.67,7.06-1.43,10.57-2.29"/>
	<path class="st6" d="M295.38,234.56l-0.27-0.94c-0.07-0.22-0.21-0.34-0.43-0.36c-0.32-0.03-0.62,0.04-0.9,0.22"/>
	<line class="st3" x1="293.78" y1="233.49" x2="292.84" y2="233.61"/>
	<line class="st6" x1="292.84" y1="233.61" x2="291.71" y2="234.05"/>
	<path class="st7" d="M291.71,234.05c-4.74,0.53-9.32,1.54-13.75,3.04"/>
	<path class="st7" d="M254.22,240.36l5.02-5.28c0.23-0.25,0.19-0.34-0.15-0.27l-9.56,1.9c-0.38,0.07-0.73,0.3-0.95,0.62l-3.16,4.59"
		/>
	<line class="st7" x1="278.36" y1="225.78" x2="287.12" y2="223.63"/>
	<line class="st8" x1="282.9" y1="243.55" x2="291.71" y2="234.05"/>
	<path class="st5" d="M292.84,233.61c0.3,0.7,1.84,6.09,1.86,6.1c0.22,0.07,0.31,0,0.27-0.23l-1.19-5.99"/>
	<path class="st0" d="M86.4,284.63c-0.04-0.22,0.25-0.34,0.4-0.16c8.2,10.71,20.98,2.29,21.38-8.82c0.21-5.98,0.38-11.47-3.79-16.12
		c-4.81-5.35-12.24-5.5-16.86,0.5c-0.18,0.23-0.55,0.1-0.55-0.19v-20.79c0-0.26-0.1-0.52-0.29-0.7c-2.02-2.05-6.18-2.11-8.2-0.1
		c-0.21,0.21-0.32,0.49-0.32,0.78v47.1c0,0.21,0.07,0.41,0.19,0.58C80.6,289.77,87.13,289.43,86.4,284.63"/>
	<path class="st1" d="M330.7,240.12c0-1.81-1.47-3.28-3.28-3.28h-2.23c-1.81,0-3.28,1.47-3.28,3.28v45.25
		c0,1.81,1.47,3.28,3.28,3.28h2.23c1.81,0,3.28-1.47,3.28-3.28V240.12"/>
	<path class="st0" d="M35.85,283.76c-1.49,4.9,7.4,6.72,8.44,2.94c0.95-3.49,1.78-6.37,2.48-8.65c0.06-0.21,0.25-0.35,0.47-0.35
		h14.99c0.27,0,0.44,0.13,0.52,0.39c0.77,2.5,1.49,5.01,2.17,7.54c1.02,3.79,4.09,3.65,6.98,2.19c2.11-1.07,2.21-2.64,1.54-4.84
		c-4.14-13.43-8.27-26.86-12.4-40.29c-0.56-1.82-0.73-3.09-2.55-3.99c-2.42-1.18-8.41-1.3-9.34,1.73
		C44.69,254.87,40.25,269.31,35.85,283.76"/>
	<path class="st1" d="M181.99,238.2c-2.17-0.13-4.36-0.1-6.57,0.07c-0.24,0.02-0.47,0.12-0.64,0.29c-1.88,1.82-2.06,7.51,1.07,7.46
		c2.36-0.03,4.67-0.03,6.93-0.01c0.21,0.01,0.38,0.18,0.38,0.39c0.02,8.14,0.01,16.3-0.01,24.45c-0.02,6.14-1.08,11.2-8.43,10.39
		c-3.97-0.44-5.75-3.16-5.98-7.01c-0.25-4.36-9.42-4.51-9.1,0.88c0.69,11.53,11.09,15.65,21.12,13.54
		c8.74-1.84,11.41-8.41,11.4-16.59c-0.01-10-0.01-20.01,0-30.01C192.18,236.71,185.29,238.38,181.99,238.2"/>
	<path class="st0" d="M113.34,279.12c4.24,12.53,21.39,13.69,27.61,2.2c2.08-3.85,2.01-8.89,1.48-13.26
		c-1.91-15.9-25.21-16.75-29.42-1.3C112.2,269.77,112.42,276.41,113.34,279.12"/>
	<path class="st1" d="M216.54,269.38c-0.02,0.36-0.32,0.64-0.68,0.64c-4.55-0.13-11.45,0.22-15.2,3.06
		c-4.59,3.48-3.7,12.51,1.21,15.1c5.02,2.65,11.19,0.45,14.74-3.81c0.29-0.34,0.85-0.06,0.73,0.37c-1.27,4.63,5.3,4.7,7.72,2.41
		c0.18-0.17,0.28-0.41,0.28-0.66c0.02-5.26,0.01-10.51-0.01-15.76c-0.02-3.59-0.4-6.22-1.14-7.9c-3.7-8.4-15.08-8.71-22.32-4.98
		c-4.21,2.16-1.78,8.44,2.26,6.4C208.91,261.82,216.84,261.72,216.54,269.38"/>
	<path class="st1" d="M240.62,260.11l-0.34-2.59c-0.02-0.18-0.13-0.34-0.28-0.43c-2.59-1.65-5.05-1.56-7.36,0.26
		c-0.22,0.18-0.36,0.46-0.36,0.75c0.02,9.1,0.02,18.19,0.01,27.29c-0.01,4.48,6.51,3.82,8.58,1.35c0.16-0.19,0.25-0.43,0.25-0.69
		c-0.04-5.23-0.03-10.45,0.02-15.68c0.08-9.76,11.06-8.66,11.04-0.9c-0.02,5.33-0.02,10.66,0.01,15.98c0.01,4.35,8.9,4.45,8.92-0.04
		c0.02-5.27,0.04-10.54,0.07-15.82c0.05-8.64,10.93-8.03,11-0.28c0.05,5.56,0.06,11.15,0.02,16.77c0,0.24,0.08,0.47,0.24,0.66
		c2.21,2.64,8.58,2.98,8.59-1.58c0.01-5.71,0-11.43-0.05-17.15c-0.1-12.35-15.56-17.28-22.46-5.89c-0.07,0.13-0.28,0.12-0.34-0.02
		c-3.57-8.17-11.77-8.64-17.2-1.87C240.88,260.35,240.65,260.29,240.62,260.11"/>
	<path class="st1" d="M291.48,285.62c4.86,3.58,10.39,4.66,16.59,3.25c2.29-0.52,7.55-2.8,7.21-5.64c-0.39-3.2-2.99-4.09-5.66-2.59
		c-5.24,2.93-14.23,2.43-14.25-5.53c-0.01-0.25,0.12-0.37,0.37-0.37c5.22,0,10.43-0.13,15.64-0.39c2.09-0.1,3.39-0.93,3.89-2.5
		c2.66-8.3-4.34-15.67-12.49-16.26c-7.88-0.55-16.15,5.03-16.31,13.3C286.35,275.64,285.97,281.57,291.48,285.62"/>
	<path class="st5" d="M128.05,314.33c-0.01,0.16,0.12,0.31,0.28,0.31h7.3c0.16,0,0.28,0.13,0.28,0.28v24.74
		c0,0.16,0.13,0.28,0.28,0.28h3.93c0.16,0,0.28-0.13,0.28-0.28v-24.74c0-0.16,0.13-0.28,0.28-0.28h6.9c0.15,0,0.27-0.11,0.28-0.26
		l0.28-3.74c0.01-0.16-0.12-0.31-0.28-0.31h-19.27c-0.15,0-0.27,0.11-0.28,0.26L128.05,314.33"/>
	<path class="st5" d="M153.57,315.33c-4.63,6.71-4.42,22.11,5.73,24.31c14.95,3.24,19.6-12.39,14.71-23.3
		C170.24,307.94,158.04,308.87,153.57,315.33"/>
	<path class="st5" d="M179.73,329.67c0.34,14.65,21.63,13.77,21.62-0.98c-0.01-5.97-0.01-11.96,0-17.97c0-0.26-0.13-0.4-0.4-0.4
		h-3.37c-0.3,0-0.55,0.25-0.54,0.55c0.02,5.49-0.01,10.98-0.09,16.46c-0.06,3.97-1.06,8.31-5.92,8.55c-5.25,0.27-6.5-2.97-6.72-7.69
		c-0.27-5.78-0.31-11.59-0.13-17.41c0.01-0.31-0.13-0.46-0.44-0.46H180c-0.25,0-0.37,0.12-0.37,0.37
		C179.54,317.03,179.58,323.35,179.73,329.67"/>
	<path class="st5" d="M210.51,328.56l3.87-0.19c0.32-0.02,0.55,0.12,0.68,0.41l5.16,10.8c0.1,0.22,0.33,0.36,0.58,0.36h4.16
		c0.31,0,0.4-0.14,0.27-0.43l-5.8-12.18c-0.1-0.23-0.07-0.43,0.1-0.61c5.18-5.23,4.7-15.46-4.27-16.09
		c-3.71-0.25-6.78-0.36-9.22-0.34c-0.25,0.01-0.38,0.13-0.38,0.39v28.87c0,0.25,0.13,0.37,0.37,0.37h3.74
		c0.25,0,0.37-0.12,0.37-0.37l0.03-10.67C210.18,328.69,210.3,328.57,210.51,328.56"/>
	<path class="st5" d="M229.23,323.32c3.24,2.47,11.07,3.09,12.7,6.4c1.01,2.04-0.09,4.22-2.22,5.06c-3.94,1.55-7.76,1.12-11.47-1.28
		c-0.31-0.19-0.54-0.13-0.7,0.19l-1.43,2.86c-0.13,0.25-0.04,0.55,0.2,0.7c4.78,2.86,9.68,3.48,14.7,1.84
		c6.76-2.2,8.32-11.4,1.49-14.77c-2.39-1.18-10.84-2.71-10.87-5.84c-0.07-5.23,9.3-3.94,12.2-3.05c0.17,0.05,0.36-0.05,0.4-0.23
		l0.74-3.42c0.05-0.23-0.04-0.37-0.26-0.44c-4.41-1.27-11.15-1.8-14.78,1.12C226.88,314.9,225.55,320.52,229.23,323.32"/>
	<path class="st1" d="M177.92,123.55c0.14-0.14,0.38-0.04,0.38,0.16c-0.04,9.6-0.04,19.11,0.03,28.52c0.05,7,4.74,11.65,10.25,15.23
		c0.28,0.18,0.34,0.12,0.2-0.17c-0.6-1.3-0.9-2.68-0.9-4.13c-0.01-21.61-0.03-43.22-0.05-64.84c-0.01-14.29-6.76-25.93-21.91-27.07
		c-1.85-0.14-3.46,0.07-4.82,0.65c-4.19,1.77-8.86,7.54-12.01,10.9c-3.61,3.85-5.31,6.88-5.31,11.94
		c0.01,20.91,0.01,41.84-0.01,62.76c-0.01,3.64-1.22,7.1-3.66,10.38c-0.01,0.03-0.02,0.03-0.06,0.01c-0.04-0.01-0.04-0.03,0-0.04
		c7.21-3.31,13.27-8.28,13.26-16.87c-0.01-8.17,0.01-16.39,0.08-24.65c0-0.26,0.13-0.4,0.4-0.4c6.29-0.09,12.52-0.14,18.67-0.15
		C174.68,125.74,176.5,125.01,177.92,123.55"/>
	<path class="st0" d="M222.88,158.55c-9.55,2.09-16.82-2.44-19.96-11.26c-1.56-4.39-3.01-20.68-0.32-24.34
		c0.05-0.07,0.04-0.17-0.02-0.23c-0.06-0.06-0.16-0.07-0.23-0.02c-5.28,3.65-9.73,8.47-9.95,15.19c-0.48,14.34,4.46,27.17,20.28,29
		c2.08,0.24,4.35-0.48,5.93-1.64c7.83-5.78,15.08-9.59,15.1-20.83c0.04-23.43,0.07-46.87,0.07-70.3c0-0.58,0.32-1.43,0.97-2.57
		c0.19-0.32,0.12-0.38-0.19-0.18c-4.55,2.93-10.17,8.41-10.17,14c0.02,21.98,0.02,43.97-0.01,65.95c-0.01,2.06-0.34,4.32-1.02,6.79
		C223.3,158.34,223.14,158.5,222.88,158.55"/>
	<path class="st1" d="M153.42,118.37c0.01,0.7,0.25,0.79,0.72,0.28c1.46-1.6,3.45-2.38,5.96-2.38c5.92,0.02,11.8,0.02,17.63,0.02
		c0.29,0,0.53-0.24,0.54-0.53c0.08-8.77,1.27-20.13-2.85-28.1c-3.96-7.67-13.06-11.19-21.24-8.23c-0.24,0.09-0.42,0.3-0.46,0.55
		c-0.19,1-0.3,2.23-0.31,3.69C153.28,95.02,153.29,106.59,153.42,118.37"/>
	<path class="st3" d="M311.04,223c-0.27-1.22-1.47-1.99-2.69-1.72l-2.01,0.44c-1.22,0.27-1.99,1.48-1.72,2.69l1.09,4.94
		c0.27,1.22,1.47,1.99,2.69,1.72l2.01-0.44c1.22-0.27,1.99-1.48,1.72-2.69L311.04,223"/>
	<path class="st6" d="M301.88,225.72c-0.11-0.4-0.52-0.64-0.92-0.53l-1.13,0.31c-0.4,0.11-0.64,0.52-0.53,0.92l0.55,2.01
		c0.11,0.4,0.52,0.64,0.92,0.53l1.13-0.31c0.4-0.11,0.64-0.52,0.53-0.92L301.88,225.72"/>
	<path class="st6" d="M298.11,226.59c-0.09-0.37-0.47-0.6-0.84-0.52l-1.27,0.3c-0.37,0.09-0.61,0.46-0.52,0.84l0.51,2.16
		c0.09,0.37,0.47,0.6,0.84,0.52l1.27-0.3c0.37-0.09,0.61-0.46,0.52-0.84L298.11,226.59"/>
	<path class="st6" d="M294.3,227.49c-0.12-0.44-0.57-0.7-1.01-0.58l-1.01,0.27c-0.44,0.12-0.7,0.57-0.58,1.01l0.52,1.94
		c0.12,0.44,0.57,0.7,1.01,0.58l1.01-0.27c0.44-0.12,0.7-0.57,0.58-1.01L294.3,227.49"/>
	<path class="st6" d="M290.54,228.4c-0.1-0.46-0.55-0.75-1.02-0.65l-0.98,0.21c-0.46,0.1-0.75,0.56-0.65,1.02l0.42,1.92
		c0.1,0.46,0.55,0.75,1.02,0.65l0.98-0.21c0.46-0.1,0.75-0.56,0.65-1.02L290.54,228.4"/>
	<path class="st6" d="M286.63,229.07c-0.1-0.38-0.49-0.61-0.87-0.51l-1.26,0.33c-0.38,0.1-0.6,0.49-0.51,0.87l0.57,2.16
		c0.1,0.38,0.49,0.61,0.87,0.51l1.26-0.33c0.38-0.1,0.6-0.49,0.51-0.87L286.63,229.07"/>
	<path class="st6" d="M282.86,230.05c-0.11-0.44-0.55-0.71-0.99-0.6l-1.05,0.26c-0.43,0.11-0.7,0.55-0.6,0.99l0.48,1.94
		c0.11,0.44,0.55,0.71,0.99,0.6l1.05-0.26c0.43-0.11,0.7-0.55,0.6-0.99L282.86,230.05"/>
	<path class="st6" d="M279.03,230.95c-0.12-0.48-0.61-0.77-1.09-0.65l-0.92,0.23c-0.49,0.12-0.78,0.61-0.65,1.09l0.46,1.85
		c0.12,0.48,0.61,0.77,1.09,0.65l0.92-0.23c0.49-0.12,0.78-0.61,0.65-1.09L279.03,230.95"/>
	<path class="st6" d="M275.24,231.77c-0.1-0.45-0.55-0.72-1-0.62l-0.99,0.23c-0.45,0.1-0.73,0.55-0.62,1l0.46,1.96
		c0.1,0.45,0.55,0.72,1,0.62l0.99-0.23c0.45-0.1,0.73-0.55,0.62-1L275.24,231.77"/>
	<path class="st6" d="M271.48,232.74c-0.1-0.49-0.58-0.8-1.07-0.7l-0.91,0.19c-0.49,0.1-0.8,0.59-0.7,1.07l0.36,1.75
		c0.1,0.49,0.58,0.8,1.07,0.7l0.91-0.19c0.49-0.1,0.8-0.59,0.7-1.07L271.48,232.74"/>
	<path class="st6" d="M267.64,233.49c-0.11-0.44-0.55-0.72-0.99-0.61l-1.02,0.24c-0.45,0.11-0.72,0.55-0.61,0.99l0.45,1.91
		c0.11,0.44,0.55,0.72,0.99,0.61l1.02-0.24c0.45-0.11,0.72-0.55,0.61-0.99L267.64,233.49"/>
	<path class="st3" d="M310.4,223.12c-0.2-0.92-1.1-1.49-2.01-1.3l-1.85,0.4c-0.91,0.2-1.5,1.1-1.3,2.01l1.06,4.9
		c0.2,0.92,1.1,1.49,2.01,1.3l1.85-0.4c0.91-0.2,1.5-1.1,1.3-2.01L310.4,223.12"/>
	<path class="st0" d="M99.18,269.18c0.04-3.08-2.42-5.61-5.5-5.66l-0.76-0.01c-3.08-0.04-5.61,2.42-5.66,5.5l-0.09,6.67
		c-0.04,3.08,2.42,5.61,5.5,5.66l0.76,0.01c3.08,0.04,5.61-2.42,5.66-5.5L99.18,269.18"/>
	<path class="st0" d="M48.8,270.4c-0.05,0.19,0.09,0.37,0.28,0.37h11.31c0.19,0,0.33-0.18,0.28-0.37l-5.65-19.94
		c-0.08-0.28-0.47-0.28-0.55,0L48.8,270.4"/>
	<path class="st0" d="M133.59,269.12c0.02-3.06-2.44-5.55-5.49-5.57l-0.76-0.01c-3.05-0.02-5.54,2.43-5.57,5.49l-0.05,6.73
		c-0.02,3.06,2.44,5.55,5.49,5.57l0.76,0.01c3.05,0.02,5.54-2.43,5.57-5.49L133.59,269.12"/>
	<path class="st1" d="M210.4,275.17c-5.98,1.09-4.32,8.8,0.67,7.3c3.67-1.1,5.5-3.55,5.5-7.34c0-0.28-0.14-0.42-0.42-0.43
		C214.39,274.64,212.48,274.8,210.4,275.17"/>
	<path class="st1" d="M296.39,269.51l10.09-0.18c0.56-0.01,1.01-0.47,1-1.03l-0.01-0.55c-0.06-3.15-2.68-5.66-5.87-5.61l-0.58,0.01
		c-3.19,0.05-5.73,2.65-5.68,5.8l0.01,0.55C295.36,269.07,295.82,269.52,296.39,269.51"/>
	<path class="st5" d="M156.28,331.09c1.6,4.66,7.46,5.93,10.98,3.4c4.39-3.15,4.68-10.36,2.96-15.17
		c-1.59-4.44-6.58-6.01-10.51-3.67C154.78,318.6,154.65,326.35,156.28,331.09"/>
	<path class="st5" d="M210.29,314.72l0.1,9.31c0,0.11,0.08,0.18,0.18,0.18l2.88-0.03c2.57-0.03,4.64-1.78,4.62-3.93l-0.02-1.9
		c-0.02-2.14-2.13-3.86-4.71-3.84l-2.88,0.03C210.36,314.54,210.28,314.62,210.29,314.72"/>
</g>
<path class="st9" d="M187.29,25.76v13.25l-11.62,0.94l-1.71-13.42C178.56,25.8,183.01,25.54,187.29,25.76z"/>
<path class="st10" d="M191.04,25.76l-0.56,13.44l-3.19-0.19V25.76C188.53,25.49,189.78,25.49,191.04,25.76z"/>
<path class="st9" d="M191.04,25.76c4.51-0.04,8.94,0.46,13.31,1.5l-2.62,13.06l-11.25-1.12L191.04,25.76z"/>
<polygon class="st10" points="173.96,26.53 175.67,39.95 164.23,42.39 160.67,29.32 "/>
<path class="st10" d="M204.35,27.26c4.51,0.56,8.89,1.61,13.15,3.16l-4.15,12.72l-11.62-2.81L204.35,27.26z"/>
<path class="st9" d="M160.67,29.32l3.56,13.06l-10.69,3.62l-5.47-12.03C152.07,31.87,156.27,30.32,160.67,29.32z"/>
<path class="st9" d="M217.5,30.42c4.13,1.19,8.23,2.86,12.28,5.01l-5.78,12.05l-10.66-4.34L217.5,30.42z"/>
<path class="st10" d="M148.08,33.98l5.47,12.03l-10.47,5.78c-2.05-4.03-4.44-7.85-7.15-11.47C139.8,37.86,143.85,35.75,148.08,33.98
	z"/>
<polygon class="st10" points="229.79,35.43 241.66,42.2 234.13,53.29 224.01,47.48 "/>
<path class="st9" d="M135.92,40.32c2.71,3.61,5.1,7.44,7.15,11.47l-9.37,6.75l-8.5-10.5C128.53,45.13,132.1,42.56,135.92,40.32z"/>
<path class="st9" d="M241.66,42.2c3.61,2.36,7.09,5.1,10.45,8.2l-8.98,10.1l-9.01-7.21L241.66,42.2z"/>
<polygon class="st10" points="125.2,48.04 133.7,58.54 125.38,66.65 115.35,57.5 "/>
<polygon class="st10" points="252.11,50.4 261.53,60.2 251.38,68.85 243.14,60.5 "/>
<path class="st9" d="M115.35,57.5l10.03,9.15l-7.08,8.8l-11.25-7.37C109.43,64.34,112.19,60.82,115.35,57.5z"/>
<path class="st9" d="M261.53,60.2c3.07,3.3,5.69,6.92,7.87,10.87l-11.44,7l-6.59-9.22L261.53,60.2z"/>
<path class="st10" d="M107.05,68.07l11.25,7.37l-6,10.31c-3.89-2.33-7.95-4.34-12.16-6.03L107.05,68.07z"/>
<path class="st9" d="M153.42,118.37c0.01,0.7,0.25,0.79,0.72,0.28c1.46-1.6,3.45-2.38,5.96-2.38c5.92,0.02,11.8,0.02,17.63,0.02
	c0.29,0,0.53-0.24,0.54-0.53c0.08-8.77,1.27-20.13-2.85-28.1c-3.96-7.67-13.06-11.19-21.24-8.23c-0.24,0.09-0.42,0.3-0.46,0.55
	c-0.19,1-0.3,2.23-0.31,3.69C153.28,95.02,153.29,106.59,153.42,118.37z M177.92,123.55c-1.42,1.46-3.25,2.19-5.46,2.2
	c-6.16,0.01-12.38,0.06-18.67,0.15c-0.26,0.01-0.4,0.14-0.4,0.4c-0.07,8.26-0.09,16.48-0.08,24.65c0.01,8.59-6.05,13.56-13.26,16.87
	c-0.04,0.01-0.04,0.03,0,0.04c0.04,0.02,0.05,0.02,0.06-0.01c2.44-3.28,3.65-6.73,3.66-10.38c0.02-20.92,0.03-41.84,0.01-62.76
	c0-5.05,1.7-8.08,5.31-11.94c3.15-3.36,7.81-9.13,12.01-10.9c1.36-0.58,2.97-0.79,4.82-0.65c15.16,1.14,21.9,12.79,21.91,27.07
	c0.02,21.62,0.04,43.23,0.05,64.84c0,1.45,0.3,2.83,0.9,4.13c0.14,0.29,0.07,0.35-0.2,0.17c-5.51-3.58-10.2-8.23-10.25-15.23
	c-0.07-9.41-0.07-18.92-0.03-28.52C178.31,123.5,178.07,123.41,177.92,123.55"/>
<path class="st10" d="M223.37,158.08c0.67-2.47,1.01-4.72,1.02-6.79c0.03-21.98,0.04-43.97,0.01-65.95c0-5.59,5.62-11.07,10.17-14
	c0.31-0.2,0.37-0.14,0.19,0.18c-0.65,1.14-0.97,1.99-0.97,2.57c0,23.43-0.02,46.87-0.07,70.3c-0.02,11.24-7.27,15.05-15.1,20.83
	c-1.58,1.16-3.85,1.88-5.93,1.64c-15.82-1.83-20.76-14.66-20.28-29c0.22-6.73,4.67-11.54,9.95-15.19c0.07-0.05,0.17-0.04,0.23,0.02
	c0.06,0.06,0.07,0.16,0.02,0.23c-2.69,3.66-1.24,19.95,0.32,24.34c3.13,8.83,10.41,13.36,19.96,11.26
	C223.14,158.5,223.3,158.34,223.37,158.08z"/>
<path class="st10" d="M269.41,71.07c2.55,3.7,4.67,7.64,6.37,11.81l-12.2,5.65l-5.61-10.47L269.41,71.07z"/>
<path class="st9" d="M100.14,79.72c4.21,1.69,8.26,3.7,12.16,6.03l-4.34,10.28l-12.72-3.97C96.49,87.8,98.13,83.69,100.14,79.72z"/>
<path class="st9" d="M275.78,82.88c2.06,3.98,3.56,8.17,4.5,12.56l-12.72,3.59l-3.98-10.5L275.78,82.88z"/>
<path class="st10" d="M95.24,92.07l12.72,3.97l-3,11.44l-13.09-2.28C92.61,100.71,93.73,96.34,95.24,92.07z"/>
<path class="st10" d="M280.28,95.44c1.46,4.27,2.45,8.66,2.97,13.15c-5.85,1.01-9.84,1.63-11.97,1.87c-0.88,0.1-1.27,0.54-1.15,1.31
	l-2.56-12.75L280.28,95.44z"/>
<path class="st9" d="M104.96,107.47l-1.11,11.45l-13.27-0.58c-0.14-4.45,0.28-8.83,1.28-13.15L104.96,107.47z"/>
<path class="st9" d="M283.25,108.6c0.88,4.45,1.19,8.95,0.94,13.5l-13.25,0.19l-0.81-10.5c-0.11-0.77,0.28-1.21,1.15-1.31
	C273.41,110.23,277.4,109.61,283.25,108.6z"/>
<polygon class="st10" points="90.58,118.35 103.85,118.92 104.02,130.72 90.77,132.03 "/>
<path class="st10" d="M284.19,122.09c0.19,4.52-0.05,9.02-0.75,13.5l-13.3-1.54l0.79-11.77L284.19,122.09z"/>
<path class="st9" d="M104.02,130.72l1.9,11.22l-13.09,3.22c-1.15-4.3-1.84-8.68-2.06-13.12L104.02,130.72z"/>
<path class="st9" d="M283.44,135.59c-0.4,4.41-1.27,8.72-2.62,12.94l-12.98-3.33l2.31-11.15L283.44,135.59z"/>
<polygon class="st10" points="105.92,141.94 109.3,153.19 96.93,158.32 92.83,145.15 "/>
<path class="st10" d="M280.81,148.53c-1.18,4.5-2.68,8.81-4.51,12.94l-12.34-5.41l3.87-10.86L280.81,148.53z"/>
<polygon class="st9" points="109.3,153.19 114.36,163.55 102.75,170.34 96.93,158.32 "/>
<polygon class="st9" points="276.3,161.46 270.13,173.28 258.62,166.3 263.96,156.06 "/>
<polygon class="st10" points="114.36,163.55 120.8,173.33 110.05,181.37 102.75,170.34 "/>
<path class="st10" d="M258.62,166.3l11.5,6.97c-2.37,3.91-5.04,7.59-8,11.06l-10.44-8.35L258.62,166.3z"/>
<path class="st9" d="M120.8,173.33l7.47,8.76l-9.25,9.37c-3.37-3.02-6.36-6.39-8.97-10.09L120.8,173.33z"/>
<path class="st9" d="M262.12,184.34c-2.66,3.53-5.67,6.73-9.03,9.59l-9.11-9.77l7.7-8.17L262.12,184.34z"/>
<path class="st10" d="M128.26,182.09l8.81,7.5l-7.75,10.87c-3.71-2.69-7.15-5.69-10.31-9L128.26,182.09z"/>
<polygon class="st10" points="243.98,184.16 253.09,193.93 242.44,202.52 234.91,191.49 "/>
<path class="st9" d="M137.08,189.59l9.72,6.53l-6.56,11.31c-3.91-1.9-7.54-4.23-10.9-6.97L137.08,189.59z"/>
<path class="st9" d="M234.91,191.49l7.53,11.03c-3.59,2.62-7.41,4.87-11.44,6.75l-6.06-11.81L234.91,191.49z"/>
<path class="st10" d="M146.79,196.12l10.69,4.75l-4.69,12.5c-4.41-1.51-8.59-3.49-12.56-5.94L146.79,196.12z"/>
<path class="st10" d="M224.94,197.46l6.06,11.81c-4,2.2-8.18,3.95-12.56,5.25l-4.15-12.53L224.94,197.46z"/>
<path class="st9" d="M157.48,200.87l10.87,3.37l-3.03,12.91c-4.3-0.86-8.47-2.12-12.53-3.78L157.48,200.87z"/>
<path class="st9" d="M214.29,201.99l4.15,12.53c-4.16,1.52-8.42,2.7-12.78,3.53l-2.47-13.09L214.29,201.99z"/>
<path class="st10" d="M168.35,204.24l11.66,1.84l-1.16,13.28c-4.58-0.32-9.09-1.06-13.53-2.22L168.35,204.24z"/>
<path class="st10" d="M203.2,204.96l2.47,13.09c-4.52,0.89-9.08,1.39-13.69,1.5c0.17-4.43-0.01-8.85-0.56-13.25L203.2,204.96z"/>
<path class="st9" d="M180.02,206.08l11.4,0.22c0.55,4.4,0.73,8.82,0.56,13.25c-4.38,0.4-8.75,0.33-13.12-0.19L180.02,206.08z"/>
<path class="st11" d="M269.81,228.02c-6.68,1.9-13.39,3.7-20.12,5.4c-0.02,0.01-0.13,0.04-0.3,0.13c-0.22,0.1-0.46,0.06-0.74-0.11
	l-12.64-19.17c-0.19-0.28-0.12-0.47,0.2-0.57c1.54-0.47,3.6-0.94,6.2-1.4c2.24-0.4,3.13,0.08,4.62,1.87
	c3.37,4.05,7.22,10,12.05,11.8C261.32,226.8,264.9,227.49,269.81,228.02z"/>
<path class="st12" d="M267.64,233.49c-0.11-0.44-0.55-0.72-0.99-0.61l-1.02,0.24c-0.45,0.11-0.72,0.55-0.61,0.99l0.45,1.91
	c0.11,0.44,0.55,0.72,0.99,0.61l1.02-0.24c0.45-0.11,0.72-0.55,0.61-0.99L267.64,233.49z M271.48,232.74
	c-0.1-0.49-0.58-0.8-1.07-0.7l-0.91,0.19c-0.49,0.1-0.8,0.59-0.7,1.07l0.36,1.75c0.1,0.49,0.58,0.8,1.07,0.7l0.91-0.19
	c0.49-0.1,0.8-0.59,0.7-1.07L271.48,232.74 M275.24,231.77c-0.1-0.45-0.55-0.72-1-0.62l-0.99,0.23c-0.45,0.1-0.73,0.55-0.62,1
	l0.46,1.96c0.1,0.45,0.55,0.72,1,0.62l0.99-0.23c0.45-0.1,0.73-0.55,0.62-1L275.24,231.77 M279.03,230.95
	c-0.12-0.48-0.61-0.77-1.09-0.65l-0.92,0.23c-0.49,0.12-0.78,0.61-0.65,1.09l0.46,1.85c0.12,0.48,0.61,0.77,1.09,0.65l0.92-0.23
	c0.49-0.12,0.78-0.61,0.65-1.09L279.03,230.95 M282.86,230.05c-0.11-0.44-0.55-0.71-0.99-0.6l-1.05,0.26
	c-0.43,0.11-0.7,0.55-0.6,0.99l0.48,1.94c0.11,0.44,0.55,0.71,0.99,0.6l1.05-0.26c0.43-0.11,0.7-0.55,0.6-0.99L282.86,230.05
	 M286.63,229.07c-0.1-0.38-0.49-0.61-0.87-0.51l-1.26,0.33c-0.38,0.1-0.6,0.49-0.51,0.87l0.57,2.16c0.1,0.38,0.49,0.61,0.87,0.51
	l1.26-0.33c0.38-0.1,0.6-0.49,0.51-0.87L286.63,229.07 M290.54,228.4c-0.1-0.46-0.55-0.75-1.02-0.65l-0.98,0.21
	c-0.46,0.1-0.75,0.56-0.65,1.02l0.42,1.92c0.1,0.46,0.55,0.75,1.02,0.65l0.98-0.21c0.46-0.1,0.75-0.56,0.65-1.02L290.54,228.4
	 M294.3,227.49c-0.12-0.44-0.57-0.7-1.01-0.58l-1.01,0.27c-0.44,0.12-0.7,0.57-0.58,1.01l0.52,1.94c0.12,0.44,0.57,0.7,1.01,0.58
	l1.01-0.27c0.44-0.12,0.7-0.57,0.58-1.01L294.3,227.49 M298.11,226.59c-0.09-0.37-0.47-0.6-0.84-0.52l-1.27,0.3
	c-0.37,0.09-0.61,0.46-0.52,0.84l0.51,2.16c0.09,0.37,0.47,0.6,0.84,0.52l1.27-0.3c0.37-0.09,0.61-0.46,0.52-0.84L298.11,226.59
	 M301.88,225.72c-0.11-0.4-0.52-0.64-0.92-0.53l-1.13,0.31c-0.4,0.11-0.64,0.52-0.53,0.92l0.55,2.01c0.11,0.4,0.52,0.64,0.92,0.53
	l1.13-0.31c0.4-0.11,0.64-0.52,0.53-0.92L301.88,225.72 M311.04,223c-0.27-1.22-1.47-1.99-2.69-1.72l-2.01,0.44
	c-1.22,0.27-1.99,1.48-1.72,2.69l1.09,4.94c0.27,1.22,1.47,1.99,2.69,1.72l2.01-0.44c1.22-0.27,1.99-1.48,1.72-2.69L311.04,223
	 M321.34,217.74l-7.42,1.64c-0.33,0.07-0.53,0.41-0.45,0.74c0.64,2.4,2.18,3.37,4.64,2.89c3.54-0.67,7.06-1.43,10.57-2.29l5.38,2.59
	c0.34,0.16,0.39,0.64,0.09,0.87c-3.7,2.83-7.51,5.27-12.28,6.17c-8.74,1.65-17.57,3.05-26.49,4.21l-0.27-0.94
	c-0.07-0.22-0.21-0.34-0.43-0.36c-0.32-0.03-0.62,0.04-0.9,0.22l-0.94,0.13l-1.12,0.43c-4.74,0.53-9.32,1.54-13.75,3.04l-23.75,3.27
	l5.02-5.28c0.23-0.25,0.19-0.34-0.15-0.27l-9.56,1.9c-0.38,0.07-0.73,0.3-0.95,0.62l-3.16,4.59c-1.9,0.19-3.84-0.05-5.81-0.71
	c-0.91-0.3-1.16-1.46-0.46-2.11c2.45-2.29,5.42-3.97,8.91-5.06c0.19-0.06,0.39-0.26,0.61-0.6c0.28,0.17,0.52,0.21,0.74,0.11
	c0.17-0.08,0.28-0.12,0.3-0.13c6.73-1.7,13.44-3.5,20.12-5.4l8.55-2.23l8.76-2.15c11.74-3.15,20.7-5.45,26.89-6.91
	C316.46,216.15,318.91,216.49,321.34,217.74"/>
<path class="st11" d="M321.34,217.74c2.58,0.51,5.03,1.51,7.35,2.98c-3.51,0.86-7.03,1.63-10.57,2.29c-2.46,0.47-4-0.49-4.64-2.89
	c-0.08-0.33,0.12-0.67,0.45-0.74L321.34,217.74z"/>
<path class="st13" d="M310.4,223.12c-0.2-0.92-1.1-1.49-2.01-1.3l-1.85,0.4c-0.91,0.2-1.5,1.1-1.3,2.01l1.06,4.9
	c0.2,0.92,1.1,1.49,2.01,1.3l1.85-0.4c0.91-0.2,1.5-1.1,1.3-2.01L310.4,223.12z M312.12,227.94c0.27,1.21-0.5,2.42-1.72,2.69
	l-2.01,0.44c-1.22,0.27-2.42-0.5-2.69-1.72l-1.09-4.94c-0.27-1.21,0.5-2.42,1.72-2.69l2.01-0.44c1.22-0.27,2.42,0.5,2.69,1.72
	L312.12,227.94"/>
<path class="st14" d="M287.12,223.63l-8.76,2.15l-1.84-1.84c-0.25-0.25-0.2-0.4,0.13-0.49
	C279.96,222.66,284.55,220.54,287.12,223.63z"/>
<path class="st12" d="M311.46,228.01c0.2,0.91-0.39,1.81-1.3,2.01l-1.85,0.4c-0.92,0.2-1.82-0.38-2.01-1.3l-1.06-4.9
	c-0.2-0.91,0.39-1.81,1.3-2.01l1.85-0.4c0.92-0.2,1.82,0.38,2.01,1.3L311.46,228.01z"/>
<path class="st11" d="M302.43,227.74c0.11,0.4-0.12,0.81-0.53,0.92l-1.13,0.31c-0.4,0.11-0.81-0.13-0.92-0.53l-0.55-2.01
	c-0.11-0.4,0.12-0.81,0.53-0.92l1.13-0.31c0.4-0.11,0.81,0.13,0.92,0.53L302.43,227.74z"/>
<path class="st11" d="M298.62,228.75c0.09,0.38-0.14,0.75-0.52,0.84l-1.27,0.3c-0.37,0.09-0.75-0.15-0.84-0.52l-0.51-2.16
	c-0.09-0.38,0.14-0.75,0.52-0.84l1.27-0.3c0.37-0.09,0.75,0.15,0.84,0.52L298.62,228.75z"/>
<path class="st11" d="M294.82,229.43c0.12,0.44-0.15,0.89-0.58,1.01l-1.01,0.27c-0.44,0.12-0.89-0.14-1.01-0.58l-0.52-1.94
	c-0.12-0.44,0.15-0.89,0.58-1.01l1.01-0.27c0.44-0.12,0.89,0.14,1.01,0.58L294.82,229.43z"/>
<path class="st11" d="M290.96,230.32c0.1,0.46-0.19,0.92-0.65,1.02l-0.98,0.21c-0.46,0.1-0.92-0.19-1.02-0.65l-0.42-1.92
	c-0.1-0.46,0.19-0.92,0.65-1.02l0.98-0.21c0.46-0.1,0.92,0.19,1.02,0.65L290.96,230.32z"/>
<path class="st11" d="M287.2,231.23c0.1,0.38-0.13,0.77-0.51,0.87l-1.26,0.33c-0.38,0.1-0.77-0.13-0.87-0.51l-0.57-2.16
	c-0.1-0.38,0.13-0.77,0.51-0.87l1.26-0.33c0.38-0.1,0.77,0.13,0.87,0.51L287.2,231.23z"/>
<path class="st11" d="M283.34,231.99c0.11,0.44-0.16,0.88-0.6,0.99l-1.05,0.26c-0.44,0.11-0.88-0.16-0.99-0.6l-0.48-1.94
	c-0.11-0.44,0.16-0.88,0.6-0.99l1.05-0.26c0.44-0.11,0.88,0.16,0.99,0.6L283.34,231.99z"/>
<path class="st11" d="M279.49,232.79c0.12,0.48-0.17,0.97-0.65,1.09l-0.92,0.23c-0.48,0.12-0.97-0.17-1.09-0.65l-0.46-1.85
	c-0.12-0.48,0.17-0.97,0.65-1.09l0.92-0.23c0.48-0.12,0.97,0.17,1.09,0.65L279.49,232.79z"/>
<path class="st11" d="M275.7,233.72c0.11,0.45-0.17,0.9-0.62,1l-0.99,0.23c-0.45,0.1-0.9-0.17-1-0.62l-0.46-1.96
	c-0.11-0.45,0.17-0.9,0.62-1l0.99-0.23c0.45-0.1,0.9,0.17,1,0.62L275.7,233.72z"/>
<path class="st11" d="M271.85,234.49c0.1,0.49-0.21,0.97-0.7,1.07l-0.91,0.19c-0.49,0.1-0.97-0.21-1.07-0.7l-0.36-1.75
	c-0.1-0.49,0.21-0.97,0.7-1.07l0.91-0.19c0.49-0.1,0.97,0.21,1.07,0.7L271.85,234.49z"/>
<path class="st11" d="M268.1,235.41c0.1,0.44-0.17,0.88-0.61,0.99l-1.02,0.24c-0.44,0.11-0.89-0.17-0.99-0.61l-0.45-1.91
	c-0.1-0.44,0.17-0.88,0.61-0.99l1.02-0.24c0.44-0.11,0.89,0.17,0.99,0.61L268.1,235.41z"/>
<path class="st11" d="M295.38,234.56l1.05,5.17c0.05,0.28-0.04,0.49-0.28,0.64c-4.02,2.45-8.44,3.51-13.24,3.18l8.81-9.5l1.12-0.43
	c0.3,0.7,1.84,6.09,1.86,6.1c0.22,0.07,0.31,0,0.27-0.23l-1.19-5.99c0.28-0.18,0.58-0.25,0.9-0.22c0.22,0.02,0.37,0.14,0.43,0.36
	L295.38,234.56z"/>
<path class="st13" d="M293.78,233.49l1.19,5.99c0.04,0.23-0.05,0.31-0.27,0.23c-0.02-0.01-1.56-5.4-1.86-6.1L293.78,233.49z"/>
<path class="st14" d="M291.71,234.05l-8.81,9.5l-3.28,2.85c-0.13,0.11-0.29,0.19-0.46,0.21l-4.95,0.7
	c-1.24,0.17-2.11-1.19-1.42-2.24l5.18-7.97C282.39,235.59,286.98,234.58,291.71,234.05z"/>
<path class="st14" d="M254.22,240.36c-3.13,3.1-4.05,4.75-8.91,4.66c-0.77-0.01-1.24-0.85-0.85-1.51l0.94-1.59l3.16-4.59
	c0.22-0.32,0.57-0.55,0.95-0.62l9.56-1.9c0.34-0.07,0.38,0.02,0.15,0.27L254.22,240.36z"/>
<path class="st10" d="M99.18,269.18c0.04-3.08-2.42-5.61-5.5-5.66l-0.76-0.01c-3.08-0.04-5.61,2.42-5.66,5.5l-0.09,6.67
	c-0.04,3.08,2.42,5.61,5.5,5.66l0.76,0.01c3.08,0.04,5.61-2.42,5.66-5.5L99.18,269.18z M86.4,284.63c0.73,4.8-5.8,5.14-8.04,2.09
	c-0.12-0.17-0.19-0.37-0.19-0.58v-47.1c0-0.29,0.11-0.57,0.32-0.78c2.02-2.02,6.17-1.96,8.2,0.1c0.19,0.19,0.29,0.44,0.29,0.7v20.79
	c0,0.29,0.37,0.42,0.55,0.19c4.62-6,12.05-5.86,16.86-0.5c4.17,4.64,4,10.13,3.79,16.12c-0.4,11.11-13.18,19.53-21.38,8.82
	C86.66,284.29,86.37,284.41,86.4,284.63"/>
<path class="st9" d="M330.7,285.37c0,1.81-1.47,3.28-3.28,3.28h-2.23c-1.81,0-3.28-1.47-3.28-3.28v-45.25
	c0-1.81,1.47-3.28,3.28-3.28h2.23c1.81,0,3.28,1.47,3.28,3.28V285.37z"/>
<path class="st10" d="M48.8,270.4c-0.05,0.19,0.09,0.37,0.28,0.37h11.31c0.19,0,0.33-0.18,0.28-0.37l-5.65-19.94
	c-0.08-0.28-0.47-0.28-0.55,0L48.8,270.4z M44.29,286.7c-1.03,3.78-9.93,1.96-8.44-2.94c4.39-14.45,8.83-28.89,13.31-43.32
	c0.94-3.03,6.92-2.92,9.34-1.73c1.82,0.9,1.99,2.17,2.55,3.99c4.12,13.43,8.26,26.86,12.4,40.29c0.67,2.2,0.58,3.76-1.54,4.84
	c-2.89,1.46-5.96,1.6-6.98-2.19c-0.68-2.53-1.4-5.05-2.17-7.54c-0.08-0.26-0.25-0.39-0.52-0.39H47.24c-0.22,0-0.41,0.14-0.47,0.35
	C46.07,280.33,45.24,283.21,44.29,286.7"/>
<path class="st9" d="M181.99,238.2c3.3,0.18,10.19-1.49,10.18,3.86c-0.01,10-0.01,20.01,0,30.01c0.01,8.18-2.65,14.74-11.4,16.59
	c-10.03,2.11-20.44-2.01-21.12-13.54c-0.32-5.4,8.84-5.25,9.1-0.88c0.22,3.85,2,6.57,5.98,7.01c7.35,0.82,8.41-4.24,8.43-10.39
	c0.02-8.15,0.03-16.3,0.01-24.45c0-0.21-0.17-0.38-0.38-0.39c-2.26-0.02-4.57-0.02-6.93,0.01c-3.13,0.04-2.95-5.64-1.07-7.46
	c0.17-0.17,0.4-0.27,0.64-0.29C177.63,238.11,179.82,238.08,181.99,238.2z"/>
<path class="st10" d="M133.59,269.12c0.02-3.06-2.44-5.55-5.49-5.57l-0.76-0.01c-3.05-0.02-5.54,2.43-5.57,5.49l-0.05,6.73
	c-0.02,3.06,2.44,5.55,5.49,5.57l0.76,0.01c3.05,0.02,5.54-2.43,5.57-5.49L133.59,269.12z M140.95,281.32
	c-6.22,11.49-23.37,10.33-27.61-2.2c-0.92-2.71-1.14-9.34-0.32-12.36c4.21-15.44,27.51-14.59,29.42,1.3
	C142.96,272.44,143.04,277.47,140.95,281.32"/>
<path class="st9" d="M210.4,275.17c-5.98,1.09-4.32,8.8,0.67,7.3c3.67-1.1,5.5-3.55,5.5-7.34c0-0.28-0.14-0.42-0.42-0.43
	C214.39,274.64,212.48,274.8,210.4,275.17z M216.54,269.38c0.29-7.66-7.63-7.56-12.43-5.13c-4.03,2.05-6.46-4.24-2.26-6.4
	c7.24-3.73,18.62-3.42,22.32,4.98c0.74,1.67,1.12,4.3,1.14,7.9c0.03,5.24,0.04,10.5,0.01,15.76c0,0.25-0.1,0.49-0.28,0.66
	c-2.42,2.29-9,2.23-7.72-2.41c0.12-0.43-0.43-0.72-0.73-0.37c-3.55,4.26-9.72,6.46-14.74,3.81c-4.91-2.59-5.8-11.62-1.21-15.1
	c3.75-2.84,10.65-3.19,15.2-3.06C216.22,270.02,216.53,269.74,216.54,269.38"/>
<path class="st9" d="M240.99,260.21c5.42-6.77,13.63-6.31,17.2,1.87c0.06,0.14,0.26,0.16,0.34,0.02c6.9-11.38,22.36-6.46,22.46,5.89
	c0.05,5.72,0.07,11.44,0.05,17.15c-0.02,4.57-6.38,4.22-8.59,1.58c-0.16-0.19-0.24-0.42-0.24-0.66c0.04-5.62,0.03-11.21-0.02-16.77
	c-0.07-7.75-10.95-8.35-11,0.28c-0.03,5.27-0.05,10.54-0.07,15.82c-0.02,4.5-8.91,4.39-8.92,0.04c-0.03-5.32-0.04-10.65-0.01-15.98
	c0.02-7.76-10.96-8.86-11.04,0.9c-0.04,5.23-0.05,10.45-0.02,15.68c0,0.25-0.09,0.49-0.25,0.69c-2.07,2.47-8.59,3.13-8.58-1.35
	c0.01-9.1,0.01-18.19-0.01-27.29c0-0.29,0.13-0.57,0.36-0.75c2.32-1.82,4.78-1.91,7.36-0.26c0.15,0.1,0.25,0.25,0.28,0.43l0.34,2.59
	C240.65,260.29,240.88,260.35,240.99,260.21z"/>
<path class="st9" d="M296.39,269.51l10.09-0.18c0.56-0.01,1.01-0.47,1-1.03l-0.01-0.55c-0.06-3.15-2.68-5.66-5.87-5.61l-0.58,0.01
	c-3.19,0.05-5.73,2.65-5.68,5.8l0.01,0.55C295.36,269.07,295.82,269.52,296.39,269.51z M291.48,285.62
	c-5.51-4.05-5.14-9.98-5.01-16.73c0.16-8.26,8.43-13.85,16.31-13.3c8.15,0.58,15.16,7.96,12.49,16.26c-0.5,1.57-1.8,2.4-3.89,2.5
	c-5.21,0.26-10.42,0.39-15.64,0.39c-0.25,0-0.38,0.13-0.37,0.37c0.02,7.96,9.01,8.46,14.25,5.53c2.67-1.5,5.27-0.61,5.66,2.59
	c0.34,2.84-4.91,5.12-7.21,5.64C301.87,290.28,296.34,289.2,291.48,285.62"/>
<path class="st11" d="M128.05,314.33l0.28-3.74c0.01-0.15,0.13-0.26,0.28-0.26h19.27c0.16,0,0.3,0.14,0.28,0.31l-0.28,3.74
	c-0.01,0.15-0.13,0.26-0.28,0.26h-6.9c-0.16,0-0.28,0.13-0.28,0.28v24.74c0,0.16-0.13,0.28-0.28,0.28h-3.93
	c-0.16,0-0.28-0.13-0.28-0.28v-24.74c0-0.16-0.13-0.28-0.28-0.28h-7.3C128.17,314.63,128.04,314.49,128.05,314.33z"/>
<path class="st11" d="M156.28,331.09c1.6,4.66,7.46,5.93,10.98,3.4c4.39-3.15,4.68-10.36,2.96-15.17
	c-1.59-4.44-6.58-6.01-10.51-3.67C154.78,318.6,154.65,326.35,156.28,331.09z M159.3,339.64c-10.15-2.2-10.36-17.6-5.73-24.31
	c4.47-6.46,16.68-7.39,20.44,1.01C178.89,327.26,174.24,342.88,159.3,339.64"/>
<path class="st11" d="M201.35,328.69c0.01,14.75-21.27,15.64-21.62,0.98c-0.15-6.32-0.19-12.64-0.1-18.98
	c0.01-0.25,0.13-0.37,0.37-0.37h3.73c0.31,0,0.45,0.15,0.44,0.46c-0.18,5.83-0.13,11.63,0.13,17.41c0.22,4.72,1.47,7.96,6.72,7.69
	c4.86-0.24,5.86-4.57,5.92-8.55c0.08-5.48,0.11-10.97,0.09-16.46c-0.01-0.3,0.24-0.55,0.54-0.55h3.37c0.26,0,0.4,0.13,0.4,0.4
	C201.34,316.73,201.34,322.72,201.35,328.69z"/>
<path class="st11" d="M210.29,314.72l0.1,9.31c0,0.11,0.08,0.18,0.18,0.18l2.88-0.03c2.57-0.03,4.64-1.78,4.62-3.93l-0.02-1.9
	c-0.02-2.14-2.13-3.86-4.71-3.84l-2.88,0.03C210.36,314.54,210.28,314.62,210.29,314.72z M210.18,328.9l-0.03,10.67
	c0,0.25-0.13,0.37-0.37,0.37h-3.74c-0.25,0-0.37-0.13-0.37-0.37V310.7c0-0.25,0.13-0.38,0.38-0.39c2.44-0.02,5.5,0.09,9.22,0.34
	c8.98,0.62,9.46,10.86,4.27,16.09c-0.17,0.17-0.21,0.37-0.1,0.61l5.8,12.18c0.13,0.28,0.04,0.43-0.27,0.43h-4.16
	c-0.25,0-0.47-0.14-0.58-0.36l-5.16-10.8c-0.14-0.29-0.36-0.43-0.68-0.41l-3.87,0.19C210.3,328.57,210.18,328.69,210.18,328.9"/>
<path class="st11" d="M229.23,323.32c-3.67-2.8-2.35-8.41,0.7-10.86c3.63-2.92,10.37-2.39,14.78-1.12c0.22,0.07,0.31,0.21,0.26,0.44
	l-0.74,3.42c-0.04,0.18-0.22,0.28-0.4,0.23c-2.9-0.88-12.27-2.17-12.2,3.05c0.04,3.13,8.48,4.66,10.87,5.84
	c6.83,3.37,5.27,12.57-1.49,14.77c-5.02,1.63-9.92,1.02-14.7-1.84c-0.24-0.15-0.33-0.46-0.2-0.7l1.43-2.86
	c0.16-0.32,0.39-0.38,0.7-0.19c3.71,2.41,7.54,2.83,11.47,1.28c2.13-0.84,3.23-3.02,2.22-5.06
	C240.29,326.41,232.46,325.79,229.23,323.32z"/>
</svg>
