<?xml version="1.0" encoding="utf-8"?>
<!-- Generator: Adobe Illustrator 27.7.0, SVG Export Plug-In . SVG Version: 6.00 Build 0)  -->
<svg version="1.1" id="Layer_1" xmlns="http://www.w3.org/2000/svg" xmlns:xlink="http://www.w3.org/1999/xlink" x="0px" y="0px"
	 viewBox="0 0 307.47 64.4" style="enable-background:new 0 0 307.47 64.4;" xml:space="preserve">
<style type="text/css">
	.st0{fill:#E6C4A3;}
	.st1{font-family:'Mobtakar-Fat';}
	.st2{font-size:24.5366px;}
</style>
<path d="M296.22,60.27H10.18c-3.85,0-6.98-3.12-6.98-6.98V11c0-3.85,3.12-6.98,6.98-6.98h286.04c3.85,0,6.98,3.12,6.98,6.98v42.29
	C303.2,57.14,300.08,60.27,296.22,60.27z"/>
<path class="st0" d="M30.13,29.07l-2.82,2.82l2.82,2.82v4.88h-2.01l-4.24-4.27l-5.72,5.72l-3.44-3.44L26.7,25.64L30.13,29.07z
	 M20.05,26.54c-0.47,0.39-1.01,0.59-1.62,0.59c-0.67,0-1.25-0.24-1.73-0.72c-0.48-0.48-0.72-1.06-0.72-1.73
	c0-0.67,0.24-1.25,0.72-1.73c0.48-0.48,1.06-0.72,1.73-0.72c0.62,0,1.16,0.2,1.62,0.61c-0.44,0.52-0.66,1.14-0.66,1.84
	C19.39,25.38,19.61,26,20.05,26.54L20.05,26.54z M22.33,27.13c-0.67,0-1.25-0.24-1.73-0.72c-0.48-0.48-0.72-1.06-0.72-1.73
	c0-0.67,0.24-1.25,0.72-1.73c0.48-0.48,1.06-0.72,1.73-0.72c0.67,0,1.25,0.24,1.73,0.72c0.48,0.48,0.72,1.06,0.72,1.73
	c0,0.67-0.24,1.25-0.72,1.73C23.58,26.89,23,27.13,22.33,27.13z"/>
<path class="st0" d="M28.41,39.6v-4.88h6.58v-4.86h4.88v9.74H28.41z M34.57,45.34c-0.46,0.41-1,0.61-1.62,0.61
	c-0.67,0-1.25-0.24-1.73-0.72c-0.48-0.48-0.72-1.06-0.72-1.73c0-0.67,0.24-1.25,0.72-1.73c0.48-0.48,1.06-0.72,1.73-0.72
	c0.6,0,1.14,0.2,1.62,0.59c-0.44,0.54-0.66,1.16-0.66,1.86C33.91,44.2,34.13,44.82,34.57,45.34L34.57,45.34z M36.85,45.95
	c-0.67,0-1.25-0.24-1.73-0.72c-0.48-0.48-0.72-1.06-0.72-1.73c0-0.67,0.24-1.25,0.72-1.73c0.48-0.48,1.06-0.72,1.73-0.72
	c0.67,0,1.25,0.24,1.73,0.72c0.48,0.48,0.72,1.06,0.72,1.73c0,0.67-0.24,1.25-0.72,1.73C38.1,45.71,37.52,45.95,36.85,45.95z"/>
<path class="st0" d="M53.83,34.71h0.44v4.88h-0.44c-0.31,0.8-0.76,1.47-1.34,2c-0.58,0.53-1.24,0.93-1.96,1.2
	c-0.73,0.27-1.48,0.41-2.27,0.43c-0.79,0-1.55-0.13-2.31-0.4c-0.75-0.27-1.42-0.67-2.01-1.21c-0.59-0.54-1.05-1.21-1.37-2.01h-4.42
	v-4.88h4.44c0.31-0.8,0.76-1.47,1.34-2.01c0.58-0.54,1.23-0.94,1.96-1.21c0.73-0.27,1.48-0.4,2.25-0.4c0.8,0,1.57,0.13,2.32,0.4
	c0.74,0.27,1.41,0.67,2.01,1.2C53.06,33.22,53.52,33.9,53.83,34.71z M48.21,38.54c0.34,0,0.66-0.11,0.96-0.34
	c0.29-0.23,0.44-0.57,0.44-1.03c0-0.47-0.14-0.83-0.43-1.06c-0.29-0.23-0.61-0.34-0.97-0.34c-0.34,0-0.66,0.11-0.94,0.34
	c-0.29,0.23-0.43,0.58-0.43,1.06c0,0.46,0.14,0.8,0.43,1.03C47.55,38.43,47.87,38.54,48.21,38.54z"/>
<path class="st0" d="M52.55,39.6v-4.88h4.34c-0.03-0.21-0.06-0.43-0.09-0.65c-0.02-0.22-0.04-0.45-0.04-0.67
	c0-1.39,0.29-2.54,0.88-3.46c0.59-0.92,1.35-1.6,2.28-2.06c0.93-0.46,1.91-0.68,2.92-0.66c1.01,0,1.98,0.23,2.9,0.69
	c0.92,0.46,1.67,1.15,2.26,2.06c0.59,0.92,0.88,2.06,0.88,3.44c0,1.37-0.29,2.52-0.88,3.45c-0.59,0.92-1.35,1.62-2.27,2.07
	c-0.92,0.46-1.89,0.69-2.91,0.69H52.55z M62.44,25.49c-0.47,0.39-1.01,0.59-1.62,0.59c-0.67,0-1.25-0.24-1.73-0.72
	c-0.48-0.48-0.72-1.06-0.72-1.73c0-0.67,0.24-1.25,0.72-1.73c0.48-0.48,1.06-0.72,1.73-0.72c0.62,0,1.16,0.2,1.62,0.61
	c-0.44,0.52-0.66,1.14-0.66,1.84C61.77,24.33,61.99,24.95,62.44,25.49L62.44,25.49z M62.83,34.81c0.34,0,0.66-0.12,0.96-0.36
	c0.29-0.24,0.44-0.59,0.44-1.07c0-0.47-0.14-0.83-0.43-1.06c-0.29-0.23-0.6-0.34-0.94-0.34c-0.36,0-0.68,0.11-0.97,0.34
	c-0.29,0.23-0.43,0.58-0.43,1.06c0,0.47,0.14,0.83,0.43,1.06C62.17,34.67,62.48,34.8,62.83,34.81z M64.72,26.08
	c-0.67,0-1.25-0.24-1.73-0.72c-0.48-0.48-0.72-1.06-0.72-1.73c0-0.67,0.24-1.25,0.72-1.73c0.48-0.48,1.06-0.72,1.73-0.72
	c0.67,0,1.25,0.24,1.73,0.72c0.48,0.48,0.72,1.06,0.72,1.73c0,0.67-0.24,1.25-0.72,1.73C65.96,25.84,65.39,26.08,64.72,26.08z"/>
<polygon class="st0" points="69.42,48.5 65.99,45.07 76.32,34.71 79.75,38.17 "/>
<text transform="matrix(1 0 0 1 79.7491 39.5975)" class="st0 st1 st2"> </text>
<path class="st0" d="M102.1,22.57h4.88l-0.02,12.15v4.88h-1.13c-0.57,1.08-1.31,1.98-2.22,2.7c-0.91,0.72-1.91,1.26-3.01,1.62
	c-1.1,0.36-2.22,0.54-3.39,0.54c-1.21,0-2.4-0.2-3.56-0.61c-1.16-0.41-2.21-1.02-3.14-1.83c-0.93-0.81-1.67-1.82-2.22-3.04
	c-0.55-1.22-0.82-2.64-0.82-4.26h4.88c0,1.08,0.24,1.98,0.71,2.7c0.47,0.72,1.08,1.26,1.83,1.62c0.74,0.36,1.52,0.54,2.32,0.54
	c0.82,0,1.6-0.18,2.34-0.54c0.74-0.36,1.35-0.9,1.83-1.62c0.47-0.72,0.71-1.62,0.71-2.7V22.57z"/>
<path class="st0" d="M120.94,34.71h0.44v4.88h-0.44c-0.31,0.8-0.76,1.47-1.34,2c-0.58,0.53-1.24,0.93-1.96,1.2
	c-0.73,0.27-1.48,0.41-2.27,0.43c-0.79,0-1.55-0.13-2.31-0.4c-0.75-0.27-1.42-0.67-2.01-1.21c-0.59-0.54-1.05-1.21-1.37-2.01h-4.42
	v-4.88h4.44c0.31-0.8,0.76-1.47,1.34-2.01c0.58-0.54,1.23-0.94,1.96-1.21c0.73-0.27,1.48-0.4,2.25-0.4c0.8,0,1.57,0.13,2.32,0.4
	c0.74,0.27,1.41,0.67,2.01,1.2C120.17,33.22,120.63,33.9,120.94,34.71z M115.32,38.54c0.34,0,0.66-0.11,0.96-0.34
	c0.29-0.23,0.44-0.57,0.44-1.03c0-0.47-0.14-0.83-0.43-1.06c-0.29-0.23-0.61-0.34-0.97-0.34c-0.34,0-0.66,0.11-0.94,0.34
	c-0.29,0.23-0.43,0.58-0.43,1.06c0,0.46,0.14,0.8,0.43,1.03C114.66,38.43,114.97,38.54,115.32,38.54z"/>
<path class="st0" d="M119.66,39.6v-4.86h3.21c-0.18-0.44-0.27-0.93-0.27-1.47c0-1.01,0.18-1.9,0.53-2.66
	c0.35-0.76,0.82-1.39,1.4-1.9c0.58-0.51,1.24-0.88,1.98-1.13c0.74-0.25,1.48-0.37,2.23-0.37c1,0,1.95,0.22,2.85,0.66
	c0.9,0.44,1.64,1.09,2.23,1.95c0.59,0.86,0.9,1.93,0.93,3.23h-4.69c-0.05-0.41-0.22-0.71-0.5-0.9c-0.29-0.19-0.61-0.27-0.96-0.26
	c-0.35,0.02-0.66,0.14-0.92,0.37c-0.26,0.23-0.39,0.56-0.39,1.01c0,0.49,0.16,0.86,0.47,1.1c0.31,0.25,0.65,0.37,1.01,0.37h7.21
	v4.86H119.66z"/>
<text transform="matrix(1 0 0 1 137.1939 39.5975)" class="st0 st1 st2"> </text>
<path class="st0" d="M160.33,29.07l-2.82,2.82l2.82,2.82v4.88h-2.01l-4.24-4.27l-5.72,5.72l-3.44-3.44l11.97-11.97L160.33,29.07z
	 M150.24,26.54c-0.47,0.39-1.01,0.59-1.62,0.59c-0.67,0-1.25-0.24-1.73-0.72c-0.48-0.48-0.72-1.06-0.72-1.73
	c0-0.67,0.24-1.25,0.72-1.73c0.48-0.48,1.06-0.72,1.73-0.72c0.62,0,1.16,0.2,1.62,0.61c-0.44,0.52-0.66,1.14-0.66,1.84
	C149.58,25.38,149.8,26,150.24,26.54L150.24,26.54z M152.53,27.13c-0.67,0-1.25-0.24-1.73-0.72c-0.48-0.48-0.72-1.06-0.72-1.73
	c0-0.67,0.24-1.25,0.72-1.73c0.48-0.48,1.06-0.72,1.73-0.72c0.67,0,1.25,0.24,1.73,0.72c0.48,0.48,0.72,1.06,0.72,1.73
	c0,0.67-0.24,1.25-0.72,1.73C153.77,26.89,153.2,27.13,152.53,27.13z"/>
<path class="st0" d="M158.61,39.6v-4.88h4.34c-0.03-0.21-0.06-0.43-0.09-0.65c-0.02-0.22-0.04-0.45-0.04-0.67
	c0-1.39,0.29-2.54,0.88-3.46c0.59-0.92,1.35-1.6,2.28-2.06c0.93-0.46,1.91-0.68,2.92-0.66c1.01,0,1.98,0.23,2.9,0.69
	c0.92,0.46,1.67,1.15,2.26,2.06c0.59,0.92,0.88,2.06,0.88,3.44c0,1.37-0.29,2.52-0.88,3.45c-0.59,0.92-1.35,1.62-2.27,2.07
	c-0.92,0.46-1.89,0.69-2.91,0.69H158.61z M168.49,25.49c-0.47,0.39-1.01,0.59-1.62,0.59c-0.67,0-1.25-0.24-1.73-0.72
	c-0.48-0.48-0.72-1.06-0.72-1.73c0-0.67,0.24-1.25,0.72-1.73c0.48-0.48,1.06-0.72,1.73-0.72c0.62,0,1.16,0.2,1.62,0.61
	c-0.44,0.52-0.66,1.14-0.66,1.84C167.83,24.33,168.05,24.95,168.49,25.49L168.49,25.49z M168.89,34.81c0.34,0,0.66-0.12,0.96-0.36
	c0.29-0.24,0.44-0.59,0.44-1.07c0-0.47-0.14-0.83-0.43-1.06c-0.29-0.23-0.6-0.34-0.94-0.34c-0.36,0-0.68,0.11-0.97,0.34
	c-0.29,0.23-0.43,0.58-0.43,1.06c0,0.47,0.14,0.83,0.43,1.06C168.23,34.67,168.54,34.8,168.89,34.81z M170.78,26.08
	c-0.67,0-1.25-0.24-1.73-0.72c-0.48-0.48-0.72-1.06-0.72-1.73c0-0.67,0.24-1.25,0.72-1.73c0.48-0.48,1.06-0.72,1.73-0.72
	c0.67,0,1.25,0.24,1.73,0.72c0.48,0.48,0.72,1.06,0.72,1.73c0,0.67-0.24,1.25-0.72,1.73C172.02,25.84,171.45,26.08,170.78,26.08z"/>
<rect x="177.4" y="22.57" class="st0" width="4.86" height="17.03"/>
<path class="st0" d="M207.13,42.84l-3.24-3.24h-14.18l-3.24,3.24l-3.24-3.24h-2.7v-4.88h7.19l9.1-9.08l9.05,9.08h3.48v3.48l1.2,1.2
	L207.13,42.84z M191.65,22.57v6.31l-4.86,4.88V22.57H191.65z M194.62,34.71h4.42l-2.21-2.21L194.62,34.71z"/>
<path class="st0" d="M207.64,39.6v-4.88h4.2v-4.86h4.88v9.74H207.64z M213.04,45.95c-0.67,0-1.25-0.24-1.73-0.72
	c-0.48-0.48-0.72-1.06-0.72-1.73c0-0.67,0.24-1.25,0.72-1.73c0.48-0.48,1.06-0.72,1.73-0.72c0.67,0,1.25,0.24,1.73,0.72
	c0.48,0.48,0.72,1.06,0.72,1.73c0,0.67-0.24,1.25-0.72,1.73C214.28,45.71,213.71,45.95,213.04,45.95z"/>
<text transform="matrix(1 0 0 1 217.9151 39.5975)" class="st0 st1 st2"> </text>
<path class="st0" d="M231.73,39.6c-0.93,0-1.77-0.21-2.5-0.63c-0.74-0.42-1.31-0.99-1.73-1.73c-0.42-0.74-0.63-1.58-0.63-2.53v-2.92
	h4.86v2.92h19.48v-4.86h4.86v9.74H231.73z M243.19,45.95c-0.67,0-1.25-0.24-1.73-0.72c-0.48-0.48-0.72-1.06-0.72-1.73
	c0-0.67,0.24-1.25,0.72-1.73c0.48-0.48,1.06-0.72,1.73-0.72c0.67,0,1.25,0.24,1.73,0.72c0.48,0.48,0.72,1.06,0.72,1.73
	c0,0.67-0.24,1.25-0.72,1.73C244.43,45.71,243.86,45.95,243.19,45.95z"/>
<polygon class="st0" points="254.34,39.6 254.34,34.74 258.49,34.74 258.49,22.57 263.37,22.57 263.37,39.6 "/>
<path class="st0" d="M288.25,42.84l-3.24-3.24h-14.18l-3.24,3.24l-3.24-3.24h-2.7v-4.88h7.19l9.1-9.08l13.74,13.76L288.25,42.84z
	 M272.76,22.57v6.31l-4.86,4.88V22.57H272.76z M275.73,34.71h4.42l-2.21-2.21L275.73,34.71z"/>
<rect x="79.62" y="16.01" width="6.44" height="39.66"/>
<rect x="136.75" y="10.03" width="6.76" height="39.66"/>
<rect x="217.35" y="12.68" width="6.88" height="39.66"/>
</svg>
