<?xml version="1.0" encoding="utf-8"?>
<!-- Generator: Adobe Illustrator 27.7.0, SVG Export Plug-In . SVG Version: 6.00 Build 0)  -->
<svg version="1.1" id="Layer_1" xmlns="http://www.w3.org/2000/svg" xmlns:xlink="http://www.w3.org/1999/xlink" x="0px" y="0px"
	 viewBox="0 0 358.4 122.52" style="enable-background:new 0 0 358.4 122.52;" xml:space="preserve">
<style type="text/css">
	.st0{fill:#E6C4A3;}
	.st1{font-family:'Mobtakar-Fat';}
	.st2{font-size:34.2825px;}
</style>
<g>
	<path d="M345.85,117.82H12.79c-4.95,0-8.97-4.02-8.97-8.97V14.1c0-4.95,4.02-8.97,8.97-8.97h333.06c4.95,0,8.97,4.02,8.97,8.97
		v94.75C354.82,113.81,350.81,117.82,345.85,117.82z"/>
</g>
<g>
	<polygon class="st0" points="42.48,41.16 47.28,41.16 47.28,47.98 45.29,47.98 32.84,60.42 28.05,55.62 	"/>
	<path class="st0" d="M44.88,47.98v-6.82h9.19v-6.79h6.82v13.61H44.88z M53.48,56c-0.64,0.57-1.39,0.86-2.26,0.86
		c-0.94,0-1.74-0.34-2.42-1.01c-0.67-0.67-1.01-1.48-1.01-2.42c0-0.94,0.34-1.74,1.01-2.42c0.67-0.67,1.48-1.01,2.42-1.01
		c0.85,0,1.6,0.27,2.26,0.82c-0.62,0.75-0.93,1.62-0.93,2.61C52.56,54.41,52.86,55.27,53.48,56L53.48,56z M56.67,56.86
		c-0.94,0-1.74-0.34-2.42-1.01c-0.67-0.67-1.01-1.48-1.01-2.42c0-0.94,0.34-1.74,1.01-2.42c0.67-0.67,1.48-1.01,2.42-1.01
		c0.94,0,1.74,0.34,2.42,1.01c0.67,0.67,1.01,1.48,1.01,2.42c0,0.94-0.34,1.74-1.01,2.42C58.41,56.52,57.61,56.86,56.67,56.86z"/>
	<path class="st0" d="M81.14,39.24c0,0.37-0.02,0.71-0.05,1.03c-0.03,0.32-0.07,0.63-0.12,0.93h0.17v6.79h-5.04L63.25,60.8l-4.8-4.8
		l9.56-9.56c-1.12-0.66-2.03-1.59-2.74-2.79c-0.71-1.2-1.06-2.67-1.06-4.41c0-1.87,0.41-3.43,1.22-4.68
		c0.81-1.25,1.86-2.18,3.14-2.81c1.28-0.63,2.62-0.95,4.01-0.98c1.07-0.02,2.12,0.14,3.14,0.5c1.02,0.35,1.93,0.88,2.74,1.58
		c0.81,0.7,1.46,1.58,1.95,2.66C80.9,36.57,81.14,37.82,81.14,39.24z M72.68,41.16c0.57,0,1.04-0.18,1.41-0.53
		c0.37-0.35,0.55-0.82,0.55-1.39c0-0.66-0.2-1.15-0.6-1.47c-0.4-0.32-0.85-0.48-1.35-0.48c-0.48,0-0.93,0.16-1.34,0.48
		c-0.41,0.32-0.62,0.81-0.62,1.47c0,0.64,0.2,1.12,0.6,1.44C71.72,41,72.17,41.16,72.68,41.16z"/>
	<path class="st0" d="M115.9,52.5l-4.53-4.53H91.56l-4.53,4.53l-4.53-4.53h-3.77v-6.82h10.04l12.72-12.68l12.65,12.68h4.87v4.87
		l1.68,1.68L115.9,52.5z M94.27,24.19V33l-6.79,6.82V24.19H94.27z M98.42,41.16h6.17l-3.09-3.09L98.42,41.16z"/>
	<path class="st0" d="M116.62,47.98v-6.82h9.19v-6.79h6.82v13.61H116.62z M125.84,32.21c-0.66,0.55-1.42,0.82-2.26,0.82
		c-0.94,0-1.74-0.34-2.42-1.01c-0.67-0.67-1.01-1.48-1.01-2.42c0-0.94,0.34-1.74,1.01-2.42c0.67-0.67,1.48-1.01,2.42-1.01
		c0.87,0,1.62,0.29,2.26,0.86c-0.62,0.73-0.93,1.59-0.93,2.57C124.92,30.59,125.22,31.45,125.84,32.21L125.84,32.21z M129.03,33.03
		c-0.94,0-1.74-0.34-2.42-1.01c-0.67-0.67-1.01-1.48-1.01-2.42c0-0.94,0.34-1.74,1.01-2.42c0.67-0.67,1.48-1.01,2.42-1.01
		c0.94,0,1.74,0.34,2.42,1.01c0.67,0.67,1.01,1.48,1.01,2.42c0,0.94-0.34,1.74-1.01,2.42C130.77,32.69,129.97,33.03,129.03,33.03z"
		/>
	<path class="st0" d="M130.23,47.98v-6.82h5.86v-6.79h6.82v13.61H130.23z M137.77,56.86c-0.94,0-1.74-0.34-2.42-1.01
		c-0.67-0.67-1.01-1.48-1.01-2.42c0-0.94,0.34-1.74,1.01-2.42c0.67-0.67,1.48-1.01,2.42-1.01c0.94,0,1.74,0.34,2.42,1.01
		c0.67,0.67,1.01,1.48,1.01,2.42c0,0.94-0.34,1.74-1.01,2.42C139.51,56.52,138.71,56.86,137.77,56.86z"/>
	<text transform="matrix(1 0 0 1 144.5897 47.9787)" class="st0 st1 st2"> </text>
	<path class="st0" d="M157.1,22.51v-3.19c0-1.1,0.23-1.95,0.69-2.57c0.46-0.62,1.05-1.05,1.78-1.3c0.73-0.25,1.5-0.38,2.3-0.38v2.5
		c-0.41,0-0.78,0.11-1.11,0.34c-0.33,0.23-0.5,0.7-0.5,1.41h3.63v3.19H157.1z M157.1,47.98V24.19h6.79v23.79H157.1z"/>
	<path class="st0" d="M167.32,47.98v-6.82h10.46c0-0.91-0.17-1.62-0.5-2.11c-0.33-0.49-0.76-0.83-1.29-1.01
		c-0.53-0.18-1.07-0.27-1.65-0.27h-3.67v-5.66h3.43c1.28,0,2.53,0.13,3.74,0.38c1.21,0.25,2.31,0.7,3.29,1.35
		c0.98,0.65,1.76,1.57,2.33,2.74c0.57,1.18,0.86,2.7,0.86,4.58v6.82H167.32z"/>
	<path class="st0" d="M181.92,47.98v-6.82h5.86v-6.79h6.82v13.61H181.92z M189.46,56.86c-0.94,0-1.74-0.34-2.42-1.01
		c-0.67-0.67-1.01-1.48-1.01-2.42c0-0.94,0.34-1.74,1.01-2.42c0.67-0.67,1.48-1.01,2.42-1.01c0.94,0,1.74,0.34,2.42,1.01
		c0.67,0.67,1.01,1.48,1.01,2.42c0,0.94-0.34,1.74-1.01,2.42C191.2,56.52,190.4,56.86,189.46,56.86z"/>
	<rect x="197.99" y="24.19" class="st0" width="6.79" height="23.79"/>
	<text transform="matrix(1 0 0 1 206.494 47.9787)" class="st0 st1 st2"> </text>
	<path class="st0" d="M230.9,52.33c-1.69,0-3.35-0.29-4.97-0.86c-1.62-0.57-3.09-1.42-4.39-2.55c-1.3-1.13-2.34-2.55-3.1-4.25
		c-0.77-1.7-1.15-3.69-1.15-5.95h6.82c0,1.51,0.33,2.77,0.99,3.79c0.66,1.02,1.51,1.78,2.55,2.28c1.04,0.5,2.12,0.75,3.24,0.75
		c1.14,0,2.23-0.25,3.27-0.75c1.04-0.5,1.89-1.26,2.55-2.28c0.66-1.02,0.99-2.28,0.99-3.79v-3.53h6.82v3.53
		c0,2.26-0.38,4.25-1.15,5.95c-0.77,1.7-1.8,3.12-3.1,4.25c-1.3,1.13-2.77,1.98-4.39,2.55C234.28,52.05,232.62,52.33,230.9,52.33z
		 M230.94,34.64c-0.94,0-1.74-0.34-2.42-1.01c-0.67-0.67-1.01-1.48-1.01-2.42c0-0.94,0.34-1.74,1.01-2.42
		c0.67-0.67,1.48-1.01,2.42-1.01c0.94,0,1.74,0.34,2.42,1.01c0.67,0.67,1.01,1.48,1.01,2.42c0,0.94-0.34,1.74-1.01,2.42
		C232.68,34.31,231.87,34.64,230.94,34.64z"/>
	<rect x="247.8" y="24.19" class="st0" width="6.79" height="23.79"/>
	<text transform="matrix(1 0 0 1 256.2986 47.9787)" class="st0 st1 st2"> </text>
	<path class="st0" d="M268.81,47.98v-6.82h10.46c0-0.91-0.17-1.62-0.5-2.11c-0.33-0.49-0.76-0.83-1.29-1.01
		c-0.53-0.18-1.07-0.27-1.65-0.27h-3.67v-5.66h3.43c1.28,0,2.53,0.13,3.74,0.38c1.21,0.25,2.31,0.7,3.29,1.35
		c0.98,0.65,1.76,1.57,2.33,2.74c0.57,1.18,0.86,2.7,0.86,4.58v6.82H268.81z"/>
	<path class="st0" d="M283.41,47.98v-6.82h9.19v-6.79h6.82v13.61H283.41z M292.02,56c-0.64,0.57-1.39,0.86-2.26,0.86
		c-0.94,0-1.74-0.34-2.42-1.01c-0.67-0.67-1.01-1.48-1.01-2.42c0-0.94,0.34-1.74,1.01-2.42c0.67-0.67,1.48-1.01,2.42-1.01
		c0.85,0,1.6,0.27,2.26,0.82c-0.62,0.75-0.93,1.62-0.93,2.61C291.09,54.41,291.4,55.27,292.02,56L292.02,56z M295.21,56.86
		c-0.94,0-1.74-0.34-2.42-1.01c-0.67-0.67-1.01-1.48-1.01-2.42c0-0.94,0.34-1.74,1.01-2.42c0.67-0.67,1.48-1.01,2.42-1.01
		c0.94,0,1.74,0.34,2.42,1.01c0.67,0.67,1.01,1.48,1.01,2.42c0,0.94-0.34,1.74-1.01,2.42C296.95,56.52,296.14,56.86,295.21,56.86z"
		/>
	<polygon class="st0" points="300.17,60.42 295.37,55.62 309.81,41.16 314.61,45.99 	"/>
	<rect x="316.32" y="24.19" class="st0" width="6.79" height="23.79"/>
	<path class="st0" d="M114.16,101.7c-0.66,0.66-1.47,0.99-2.43,0.98c-0.96-0.01-1.77-0.34-2.43-0.98c-0.66-0.66-0.99-1.47-0.99-2.43
		s0.32-1.77,0.96-2.43c0.66-0.66,1.47-0.99,2.43-0.99s1.78,0.34,2.47,1.03c0.66,0.66,0.99,1.47,0.99,2.42
		C115.16,100.24,114.83,101.04,114.16,101.7z M117.97,105.54c-0.64,0.66-1.44,0.99-2.4,0.99c-0.96,0-1.77-0.33-2.43-0.99
		c-0.62-0.62-0.95-1.35-0.99-2.19c0.94-0.11,1.76-0.5,2.47-1.17c0.69-0.73,1.09-1.57,1.2-2.5c0.41,0.05,0.81,0.15,1.18,0.31
		c0.38,0.16,0.71,0.4,1.01,0.72c0.66,0.66,0.99,1.46,0.98,2.4C118.97,104.05,118.63,104.86,117.97,105.54z M121.74,102.49
		l-9.39-9.53l4.8-4.8l9.63,9.74l1.92-1.92l-9.63-9.63l6.51-6.48c0.94-0.94,2.01-1.56,3.22-1.87c1.21-0.31,2.42-0.31,3.63,0
		c1.21,0.31,2.27,0.93,3.19,1.87l9.32,9.29v6.82h-2.81l-11.52-11.55l-1.92,1.92l9.63,9.63l-6.51,6.51
		c-0.94,0.91-2.01,1.53-3.22,1.83c-1.21,0.31-2.42,0.31-3.63,0C123.75,104.02,122.68,103.41,121.74,102.49z"/>
	<path class="st0" d="M142.54,95.98v-6.79h4.49c-0.25-0.62-0.38-1.3-0.38-2.06c0-1.42,0.25-2.66,0.74-3.72
		c0.49-1.06,1.14-1.95,1.95-2.66c0.81-0.71,1.73-1.23,2.76-1.58c1.03-0.34,2.07-0.51,3.12-0.51c1.39,0,2.72,0.31,3.98,0.93
		c1.26,0.62,2.3,1.53,3.12,2.73c0.82,1.2,1.26,2.7,1.3,4.51h-6.55c-0.07-0.57-0.3-0.99-0.7-1.25c-0.4-0.26-0.85-0.38-1.34-0.36
		c-0.49,0.02-0.92,0.19-1.29,0.51c-0.37,0.32-0.55,0.79-0.55,1.41c0,0.69,0.22,1.2,0.65,1.54c0.43,0.34,0.9,0.51,1.41,0.51h10.08
		v6.79H142.54z"/>
	<path class="st0" d="M167.7,108.42l-4.8-4.8l9.56-9.6c-1.12-0.66-2.03-1.59-2.74-2.79c-0.71-1.2-1.06-2.67-1.06-4.41
		c0-1.87,0.41-3.43,1.22-4.68c0.81-1.25,1.86-2.18,3.14-2.81c1.28-0.63,2.62-0.95,4.01-0.98c1.07-0.02,2.12,0.14,3.14,0.5
		c1.02,0.35,1.93,0.88,2.74,1.58c0.81,0.7,1.46,1.58,1.95,2.66c0.49,1.07,0.74,2.32,0.74,3.74c0,1.03-0.11,1.91-0.33,2.66
		c-0.22,0.74-0.54,1.43-0.98,2.06c-0.43,0.63-1.01,1.3-1.71,2.01L167.7,108.42z M177.13,88.75c0.57,0,1.04-0.18,1.41-0.53
		c0.37-0.35,0.55-0.82,0.55-1.39c0-0.66-0.2-1.15-0.6-1.46c-0.4-0.31-0.85-0.46-1.35-0.46c-0.48,0-0.93,0.15-1.34,0.46
		c-0.41,0.31-0.62,0.79-0.62,1.46c0,0.64,0.2,1.12,0.6,1.44C176.18,88.59,176.63,88.75,177.13,88.75z"/>
	<polygon class="st0" points="195.85,89.16 200.65,89.16 200.65,95.98 198.66,95.98 186.21,108.42 181.41,103.62 	"/>
	<path class="st0" d="M198.24,95.98v-6.82h6.03l-1.75-1.71l4.8-4.83l5.14,5.14l4.46-4.46l4.94,4.94v-7.58h6.79v15.32H198.24z
		 M214.8,80.79c-0.66,0.55-1.42,0.82-2.26,0.82c-0.94,0-1.74-0.34-2.42-1.01c-0.67-0.67-1.01-1.48-1.01-2.42
		c0-0.94,0.34-1.74,1.01-2.42c0.67-0.67,1.48-1.01,2.42-1.01c0.43,0,0.85,0.08,1.23,0.24c0.39,0.16,0.73,0.37,1.03,0.62
		c-0.62,0.75-0.93,1.61-0.93,2.57C213.88,79.17,214.18,80.04,214.8,80.79L214.8,80.79z M215.25,75.13V75.1
		c-0.8-0.69-1.7-1.03-2.71-1.03c-0.09,0-0.19,0.01-0.31,0.02c-0.11,0.01-0.23,0.03-0.34,0.05c-0.02-0.11-0.04-0.23-0.05-0.36
		c-0.01-0.13-0.02-0.25-0.02-0.36c0-0.94,0.34-1.74,1.01-2.42c0.67-0.67,1.48-1.01,2.42-1.01c0.94,0,1.74,0.34,2.42,1.01
		c0.67,0.67,1.01,1.48,1.01,2.42c0,0.11,0,0.23,0,0.36c0,0.13-0.02,0.25-0.07,0.36c-0.23-0.05-0.43-0.07-0.62-0.07
		c-0.53,0-1.02,0.1-1.47,0.29C216.06,74.56,215.64,74.82,215.25,75.13z M217.99,81.61c-0.94,0-1.74-0.34-2.42-1.01
		c-0.67-0.67-1.01-1.48-1.01-2.42c0-0.94,0.34-1.74,1.01-2.42c0.67-0.67,1.48-1.01,2.42-1.01c0.94,0,1.74,0.34,2.42,1.01
		c0.67,0.67,1.01,1.48,1.01,2.42c0,0.94-0.34,1.74-1.01,2.42C219.73,81.28,218.93,81.61,217.99,81.61z"/>
	<path class="st0" d="M240.2,84.08c1.44,0,2.81,0.31,4.11,0.94c1.3,0.63,2.37,1.57,3.21,2.83c0.83,1.26,1.25,2.83,1.25,4.73
		c0,1.85-0.41,3.41-1.22,4.66c-0.81,1.26-1.86,2.2-3.14,2.83c-1.28,0.63-2.63,0.95-4.05,0.98c-1.1,0-2.17-0.19-3.22-0.57
		c-1.05-0.38-1.99-0.94-2.81-1.7s-1.46-1.69-1.92-2.81h-6.17v-6.82h6.21c0.43-1.12,1.06-2.06,1.87-2.81
		c0.81-0.75,1.73-1.32,2.74-1.7C238.08,84.27,239.13,84.08,240.2,84.08z M240.3,94.5c0.48,0,0.93-0.16,1.34-0.48
		c0.41-0.32,0.62-0.8,0.62-1.44c0-0.66-0.2-1.15-0.6-1.47c-0.4-0.32-0.85-0.48-1.35-0.48c-0.48,0-0.92,0.16-1.32,0.48
		c-0.4,0.32-0.6,0.81-0.6,1.47c0,0.64,0.2,1.12,0.6,1.44C239.38,94.34,239.82,94.5,240.3,94.5z"/>
</g>
<rect x="144.15" y="14.57" width="8.32" height="42.28"/>
<rect x="205.98" y="16.53" width="8.32" height="42.28"/>
<rect x="255.84" y="14.94" width="8.32" height="42.28"/>
</svg>
