<?xml version="1.0" encoding="UTF-8" standalone="no"?>
<!DOCTYPE svg PUBLIC "-//W3C//DTD SVG 1.1//EN" "http://www.w3.org/Graphics/SVG/1.1/DTD/svg11.dtd">
<svg xmlns="http://www.w3.org/2000/svg" version="1.1" viewBox="0 0 500 500">
<g stroke-width="2.00" fill="none" stroke-linecap="butt">
<path stroke="#8b8bae" vector-effect="non-scaling-stroke" d="
  M 240.45 132.19
  C 242.17 139.98 248.22 147.01 255.81 149.70
  Q 342.96 180.57 463.97 222.60
  Q 471.67 225.27 473.48 225.51
  C 484.09 226.89 492.46 219.06 492.47 208.51
  C 492.49 195.39 493.99 177.93 491.03 166.67
  C 485.63 146.15 470.37 141.17 451.82 134.67
  Q 358.69 102.01 265.55 69.36
  C 258.38 66.85 252.50 65.99 246.61 70.35
  Q 239.56 75.55 239.58 85.00
  Q 239.61 101.70 239.79 118.38
  Q 239.91 129.73 240.45 132.19"
/>
<path stroke="#9796d7" vector-effect="non-scaling-stroke" d="
  M 87.80 88.36
  Q 80.04 100.54 75.50 114.46"
/>
<path stroke="#9291c5" vector-effect="non-scaling-stroke" d="
  M 75.50 114.46
  L 56.00 163.21"
/>
<path stroke="#8b8bae" vector-effect="non-scaling-stroke" d="
  M 56.00 163.21
  L 42.79 196.25"
/>
<path stroke="#87879c" vector-effect="non-scaling-stroke" d="
  M 42.79 196.25
  Q 32.23 221.54 22.71 247.25"
/>
<path stroke="#828289" vector-effect="non-scaling-stroke" d="
  M 22.71 247.25
  C 12.65 279.38 38.72 315.17 73.79 298.82
  Q 87.48 292.43 95.52 278.60"
/>
<path stroke="#87879c" vector-effect="non-scaling-stroke" d="
  M 95.52 278.60
  Q 106.63 252.49 116.79 226.00"
/>
<path stroke="#8b8bae" vector-effect="non-scaling-stroke" d="
  M 116.79 226.00
  C 117.12 225.26 120.00 216.57 120.79 219.88"
/>
<path stroke="#9291c5" vector-effect="non-scaling-stroke" d="
  M 120.79 219.88
  L 138.60 265.29"
/>
<path stroke="#9796d7" vector-effect="non-scaling-stroke" d="
  M 138.60 265.29
  Q 141.74 274.38 145.51 280.73
  C 154.25 295.48 173.13 306.36 190.42 302.14
  C 214.45 296.29 223.80 270.08 217.27 247.75
  Q 215.97 243.32 212.56 235.03"
/>
<path stroke="#9291c5" vector-effect="non-scaling-stroke" d="
  M 212.56 235.03
  L 192.04 183.00"
/>
<path stroke="#8b8bae" vector-effect="non-scaling-stroke" d="
  M 192.04 183.00
  Q 176.85 144.20 161.56 105.44
  Q 158.39 97.40 156.08 93.79"
/>
<path stroke="#9796d7" vector-effect="non-scaling-stroke" d="
  M 156.08 93.79
  C 149.78 79.14 136.10 70.02 120.26 70.15"
/>
<path stroke="#828289" vector-effect="non-scaling-stroke" d="
  M 120.26 70.15
  Q 98.56 69.96 87.80 88.36"
/>
<path stroke="#1a1961" vector-effect="non-scaling-stroke" d="
  M 120.26 70.15
  Q 100.30 72.72 87.80 88.36"
/>
<path stroke="#232286" vector-effect="non-scaling-stroke" d="
  M 156.08 93.79
  C 161.94 111.98 157.70 125.97 150.00 143.04"
/>
<path stroke="#29289d" vector-effect="non-scaling-stroke" d="
  M 150.00 143.04
  C 143.77 143.48 138.00 140.66 132.42 137.66
  C 130.64 136.70 128.33 136.58 126.52 135.67
  C 119.50 132.14 112.03 129.48 104.82 126.32
  C 103.71 125.83 103.10 124.71 101.40 124.94
  A 1.02 1.01 56.8 0 1 100.73 124.80
  Q 98.02 123.09 95.06 121.98
  C 93.89 121.54 92.55 122.04 91.41 120.42
  A 0.98 0.97 -5.6 0 0 90.99 120.08
  L 77.26 114.16
  A 1.03 1.01 39.7 0 0 76.31 114.24
  Q 75.94 114.49 75.50 114.46"
/>
<path stroke="#1e1d74" vector-effect="non-scaling-stroke" d="
  M 192.04 183.00
  Q 190.57 185.03 188.26 185.80
  A 1.00 0.99 -9.6 0 0 187.57 186.76
  C 187.61 189.81 185.82 190.18 183.50 191.29
  Q 176.50 194.62 169.44 197.84
  C 163.96 200.33 157.52 202.40 151.61 204.90
  C 143.71 208.24 136.39 211.32 128.35 215.18
  Q 124.39 217.09 120.79 219.88"
/>
<path stroke="#13134b" vector-effect="non-scaling-stroke" d="
  M 116.79 226.00
  Q 113.80 223.95 110.44 222.71
  Q 104.04 220.35 103.78 220.23
  C 90.82 214.50 77.42 209.83 64.67 203.66
  Q 54.24 198.62 42.79 196.25"
/>
<path stroke="#1e1d74" vector-effect="non-scaling-stroke" d="
  M 56.00 163.21
  Q 57.21 161.78 58.30 162.18
  Q 69.11 166.11 84.57 173.42
  C 92.94 177.38 104.46 181.18 116.31 186.42
  C 120.37 188.21 123.99 190.71 129.23 191.29
  A 1.00 1.00 0.0 0 0 130.25 190.71
  Q 140.87 167.44 150.00 143.04"
/>
<path stroke="#29289d" vector-effect="non-scaling-stroke" d="
  M 212.56 235.03
  Q 198.23 242.25 190.80 244.78
  Q 175.06 250.14 159.89 256.92
  C 157.12 258.16 153.29 259.31 150.18 260.95
  C 146.18 263.05 142.59 264.05 138.60 265.29"
/>
<path stroke="#0a0a26" vector-effect="non-scaling-stroke" d="
  M 95.52 278.60
  Q 94.68 277.03 93.51 277.40
  A 0.98 0.98 0.0 0 1 92.93 277.40
  Q 79.93 273.63 75.20 271.28
  C 72.48 269.92 55.85 262.36 53.84 263.05
  A 0.64 0.63 -31.7 0 1 53.18 262.90
  Q 51.97 261.71 50.32 261.19
  Q 50.15 261.14 49.44 260.56
  Q 48.59 259.87 47.52 260.32
  A 0.99 0.96 -42.8 0 1 46.70 260.30
  C 40.77 257.41 35.45 253.93 29.17 251.86
  A 1.03 1.01 -9.1 0 1 28.68 251.51
  Q 27.16 249.50 24.68 249.25
  A 1.00 0.99 81.3 0 1 23.87 248.65
  Q 23.50 247.81 22.71 247.25"
/>
<path stroke="#8b8bae" vector-effect="non-scaling-stroke" d="
  M 246.94 311.56
  C 253.92 316.20 259.93 314.26 266.82 311.84
  Q 348.27 283.32 429.71 254.74
  Q 433.36 253.46 433.64 250.07
  C 433.96 246.22 430.88 245.04 427.81 243.95
  Q 385.54 228.87 343.11 214.25
  C 331.51 210.25 322.49 209.00 311.56 212.55
  Q 298.35 216.83 257.07 231.55
  C 244.50 236.03 240.03 245.11 239.85 257.67
  Q 239.42 287.20 239.83 297.94
  Q 240.17 307.07 246.94 311.56"
/>
<path stroke="#8b8bae" vector-effect="non-scaling-stroke" d="
  M 156.09 416.02
  Q 157.20 414.69 157.80 416.32
  L 159.04 419.73
  A 1.00 0.99 -18.4 0 0 160.27 420.34
  Q 168.54 417.80 173.44 410.63
  A 0.99 0.98 -50.2 0 0 173.33 409.37
  Q 170.41 406.40 168.79 408.49
  Q 167.73 409.85 166.63 411.03
  Q 163.79 414.05 164.94 410.07
  L 179.91 357.95
  A 0.99 0.99 0.0 0 0 179.28 356.73
  C 175.01 355.25 173.80 356.46 172.71 360.51
  Q 170.38 369.13 168.10 377.77
  A 1.00 1.00 0.0 0 1 166.82 378.47
  Q 160.68 376.44 156.06 379.43
  C 149.02 384.00 144.32 401.58 143.48 409.01
  Q 142.74 415.56 148.36 419.23
  C 151.44 421.24 152.89 419.08 154.91 417.24
  Q 155.55 416.66 156.09 416.02"
/>
<path stroke="#8b8bae" vector-effect="non-scaling-stroke" d="
  M 207.04 419.29
  C 212.36 421.66 212.86 418.46 213.90 414.38
  Q 221.14 386.14 228.34 357.91
  A 1.00 1.00 0.0 0 0 227.68 356.71
  Q 222.64 355.08 221.59 359.20
  Q 214.14 388.52 206.48 418.13
  A 1.00 0.99 -70.9 0 0 207.04 419.29"
/>
<path stroke="#9695d1" vector-effect="non-scaling-stroke" d="
  M 316.49 364.76
  A 1.00 1.00 0.0 0 1 317.71 365.98
  Q 311.34 391.14 305.02 416.31
  C 304.24 419.41 306.31 419.46 308.45 419.84
  Q 324.90 422.74 332.97 408.52
  C 340.29 395.62 351.21 358.38 323.99 358.76
  Q 317.08 358.85 314.05 359.27
  A 1.03 1.00 -81.8 0 0 313.27 359.87
  Q 310.46 366.33 316.49 364.76"
/>
<path stroke="#8b8bae" vector-effect="non-scaling-stroke" d="
  M 79.73 401.75
  L 93.12 401.75
  A 1.00 0.99 1.9 0 1 94.12 402.81
  L 93.13 418.30
  A 1.02 1.02 0.0 0 0 93.69 419.27
  Q 96.54 420.64 99.68 419.47
  A 1.01 1.01 0.0 0 0 100.33 418.59
  L 103.35 362.76
  Q 103.50 360.14 101.00 359.50
  C 95.21 357.99 93.30 360.60 90.77 365.48
  Q 77.36 391.33 64.31 416.61
  Q 63.11 418.95 65.65 419.60
  C 70.44 420.84 70.82 418.49 72.85 414.54
  Q 75.95 408.48 78.82 402.33
  A 1.00 1.00 0.0 0 1 79.73 401.75"
/>
<path stroke="#8b8bae" vector-effect="non-scaling-stroke" d="
  M 261.91 394.67
  C 262.33 398.80 266.52 400.30 269.87 400.91
  Q 272.10 401.32 272.51 403.48
  Q 274.04 411.48 267.21 415.25
  A 1.01 1.01 0.0 0 1 266.28 415.27
  Q 262.40 413.32 261.04 409.15
  A 1.00 0.99 71.7 0 0 259.77 408.51
  C 250.13 411.84 261.36 422.31 268.22 420.54
  C 275.31 418.72 279.44 410.59 279.52 403.51
  C 279.59 397.85 275.90 396.03 270.97 395.16
  Q 268.39 394.70 268.30 392.08
  Q 268.10 386.24 271.87 383.29
  C 275.80 380.21 277.90 386.07 279.30 388.25
  A 1.01 1.01 0.0 0 0 280.29 388.70
  Q 283.53 388.20 284.63 385.24
  A 1.04 1.00 -50.3 0 0 284.57 384.42
  C 275.50 367.64 260.63 381.75 261.91 394.67"
/>
<path stroke="#8b8bae" vector-effect="non-scaling-stroke" d="
  M 198.75 411.60
  Q 196.42 414.09 197.40 410.82
  L 206.96 378.84
  A 0.99 0.98 -68.4 0 0 206.46 377.67
  Q 202.81 375.81 200.80 378.26
  A 1.02 1.01 -60.4 0 1 199.69 378.57
  C 183.69 372.89 178.11 397.34 176.53 408.19
  C 175.71 413.81 177.89 417.68 182.81 420.10
  A 0.98 0.97 -41.8 0 0 183.59 420.14
  Q 187.21 418.81 189.18 415.45
  A 0.64 0.64 0.0 0 1 190.07 415.23
  C 191.98 416.45 189.96 421.62 194.61 419.94
  C 199.37 418.23 203.18 414.74 206.28 410.42
  A 1.00 1.00 0.0 0 0 206.03 409.00
  L 203.76 407.47
  A 1.01 1.00 38.3 0 0 202.47 407.62
  L 198.75 411.60"
/>
<path stroke="#9695d1" vector-effect="non-scaling-stroke" d="
  M 380.71 408.90
  Q 379.01 412.10 379.20 408.48
  Q 380.02 393.57 378.90 378.65
  A 1.01 1.01 0.0 0 0 378.26 377.79
  Q 375.95 376.91 373.30 377.81
  A 1.00 1.00 0.0 0 0 372.62 378.81
  Q 373.72 397.89 373.05 416.26
  C 372.84 422.15 380.01 420.02 382.11 416.58
  Q 392.91 398.99 398.30 378.92
  A 1.00 1.00 0.0 0 0 397.82 377.79
  Q 395.36 376.42 392.81 377.32
  A 1.02 1.01 88.9 0 0 392.18 377.98
  Q 390.62 383.28 389.05 388.51
  Q 385.79 399.37 380.71 408.90"
/>
<path stroke="#8b8bae" vector-effect="non-scaling-stroke" d="
  M 118.51 399.98
  Q 118.15 400.02 118.30 399.51
  Q 121.31 389.42 124.25 379.30
  A 1.00 1.00 0.0 0 0 123.75 378.13
  Q 119.01 375.64 117.92 379.54
  Q 112.58 398.87 107.57 418.34
  A 1.00 1.00 0.0 0 0 108.00 419.43
  C 110.23 420.86 111.89 420.25 113.26 417.99
  Q 122.58 402.66 132.54 387.50
  Q 133.29 386.35 134.50 385.71
  C 135.67 385.08 135.87 386.50 135.63 387.30
  Q 131.02 402.60 126.10 418.71
  A 1.00 1.00 0.0 0 0 127.06 420.00
  L 131.44 419.98
  A 1.01 1.01 0.0 0 0 132.40 419.25
  Q 136.90 403.55 141.03 387.95
  C 142.12 383.83 144.49 377.72 138.79 377.43
  C 130.11 376.99 122.46 393.34 118.76 399.82
  A 0.36 0.34 -76.4 0 1 118.51 399.98"
/>
<path stroke="#8b8bae" vector-effect="non-scaling-stroke" d="
  M 246.50 399.02
  Q 246.85 398.98 246.70 399.48
  Q 243.94 408.77 241.16 418.57
  A 1.00 0.99 8.7 0 0 242.10 419.84
  L 246.37 419.93
  A 1.01 1.00 -81.5 0 0 247.36 419.19
  L 258.15 378.64
  A 1.00 1.00 0.0 0 0 257.20 377.39
  L 253.04 377.32
  A 0.98 0.97 14.3 0 0 252.14 377.85
  Q 243.68 393.97 234.10 409.38
  C 232.39 412.13 229.31 413.52 230.83 408.31
  Q 235.10 393.66 239.42 378.68
  A 1.00 1.00 0.0 0 0 238.49 377.41
  L 234.12 377.27
  A 1.00 1.00 0.0 0 0 233.13 378.00
  Q 228.85 393.22 224.65 408.48
  C 223.06 414.26 225.02 424.51 233.47 417.93
  C 238.53 413.99 242.71 405.54 246.24 399.19
  A 0.36 0.35 -77.4 0 1 246.50 399.02"
/>
<path stroke="#9695d1" vector-effect="non-scaling-stroke" d="
  M 348.02 408.14
  C 357.06 404.57 366.45 397.82 367.52 387.32
  C 368.30 379.73 363.63 375.23 356.01 378.89
  Q 351.95 380.85 349.43 384.92
  C 344.91 392.22 332.98 421.04 350.65 420.95
  Q 350.91 420.95 351.14 420.82
  C 353.21 419.65 366.63 410.78 358.52 408.64
  A 1.02 1.00 -60.0 0 0 357.56 408.91
  C 355.72 410.76 349.65 417.63 347.64 413.63
  Q 346.67 411.70 347.42 408.81
  A 0.99 0.98 87.1 0 1 348.02 408.14"
/>
<path stroke="#8b8bae" vector-effect="non-scaling-stroke" d="
  M 165.53 383.33
  Q 160.81 381.53 158.14 384.52
  C 153.83 389.35 150.80 401.58 149.94 407.92
  C 149.60 410.44 149.89 415.26 154.06 411.58
  C 160.42 405.96 163.97 392.59 166.14 384.52
  A 0.99 0.99 0.0 0 0 165.53 383.33"
/>
<path stroke="#9695d1" vector-effect="non-scaling-stroke" d="
  M 328.89 364.93
  Q 328.74 364.84 328.57 364.80
  Q 324.88 363.97 324.41 365.87
  Q 318.73 389.14 312.58 413.21
  A 0.99 0.99 0.0 0 0 313.49 414.45
  Q 322.32 414.89 326.95 406.88
  C 332.30 397.62 341.27 372.83 328.89 364.93"
/>
<path stroke="#8b8bae" vector-effect="non-scaling-stroke" d="
  M 94.72 370.08
  L 82.85 394.31
  A 1.00 0.99 -76.8 0 0 83.74 395.75
  L 93.67 395.75
  A 1.00 1.00 0.0 0 0 94.67 394.81
  L 96.23 370.48
  Q 96.49 366.45 94.72 370.08"
/>
<path stroke="#8b8bae" vector-effect="non-scaling-stroke" d="
  M 185.14 412.80
  A 0.97 0.97 0.0 0 0 185.88 412.53
  C 193.28 405.46 196.49 394.10 198.89 384.46
  A 1.00 0.99 21.3 0 0 198.39 383.34
  C 188.36 377.94 183.17 403.44 182.30 408.71
  Q 181.65 412.60 185.14 412.80"
/>
<path stroke="#9695d1" vector-effect="non-scaling-stroke" d="
  M 361.03 384.19
  C 357.31 381.93 353.78 387.77 352.64 390.46
  Q 350.48 395.55 349.17 400.68
  Q 348.60 402.89 350.61 401.81
  Q 353.69 400.15 356.26 397.77
  Q 361.76 392.68 361.52 385.01
  A 1.01 0.99 14.6 0 0 361.03 384.19"
/>
</g>
<g fill="#ffffff">
<path d="
  M 0.00 0.00
  L 500.00 0.00
  L 500.00 500.00
  L 0.00 500.00
  L 0.00 0.00
  Z
  M 240.45 132.19
  C 242.17 139.98 248.22 147.01 255.81 149.70
  Q 342.96 180.57 463.97 222.60
  Q 471.67 225.27 473.48 225.51
  C 484.09 226.89 492.46 219.06 492.47 208.51
  C 492.49 195.39 493.99 177.93 491.03 166.67
  C 485.63 146.15 470.37 141.17 451.82 134.67
  Q 358.69 102.01 265.55 69.36
  C 258.38 66.85 252.50 65.99 246.61 70.35
  Q 239.56 75.55 239.58 85.00
  Q 239.61 101.70 239.79 118.38
  Q 239.91 129.73 240.45 132.19
  Z
  M 87.80 88.36
  Q 80.04 100.54 75.50 114.46
  L 56.00 163.21
  L 42.79 196.25
  Q 32.23 221.54 22.71 247.25
  C 12.65 279.38 38.72 315.17 73.79 298.82
  Q 87.48 292.43 95.52 278.60
  Q 106.63 252.49 116.79 226.00
  C 117.12 225.26 120.00 216.57 120.79 219.88
  L 138.60 265.29
  Q 141.74 274.38 145.51 280.73
  C 154.25 295.48 173.13 306.36 190.42 302.14
  C 214.45 296.29 223.80 270.08 217.27 247.75
  Q 215.97 243.32 212.56 235.03
  L 192.04 183.00
  Q 176.85 144.20 161.56 105.44
  Q 158.39 97.40 156.08 93.79
  C 149.78 79.14 136.10 70.02 120.26 70.15
  Q 98.56 69.96 87.80 88.36
  Z
  M 246.94 311.56
  C 253.92 316.20 259.93 314.26 266.82 311.84
  Q 348.27 283.32 429.71 254.74
  Q 433.36 253.46 433.64 250.07
  C 433.96 246.22 430.88 245.04 427.81 243.95
  Q 385.54 228.87 343.11 214.25
  C 331.51 210.25 322.49 209.00 311.56 212.55
  Q 298.35 216.83 257.07 231.55
  C 244.50 236.03 240.03 245.11 239.85 257.67
  Q 239.42 287.20 239.83 297.94
  Q 240.17 307.07 246.94 311.56
  Z
  M 156.09 416.02
  Q 157.20 414.69 157.80 416.32
  L 159.04 419.73
  A 1.00 0.99 -18.4 0 0 160.27 420.34
  Q 168.54 417.80 173.44 410.63
  A 0.99 0.98 -50.2 0 0 173.33 409.37
  Q 170.41 406.40 168.79 408.49
  Q 167.73 409.85 166.63 411.03
  Q 163.79 414.05 164.94 410.07
  L 179.91 357.95
  A 0.99 0.99 0.0 0 0 179.28 356.73
  C 175.01 355.25 173.80 356.46 172.71 360.51
  Q 170.38 369.13 168.10 377.77
  A 1.00 1.00 0.0 0 1 166.82 378.47
  Q 160.68 376.44 156.06 379.43
  C 149.02 384.00 144.32 401.58 143.48 409.01
  Q 142.74 415.56 148.36 419.23
  C 151.44 421.24 152.89 419.08 154.91 417.24
  Q 155.55 416.66 156.09 416.02
  Z
  M 207.04 419.29
  C 212.36 421.66 212.86 418.46 213.90 414.38
  Q 221.14 386.14 228.34 357.91
  A 1.00 1.00 0.0 0 0 227.68 356.71
  Q 222.64 355.08 221.59 359.20
  Q 214.14 388.52 206.48 418.13
  A 1.00 0.99 -70.9 0 0 207.04 419.29
  Z
  M 316.49 364.76
  A 1.00 1.00 0.0 0 1 317.71 365.98
  Q 311.34 391.14 305.02 416.31
  C 304.24 419.41 306.31 419.46 308.45 419.84
  Q 324.90 422.74 332.97 408.52
  C 340.29 395.62 351.21 358.38 323.99 358.76
  Q 317.08 358.85 314.05 359.27
  A 1.03 1.00 -81.8 0 0 313.27 359.87
  Q 310.46 366.33 316.49 364.76
  Z
  M 79.73 401.75
  L 93.12 401.75
  A 1.00 0.99 1.9 0 1 94.12 402.81
  L 93.13 418.30
  A 1.02 1.02 0.0 0 0 93.69 419.27
  Q 96.54 420.64 99.68 419.47
  A 1.01 1.01 0.0 0 0 100.33 418.59
  L 103.35 362.76
  Q 103.50 360.14 101.00 359.50
  C 95.21 357.99 93.30 360.60 90.77 365.48
  Q 77.36 391.33 64.31 416.61
  Q 63.11 418.95 65.65 419.60
  C 70.44 420.84 70.82 418.49 72.85 414.54
  Q 75.95 408.48 78.82 402.33
  A 1.00 1.00 0.0 0 1 79.73 401.75
  Z
  M 261.91 394.67
  C 262.33 398.80 266.52 400.30 269.87 400.91
  Q 272.10 401.32 272.51 403.48
  Q 274.04 411.48 267.21 415.25
  A 1.01 1.01 0.0 0 1 266.28 415.27
  Q 262.40 413.32 261.04 409.15
  A 1.00 0.99 71.7 0 0 259.77 408.51
  C 250.13 411.84 261.36 422.31 268.22 420.54
  C 275.31 418.72 279.44 410.59 279.52 403.51
  C 279.59 397.85 275.90 396.03 270.97 395.16
  Q 268.39 394.70 268.30 392.08
  Q 268.10 386.24 271.87 383.29
  C 275.80 380.21 277.90 386.07 279.30 388.25
  A 1.01 1.01 0.0 0 0 280.29 388.70
  Q 283.53 388.20 284.63 385.24
  A 1.04 1.00 -50.3 0 0 284.57 384.42
  C 275.50 367.64 260.63 381.75 261.91 394.67
  Z
  M 198.75 411.60
  Q 196.42 414.09 197.40 410.82
  L 206.96 378.84
  A 0.99 0.98 -68.4 0 0 206.46 377.67
  Q 202.81 375.81 200.80 378.26
  A 1.02 1.01 -60.4 0 1 199.69 378.57
  C 183.69 372.89 178.11 397.34 176.53 408.19
  C 175.71 413.81 177.89 417.68 182.81 420.10
  A 0.98 0.97 -41.8 0 0 183.59 420.14
  Q 187.21 418.81 189.18 415.45
  A 0.64 0.64 0.0 0 1 190.07 415.23
  C 191.98 416.45 189.96 421.62 194.61 419.94
  C 199.37 418.23 203.18 414.74 206.28 410.42
  A 1.00 1.00 0.0 0 0 206.03 409.00
  L 203.76 407.47
  A 1.01 1.00 38.3 0 0 202.47 407.62
  L 198.75 411.60
  Z
  M 380.71 408.90
  Q 379.01 412.10 379.20 408.48
  Q 380.02 393.57 378.90 378.65
  A 1.01 1.01 0.0 0 0 378.26 377.79
  Q 375.95 376.91 373.30 377.81
  A 1.00 1.00 0.0 0 0 372.62 378.81
  Q 373.72 397.89 373.05 416.26
  C 372.84 422.15 380.01 420.02 382.11 416.58
  Q 392.91 398.99 398.30 378.92
  A 1.00 1.00 0.0 0 0 397.82 377.79
  Q 395.36 376.42 392.81 377.32
  A 1.02 1.01 88.9 0 0 392.18 377.98
  Q 390.62 383.28 389.05 388.51
  Q 385.79 399.37 380.71 408.90
  Z
  M 118.51 399.98
  Q 118.15 400.02 118.30 399.51
  Q 121.31 389.42 124.25 379.30
  A 1.00 1.00 0.0 0 0 123.75 378.13
  Q 119.01 375.64 117.92 379.54
  Q 112.58 398.87 107.57 418.34
  A 1.00 1.00 0.0 0 0 108.00 419.43
  C 110.23 420.86 111.89 420.25 113.26 417.99
  Q 122.58 402.66 132.54 387.50
  Q 133.29 386.35 134.50 385.71
  C 135.67 385.08 135.87 386.50 135.63 387.30
  Q 131.02 402.60 126.10 418.71
  A 1.00 1.00 0.0 0 0 127.06 420.00
  L 131.44 419.98
  A 1.01 1.01 0.0 0 0 132.40 419.25
  Q 136.90 403.55 141.03 387.95
  C 142.12 383.83 144.49 377.72 138.79 377.43
  C 130.11 376.99 122.46 393.34 118.76 399.82
  A 0.36 0.34 -76.4 0 1 118.51 399.98
  Z
  M 246.50 399.02
  Q 246.85 398.98 246.70 399.48
  Q 243.94 408.77 241.16 418.57
  A 1.00 0.99 8.7 0 0 242.10 419.84
  L 246.37 419.93
  A 1.01 1.00 -81.5 0 0 247.36 419.19
  L 258.15 378.64
  A 1.00 1.00 0.0 0 0 257.20 377.39
  L 253.04 377.32
  A 0.98 0.97 14.3 0 0 252.14 377.85
  Q 243.68 393.97 234.10 409.38
  C 232.39 412.13 229.31 413.52 230.83 408.31
  Q 235.10 393.66 239.42 378.68
  A 1.00 1.00 0.0 0 0 238.49 377.41
  L 234.12 377.27
  A 1.00 1.00 0.0 0 0 233.13 378.00
  Q 228.85 393.22 224.65 408.48
  C 223.06 414.26 225.02 424.51 233.47 417.93
  C 238.53 413.99 242.71 405.54 246.24 399.19
  A 0.36 0.35 -77.4 0 1 246.50 399.02
  Z
  M 348.02 408.14
  C 357.06 404.57 366.45 397.82 367.52 387.32
  C 368.30 379.73 363.63 375.23 356.01 378.89
  Q 351.95 380.85 349.43 384.92
  C 344.91 392.22 332.98 421.04 350.65 420.95
  Q 350.91 420.95 351.14 420.82
  C 353.21 419.65 366.63 410.78 358.52 408.64
  A 1.02 1.00 -60.0 0 0 357.56 408.91
  C 355.72 410.76 349.65 417.63 347.64 413.63
  Q 346.67 411.70 347.42 408.81
  A 0.99 0.98 87.1 0 1 348.02 408.14
  Z"
/>
<path d="
  M 328.89 364.93
  C 341.27 372.83 332.30 397.62 326.95 406.88
  Q 322.32 414.89 313.49 414.45
  A 0.99 0.99 0.0 0 1 312.58 413.21
  Q 318.73 389.14 324.41 365.87
  Q 324.88 363.97 328.57 364.80
  Q 328.74 364.84 328.89 364.93
  Z"
/>
<path d="
  M 94.72 370.08
  Q 96.49 366.45 96.23 370.48
  L 94.67 394.81
  A 1.00 1.00 0.0 0 1 93.67 395.75
  L 83.74 395.75
  A 1.00 0.99 -76.8 0 1 82.85 394.31
  L 94.72 370.08
  Z"
/>
<path d="
  M 165.53 383.33
  A 0.99 0.99 0.0 0 1 166.14 384.52
  C 163.97 392.59 160.42 405.96 154.06 411.58
  C 149.89 415.26 149.60 410.44 149.94 407.92
  C 150.80 401.58 153.83 389.35 158.14 384.52
  Q 160.81 381.53 165.53 383.33
  Z"
/>
<path d="
  M 185.14 412.80
  Q 181.65 412.60 182.30 408.71
  C 183.17 403.44 188.36 377.94 198.39 383.34
  A 1.00 0.99 21.3 0 1 198.89 384.46
  C 196.49 394.10 193.28 405.46 185.88 412.53
  A 0.97 0.97 0.0 0 1 185.14 412.80
  Z"
/>
<path d="
  M 361.03 384.19
  A 1.01 0.99 14.6 0 1 361.52 385.01
  Q 361.76 392.68 356.26 397.77
  Q 353.69 400.15 350.61 401.81
  Q 348.60 402.89 349.17 400.68
  Q 350.48 395.55 352.64 390.46
  C 353.78 387.77 357.31 381.93 361.03 384.19
  Z"
/>
</g>
<g fill="#17175d">
<path d="
  M 255.81 149.70
  C 248.22 147.01 242.17 139.98 240.45 132.19
  Q 239.91 129.73 239.79 118.38
  Q 239.61 101.70 239.58 85.00
  Q 239.56 75.55 246.61 70.35
  C 252.50 65.99 258.38 66.85 265.55 69.36
  Q 358.69 102.01 451.82 134.67
  C 470.37 141.17 485.63 146.15 491.03 166.67
  C 493.99 177.93 492.49 195.39 492.47 208.51
  C 492.46 219.06 484.09 226.89 473.48 225.51
  Q 471.67 225.27 463.97 222.60
  Q 342.96 180.57 255.81 149.70
  Z"
/>
<path d="
  M 156.08 93.79
  Q 158.39 97.40 161.56 105.44
  Q 176.85 144.20 192.04 183.00
  Q 190.57 185.03 188.26 185.80
  A 1.00 0.99 -9.6 0 0 187.57 186.76
  C 187.61 189.81 185.82 190.18 183.50 191.29
  Q 176.50 194.62 169.44 197.84
  C 163.96 200.33 157.52 202.40 151.61 204.90
  C 143.71 208.24 136.39 211.32 128.35 215.18
  Q 124.39 217.09 120.79 219.88
  C 120.00 216.57 117.12 225.26 116.79 226.00
  Q 113.80 223.95 110.44 222.71
  Q 104.04 220.35 103.78 220.23
  C 90.82 214.50 77.42 209.83 64.67 203.66
  Q 54.24 198.62 42.79 196.25
  L 56.00 163.21
  Q 57.21 161.78 58.30 162.18
  Q 69.11 166.11 84.57 173.42
  C 92.94 177.38 104.46 181.18 116.31 186.42
  C 120.37 188.21 123.99 190.71 129.23 191.29
  A 1.00 1.00 0.0 0 0 130.25 190.71
  Q 140.87 167.44 150.00 143.04
  C 157.70 125.97 161.94 111.98 156.08 93.79
  Z"
/>
<path d="
  M 246.94 311.56
  Q 240.17 307.07 239.83 297.94
  Q 239.42 287.20 239.85 257.67
  C 240.03 245.11 244.50 236.03 257.07 231.55
  Q 298.35 216.83 311.56 212.55
  C 322.49 209.00 331.51 210.25 343.11 214.25
  Q 385.54 228.87 427.81 243.95
  C 430.88 245.04 433.96 246.22 433.64 250.07
  Q 433.36 253.46 429.71 254.74
  Q 348.27 283.32 266.82 311.84
  C 259.93 314.26 253.92 316.20 246.94 311.56
  Z"
/>
<path d="
  M 156.09 416.02
  Q 155.55 416.66 154.91 417.24
  C 152.89 419.08 151.44 421.24 148.36 419.23
  Q 142.74 415.56 143.48 409.01
  C 144.32 401.58 149.02 384.00 156.06 379.43
  Q 160.68 376.44 166.82 378.47
  A 1.00 1.00 0.0 0 0 168.10 377.77
  Q 170.38 369.13 172.71 360.51
  C 173.80 356.46 175.01 355.25 179.28 356.73
  A 0.99 0.99 0.0 0 1 179.91 357.95
  L 164.94 410.07
  Q 163.79 414.05 166.63 411.03
  Q 167.73 409.85 168.79 408.49
  Q 170.41 406.40 173.33 409.37
  A 0.99 0.98 -50.2 0 1 173.44 410.63
  Q 168.54 417.80 160.27 420.34
  A 1.00 0.99 -18.4 0 1 159.04 419.73
  L 157.80 416.32
  Q 157.20 414.69 156.09 416.02
  Z
  M 165.53 383.33
  Q 160.81 381.53 158.14 384.52
  C 153.83 389.35 150.80 401.58 149.94 407.92
  C 149.60 410.44 149.89 415.26 154.06 411.58
  C 160.42 405.96 163.97 392.59 166.14 384.52
  A 0.99 0.99 0.0 0 0 165.53 383.33
  Z"
/>
<path d="
  M 207.04 419.29
  A 1.00 0.99 -70.9 0 1 206.48 418.13
  Q 214.14 388.52 221.59 359.20
  Q 222.64 355.08 227.68 356.71
  A 1.00 1.00 0.0 0 1 228.34 357.91
  Q 221.14 386.14 213.90 414.38
  C 212.86 418.46 212.36 421.66 207.04 419.29
  Z"
/>
<path d="
  M 78.82 402.33
  Q 75.95 408.48 72.85 414.54
  C 70.82 418.49 70.44 420.84 65.65 419.60
  Q 63.11 418.95 64.31 416.61
  Q 77.36 391.33 90.77 365.48
  C 93.30 360.60 95.21 357.99 101.00 359.50
  Q 103.50 360.14 103.35 362.76
  L 100.33 418.59
  A 1.01 1.01 0.0 0 1 99.68 419.47
  Q 96.54 420.64 93.69 419.27
  A 1.02 1.02 0.0 0 1 93.13 418.30
  L 94.12 402.81
  A 1.00 0.99 1.9 0 0 93.12 401.75
  L 79.73 401.75
  A 1.00 1.00 0.0 0 0 78.82 402.33
  Z
  M 94.72 370.08
  L 82.85 394.31
  A 1.00 0.99 -76.8 0 0 83.74 395.75
  L 93.67 395.75
  A 1.00 1.00 0.0 0 0 94.67 394.81
  L 96.23 370.48
  Q 96.49 366.45 94.72 370.08
  Z"
/>
<path d="
  M 269.87 400.91
  C 266.52 400.30 262.33 398.80 261.91 394.67
  C 260.63 381.75 275.50 367.64 284.57 384.42
  A 1.04 1.00 -50.3 0 1 284.63 385.24
  Q 283.53 388.20 280.29 388.70
  A 1.01 1.01 0.0 0 1 279.30 388.25
  C 277.90 386.07 275.80 380.21 271.87 383.29
  Q 268.10 386.24 268.30 392.08
  Q 268.39 394.70 270.97 395.16
  C 275.90 396.03 279.59 397.85 279.52 403.51
  C 279.44 410.59 275.31 418.72 268.22 420.54
  C 261.36 422.31 250.13 411.84 259.77 408.51
  A 1.00 0.99 71.7 0 1 261.04 409.15
  Q 262.40 413.32 266.28 415.27
  A 1.01 1.01 0.0 0 0 267.21 415.25
  Q 274.04 411.48 272.51 403.48
  Q 272.10 401.32 269.87 400.91
  Z"
/>
<path d="
  M 198.75 411.60
  L 202.47 407.62
  A 1.01 1.00 38.3 0 1 203.76 407.47
  L 206.03 409.00
  A 1.00 1.00 0.0 0 1 206.28 410.42
  C 203.18 414.74 199.37 418.23 194.61 419.94
  C 189.96 421.62 191.98 416.45 190.07 415.23
  A 0.64 0.64 0.0 0 0 189.18 415.45
  Q 187.21 418.81 183.59 420.14
  A 0.98 0.97 -41.8 0 1 182.81 420.10
  C 177.89 417.68 175.71 413.81 176.53 408.19
  C 178.11 397.34 183.69 372.89 199.69 378.57
  A 1.02 1.01 -60.4 0 0 200.80 378.26
  Q 202.81 375.81 206.46 377.67
  A 0.99 0.98 -68.4 0 1 206.96 378.84
  L 197.40 410.82
  Q 196.42 414.09 198.75 411.60
  Z
  M 185.14 412.80
  A 0.97 0.97 0.0 0 0 185.88 412.53
  C 193.28 405.46 196.49 394.10 198.89 384.46
  A 1.00 0.99 21.3 0 0 198.39 383.34
  C 188.36 377.94 183.17 403.44 182.30 408.71
  Q 181.65 412.60 185.14 412.80
  Z"
/>
<path d="
  M 118.76 399.82
  C 122.46 393.34 130.11 376.99 138.79 377.43
  C 144.49 377.72 142.12 383.83 141.03 387.95
  Q 136.90 403.55 132.40 419.25
  A 1.01 1.01 0.0 0 1 131.44 419.98
  L 127.06 420.00
  A 1.00 1.00 0.0 0 1 126.10 418.71
  Q 131.02 402.60 135.63 387.30
  C 135.87 386.50 135.67 385.08 134.50 385.71
  Q 133.29 386.35 132.54 387.50
  Q 122.58 402.66 113.26 417.99
  C 111.89 420.25 110.23 420.86 108.00 419.43
  A 1.00 1.00 0.0 0 1 107.57 418.34
  Q 112.58 398.87 117.92 379.54
  Q 119.01 375.64 123.75 378.13
  A 1.00 1.00 0.0 0 1 124.25 379.30
  Q 121.31 389.42 118.30 399.51
  Q 118.15 400.02 118.51 399.98
  A 0.36 0.34 -76.4 0 0 118.76 399.82
  Z"
/>
<path d="
  M 246.24 399.19
  C 242.71 405.54 238.53 413.99 233.47 417.93
  C 225.02 424.51 223.06 414.26 224.65 408.48
  Q 228.85 393.22 233.13 378.00
  A 1.00 1.00 0.0 0 1 234.12 377.27
  L 238.49 377.41
  A 1.00 1.00 0.0 0 1 239.42 378.68
  Q 235.10 393.66 230.83 408.31
  C 229.31 413.52 232.39 412.13 234.10 409.38
  Q 243.68 393.97 252.14 377.85
  A 0.98 0.97 14.3 0 1 253.04 377.32
  L 257.20 377.39
  A 1.00 1.00 0.0 0 1 258.15 378.64
  L 247.36 419.19
  A 1.01 1.00 -81.5 0 1 246.37 419.93
  L 242.10 419.84
  A 1.00 0.99 8.7 0 1 241.16 418.57
  Q 243.94 408.77 246.70 399.48
  Q 246.85 398.98 246.50 399.02
  A 0.36 0.35 -77.4 0 0 246.24 399.19
  Z"
/>
</g>
<g fill="#2e2caf">
<path d="
  M 120.26 70.15
  C 136.10 70.02 149.78 79.14 156.08 93.79
  C 161.94 111.98 157.70 125.97 150.00 143.04
  C 143.77 143.48 138.00 140.66 132.42 137.66
  C 130.64 136.70 128.33 136.58 126.52 135.67
  C 119.50 132.14 112.03 129.48 104.82 126.32
  C 103.71 125.83 103.10 124.71 101.40 124.94
  A 1.02 1.01 56.8 0 1 100.73 124.80
  Q 98.02 123.09 95.06 121.98
  C 93.89 121.54 92.55 122.04 91.41 120.42
  A 0.98 0.97 -5.6 0 0 90.99 120.08
  L 77.26 114.16
  A 1.03 1.01 39.7 0 0 76.31 114.24
  Q 75.94 114.49 75.50 114.46
  Q 80.04 100.54 87.80 88.36
  Q 100.30 72.72 120.26 70.15
  Z"
/>
<path d="
  M 212.56 235.03
  Q 215.97 243.32 217.27 247.75
  C 223.80 270.08 214.45 296.29 190.42 302.14
  C 173.13 306.36 154.25 295.48 145.51 280.73
  Q 141.74 274.38 138.60 265.29
  C 142.59 264.05 146.18 263.05 150.18 260.95
  C 153.29 259.31 157.12 258.16 159.89 256.92
  Q 175.06 250.14 190.80 244.78
  Q 198.23 242.25 212.56 235.03
  Z"
/>
</g>
<path fill="#0f0f39" d="
  M 42.79 196.25
  Q 54.24 198.62 64.67 203.66
  C 77.42 209.83 90.82 214.50 103.78 220.23
  Q 104.04 220.35 110.44 222.71
  Q 113.80 223.95 116.79 226.00
  Q 106.63 252.49 95.52 278.60
  Q 94.68 277.03 93.51 277.40
  A 0.98 0.98 0.0 0 1 92.93 277.40
  Q 79.93 273.63 75.20 271.28
  C 72.48 269.92 55.85 262.36 53.84 263.05
  A 0.64 0.63 -31.7 0 1 53.18 262.90
  Q 51.97 261.71 50.32 261.19
  Q 50.15 261.14 49.44 260.56
  Q 48.59 259.87 47.52 260.32
  A 0.99 0.96 -42.8 0 1 46.70 260.30
  C 40.77 257.41 35.45 253.93 29.17 251.86
  A 1.03 1.01 -9.1 0 1 28.68 251.51
  Q 27.16 249.50 24.68 249.25
  A 1.00 0.99 81.3 0 1 23.87 248.65
  Q 23.50 247.81 22.71 247.25
  Q 32.23 221.54 42.79 196.25
  Z"
/>
<g fill="#24238b">
<path d="
  M 150.00 143.04
  Q 140.87 167.44 130.25 190.71
  A 1.00 1.00 0.0 0 1 129.23 191.29
  C 123.99 190.71 120.37 188.21 116.31 186.42
  C 104.46 181.18 92.94 177.38 84.57 173.42
  Q 69.11 166.11 58.30 162.18
  Q 57.21 161.78 56.00 163.21
  L 75.50 114.46
  Q 75.94 114.49 76.31 114.24
  A 1.03 1.01 39.7 0 1 77.26 114.16
  L 90.99 120.08
  A 0.98 0.97 -5.6 0 1 91.41 120.42
  C 92.55 122.04 93.89 121.54 95.06 121.98
  Q 98.02 123.09 100.73 124.80
  A 1.02 1.01 56.8 0 0 101.40 124.94
  C 103.10 124.71 103.71 125.83 104.82 126.32
  C 112.03 129.48 119.50 132.14 126.52 135.67
  C 128.33 136.58 130.64 136.70 132.42 137.66
  C 138.00 140.66 143.77 143.48 150.00 143.04
  Z"
/>
<path d="
  M 192.04 183.00
  L 212.56 235.03
  Q 198.23 242.25 190.80 244.78
  Q 175.06 250.14 159.89 256.92
  C 157.12 258.16 153.29 259.31 150.18 260.95
  C 146.18 263.05 142.59 264.05 138.60 265.29
  L 120.79 219.88
  Q 124.39 217.09 128.35 215.18
  C 136.39 211.32 143.71 208.24 151.61 204.90
  C 157.52 202.40 163.96 200.33 169.44 197.84
  Q 176.50 194.62 183.50 191.29
  C 185.82 190.18 187.61 189.81 187.57 186.76
  A 1.00 0.99 -9.6 0 1 188.26 185.80
  Q 190.57 185.03 192.04 183.00
  Z"
/>
</g>
<g fill="#050513">
<path d="
  M 120.26 70.15
  Q 100.30 72.72 87.80 88.36
  Q 98.56 69.96 120.26 70.15
  Z"
/>
<path d="
  M 22.71 247.25
  Q 23.50 247.81 23.87 248.65
  A 1.00 0.99 81.3 0 0 24.68 249.25
  Q 27.16 249.50 28.68 251.51
  A 1.03 1.01 -9.1 0 0 29.17 251.86
  C 35.45 253.93 40.77 257.41 46.70 260.30
  A 0.99 0.96 -42.8 0 0 47.52 260.32
  Q 48.59 259.87 49.44 260.56
  Q 50.15 261.14 50.32 261.19
  Q 51.97 261.71 53.18 262.90
  A 0.64 0.63 -31.7 0 0 53.84 263.05
  C 55.85 262.36 72.48 269.92 75.20 271.28
  Q 79.93 273.63 92.93 277.40
  A 0.98 0.98 0.0 0 0 93.51 277.40
  Q 94.68 277.03 95.52 278.60
  Q 87.48 292.43 73.79 298.82
  C 38.72 315.17 12.65 279.38 22.71 247.25
  Z"
/>
</g>
<g fill="#2c2ba2">
<path d="
  M 316.49 364.76
  Q 310.46 366.33 313.27 359.87
  A 1.03 1.00 -81.8 0 1 314.05 359.27
  Q 317.08 358.85 323.99 358.76
  C 351.21 358.38 340.29 395.62 332.97 408.52
  Q 324.90 422.74 308.45 419.84
  C 306.31 419.46 304.24 419.41 305.02 416.31
  Q 311.34 391.14 317.71 365.98
  A 1.00 1.00 0.0 0 0 316.49 364.76
  Z
  M 328.89 364.93
  Q 328.74 364.84 328.57 364.80
  Q 324.88 363.97 324.41 365.87
  Q 318.73 389.14 312.58 413.21
  A 0.99 0.99 0.0 0 0 313.49 414.45
  Q 322.32 414.89 326.95 406.88
  C 332.30 397.62 341.27 372.83 328.89 364.93
  Z"
/>
<path d="
  M 380.71 408.90
  Q 385.79 399.37 389.05 388.51
  Q 390.62 383.28 392.18 377.98
  A 1.02 1.01 88.9 0 1 392.81 377.32
  Q 395.36 376.42 397.82 377.79
  A 1.00 1.00 0.0 0 1 398.30 378.92
  Q 392.91 398.99 382.11 416.58
  C 380.01 420.02 372.84 422.15 373.05 416.26
  Q 373.72 397.89 372.62 378.81
  A 1.00 1.00 0.0 0 1 373.30 377.81
  Q 375.95 376.91 378.26 377.79
  A 1.01 1.01 0.0 0 1 378.90 378.65
  Q 380.02 393.57 379.20 408.48
  Q 379.01 412.10 380.71 408.90
  Z"
/>
<path d="
  M 347.42 408.81
  Q 346.67 411.70 347.64 413.63
  C 349.65 417.63 355.72 410.76 357.56 408.91
  A 1.02 1.00 -60.0 0 1 358.52 408.64
  C 366.63 410.78 353.21 419.65 351.14 420.82
  Q 350.91 420.95 350.65 420.95
  C 332.98 421.04 344.91 392.22 349.43 384.92
  Q 351.95 380.85 356.01 378.89
  C 363.63 375.23 368.30 379.73 367.52 387.32
  C 366.45 397.82 357.06 404.57 348.02 408.14
  A 0.99 0.98 87.1 0 0 347.42 408.81
  Z
  M 361.03 384.19
  C 357.31 381.93 353.78 387.77 352.64 390.46
  Q 350.48 395.55 349.17 400.68
  Q 348.60 402.89 350.61 401.81
  Q 353.69 400.15 356.26 397.77
  Q 361.76 392.68 361.52 385.01
  A 1.01 0.99 14.6 0 0 361.03 384.19
  Z"
/>
</g>
</svg>
