<?xml version="1.0" encoding="utf-8"?>
<!-- Generator: Adobe Illustrator 27.7.0, SVG Export Plug-In . SVG Version: 6.00 Build 0)  -->
<svg version="1.1" id="Layer_1" xmlns="http://www.w3.org/2000/svg" xmlns:xlink="http://www.w3.org/1999/xlink" x="0px" y="0px"
	 viewBox="0 0 331.27 89.16" style="enable-background:new 0 0 331.27 89.16;" xml:space="preserve">
<style type="text/css">
	.st0{fill:none;stroke:#808080;stroke-width:0;stroke-miterlimit:10;}
	.st1{fill:#FFFFFF;}
</style>
<g>
	<path class="st0" d="M286.71,16.7c-81.23,0.1-162.45,0.13-243.68-0.01c-11.99-0.02-21.8,6.39-26.15,17.33
		c-7.12,17.89,5.19,37.69,24.66,38.14c21.65,0.5,43.35-0.04,65.01,0.22c14.26,0.16,28.55,0.05,42.8,0.05
		c20.54,0,41.07-0.09,61.61-0.28c0.24-0.01,0.46,0.05,0.68,0.17c0.15,0.09,0.32,0.14,0.52,0.14c24.5-0.13,49.01-0.22,73.51-0.27
		c4.12-0.01,7.29-0.35,9.52-1.03c10.93-3.32,18.79-13.83,19.39-25C315.48,29.99,303.23,16.67,286.71,16.7"/>
	<path class="st0" d="M126.05,52.89c0.53-0.57,0.55-1.16,0.05-1.77c-0.13-0.16-0.13-0.31-0.03-0.48c0.24-0.36,0.36-0.45,0.37-0.92
		c0.13-7,0.55-14.29,1.25-21.87c0.06-0.64-0.45-1.19-1.09-1.17l-7.31,0.23c-0.32,0.01-0.58,0.26-0.61,0.58
		c-1.01,11.47-1.55,22.95-1.62,34.46c0,0.26,0.13,0.39,0.39,0.39l8.42-0.11c0.26-0.01,0.4-0.13,0.41-0.4
		c0.05-1.3,0.06-2.58,0.02-3.83c-0.04-1.3,0.29-2.94-0.37-4.49C125.84,53.28,125.88,53.08,126.05,52.89"/>
	<path class="st0" d="M205.59,52.94l0.67-0.21c0.32-0.1,0.43-0.31,0.32-0.62l-0.4-1.21c-0.04-0.14-0.03-0.27,0.05-0.4
		c0.21-0.31,0.27-0.38,0.28-0.78c0.14-7.04,0.56-14.38,1.26-22.03c0.05-0.51-0.36-0.95-0.87-0.93l-7.59,0.15
		c-0.35,0.01-0.54,0.18-0.58,0.53c-1.04,11.44-1.57,22.89-1.6,34.37c0,0.31,0.16,0.46,0.46,0.46l8.31-0.01
		c0.26,0,0.46-0.19,0.48-0.44c0.11-1.26,0.65-8.16-0.79-8.56C205.23,53.16,205.23,53.06,205.59,52.94"/>
	<path class="st0" d="M142.21,52.54c-0.76,2.51-4.98,3.55-5.52,0.02c-0.77-5.05-0.45-14.2,4.32-17.48c0.96-0.66,2.26,0.06,2.21,1.23
		l-0.18,3.79c-0.03,0.58,0.44,1.06,1.02,1.04l6.75-0.2c0.32-0.01,0.52-0.17,0.59-0.49c1.46-6.91-0.34-13.54-8.8-13.21
		c-7.4,0.28-11.96,6.46-13.51,13.28c-1.7,7.46-2.65,20.96,8.26,21.72c7.25,0.5,11.86-2.66,13.82-9.5c2.78-9.65-2.84-10.41-10.38-8.8
		c-0.31,0.07-0.48,0.26-0.53,0.56l-1.01,6.95c-0.07,0.55,0.4,1.01,0.94,0.93l1.66-0.25C142.09,52.1,142.28,52.31,142.21,52.54"/>
	<path class="st0" d="M170.71,41.14c-1.32-3.35-2.64-6.67-3.95-9.93c-2-4.98-5.35-4.33-10.4-3.63c-0.28,0.04-0.43,0.2-0.45,0.49
		l-2.26,33.2c-0.04,0.65,0.47,1.2,1.12,1.2l6.92,0.01c0.5,0,0.92-0.4,0.93-0.9l0.43-17.26c0.01-0.32,0.09-0.34,0.23-0.05
		c2.78,5.45,4.59,11.96,6.88,17.73c0.1,0.23,0.27,0.35,0.53,0.35l6.89-0.23c0.7-0.02,1.26-0.61,1.24-1.32
		c-0.26-10.88,0.07-21.74,0.98-32.6c0.04-0.49-0.18-0.74-0.67-0.76l-6.77-0.28c-0.34-0.02-0.52,0.15-0.54,0.49l-0.92,13.45
		C170.91,41.22,170.76,41.24,170.71,41.14"/>
	<path class="st0" d="M224.87,40.77c-1.24-3.35-2.51-6.69-3.81-10.01c-1.7-4.36-5.76-3.77-10.27-3.21
		c-0.31,0.04-0.47,0.21-0.49,0.52l-2.28,33.4c-0.04,0.54,0.4,1,0.94,1l7.12-0.01c0.52,0,0.94-0.41,0.95-0.93l0.41-17.04
		c0.02-0.79,0.17-0.81,0.45-0.07l6.58,17.44c0.11,0.31,0.33,0.45,0.65,0.44l7.43-0.21c0.28-0.01,0.42-0.14,0.43-0.42
		c0.34-5.17,0.07-11.22,0.2-15.46c0.19-5.8,0.52-11.74,1-17.84c0.04-0.49-0.34-0.91-0.82-0.94l-5.86-0.26
		c-0.86-0.04-1.32,0.37-1.37,1.23l-0.76,12.29C225.34,40.97,224.97,41.03,224.87,40.77"/>
	<path class="st0" d="M106.98,34.64l0.28,4.08c0.02,0.39,0.35,0.69,0.74,0.69h6.49c0.23,0,0.38-0.11,0.42-0.35
		c1.63-8.23-1.76-12.16-10.07-11.68c-5.07,0.3-8.4,3.11-10,8.43c-3.61,12.01,10.21,11.26,10.68,17c0.46,5.57-7.81,0.92-9.55-0.08
		c-0.38-0.22-0.87-0.07-1.07,0.33l-2.49,5.11c-0.13,0.26-0.07,0.47,0.17,0.62c5.15,3.31,12.16,5.04,17.6,1.99
		c6.37-3.57,6.3-13.26-0.14-17.11c-3.61-2.16-8.15-4.61-5.57-8.89c0.51-0.85,1.23-1.07,2.16-0.66
		C106.84,34.22,106.96,34.39,106.98,34.64"/>
	<path class="st0" d="M121.92,28.68c0.41,0.22,0.79,0.22,1.14-0.01c0.14-0.1,0.09-0.32-0.08-0.33l-3.38-0.3
		c-0.19-0.02-0.29,0.07-0.3,0.25l-0.89,20.87c0,0.04,0.03,0.08,0.07,0.09c0.04,0,0.08-0.03,0.09-0.08
		c0.64-5.3,1.04-10.58,1.21-15.84c0.05-1.77,0.81-2.95,1.56-4.47C121.47,28.61,121.67,28.54,121.92,28.68"/>
	<path class="st0" d="M124.03,49.7c0.62-0.32,0.89-0.79,0.82-1.43c-0.01-0.1-0.07-0.13-0.16-0.07c-0.51,0.32-0.84,0.73-0.99,1.22
		C123.59,49.78,123.7,49.88,124.03,49.7"/>
	<path class="st0" d="M123.36,51.29c-0.44-0.02-0.65,0.26-0.63,0.84c0.01,0.13,0.06,0.16,0.16,0.07c0.2-0.17,0.4-0.34,0.6-0.5
		C123.81,51.44,123.76,51.31,123.36,51.29"/>
	<path class="st0" d="M124.39,59.63c0.06,0.14,0.19,0.22,0.34,0.23c0.56,0.03,0.76-0.29,0.58-0.97c-0.08-0.29-0.41-0.43-0.68-0.29
		C124.26,58.8,124.19,59.15,124.39,59.63"/>
	<path class="st0" d="M199.35,29.33l-0.77,17.77c0,0.07,0.04,0.12,0.11,0.13c0.06,0.01,0.12-0.04,0.13-0.1
		c0.64-4.5,0.93-9.02,0.89-13.56c-0.01-0.89,0.18-1.7,0.55-2.42c0.42-0.82,0.88-1.63,1.37-2.44c0.16-0.27,0.09-0.43-0.22-0.47
		l-1.81-0.27c-0.19-0.03-0.31,0.05-0.35,0.25c-0.04,0.22-0.04,0.43,0.01,0.61C199.33,28.99,199.35,29.15,199.35,29.33"/>
	<path class="st0" d="M148.57,47.05c-0.27,1.26-0.27,2.54,0.01,3.83c0.02,0.05,0.06,0.09,0.12,0.09c0.05-0.01,0.1-0.06,0.1-0.11
		l0.01-4.3c0.01-0.17-0.04-0.19-0.14-0.05C148.53,46.67,148.5,46.86,148.57,47.05"/>
</g>
<path d="M106.98,34.64l0.28,4.08c0.02,0.39,0.35,0.69,0.74,0.69h6.49c0.23,0,0.38-0.11,0.42-0.35c1.63-8.23-1.76-12.16-10.07-11.68
	c-5.07,0.3-8.4,3.11-10,8.43c-3.61,12.01,10.21,11.26,10.68,17c0.46,5.57-7.81,0.92-9.55-0.08c-0.38-0.22-0.87-0.07-1.07,0.33
	l-2.49,5.11c-0.13,0.26-0.07,0.47,0.17,0.62c5.15,3.31,12.16,5.04,17.6,1.99c6.37-3.57,6.3-13.26-0.14-17.11
	c-3.61-2.16-8.15-4.61-5.57-8.89c0.51-0.85,1.23-1.07,2.16-0.66C106.84,34.22,106.96,34.39,106.98,34.64z M224.87,40.77
	c-1.24-3.35-2.51-6.69-3.81-10.01c-1.7-4.36-5.76-3.77-10.27-3.21c-0.31,0.04-0.47,0.21-0.49,0.52l-2.28,33.4
	c-0.04,0.54,0.4,1,0.94,1l7.12-0.01c0.52,0,0.94-0.41,0.95-0.93l0.41-17.04c0.02-0.79,0.17-0.81,0.45-0.07l6.58,17.44
	c0.11,0.31,0.33,0.45,0.65,0.44l7.43-0.21c0.28-0.01,0.42-0.14,0.43-0.42c0.34-5.17,0.07-11.22,0.2-15.46
	c0.19-5.8,0.52-11.74,1-17.84c0.04-0.49-0.34-0.91-0.82-0.94l-5.86-0.26c-0.86-0.04-1.32,0.37-1.37,1.23l-0.76,12.29
	C225.34,40.97,224.97,41.03,224.87,40.77 M170.71,41.14c-1.32-3.35-2.64-6.67-3.95-9.93c-2-4.98-5.35-4.33-10.4-3.63
	c-0.28,0.04-0.43,0.2-0.45,0.49l-2.26,33.2c-0.04,0.65,0.47,1.2,1.12,1.2l6.92,0.01c0.5,0,0.92-0.4,0.93-0.9l0.43-17.26
	c0.01-0.32,0.09-0.34,0.23-0.05c2.78,5.45,4.59,11.96,6.88,17.73c0.1,0.23,0.27,0.35,0.53,0.35l6.89-0.23
	c0.7-0.02,1.26-0.61,1.24-1.32c-0.26-10.88,0.07-21.74,0.98-32.6c0.04-0.49-0.18-0.74-0.67-0.76l-6.77-0.28
	c-0.34-0.02-0.52,0.15-0.54,0.49l-0.92,13.45C170.91,41.22,170.76,41.24,170.71,41.14 M142.21,52.54c-0.76,2.51-4.98,3.55-5.52,0.02
	c-0.77-5.05-0.45-14.2,4.32-17.48c0.96-0.66,2.26,0.06,2.21,1.23l-0.18,3.79c-0.03,0.58,0.44,1.06,1.02,1.04l6.75-0.2
	c0.32-0.01,0.52-0.17,0.59-0.49c1.46-6.91-0.34-13.54-8.8-13.21c-7.4,0.28-11.96,6.46-13.51,13.28c-1.7,7.46-2.65,20.96,8.26,21.72
	c7.25,0.5,11.86-2.66,13.82-9.5c2.78-9.65-2.84-10.41-10.38-8.8c-0.31,0.07-0.48,0.26-0.53,0.56l-1.01,6.95
	c-0.07,0.55,0.4,1.01,0.94,0.93l1.66-0.25C142.09,52.1,142.28,52.31,142.21,52.54 M205.59,52.94l0.67-0.21
	c0.32-0.1,0.43-0.31,0.32-0.62l-0.4-1.21c-0.04-0.14-0.03-0.27,0.05-0.4c0.21-0.31,0.27-0.38,0.28-0.78
	c0.14-7.04,0.56-14.38,1.26-22.03c0.05-0.51-0.36-0.95-0.87-0.93l-7.59,0.15c-0.35,0.01-0.54,0.18-0.58,0.53
	c-1.04,11.44-1.57,22.89-1.6,34.37c0,0.31,0.16,0.46,0.46,0.46l8.31-0.01c0.26,0,0.46-0.19,0.48-0.44c0.11-1.26,0.65-8.16-0.79-8.56
	C205.23,53.16,205.23,53.06,205.59,52.94 M126.05,52.89c0.53-0.57,0.55-1.16,0.05-1.77c-0.13-0.16-0.13-0.31-0.03-0.48
	c0.24-0.36,0.36-0.45,0.37-0.92c0.13-7,0.55-14.29,1.25-21.87c0.06-0.64-0.45-1.19-1.09-1.17l-7.31,0.23
	c-0.32,0.01-0.58,0.26-0.61,0.58c-1.01,11.47-1.55,22.95-1.62,34.46c0,0.26,0.13,0.39,0.39,0.39l8.42-0.11
	c0.26-0.01,0.4-0.13,0.41-0.4c0.05-1.3,0.06-2.58,0.02-3.83c-0.04-1.3,0.29-2.94-0.37-4.49C125.84,53.28,125.88,53.08,126.05,52.89
	 M43.04,16.69c81.22,0.13,162.45,0.11,243.68,0.01c16.51-0.02,28.77,13.3,27.89,29.47c-0.6,11.17-8.47,21.68-19.39,25
	c-2.23,0.67-5.4,1.02-9.52,1.03c-24.51,0.05-49.01,0.14-73.51,0.27c-0.2,0-0.37-0.05-0.52-0.14c-0.22-0.12-0.44-0.18-0.68-0.17
	c-20.54,0.19-41.08,0.28-61.61,0.28c-14.25,0-28.54,0.11-42.8-0.05c-21.66-0.26-43.36,0.28-65.01-0.22
	C22.08,71.72,9.78,51.91,16.89,34.02C21.24,23.08,31.05,16.67,43.04,16.69"/>
<path class="st1" d="M124.39,59.63c0.06,0.14,0.19,0.22,0.34,0.23c0.56,0.03,0.76-0.29,0.58-0.97c-0.08-0.29-0.41-0.43-0.68-0.29
	C124.26,58.8,124.19,59.15,124.39,59.63z M123.36,51.29c-0.44-0.02-0.65,0.26-0.63,0.84c0.01,0.13,0.06,0.16,0.16,0.07
	c0.2-0.17,0.4-0.34,0.6-0.5C123.81,51.44,123.76,51.31,123.36,51.29 M124.03,49.7c0.62-0.32,0.89-0.79,0.82-1.43
	c-0.01-0.1-0.07-0.13-0.16-0.07c-0.51,0.32-0.84,0.73-0.99,1.22C123.59,49.78,123.7,49.88,124.03,49.7 M121.92,28.68
	c0.41,0.22,0.79,0.22,1.14-0.01c0.14-0.1,0.09-0.32-0.08-0.33l-3.38-0.3c-0.19-0.02-0.29,0.07-0.3,0.25l-0.89,20.87
	c0,0.04,0.03,0.08,0.07,0.09c0.04,0,0.08-0.03,0.09-0.08c0.64-5.3,1.04-10.58,1.21-15.84c0.05-1.77,0.81-2.95,1.56-4.47
	C121.47,28.61,121.67,28.54,121.92,28.68 M125.94,53.51c0.65,1.54,0.33,3.19,0.37,4.49c0.04,1.25,0.03,2.54-0.02,3.83
	c-0.02,0.26-0.15,0.39-0.41,0.4l-8.42,0.11c-0.26,0-0.39-0.13-0.39-0.39c0.07-11.5,0.61-22.99,1.62-34.46
	c0.03-0.32,0.29-0.58,0.61-0.58l7.31-0.23c0.64-0.01,1.15,0.53,1.09,1.17c-0.71,7.58-1.12,14.87-1.25,21.87
	c-0.01,0.46-0.13,0.55-0.37,0.92c-0.1,0.16-0.1,0.32,0.03,0.48c0.5,0.61,0.48,1.2-0.05,1.77C125.88,53.08,125.84,53.28,125.94,53.51
	"/>
<path class="st1" d="M199.35,29.33l-0.77,17.77c0,0.07,0.04,0.12,0.11,0.13c0.06,0.01,0.12-0.04,0.13-0.1
	c0.64-4.5,0.93-9.02,0.89-13.56c-0.01-0.89,0.18-1.7,0.55-2.42c0.42-0.82,0.88-1.63,1.37-2.44c0.16-0.27,0.09-0.43-0.22-0.47
	l-1.81-0.27c-0.19-0.03-0.31,0.05-0.35,0.25c-0.04,0.22-0.04,0.43,0.01,0.61C199.33,28.99,199.35,29.15,199.35,29.33z M205.59,53.27
	c1.45,0.4,0.9,7.3,0.79,8.56c-0.01,0.25-0.22,0.44-0.48,0.44l-8.31,0.01c-0.31,0-0.46-0.16-0.46-0.46
	c0.03-11.48,0.56-22.93,1.6-34.37c0.04-0.35,0.22-0.52,0.58-0.53l7.59-0.15c0.51-0.01,0.91,0.42,0.87,0.93
	c-0.7,7.64-1.12,14.98-1.26,22.03c-0.01,0.4-0.07,0.47-0.28,0.78c-0.08,0.13-0.1,0.26-0.05,0.4l0.4,1.21c0.11,0.31,0,0.53-0.32,0.62
	l-0.67,0.21C205.23,53.06,205.23,53.16,205.59,53.27"/>
<path class="st1" d="M148.57,47.05c-0.27,1.26-0.27,2.54,0.01,3.83c0.02,0.05,0.06,0.09,0.12,0.09c0.05-0.01,0.1-0.06,0.1-0.11
	l0.01-4.3c0.01-0.17-0.04-0.19-0.14-0.05C148.53,46.67,148.5,46.86,148.57,47.05z M141.86,52.13l-1.66,0.25
	c-0.55,0.08-1.02-0.38-0.94-0.93l1.01-6.95c0.04-0.31,0.22-0.49,0.53-0.56c7.54-1.61,13.15-0.85,10.38,8.8
	c-1.96,6.83-6.57,10-13.82,9.5c-10.91-0.76-9.97-14.26-8.26-21.72c1.56-6.82,6.11-13,13.51-13.28c8.46-0.32,10.26,6.3,8.8,13.21
	c-0.07,0.32-0.26,0.48-0.59,0.49l-6.75,0.2c-0.58,0.01-1.05-0.47-1.02-1.04l0.18-3.79c0.05-1.17-1.25-1.89-2.21-1.23
	c-4.77,3.29-5.09,12.43-4.32,17.48c0.54,3.53,4.75,2.49,5.52-0.02C142.28,52.31,142.09,52.1,141.86,52.13"/>
<path class="st1" d="M170.92,41.1l0.92-13.45c0.02-0.34,0.2-0.5,0.54-0.49l6.77,0.28c0.49,0.02,0.7,0.27,0.67,0.76
	c-0.91,10.85-1.24,21.71-0.98,32.6c0.02,0.71-0.54,1.3-1.24,1.32l-6.89,0.23c-0.26,0.01-0.43-0.11-0.53-0.35
	c-2.29-5.77-4.1-12.28-6.88-17.73c-0.14-0.29-0.23-0.27-0.23,0.05l-0.43,17.26c-0.01,0.5-0.43,0.9-0.93,0.9l-6.92-0.01
	c-0.65,0-1.16-0.55-1.12-1.2l2.26-33.2c0.02-0.29,0.17-0.45,0.45-0.49c5.05-0.7,8.39-1.35,10.4,3.63c1.31,3.26,2.63,6.58,3.95,9.93
	C170.76,41.24,170.91,41.22,170.92,41.1z"/>
<path class="st1" d="M225.36,40.7l0.76-12.29c0.05-0.86,0.51-1.27,1.37-1.23l5.86,0.26c0.49,0.02,0.86,0.45,0.82,0.94
	c-0.48,6.1-0.81,12.04-1,17.84c-0.13,4.24,0.14,10.29-0.2,15.46c-0.01,0.28-0.16,0.41-0.43,0.42l-7.43,0.21
	c-0.32,0.01-0.54-0.13-0.65-0.44l-6.58-17.44c-0.28-0.74-0.43-0.71-0.45,0.07l-0.41,17.04c-0.01,0.52-0.43,0.93-0.95,0.93
	l-7.12,0.01c-0.54,0-0.97-0.46-0.94-1l2.28-33.4c0.02-0.31,0.19-0.48,0.49-0.52c4.51-0.56,8.57-1.15,10.27,3.21
	c1.3,3.32,2.57,6.66,3.81,10.01C224.97,41.03,225.34,40.97,225.36,40.7z"/>
<path class="st1" d="M106.62,34.13c-0.93-0.4-1.65-0.19-2.16,0.66c-2.58,4.27,1.96,6.73,5.57,8.89c6.43,3.85,6.5,13.54,0.14,17.11
	c-5.44,3.05-12.44,1.33-17.6-1.99c-0.24-0.16-0.3-0.36-0.17-0.62l2.49-5.11c0.2-0.4,0.68-0.55,1.07-0.33
	c1.74,1,10.01,5.66,9.55,0.08c-0.47-5.74-14.29-4.99-10.68-17c1.6-5.32,4.93-8.13,10-8.43c8.32-0.49,11.71,3.44,10.07,11.68
	c-0.04,0.23-0.19,0.35-0.42,0.35H108c-0.39,0-0.72-0.3-0.74-0.69l-0.28-4.08C106.96,34.39,106.84,34.22,106.62,34.13z"/>
<path d="M121.35,28.87c-0.75,1.52-1.51,2.7-1.56,4.47c-0.16,5.26-0.57,10.54-1.21,15.84c-0.01,0.05-0.04,0.08-0.09,0.08
	c-0.04-0.01-0.07-0.04-0.07-0.09l0.89-20.87c0.01-0.19,0.11-0.28,0.3-0.25l3.38,0.3c0.17,0.01,0.22,0.23,0.08,0.33
	c-0.35,0.23-0.73,0.23-1.14,0.01C121.67,28.54,121.47,28.61,121.35,28.87z"/>
<path d="M199.28,28.82c-0.05-0.19-0.06-0.39-0.01-0.61c0.04-0.2,0.15-0.28,0.35-0.25l1.81,0.27c0.31,0.04,0.38,0.2,0.22,0.47
	c-0.49,0.81-0.95,1.62-1.37,2.44c-0.38,0.73-0.56,1.53-0.55,2.42c0.04,4.54-0.26,9.06-0.89,13.56c-0.01,0.07-0.07,0.11-0.13,0.1
	c-0.07-0.01-0.11-0.06-0.11-0.13l0.77-17.77C199.35,29.15,199.33,28.99,199.28,28.82z"/>
<path d="M148.57,47.05c-0.07-0.19-0.04-0.38,0.09-0.55c0.1-0.14,0.15-0.12,0.14,0.05l-0.01,4.3c0,0.05-0.05,0.11-0.1,0.11
	c-0.06,0-0.1-0.04-0.12-0.09C148.3,49.58,148.3,48.31,148.57,47.05z"/>
<path d="M123.7,49.43c0.15-0.49,0.48-0.9,0.99-1.22c0.09-0.05,0.14-0.03,0.16,0.07c0.07,0.64-0.19,1.11-0.82,1.43
	C123.7,49.88,123.59,49.78,123.7,49.43z"/>
<path d="M123.5,51.71c-0.2,0.17-0.4,0.33-0.6,0.5c-0.1,0.08-0.16,0.06-0.16-0.07c-0.02-0.58,0.19-0.86,0.63-0.84
	C123.76,51.31,123.81,51.44,123.5,51.71z"/>
<path d="M124.39,59.63c-0.2-0.48-0.13-0.83,0.24-1.03c0.26-0.14,0.59-0.01,0.68,0.29c0.18,0.67-0.02,1-0.58,0.97
	C124.58,59.84,124.45,59.76,124.39,59.63z"/>
</svg>
