<?xml version="1.0" encoding="utf-8"?>
<!-- Generator: Adobe Illustrator 27.7.0, SVG Export Plug-In . SVG Version: 6.00 Build 0)  -->
<svg version="1.1" id="Layer_1" xmlns="http://www.w3.org/2000/svg" xmlns:xlink="http://www.w3.org/1999/xlink" x="0px" y="0px"
	 viewBox="0 0 329 96" style="enable-background:new 0 0 329 96;" xml:space="preserve">
<style type="text/css">
	.st0{fill:none;stroke:#808080;stroke-width:0;stroke-miterlimit:10;}
	.st1{fill:#FFFFFF;}
</style>
<g>
	<path class="st0" d="M287.71,20.74c-81.41,0.05-162.83,0.13-244.24-0.01c-32.17-0.06-38.39,45.39-8.03,54.58
		c2.06,0.62,4.67,0.94,7.85,0.95c80.75,0.14,161.51,0.12,242.26-0.05c4.79-0.01,8.34-0.37,10.67-1.08
		c10.81-3.31,18.55-13.9,19.15-24.92C316.24,34.24,304.11,20.72,287.71,20.74"/>
	<path class="st0" d="M161.56,44.37l0.35-3.32c0.04-0.33,0.22-0.51,0.55-0.55l14.01-1.54c0.29-0.03,0.44-0.19,0.44-0.48l0.04-7
		c0.01-0.37-0.18-0.55-0.55-0.53l-21.77,0.99c-0.29,0.01-0.52,0.23-0.55,0.53c-1.15,11.05-1.72,22.13-1.72,33.26
		c0,0.43,0.37,0.79,0.8,0.76l21.81-1.16c0.53-0.03,0.8-0.31,0.8-0.85v-6.64c0-0.51-0.43-0.92-0.94-0.91l-13.32,0.4
		c-0.29,0.01-0.43-0.13-0.43-0.43l0.16-3.45c0.01-0.24,0.13-0.38,0.38-0.41l11.27-1.57c0.34-0.05,0.49-0.23,0.49-0.57l-0.09-6.07
		c-0.01-0.32-0.27-0.56-0.59-0.55l-10.78,0.46C161.66,44.76,161.54,44.63,161.56,44.37"/>
	<path class="st0" d="M210.56,40.07c0.4-0.07,0.78,0.25,0.77,0.66l-0.72,25.07c-0.02,0.38,0.29,0.68,0.67,0.67l7.32-0.2
		c0.35-0.01,0.62-0.28,0.63-0.62l1.11-25.89c0.02-0.34,0.29-0.61,0.62-0.62l6.54-0.24c0.35-0.01,0.62-0.28,0.63-0.63l0.25-6.48
		c0.01-0.38-0.29-0.68-0.67-0.67l-23.66,0.46c-0.35,0.01-0.62,0.29-0.64,0.63l-0.28,8.41c-0.02,0.42,0.35,0.74,0.76,0.67
		L210.56,40.07"/>
	<path class="st0" d="M114.06,56.55c-0.84,3.09-5.15,3.3-5.6-0.65c-0.3-2.58,0.13-19.04,6.16-16.73c0.26,0.1,0.42,0.34,0.41,0.61
		l-0.04,4.49c-0.01,0.5,0.41,0.91,0.92,0.9l6.61-0.15c0.47-0.01,0.86-0.36,0.93-0.83c0.88-6.41-0.01-12.53-7.95-12.95
		c-7.29-0.39-12.76,5.86-14.32,12.58c-1.76,7.58-3.17,21.72,8.06,22.51c7.24,0.52,11.85-2.66,13.83-9.54
		c2.77-9.6-2.87-10.58-10.49-8.72c-0.23,0.05-0.36,0.2-0.4,0.44c-0.35,2.26-0.7,4.51-1.03,6.79c-0.04,0.27,0.07,0.55,0.28,0.72
		c0.66,0.51,1.4,0.58,2.21,0.2C114.04,56.01,114.18,56.12,114.06,56.55"/>
	<path class="st0" d="M184.47,50.49c3.11,1.96,7.14,4.07,7.31,6.41c0.38,5.57-8.11,0.65-9.96-0.17c-0.22-0.1-0.47-0.01-0.58,0.21
		l-2.54,5.13c-0.12,0.23-0.05,0.52,0.17,0.67c4.7,3.29,12.1,5.07,17.44,2.29c6.57-3.42,5.97-12.08,1.19-16.34
		c-2.81-2.5-10.7-5.23-6.33-10.45c0.72-0.86,2.11-0.38,2.16,0.74l0.16,3.85c0.01,0.35,0.29,0.62,0.64,0.62h6.63
		c0.27,0,0.43-0.13,0.47-0.4c0.84-4.67,0.23-10.42-5.52-11.39c-6.9-1.18-11.57,0.93-14,6.31C179.68,42.44,180.07,47.72,184.47,50.49
		"/>
	<path class="st0" d="M141.15,53.56c-0.42,5.27-7.3,6.54-6.85-0.7c0.4-6.59,0.89-13.37,1.46-20.33c0.04-0.59-0.42-1.1-1.01-1.1
		h-6.53c-0.28,0-0.51,0.2-0.55,0.47c-1.36,8.47-1.96,16.91-1.82,25.34c0.08,4.72,2.34,8.14,7.18,8.98
		c10.08,1.75,16.61-4.16,16.97-14.31c0.22-6.45,0.44-12.9,0.66-19.36c0.02-0.62-0.47-1.12-1.09-1.12h-6.19
		c-0.66,0-1.01,0.33-1.03,0.99C142.08,39.9,141.68,46.96,141.15,53.56"/>
	<path class="st0" d="M207.73,38.33c-0.53-0.7-1.22-0.99-2.08-0.86c-0.17,0.02-0.18,0.07-0.02,0.14l2.3,0.94
		c0.11,0.04,0.14,0.01,0.08-0.09C207.95,38.34,207.86,38.29,207.73,38.33"/>
	<path class="st0" d="M212.55,55.26c0.01-0.16-0.11-0.3-0.28-0.31l-0.15-0.01c-0.16-0.01-0.3,0.12-0.31,0.28l-0.41,7.52
		c-0.01,0.16,0.11,0.3,0.28,0.31l0.15,0.01c0.16,0.01,0.3-0.12,0.31-0.28L212.55,55.26"/>
	<path class="st0" d="M149.08,35.33c0.22,0.01,0.43-0.62,0.48-1.41c0.05-0.79-0.1-1.44-0.31-1.45c-0.22-0.01-0.43,0.62-0.48,1.41
		C148.72,34.66,148.87,35.32,149.08,35.33"/>
	<path class="st0" d="M128.75,33.76c0.01-0.15-0.1-0.28-0.24-0.29l-0.12-0.01c-0.15-0.01-0.28,0.09-0.29,0.24l-0.65,6.87
		c-0.01,0.15,0.1,0.28,0.24,0.29l0.12,0.01c0.15,0.01,0.28-0.09,0.29-0.24L128.75,33.76"/>
</g>
<path d="M141.15,53.56c-0.42,5.27-7.3,6.54-6.85-0.7c0.4-6.59,0.89-13.37,1.46-20.33c0.04-0.59-0.42-1.1-1.01-1.1h-6.53
	c-0.28,0-0.51,0.2-0.55,0.47c-1.36,8.47-1.96,16.91-1.82,25.34c0.08,4.72,2.34,8.14,7.18,8.98c10.08,1.75,16.61-4.16,16.97-14.31
	c0.22-6.45,0.44-12.9,0.66-19.36c0.02-0.62-0.47-1.12-1.09-1.12h-6.19c-0.66,0-1.01,0.33-1.03,0.99
	C142.08,39.9,141.68,46.96,141.15,53.56z M184.47,50.49c3.11,1.96,7.14,4.07,7.31,6.41c0.38,5.57-8.11,0.65-9.96-0.17
	c-0.22-0.1-0.47-0.01-0.58,0.21l-2.54,5.13c-0.12,0.23-0.05,0.52,0.17,0.67c4.7,3.29,12.1,5.07,17.44,2.29
	c6.57-3.42,5.97-12.08,1.19-16.34c-2.81-2.5-10.7-5.23-6.33-10.45c0.72-0.86,2.11-0.38,2.16,0.74l0.16,3.85
	c0.01,0.35,0.29,0.62,0.64,0.62h6.63c0.27,0,0.43-0.13,0.47-0.4c0.84-4.67,0.23-10.42-5.52-11.39c-6.9-1.18-11.57,0.93-14,6.31
	C179.68,42.44,180.07,47.72,184.47,50.49 M114.06,56.55c-0.84,3.09-5.15,3.3-5.6-0.65c-0.3-2.58,0.13-19.04,6.16-16.73
	c0.26,0.1,0.42,0.34,0.41,0.61l-0.04,4.49c-0.01,0.5,0.41,0.91,0.92,0.9l6.61-0.15c0.47-0.01,0.86-0.36,0.93-0.83
	c0.88-6.41-0.01-12.53-7.95-12.95c-7.29-0.39-12.76,5.86-14.32,12.58c-1.76,7.58-3.17,21.72,8.06,22.51
	c7.24,0.52,11.85-2.66,13.83-9.54c2.77-9.6-2.87-10.58-10.49-8.72c-0.23,0.05-0.36,0.2-0.4,0.44c-0.35,2.26-0.7,4.51-1.03,6.79
	c-0.04,0.27,0.07,0.55,0.28,0.72c0.66,0.51,1.4,0.58,2.21,0.2C114.04,56.01,114.18,56.12,114.06,56.55 M210.56,40.07
	c0.4-0.07,0.78,0.25,0.77,0.66l-0.72,25.07c-0.02,0.38,0.29,0.68,0.67,0.67l7.32-0.2c0.35-0.01,0.62-0.28,0.63-0.62l1.11-25.89
	c0.02-0.34,0.29-0.61,0.62-0.62l6.54-0.24c0.35-0.01,0.62-0.28,0.63-0.63l0.25-6.48c0.01-0.38-0.29-0.68-0.67-0.67l-23.66,0.46
	c-0.35,0.01-0.62,0.29-0.64,0.63l-0.28,8.41c-0.02,0.42,0.35,0.74,0.76,0.67L210.56,40.07 M161.56,44.37l0.35-3.32
	c0.04-0.33,0.22-0.51,0.55-0.55l14.01-1.54c0.29-0.03,0.44-0.19,0.44-0.48l0.04-7c0.01-0.37-0.18-0.55-0.55-0.53l-21.77,0.99
	c-0.29,0.01-0.52,0.23-0.55,0.53c-1.15,11.05-1.72,22.13-1.72,33.26c0,0.43,0.37,0.79,0.8,0.76l21.81-1.16
	c0.53-0.03,0.8-0.31,0.8-0.85v-6.64c0-0.51-0.43-0.92-0.94-0.91l-13.32,0.4c-0.29,0.01-0.43-0.13-0.43-0.43l0.16-3.45
	c0.01-0.24,0.13-0.38,0.38-0.41l11.27-1.57c0.34-0.05,0.49-0.23,0.49-0.57l-0.09-6.07c-0.01-0.32-0.27-0.56-0.59-0.55l-10.78,0.46
	C161.66,44.76,161.54,44.63,161.56,44.37 M43.48,20.73c81.41,0.14,162.82,0.06,244.24,0.01c16.39-0.01,28.53,13.51,27.66,29.47
	c-0.6,11.02-8.35,21.62-19.15,24.92c-2.33,0.71-5.89,1.07-10.67,1.08c-80.75,0.17-161.5,0.2-242.26,0.05
	c-3.17-0.01-5.79-0.32-7.85-0.95C5.08,66.12,11.31,20.67,43.48,20.73"/>
<path class="st1" d="M161.93,44.75l10.78-0.46c0.32-0.01,0.58,0.23,0.59,0.55l0.09,6.07c0.01,0.34-0.15,0.52-0.49,0.57l-11.27,1.57
	c-0.24,0.04-0.37,0.17-0.38,0.41l-0.16,3.45c-0.01,0.3,0.14,0.44,0.43,0.43l13.32-0.4c0.51-0.01,0.94,0.4,0.94,0.91v6.64
	c0,0.53-0.27,0.82-0.8,0.85l-21.81,1.16c-0.43,0.02-0.8-0.33-0.8-0.76c-0.01-11.12,0.56-22.21,1.72-33.26
	c0.03-0.29,0.26-0.51,0.55-0.53l21.77-0.99c0.37-0.01,0.55,0.16,0.55,0.53l-0.04,7c-0.01,0.29-0.15,0.45-0.44,0.48l-14.01,1.54
	c-0.33,0.04-0.51,0.22-0.55,0.55l-0.35,3.32C161.54,44.63,161.66,44.76,161.93,44.75z"/>
<path class="st1" d="M212.55,55.26c0.01-0.16-0.11-0.3-0.28-0.31l-0.15-0.01c-0.16-0.01-0.3,0.12-0.31,0.28l-0.41,7.52
	c-0.01,0.16,0.11,0.3,0.28,0.31l0.15,0.01c0.16,0.01,0.3-0.12,0.31-0.28L212.55,55.26z M207.73,38.33c-0.53-0.7-1.22-0.99-2.08-0.86
	c-0.17,0.02-0.18,0.07-0.02,0.14l2.3,0.94c0.11,0.04,0.14,0.01,0.08-0.09C207.95,38.34,207.86,38.29,207.73,38.33 M210.56,40.07
	l-6.67,1.19c-0.41,0.07-0.78-0.25-0.76-0.67l0.28-8.41c0.01-0.35,0.29-0.62,0.64-0.63l23.66-0.46c0.38-0.01,0.68,0.3,0.67,0.67
	l-0.25,6.48c-0.01,0.35-0.29,0.61-0.63,0.63l-6.54,0.24c-0.34,0.01-0.61,0.29-0.62,0.62l-1.11,25.89c-0.01,0.34-0.29,0.61-0.63,0.62
	l-7.32,0.2c-0.38,0.01-0.68-0.29-0.67-0.67l0.72-25.07C211.34,40.32,210.96,39.99,210.56,40.07"/>
<path class="st1" d="M113.64,56.2c-0.82,0.38-1.55,0.31-2.21-0.2c-0.22-0.17-0.33-0.45-0.28-0.72c0.33-2.27,0.68-4.53,1.03-6.79
	c0.04-0.23,0.17-0.38,0.4-0.44c7.62-1.86,13.26-0.88,10.49,8.72c-1.98,6.88-6.59,10.06-13.83,9.54C98,65.53,99.4,51.39,101.17,43.81
	c1.56-6.71,7.03-12.97,14.32-12.58c7.94,0.43,8.83,6.54,7.95,12.95c-0.07,0.47-0.46,0.82-0.93,0.83l-6.61,0.15
	c-0.5,0.01-0.92-0.4-0.92-0.9l0.04-4.49c0.01-0.27-0.16-0.51-0.41-0.61c-6.02-2.31-6.46,14.15-6.16,16.73
	c0.45,3.95,4.76,3.74,5.6,0.65C114.18,56.12,114.04,56.01,113.64,56.2z"/>
<path class="st1" d="M191.78,56.91c-0.16-2.34-4.2-4.46-7.31-6.41c-4.4-2.77-4.79-8.05-2.77-12.54c2.44-5.38,7.1-7.49,14-6.31
	c5.75,0.98,6.36,6.72,5.52,11.39c-0.05,0.26-0.2,0.4-0.47,0.4h-6.63c-0.35,0-0.62-0.27-0.64-0.62l-0.16-3.85
	c-0.04-1.12-1.44-1.59-2.16-0.74c-4.37,5.23,3.52,7.96,6.33,10.45c4.78,4.25,5.38,12.92-1.19,16.34
	c-5.34,2.78-12.73,1.01-17.44-2.29c-0.22-0.15-0.29-0.43-0.17-0.67l2.54-5.13c0.11-0.22,0.36-0.31,0.58-0.21
	C183.67,57.55,192.16,62.48,191.78,56.91z"/>
<path class="st1" d="M128.75,33.76c0.01-0.15-0.1-0.28-0.24-0.29l-0.12-0.01c-0.15-0.01-0.28,0.09-0.29,0.24l-0.65,6.87
	c-0.01,0.15,0.1,0.28,0.24,0.29l0.12,0.01c0.15,0.01,0.28-0.09,0.29-0.24L128.75,33.76z M149.08,35.33
	c0.22,0.01,0.43-0.62,0.48-1.41c0.05-0.79-0.1-1.44-0.31-1.45c-0.22-0.01-0.43,0.62-0.48,1.41
	C148.72,34.66,148.87,35.32,149.08,35.33 M134.29,52.87c-0.44,7.24,6.44,5.97,6.85,0.7c0.53-6.61,0.93-13.66,1.19-21.13
	c0.02-0.66,0.37-0.99,1.03-0.99h6.19c0.62,0,1.11,0.51,1.09,1.12c-0.22,6.46-0.43,12.91-0.66,19.36
	c-0.36,10.15-6.89,16.06-16.97,14.31c-4.85-0.83-7.1-4.26-7.18-8.98c-0.14-8.43,0.46-16.88,1.82-25.34
	c0.05-0.27,0.28-0.47,0.55-0.47h6.53c0.59,0,1.06,0.5,1.01,1.1C135.18,39.5,134.69,46.28,134.29,52.87"/>
<path d="M149.08,35.33c-0.22-0.01-0.36-0.67-0.31-1.45c0.04-0.79,0.26-1.42,0.48-1.41c0.22,0.01,0.36,0.67,0.31,1.45
	C149.52,34.71,149.3,35.34,149.08,35.33z"/>
<path d="M128.1,40.63c-0.01,0.15-0.15,0.25-0.29,0.24l-0.12-0.01c-0.15-0.02-0.26-0.14-0.24-0.29l0.65-6.87
	c0.01-0.15,0.15-0.25,0.29-0.24l0.12,0.01c0.15,0.02,0.26,0.14,0.24,0.29L128.1,40.63z"/>
<path d="M207.73,38.33c0.13-0.04,0.22,0.01,0.29,0.13c0.05,0.1,0.03,0.13-0.08,0.09l-2.3-0.94c-0.16-0.07-0.16-0.12,0.02-0.14
	C206.51,37.34,207.2,37.63,207.73,38.33z"/>
<path d="M212.14,62.78c-0.01,0.16-0.15,0.29-0.31,0.28l-0.15-0.01c-0.16-0.01-0.28-0.15-0.28-0.31l0.41-7.52
	c0.01-0.16,0.15-0.29,0.31-0.28l0.15,0.01c0.16,0.01,0.28,0.15,0.28,0.31L212.14,62.78z"/>
</svg>
