<?xml version="1.0" encoding="utf-8"?>
<!-- Generator: Adobe Illustrator 27.7.0, SVG Export Plug-In . SVG Version: 6.00 Build 0)  -->
<svg version="1.1" id="Layer_1" xmlns="http://www.w3.org/2000/svg" xmlns:xlink="http://www.w3.org/1999/xlink" x="0px" y="0px"
	 viewBox="0 0 375 148" style="enable-background:new 0 0 375 148;" xml:space="preserve">
<style type="text/css">
	.st0{fill:none;stroke:#808080;stroke-width:0;stroke-miterlimit:10;}
	.st1{fill:none;stroke:#726254;stroke-width:0;stroke-miterlimit:10;}
	.st2{fill:#E3C4A8;}
</style>
<g>
	<path class="st0" d="M362.99,25.66c0-4.1-3.32-7.41-7.41-7.41H19.42c-4.09,0-7.41,3.32-7.41,7.41v97.68c0,4.1,3.32,7.41,7.41,7.41
		h336.16c4.1,0,7.41-3.32,7.41-7.41V25.66"/>
	<path class="st1" d="M183.76,39.71l-8.83-0.07c-0.27-0.01-0.43-0.14-0.47-0.4L174,35.81c-0.07-0.49-0.53-0.81-1.01-0.71l-4.75,0.97
		c-0.17,0.04-0.25,0.14-0.25,0.32l0.52,8.92c0.01,0.22,0.13,0.33,0.35,0.33l8.26-0.01c0.28,0,0.5,0.23,0.49,0.5l-0.16,4.55
		c-0.01,0.26,0.08,0.3,0.27,0.11c2.95-2.96,5.12-6.43,6.53-10.39C184.37,40.07,184.12,39.71,183.76,39.71"/>
	<path class="st1" d="M71.74,42.39c4.54,6.68,11.45,13.14,16.6,18.36c0.2,0.2,0.4,0.21,0.62,0.01l3.82-3.56
		c0.2-0.19,0.2-0.38,0.02-0.56c-5.35-5.57-11.67-11.26-15.77-17.81c-0.12-0.2-0.38-0.27-0.58-0.16l-4.37,2.34
		C71.57,41.27,71.42,41.92,71.74,42.39"/>
	<path class="st1" d="M309.76,38.73l-4.51,2.43c-0.2,0.11-0.26,0.27-0.18,0.49c0.66,1.69,1.42,3.01,2.27,3.96
		c2.96,3.31,7.78,8.35,14.46,15.11c0.2,0.2,0.4,0.21,0.61,0.01l3.74-3.52c0.16-0.14,0.16-0.39,0.01-0.54
		c-5.27-5.58-11.58-11.21-15.64-17.74C310.35,38.63,310.09,38.56,309.76,38.73"/>
	<path class="st1" d="M86.28,45.96l-0.45,1.18c-0.1,0.27-0.06,0.51,0.14,0.73l3.11,3.37c0.26,0.28,0.71,0.25,0.94-0.05
		c2.41-3.2,3.31-6.83,2.68-10.9c-0.03-0.2-0.14-0.31-0.35-0.33l-7.9-0.89c-0.18-0.02-0.29,0.05-0.35,0.22l-1.4,4.56
		c-0.1,0.32,0.02,0.54,0.34,0.65l2.99,0.96C86.3,45.53,86.38,45.7,86.28,45.96"/>
	<path class="st1" d="M145.04,39.71c-4.92,0.17-11.9,0.48-17.26-0.66c-0.25-0.05-0.4,0.04-0.47,0.29l-1.29,4.96
		c-0.07,0.25,0.06,0.52,0.31,0.61c4.12,1.64,13.31,0.74,17.98,0.68c0.2-0.01,0.38-0.16,0.4-0.36l0.71-5.1
		C145.43,39.91,145.26,39.71,145.04,39.71"/>
	<path class="st1" d="M317.6,39.05l-1.48,4.87c-0.08,0.28,0.01,0.46,0.29,0.55l2.99,0.95c0.27,0.08,0.36,0.26,0.28,0.52l-0.44,1.39
		c-0.09,0.28-0.03,0.53,0.18,0.74l3.2,3.2c0.15,0.15,0.39,0.15,0.55,0c3.02-2.86,3.33-7.26,3.07-11.16
		c-0.02-0.27-0.17-0.4-0.43-0.39c-2.69,0.1-5.34-0.17-7.94-0.81C317.74,38.88,317.63,38.94,317.6,39.05"/>
	<path class="st1" d="M68.82,39.78c-6.05,0.06-12.64,0.47-18.58-0.68c-0.29-0.05-0.47,0.06-0.55,0.35l-1.28,4.84
		c-0.07,0.23,0.01,0.4,0.24,0.49c3.96,1.5,10.01,0.82,13.59,0.85c0.21,0.01,0.38,0.17,0.38,0.38v6.35c0,0.09,0.07,0.17,0.16,0.18
		c0.1,0.01,0.18-0.04,0.2-0.13c1.13-4.52,3.14-8.6,6.02-12.23C69.22,39.92,69.16,39.78,68.82,39.78"/>
	<path class="st1" d="M159.4,46.1v4.2c0,0.52,0.16,0.58,0.5,0.18c2.6-3.15,4.66-6.63,6.19-10.44c0.11-0.28,0.01-0.4-0.28-0.38
		c-5.87,0.39-11.73,0.25-17.57-0.43c-0.18-0.02-0.35,0.1-0.39,0.28l-1.18,4.84c-0.07,0.26,0.03,0.44,0.29,0.54
		c3.48,1.28,8.31,0.74,11.96,0.74C159.19,45.62,159.4,45.83,159.4,46.1"/>
	<path class="st1" d="M218.62,45.86v4.47c0,0.33,0.17,0.51,0.49,0.55c5.75,0.55,12.47,1.63,10.74,8.87c-0.06,0.26,0.13,0.5,0.4,0.5
		h5.6c0.25,0,0.42-0.12,0.49-0.37c2.23-7.73-4.47-12.08-11.17-13.1c-0.21-0.03-0.37-0.21-0.37-0.42v-6.12
		c0-0.22-0.11-0.34-0.33-0.36l-7.27-0.68c-0.25-0.02-0.4,0.09-0.46,0.32l-1.31,4.82c-0.07,0.27,0.1,0.54,0.37,0.6l2.47,0.51
		C218.51,45.5,218.62,45.63,218.62,45.86"/>
	<path class="st1" d="M228.03,39.2l-1.42,4.87c-0.07,0.24,0.07,0.49,0.3,0.56c0.67,0.22,1.36,0.38,2.06,0.48
		c0.29,0.04,0.5,0.28,0.52,0.56l0.02,0.45c0.02,0.24,0.13,0.42,0.34,0.54l4.27,2.43c0.25,0.14,0.45,0.09,0.59-0.16
		c1.65-2.71,2.11-5.65,1.38-8.8c-0.05-0.23-0.19-0.34-0.42-0.34c-2.51,0.01-4.99-0.23-7.44-0.72
		C228.15,39.06,228.06,39.11,228.03,39.2"/>
	<path class="st1" d="M242.52,46.17l-0.01,5.08c0,0.71,0.11,0.73,0.34,0.05c1.34-4.07,3.38-7.75,6.14-11.03
		c0.11-0.13,0.02-0.32-0.14-0.34l-9.12-0.71c-0.22-0.02-0.35,0.08-0.4,0.29l-1.24,4.77c-0.1,0.37,0.04,0.6,0.41,0.68l3.74,0.85
		C242.43,45.87,242.52,45.99,242.52,46.17"/>
	<path class="st1" d="M279.26,39.15c-0.56,1.73-1.02,3.49-1.36,5.28c-0.05,0.29,0.06,0.47,0.34,0.55c5.2,1.53,8.88-0.13,11.02-5
		c0.07-0.17-0.05-0.35-0.23-0.35c-3.34,0.15-6.58-0.02-9.72-0.52C279.28,39.12,279.26,39.14,279.26,39.15"/>
	<path class="st1" d="M293.86,39.51l-1.29,4.88c-0.08,0.29,0.03,0.47,0.32,0.54c3.19,0.76,6.42,0.96,9.7,0.61
		c0.28-0.03,0.41-0.19,0.41-0.47v-4.74c0-0.29-0.14-0.43-0.43-0.46l-8.35-0.63C294.03,39.23,293.91,39.32,293.86,39.51"/>
	<path class="st1" d="M124.1,45.69c-0.12-5.61-5.95-7.01-10.49-6.27c-0.29,0.05-0.31,0.15-0.05,0.29
		c5.74,3.31,4.39,14.34,4.37,20.11c-0.01,0.29,0.13,0.43,0.43,0.43h5.73c0.3,0,0.44-0.15,0.44-0.45
		C124.34,55.04,124.2,50.34,124.1,45.69"/>
	<path class="st1" d="M213.97,59.77c-0.11-7.26,2.89-20.9-9.37-20.2c-0.16,0.01-0.19,0.08-0.1,0.21c3.55,5.11,2.85,13.75,2.66,20.02
		c-0.01,0.3,0.13,0.45,0.43,0.45h5.9C213.81,60.25,213.97,60.09,213.97,59.77"/>
	<path class="st1" d="M267.61,50.55c0.65-12.38-6.7-12.17-16.21-10.42c-0.25,0.05-0.35,0.2-0.32,0.44l0.74,4.86
		c0.05,0.27,0.29,0.46,0.57,0.42c5.94-0.88,11.9-1.25,14.94,4.75C267.5,50.94,267.59,50.92,267.61,50.55"/>
	<path class="st1" d="M205.63,45.82c0.01-6.29-5.61-7.18-10.37-5.59c-0.18,0.06-0.26,0.19-0.23,0.38l0.71,5
		c0.04,0.31,0.22,0.43,0.52,0.37c3.04-0.58,6.06-0.54,9.06,0.1C205.53,46.13,205.63,46.04,205.63,45.82"/>
	<path class="st1" d="M116.05,45.06c-1.18-6.03-8.46-6.08-13.1-4.33c-0.21,0.08-0.3,0.23-0.28,0.45l0.65,4.96
		c0.04,0.27,0.19,0.38,0.45,0.32c3.97-0.87,7.99-1.25,12.06-1.14C116.01,45.33,116.08,45.24,116.05,45.06"/>
	<path class="st1" d="M69.03,41.93c-3.7,5.38-5.84,11.32-6.43,17.84c-0.02,0.26,0.18,0.47,0.43,0.47h5.95c0.27,0,0.4-0.13,0.4-0.4
		l0.01-17.8C69.4,41.85,69.14,41.77,69.03,41.93"/>
	<path class="st1" d="M248.67,42.55c-3.95,5.15-5.99,10.98-6.12,17.5c-0.01,0.34,0.16,0.48,0.49,0.44l5.96-0.7
		c0.22-0.02,0.38-0.21,0.38-0.43V42.79C249.38,42.02,249.14,41.94,248.67,42.55"/>
	<path class="st1" d="M289.1,42.51c-1.4,2.29-3.39,3.64-5.97,4.07c-0.26,0.04-0.4,0.2-0.4,0.47l0.03,5.69
		c0.01,0.23,0.12,0.34,0.35,0.31l5.98-0.75c0.23-0.02,0.41-0.22,0.41-0.46v-9.22C289.5,42.4,289.21,42.32,289.1,42.51"/>
	<path class="st1" d="M165.78,43.29c-2.06,4.54-5.19,9.31-9.92,11.38c-0.26,0.11-0.35,0.3-0.28,0.58l1.25,4.64
		c0.05,0.2,0.25,0.33,0.46,0.31c4.62-0.53,7.45-2.94,8.51-7.21c0.71-2.9,0.82-6.12,0.33-9.65C166.1,43.15,165.85,43.12,165.78,43.29
		"/>
	<path class="st1" d="M183.88,44.03c-2.31,5.25-6.11,8.93-11.38,11.05c-0.26,0.1-0.34,0.28-0.22,0.55l2.05,4.56
		c0.12,0.27,0.32,0.36,0.61,0.26c7.76-2.61,10.79-8.08,9.11-16.4C184.02,43.85,183.96,43.84,183.88,44.03"/>
	<path class="st1" d="M112.54,54.25c-0.23,0-0.41-0.19-0.41-0.41v-6.93c0-0.25-0.22-0.44-0.46-0.4l-5.74,0.78
		c-0.21,0.03-0.36,0.2-0.36,0.41v12.14c0,0.23,0.19,0.41,0.41,0.41h10.42c0.23,0,0.41-0.19,0.41-0.41v-5.17
		c0-0.23-0.19-0.41-0.41-0.41H112.54"/>
	<path class="st1" d="M56.56,46.91l-5.03-0.16c-0.28-0.01-0.49,0.11-0.61,0.38c-1.27,2.74-1.23,5.49,0.12,8.25
		c0.13,0.26,0.05,0.43-0.22,0.52l-2.71,0.85c-0.32,0.1-0.42,0.31-0.32,0.61l1.33,4.15c0.1,0.32,0.31,0.43,0.64,0.34l8.38-2.37
		c0.32-0.1,0.43-0.3,0.32-0.62c-1.47-4.22-2.77-7.81-1.49-11.36C57.06,47.21,56.86,46.92,56.56,46.91"/>
	<path class="st1" d="M142.12,47.1c0-0.18-0.15-0.33-0.33-0.33h-6.12c-0.18,0-0.33,0.15-0.33,0.33v12.81c0,0.18,0.15,0.33,0.33,0.33
		h6.12c0.18,0,0.33-0.15,0.33-0.33V47.1"/>
	<path class="st1" d="M267.55,59.81c0.17-4.43-0.77-11.88-6.38-12.89c-0.28-0.05-0.41,0.06-0.41,0.34l0.07,12.55
		c0.01,0.31,0.17,0.46,0.47,0.46l5.82-0.05C267.4,60.21,267.54,60.07,267.55,59.81"/>
	<path class="st1" d="M296.14,47.27l-0.12,6.12c-0.02,0.65-0.57,1.15-1.22,1.09l-2.91-0.25c-0.22-0.02-0.34,0.07-0.38,0.29
		l-0.74,4.98c-0.04,0.27,0.07,0.43,0.35,0.5c4.25,1,11.9,1.72,11.91-4.82c0.01-2.64-0.01-5.32-0.07-8.04
		c-0.01-0.26-0.14-0.39-0.4-0.39h-5.9C296.33,46.75,296.15,46.92,296.14,47.27"/>
	<path class="st1" d="M78.56,54.25v-1.63c0-0.2-0.07-0.38-0.21-0.53l-3.46-3.68c-0.15-0.16-0.41-0.16-0.56-0.01
		c-2.73,2.74-3.14,7.88-2.52,11.4c0.05,0.3,0.23,0.45,0.54,0.45h8.46c0.25,0,0.38-0.13,0.38-0.38V55.1c0-0.32-0.16-0.47-0.47-0.47
		h-1.78C78.69,54.62,78.56,54.5,78.56,54.25"/>
	<path class="st1" d="M307.51,48.42c-2.27,3.47-3.02,7.31-2.26,11.52c0.04,0.21,0.17,0.32,0.38,0.32h8.62
		c0.25,0,0.38-0.13,0.38-0.38V55.1c0-0.32-0.16-0.47-0.47-0.47h-1.69c-0.31,0-0.46-0.16-0.46-0.47v-1.67c0-0.27-0.1-0.49-0.29-0.68
		l-3.5-3.46C308.01,48.14,307.67,48.17,307.51,48.42"/>
	<path class="st1" d="M153.56,49.38l-5.45-0.87c-0.25-0.04-0.42,0.06-0.5,0.29c-1.54,4.37-0.62,13.01-0.59,17.87
		c0,0.26,0.13,0.39,0.39,0.37l5.58-0.43c0.23-0.02,0.35-0.15,0.36-0.38c0.04-5.21-0.54-11.37,0.49-16.45
		C153.88,49.55,153.79,49.41,153.56,49.38"/>
	<path class="st1" d="M202.51,50.06c0.02-0.27-0.19-0.49-0.46-0.5l-5.81-0.29c-0.26-0.01-0.49,0.19-0.5,0.46l-0.5,9.89
		c-0.02,0.27,0.19,0.49,0.46,0.5l5.81,0.29c0.26,0.01,0.49-0.19,0.5-0.46L202.51,50.06"/>
	<path class="st1" d="M217.81,60.25l10.68,0.06c0.15,0,0.27-0.12,0.27-0.27l0.01-2.73c0.01-1.69-0.61-3.07-1.39-3.07l-8.41-0.05
		c-0.77,0-1.41,1.37-1.42,3.05l-0.02,2.73C217.54,60.13,217.66,60.25,217.81,60.25"/>
	<path class="st1" d="M132.23,94.02l-0.14,4.52c-0.01,0.38,0.12,0.44,0.38,0.16c2.92-3.02,5.08-6.52,6.46-10.49
		c0.07-0.2-0.08-0.4-0.28-0.4l-9.13-0.07c-0.23-0.01-0.37-0.12-0.4-0.35l-0.65-3.97c-0.04-0.28-0.32-0.47-0.59-0.4l-4.93,1.06
		c-0.21,0.04-0.31,0.18-0.3,0.4l0.46,8.85c0.01,0.2,0.12,0.31,0.32,0.31h8.38C132.1,93.62,132.23,93.76,132.23,94.02"/>
	<path class="st1" d="M160.38,92.98l2.36,0.52c0.22,0.05,0.32,0.19,0.31,0.41c-0.11,2.46-0.9,4.67-2.36,6.64
		c-0.15,0.19,0.03,0.46,0.27,0.41c5.89-1.34,8.65-7.3,7.9-12.95c-0.04-0.32-0.22-0.46-0.53-0.43c-2.24,0.22-4.43,0.02-6.59-0.59
		c-0.28-0.08-0.45,0.01-0.52,0.29l-1.29,4.96C159.85,92.58,160.05,92.91,160.38,92.98"/>
	<path class="st1" d="M109.9,93.09c5.12,1.36,8.72-0.34,10.76-5.1c0.04-0.08-0.02-0.17-0.11-0.18l-9.68-0.5
		c-0.16-0.01-0.27,0.07-0.31,0.23l-1.22,4.59C109.23,92.54,109.49,92.98,109.9,93.09"/>
	<path class="st1" d="M143.28,94.03c-0.83,3.49-1.09,6.32,1.03,9.96c0.14,0.23,0.2,0.21,0.21-0.05c0.18-5.86,3.05-10.08,5.41-15.01
		c0.14-0.28,0.05-0.45-0.26-0.5l-7.51-1.29c-0.26-0.05-0.5,0.11-0.57,0.36l-1.3,4.75c-0.07,0.26,0.09,0.54,0.35,0.61l2.31,0.62
		C143.24,93.55,143.35,93.74,143.28,94.03"/>
	<path class="st1" d="M150.19,92.54c-0.04,0.16,0.05,0.33,0.22,0.37l2.44,0.61c0.16,0.05,0.25,0.2,0.22,0.36l-1.57,6.94
		c-0.04,0.2,0.1,0.38,0.3,0.37l5.01-0.09c0.14-0.01,0.26-0.1,0.29-0.24l2.61-12.23c0.04-0.17-0.07-0.34-0.25-0.36l-7.51-1.11
		c-0.15-0.02-0.29,0.08-0.33,0.22L150.19,92.54"/>
	<path class="st1" d="M192,94.35v3.95c0,0.52,0.17,0.58,0.5,0.19c2.6-3.07,4.64-6.49,6.1-10.25c0.11-0.28-0.11-0.57-0.4-0.55
		c-5.78,0.37-11.53,0.2-17.26-0.48c-0.19-0.02-0.31,0.06-0.36,0.25l-1.27,4.63c-0.17,0.65,0.3,1.28,0.97,1.31l11.14,0.35
		C191.74,93.74,192,94.01,192,94.35"/>
	<path class="st1" d="M200.8,93.11c3.81,0.56,7.49,0.73,11.02,0.49c3.43-0.23,2.96,4.88,2.57,6.89c-0.05,0.23,0.18,0.42,0.4,0.33
		c4.32-1.78,9.06-8.93,3.04-12.11c-3.66-1.93-11.07-0.62-15.57-1.59c-0.29-0.07-0.48,0.04-0.55,0.34l-1.34,5
		C200.29,92.76,200.49,93.06,200.8,93.11"/>
	<path class="st1" d="M225.55,93.84l2.08,7.91c0.09,0.35,0.45,0.55,0.8,0.46l5.19-1.44c0.34-0.1,0.43-0.3,0.27-0.61
		c-1.67-3.42-2.02-7.35-2.53-11.98c-0.03-0.25-0.17-0.38-0.42-0.41l-6.81-0.51c-0.22-0.02-0.35,0.07-0.41,0.29l-1.34,4.67
		c-0.07,0.28,0.09,0.56,0.37,0.64l2.47,0.67C225.4,93.57,225.5,93.67,225.55,93.84"/>
	<path class="st1" d="M233.82,92.85l3.01,0.68c0.21,0.04,0.36,0.22,0.37,0.44c0.06,3.46,0.42,9.55-1.33,13.31
		c-0.08,0.19-0.03,0.25,0.16,0.21c9.68-2.26,7.2-10.9,7.8-18.29c0.07-0.92-0.69-1.7-1.61-1.62c-2.3,0.19-4.53,0.01-6.68-0.54
		c-0.33-0.08-0.54,0.04-0.62,0.37l-1.31,5.07C233.56,92.65,233.65,92.82,233.82,92.85"/>
	<path class="st1" d="M255.52,88.04c3.42,5.36,2.53,13.54,2.48,19.8c-0.01,0.27,0.13,0.4,0.4,0.4h5.96c0.29,0,0.44-0.15,0.43-0.44
		c-0.03-3.83-0.05-7.66-0.07-11.48c-0.03-6.08-3.37-8.96-9.43-8.87c-0.26,0.01-0.32,0.12-0.2,0.35
		C255.16,87.95,255.3,88.02,255.52,88.04"/>
	<path class="st1" d="M246.92,94.01c4.22-0.62,6.46-0.46,9.13,0.16c0.25,0.05,0.37-0.05,0.37-0.29c0.02-6.26-4.94-7.02-10.17-5.68
		c-0.26,0.07-0.38,0.24-0.35,0.5l0.53,4.93C246.46,93.92,246.62,94.05,246.92,94.01"/>
	<path class="st1" d="M120.58,90.41c-1.36,2.32-3.38,3.73-6.04,4.21c-0.26,0.05-0.4,0.21-0.39,0.48l0.06,5.66
		c0,0.24,0.12,0.35,0.36,0.32l5.96-0.77c0.28-0.04,0.41-0.2,0.41-0.47v-9.33C120.94,90.31,120.67,90.24,120.58,90.41"/>
	<path class="st1" d="M198.2,91.79c-2.12,4.36-5.04,8.91-9.68,10.82c-0.25,0.1-0.38,0.36-0.32,0.61l1.22,4.64
		c0.07,0.26,0.24,0.38,0.51,0.35c8.85-0.89,9.59-9.43,8.93-16.3C198.77,91.09,198.55,91.04,198.2,91.79"/>
	<path class="st1" d="M139.04,92.59c0.17-0.32,0.18-0.63,0.01-0.91c-0.16-0.26-0.31-0.25-0.42,0.03c-2.25,5.39-6.08,9.16-11.5,11.32
		c-0.28,0.1-0.35,0.29-0.23,0.56l1.96,4.43c0.11,0.26,0.31,0.36,0.59,0.29c7.52-1.7,10.24-7.49,9.46-15.03
		C138.88,93.03,138.92,92.81,139.04,92.59"/>
	<path class="st1" d="M147.7,108.25h14.85c0.29,0,0.52-0.11,0.7-0.34c2.68-3.28,4.54-6.98,5.57-11.09c0.03-0.13-0.04-0.26-0.16-0.3
		c-0.11-0.04-0.25,0.01-0.31,0.12c-3.47,6.82-10.83,5.76-17.29,5.57c-0.25-0.01-0.43-0.12-0.56-0.34c-1.33-2.25-1.88-4.68-1.61-7.3
		c0.02-0.23-0.28-0.35-0.41-0.14c-2.09,3.35-4.24,9.71-1.62,13.39C147.06,108.11,147.35,108.25,147.7,108.25"/>
	<path class="st1" d="M202.61,95.1c-1.76,5.47-0.23,13.19,7.01,13.29c0.29,0.01,0.34-0.1,0.13-0.31c-3.14-3.14-2.05-9.13-0.85-12.9
		c0.07-0.21-0.09-0.42-0.31-0.42l-5.51-0.01C202.86,94.75,202.67,94.89,202.61,95.1"/>
	<path class="st1" d="M209.01,101.24c-0.86,3.93,1.64,8.1,6.06,7.04c5.54-1.33,6.74-6.97,6.31-11.86c-0.04-0.37-0.14-0.38-0.3-0.06
		c-1.97,3.79-5.03,5.88-9.19,6.29c-1.18,0.11-2.05-0.37-2.61-1.44C209.15,100.98,209.06,101,209.01,101.24"/>
	<path class="st1" d="M179.8,97.14l-0.3,17.36c-0.01,0.21,0.17,0.39,0.38,0.39l3.29,0.06c1.53,0.02,2.77-0.34,2.78-0.81l0.29-16.42
		c0.01-0.47-1.22-0.88-2.75-0.91l-3.29-0.05C179.98,96.76,179.81,96.93,179.8,97.14"/>
	<path class="st1" d="M253.29,98.06c0.01-0.28-0.2-0.51-0.48-0.52l-5.78-0.25c-0.28-0.01-0.51,0.2-0.52,0.48l-0.43,9.85
		c-0.01,0.28,0.2,0.51,0.48,0.52l5.78,0.25c0.28,0.01,0.51-0.2,0.52-0.48L253.29,98.06"/>
	<path class="st1" d="M225.5,110.03c5.46-0.75,10.95-1.46,10.42-8.65c-0.02-0.26-0.15-0.35-0.4-0.25c-3.73,1.49-7.57,2.6-11.54,3.31
		c-0.27,0.05-0.37,0.2-0.29,0.46l1.35,4.82C225.09,109.92,225.29,110.05,225.5,110.03"/>
</g>
<path d="M225.5,110.03c5.46-0.75,10.95-1.46,10.42-8.65c-0.02-0.26-0.15-0.35-0.4-0.25c-3.73,1.49-7.57,2.6-11.54,3.31
	c-0.27,0.05-0.37,0.2-0.29,0.46l1.35,4.82C225.09,109.92,225.29,110.05,225.5,110.03z M253.29,98.06c0.01-0.28-0.2-0.51-0.48-0.52
	l-5.78-0.25c-0.28-0.01-0.51,0.2-0.52,0.48l-0.43,9.85c-0.01,0.28,0.2,0.51,0.48,0.52l5.78,0.25c0.28,0.01,0.51-0.2,0.52-0.48
	L253.29,98.06 M179.8,97.14l-0.3,17.36c-0.01,0.21,0.17,0.39,0.38,0.39l3.29,0.06c1.53,0.02,2.77-0.34,2.78-0.81l0.29-16.42
	c0.01-0.47-1.22-0.88-2.75-0.91l-3.29-0.05C179.98,96.76,179.81,96.93,179.8,97.14 M209.01,101.24c-0.86,3.93,1.64,8.1,6.06,7.04
	c5.54-1.33,6.74-6.97,6.31-11.86c-0.04-0.37-0.14-0.38-0.3-0.06c-1.97,3.79-5.03,5.88-9.19,6.29c-1.18,0.11-2.05-0.37-2.61-1.44
	C209.15,100.98,209.06,101,209.01,101.24 M202.61,95.1c-1.76,5.47-0.23,13.19,7.01,13.29c0.29,0.01,0.34-0.1,0.13-0.31
	c-3.14-3.14-2.05-9.13-0.85-12.9c0.07-0.21-0.09-0.42-0.31-0.42l-5.51-0.01C202.86,94.75,202.67,94.89,202.61,95.1 M147.7,108.25
	h14.85c0.29,0,0.52-0.11,0.7-0.34c2.68-3.28,4.54-6.98,5.57-11.09c0.03-0.13-0.04-0.26-0.16-0.3c-0.11-0.04-0.25,0.01-0.31,0.12
	c-3.47,6.82-10.83,5.76-17.29,5.57c-0.25-0.01-0.43-0.12-0.56-0.34c-1.33-2.25-1.88-4.68-1.61-7.3c0.02-0.23-0.28-0.35-0.41-0.14
	c-2.09,3.35-4.24,9.71-1.62,13.39C147.06,108.11,147.35,108.25,147.7,108.25 M139.04,92.59c0.17-0.32,0.18-0.63,0.01-0.91
	c-0.16-0.26-0.31-0.25-0.42,0.03c-2.25,5.39-6.08,9.16-11.5,11.32c-0.28,0.1-0.35,0.29-0.23,0.56l1.96,4.43
	c0.11,0.26,0.31,0.36,0.59,0.29c7.52-1.7,10.24-7.49,9.46-15.03C138.88,93.03,138.92,92.81,139.04,92.59 M198.2,91.79
	c-2.12,4.36-5.04,8.91-9.68,10.82c-0.25,0.1-0.38,0.36-0.32,0.61l1.22,4.64c0.07,0.26,0.24,0.38,0.51,0.35
	c8.85-0.89,9.59-9.43,8.93-16.3C198.77,91.09,198.55,91.04,198.2,91.79 M120.58,90.41c-1.36,2.32-3.38,3.73-6.04,4.21
	c-0.26,0.05-0.4,0.21-0.39,0.48l0.06,5.66c0,0.24,0.12,0.35,0.36,0.32l5.96-0.77c0.28-0.04,0.41-0.2,0.41-0.47v-9.33
	C120.94,90.31,120.67,90.24,120.58,90.41 M246.92,94.01c4.22-0.62,6.46-0.46,9.13,0.16c0.25,0.05,0.37-0.05,0.37-0.29
	c0.02-6.26-4.94-7.02-10.17-5.68c-0.26,0.07-0.38,0.24-0.35,0.5l0.53,4.93C246.46,93.92,246.62,94.05,246.92,94.01 M255.52,88.04
	c3.42,5.36,2.53,13.54,2.48,19.8c-0.01,0.27,0.13,0.4,0.4,0.4h5.96c0.29,0,0.44-0.15,0.43-0.44c-0.03-3.83-0.05-7.66-0.07-11.48
	c-0.03-6.08-3.37-8.96-9.43-8.87c-0.26,0.01-0.32,0.12-0.2,0.35C255.16,87.95,255.3,88.02,255.52,88.04 M233.82,92.85l3.01,0.68
	c0.21,0.04,0.36,0.22,0.37,0.44c0.06,3.46,0.42,9.55-1.33,13.31c-0.08,0.19-0.03,0.25,0.16,0.21c9.68-2.26,7.2-10.9,7.8-18.29
	c0.07-0.92-0.69-1.7-1.61-1.62c-2.3,0.19-4.53,0.01-6.68-0.54c-0.33-0.08-0.54,0.04-0.62,0.37l-1.31,5.07
	C233.56,92.65,233.65,92.82,233.82,92.85 M225.55,93.84l2.08,7.91c0.09,0.35,0.45,0.55,0.8,0.46l5.19-1.44
	c0.34-0.1,0.43-0.3,0.27-0.61c-1.67-3.42-2.02-7.35-2.53-11.98c-0.03-0.25-0.17-0.38-0.42-0.41l-6.81-0.51
	c-0.22-0.02-0.35,0.07-0.41,0.29l-1.34,4.67c-0.07,0.28,0.09,0.56,0.37,0.64l2.47,0.67C225.4,93.57,225.5,93.67,225.55,93.84
	 M200.8,93.11c3.81,0.56,7.49,0.73,11.02,0.49c3.43-0.23,2.96,4.88,2.57,6.89c-0.05,0.23,0.18,0.42,0.4,0.33
	c4.32-1.78,9.06-8.93,3.04-12.11c-3.66-1.93-11.07-0.62-15.57-1.59c-0.29-0.07-0.48,0.04-0.55,0.34l-1.34,5
	C200.29,92.76,200.49,93.06,200.8,93.11 M192,94.35v3.95c0,0.52,0.17,0.58,0.5,0.19c2.6-3.07,4.64-6.49,6.1-10.25
	c0.11-0.28-0.11-0.57-0.4-0.55c-5.78,0.37-11.53,0.2-17.26-0.48c-0.19-0.02-0.31,0.06-0.36,0.25l-1.27,4.63
	c-0.17,0.65,0.3,1.28,0.97,1.31l11.14,0.35C191.74,93.74,192,94.01,192,94.35 M150.19,92.54c-0.04,0.16,0.05,0.33,0.22,0.37
	l2.44,0.61c0.16,0.05,0.25,0.2,0.22,0.36l-1.57,6.94c-0.04,0.2,0.1,0.38,0.3,0.37l5.01-0.09c0.14-0.01,0.26-0.1,0.29-0.24
	l2.61-12.23c0.04-0.17-0.07-0.34-0.25-0.36l-7.51-1.11c-0.15-0.02-0.29,0.08-0.33,0.22L150.19,92.54 M143.28,94.03
	c-0.83,3.49-1.09,6.32,1.03,9.96c0.14,0.23,0.2,0.21,0.21-0.05c0.18-5.86,3.05-10.08,5.41-15.01c0.14-0.28,0.05-0.45-0.26-0.5
	l-7.51-1.29c-0.26-0.05-0.5,0.11-0.57,0.36l-1.3,4.75c-0.07,0.26,0.09,0.54,0.35,0.61l2.31,0.62
	C143.24,93.55,143.35,93.74,143.28,94.03 M109.9,93.09c5.12,1.36,8.72-0.34,10.76-5.1c0.04-0.08-0.02-0.17-0.11-0.18l-9.68-0.5
	c-0.16-0.01-0.27,0.07-0.31,0.23l-1.22,4.59C109.23,92.54,109.49,92.98,109.9,93.09 M160.38,92.98l2.36,0.52
	c0.22,0.05,0.32,0.19,0.31,0.41c-0.11,2.46-0.9,4.67-2.36,6.64c-0.15,0.19,0.03,0.46,0.27,0.41c5.89-1.34,8.65-7.3,7.9-12.95
	c-0.04-0.32-0.22-0.46-0.53-0.43c-2.24,0.22-4.43,0.02-6.59-0.59c-0.28-0.08-0.45,0.01-0.52,0.29l-1.29,4.96
	C159.85,92.58,160.05,92.91,160.38,92.98 M132.23,94.02l-0.14,4.52c-0.01,0.38,0.12,0.44,0.38,0.16c2.92-3.02,5.08-6.52,6.46-10.49
	c0.07-0.2-0.08-0.4-0.28-0.4l-9.13-0.07c-0.23-0.01-0.37-0.12-0.4-0.35l-0.65-3.97c-0.04-0.28-0.32-0.47-0.59-0.4l-4.93,1.06
	c-0.21,0.04-0.31,0.18-0.3,0.4l0.46,8.85c0.01,0.2,0.12,0.31,0.32,0.31h8.38C132.1,93.62,132.23,93.76,132.23,94.02 M217.81,60.25
	l10.68,0.06c0.15,0,0.27-0.12,0.27-0.27l0.01-2.73c0.01-1.69-0.61-3.07-1.39-3.07l-8.41-0.05c-0.77,0-1.41,1.37-1.42,3.05
	l-0.02,2.73C217.54,60.13,217.66,60.25,217.81,60.25 M202.51,50.06c0.02-0.27-0.19-0.49-0.46-0.5l-5.81-0.29
	c-0.26-0.01-0.49,0.19-0.5,0.46l-0.5,9.89c-0.02,0.27,0.19,0.49,0.46,0.5l5.81,0.29c0.26,0.01,0.49-0.19,0.5-0.46L202.51,50.06
	 M153.56,49.38l-5.45-0.87c-0.25-0.04-0.42,0.06-0.5,0.29c-1.54,4.37-0.62,13.01-0.59,17.87c0,0.26,0.13,0.39,0.39,0.37l5.58-0.43
	c0.23-0.02,0.35-0.15,0.36-0.38c0.04-5.21-0.54-11.37,0.49-16.45C153.88,49.55,153.79,49.41,153.56,49.38 M307.51,48.42
	c-2.27,3.47-3.02,7.31-2.26,11.52c0.04,0.21,0.17,0.32,0.38,0.32h8.62c0.25,0,0.38-0.13,0.38-0.38V55.1c0-0.32-0.16-0.47-0.47-0.47
	h-1.69c-0.31,0-0.46-0.16-0.46-0.47v-1.67c0-0.27-0.1-0.49-0.29-0.68l-3.5-3.46C308.01,48.14,307.67,48.17,307.51,48.42
	 M78.56,54.25v-1.63c0-0.2-0.07-0.38-0.21-0.53l-3.46-3.68c-0.15-0.16-0.41-0.16-0.56-0.01c-2.73,2.74-3.14,7.88-2.52,11.4
	c0.05,0.3,0.23,0.45,0.54,0.45h8.46c0.25,0,0.38-0.13,0.38-0.38V55.1c0-0.32-0.16-0.47-0.47-0.47h-1.78
	C78.69,54.62,78.56,54.5,78.56,54.25 M296.14,47.27l-0.12,6.12c-0.02,0.65-0.57,1.15-1.22,1.09l-2.91-0.25
	c-0.22-0.02-0.34,0.07-0.38,0.29l-0.74,4.98c-0.04,0.27,0.07,0.43,0.35,0.5c4.25,1,11.9,1.72,11.91-4.82
	c0.01-2.64-0.01-5.32-0.07-8.04c-0.01-0.26-0.14-0.39-0.4-0.39h-5.9C296.33,46.75,296.15,46.92,296.14,47.27 M267.55,59.81
	c0.17-4.43-0.77-11.88-6.38-12.89c-0.28-0.05-0.41,0.06-0.41,0.34l0.07,12.55c0.01,0.31,0.17,0.46,0.47,0.46l5.82-0.05
	C267.4,60.21,267.54,60.07,267.55,59.81 M142.12,47.1c0-0.18-0.15-0.33-0.33-0.33h-6.12c-0.18,0-0.33,0.15-0.33,0.33v12.81
	c0,0.18,0.15,0.33,0.33,0.33h6.12c0.18,0,0.33-0.15,0.33-0.33V47.1 M56.56,46.91l-5.03-0.16c-0.28-0.01-0.49,0.11-0.61,0.38
	c-1.27,2.74-1.23,5.49,0.12,8.25c0.13,0.26,0.05,0.43-0.22,0.52l-2.71,0.85c-0.32,0.1-0.42,0.31-0.32,0.61l1.33,4.15
	c0.1,0.32,0.31,0.43,0.64,0.34l8.38-2.37c0.32-0.1,0.43-0.3,0.32-0.62c-1.47-4.22-2.77-7.81-1.49-11.36
	C57.06,47.21,56.86,46.92,56.56,46.91 M112.54,54.25c-0.23,0-0.41-0.19-0.41-0.41v-6.93c0-0.25-0.22-0.44-0.46-0.4l-5.74,0.78
	c-0.21,0.03-0.36,0.2-0.36,0.41v12.14c0,0.23,0.19,0.41,0.41,0.41h10.42c0.23,0,0.41-0.19,0.41-0.41v-5.17
	c0-0.23-0.19-0.41-0.41-0.41H112.54 M183.88,44.03c-2.31,5.25-6.11,8.93-11.38,11.05c-0.26,0.1-0.34,0.28-0.22,0.55l2.05,4.56
	c0.12,0.27,0.32,0.36,0.61,0.26c7.76-2.61,10.79-8.08,9.11-16.4C184.02,43.85,183.96,43.84,183.88,44.03 M165.78,43.29
	c-2.06,4.54-5.19,9.31-9.92,11.38c-0.26,0.11-0.35,0.3-0.28,0.58l1.25,4.64c0.05,0.2,0.25,0.33,0.46,0.31
	c4.62-0.53,7.45-2.94,8.51-7.21c0.71-2.9,0.82-6.12,0.33-9.65C166.1,43.15,165.85,43.12,165.78,43.29 M289.1,42.51
	c-1.4,2.29-3.39,3.64-5.97,4.07c-0.26,0.04-0.4,0.2-0.4,0.47l0.03,5.69c0.01,0.23,0.12,0.34,0.35,0.31l5.98-0.75
	c0.23-0.02,0.41-0.22,0.41-0.46v-9.22C289.5,42.4,289.21,42.32,289.1,42.51 M248.67,42.55c-3.95,5.15-5.99,10.98-6.12,17.5
	c-0.01,0.34,0.16,0.48,0.49,0.44l5.96-0.7c0.22-0.02,0.38-0.21,0.38-0.43V42.79C249.38,42.02,249.14,41.94,248.67,42.55
	 M69.03,41.93c-3.7,5.38-5.84,11.32-6.43,17.84c-0.02,0.26,0.18,0.47,0.43,0.47h5.95c0.27,0,0.4-0.13,0.4-0.4l0.01-17.8
	C69.4,41.85,69.14,41.77,69.03,41.93 M116.05,45.06c-1.18-6.03-8.46-6.08-13.1-4.33c-0.21,0.08-0.3,0.23-0.28,0.45l0.65,4.96
	c0.04,0.27,0.19,0.38,0.45,0.32c3.97-0.87,7.99-1.25,12.06-1.14C116.01,45.33,116.08,45.24,116.05,45.06 M205.63,45.82
	c0.01-6.29-5.61-7.18-10.37-5.59c-0.18,0.06-0.26,0.19-0.23,0.38l0.71,5c0.04,0.31,0.22,0.43,0.52,0.37
	c3.04-0.58,6.06-0.54,9.06,0.1C205.53,46.13,205.63,46.04,205.63,45.82 M267.61,50.55c0.65-12.38-6.7-12.17-16.21-10.42
	c-0.25,0.05-0.35,0.2-0.32,0.44l0.74,4.86c0.05,0.27,0.29,0.46,0.57,0.42c5.94-0.88,11.9-1.25,14.94,4.75
	C267.5,50.94,267.59,50.92,267.61,50.55 M213.97,59.77c-0.11-7.26,2.89-20.9-9.37-20.2c-0.16,0.01-0.19,0.08-0.1,0.21
	c3.55,5.11,2.85,13.75,2.66,20.02c-0.01,0.3,0.13,0.45,0.43,0.45h5.9C213.81,60.25,213.97,60.09,213.97,59.77 M124.1,45.69
	c-0.12-5.61-5.95-7.01-10.49-6.27c-0.29,0.05-0.31,0.15-0.05,0.29c5.74,3.31,4.39,14.34,4.37,20.11c-0.01,0.29,0.13,0.43,0.43,0.43
	h5.73c0.3,0,0.44-0.15,0.44-0.45C124.34,55.04,124.2,50.34,124.1,45.69 M293.86,39.51l-1.29,4.88c-0.08,0.29,0.03,0.47,0.32,0.54
	c3.19,0.76,6.42,0.96,9.7,0.61c0.28-0.03,0.41-0.19,0.41-0.47v-4.74c0-0.29-0.14-0.43-0.43-0.46l-8.35-0.63
	C294.03,39.23,293.91,39.32,293.86,39.51 M279.26,39.15c-0.56,1.73-1.02,3.49-1.36,5.28c-0.05,0.29,0.06,0.47,0.34,0.55
	c5.2,1.53,8.88-0.13,11.02-5c0.07-0.17-0.05-0.35-0.23-0.35c-3.34,0.15-6.58-0.02-9.72-0.52C279.28,39.12,279.26,39.14,279.26,39.15
	 M242.52,46.17l-0.01,5.08c0,0.71,0.11,0.73,0.34,0.05c1.34-4.07,3.38-7.75,6.14-11.03c0.11-0.13,0.02-0.32-0.14-0.34l-9.12-0.71
	c-0.22-0.02-0.35,0.08-0.4,0.29l-1.24,4.77c-0.1,0.37,0.04,0.6,0.41,0.68l3.74,0.85C242.43,45.87,242.52,45.99,242.52,46.17
	 M228.03,39.2l-1.42,4.87c-0.07,0.24,0.07,0.49,0.3,0.56c0.67,0.22,1.36,0.38,2.06,0.48c0.29,0.04,0.5,0.28,0.52,0.56l0.02,0.45
	c0.02,0.24,0.13,0.42,0.34,0.54l4.27,2.43c0.25,0.14,0.45,0.09,0.59-0.16c1.65-2.71,2.11-5.65,1.38-8.8
	c-0.05-0.23-0.19-0.34-0.42-0.34c-2.51,0.01-4.99-0.23-7.44-0.72C228.15,39.06,228.06,39.11,228.03,39.2 M218.62,45.86v4.47
	c0,0.33,0.17,0.51,0.49,0.55c5.75,0.55,12.47,1.63,10.74,8.87c-0.06,0.26,0.13,0.5,0.4,0.5h5.6c0.25,0,0.42-0.12,0.49-0.37
	c2.23-7.73-4.47-12.08-11.17-13.1c-0.21-0.03-0.37-0.21-0.37-0.42v-6.12c0-0.22-0.11-0.34-0.33-0.36l-7.27-0.68
	c-0.25-0.02-0.4,0.09-0.46,0.32l-1.31,4.82c-0.07,0.27,0.1,0.54,0.37,0.6l2.47,0.51C218.51,45.5,218.62,45.63,218.62,45.86
	 M159.4,46.1v4.2c0,0.52,0.16,0.58,0.5,0.18c2.6-3.15,4.66-6.63,6.19-10.44c0.11-0.28,0.01-0.4-0.28-0.38
	c-5.87,0.39-11.73,0.25-17.57-0.43c-0.18-0.02-0.35,0.1-0.39,0.28l-1.18,4.84c-0.07,0.26,0.03,0.44,0.29,0.54
	c3.48,1.28,8.31,0.74,11.96,0.74C159.19,45.62,159.4,45.83,159.4,46.1 M68.82,39.78c-6.05,0.06-12.64,0.47-18.58-0.68
	c-0.29-0.05-0.47,0.06-0.55,0.35l-1.28,4.84c-0.07,0.23,0.01,0.4,0.24,0.49c3.96,1.5,10.01,0.82,13.59,0.85
	c0.21,0.01,0.38,0.17,0.38,0.38v6.35c0,0.09,0.07,0.17,0.16,0.18c0.1,0.01,0.18-0.04,0.2-0.13c1.13-4.52,3.14-8.6,6.02-12.23
	C69.22,39.92,69.16,39.78,68.82,39.78 M317.6,39.05l-1.48,4.87c-0.08,0.28,0.01,0.46,0.29,0.55l2.99,0.95
	c0.27,0.08,0.36,0.26,0.28,0.52l-0.44,1.39c-0.09,0.28-0.03,0.53,0.18,0.74l3.2,3.2c0.15,0.15,0.39,0.15,0.55,0
	c3.02-2.86,3.33-7.26,3.07-11.16c-0.02-0.27-0.17-0.4-0.43-0.39c-2.69,0.1-5.34-0.17-7.94-0.81
	C317.74,38.88,317.63,38.94,317.6,39.05 M145.04,39.71c-4.92,0.17-11.9,0.48-17.26-0.66c-0.25-0.05-0.4,0.04-0.47,0.29l-1.29,4.96
	c-0.07,0.25,0.06,0.52,0.31,0.61c4.12,1.64,13.31,0.74,17.98,0.68c0.2-0.01,0.38-0.16,0.4-0.36l0.71-5.1
	C145.43,39.91,145.26,39.71,145.04,39.71 M86.28,45.96l-0.45,1.18c-0.1,0.27-0.06,0.51,0.14,0.73l3.11,3.37
	c0.26,0.28,0.71,0.25,0.94-0.05c2.41-3.2,3.31-6.83,2.68-10.9c-0.03-0.2-0.14-0.31-0.35-0.33l-7.9-0.89
	c-0.18-0.02-0.29,0.05-0.35,0.22l-1.4,4.56c-0.1,0.32,0.02,0.54,0.34,0.65l2.99,0.96C86.3,45.53,86.38,45.7,86.28,45.96
	 M309.76,38.73l-4.51,2.43c-0.2,0.11-0.26,0.27-0.18,0.49c0.66,1.69,1.42,3.01,2.27,3.96c2.96,3.31,7.78,8.35,14.46,15.11
	c0.2,0.2,0.4,0.21,0.61,0.01l3.74-3.52c0.16-0.14,0.16-0.39,0.01-0.54c-5.27-5.58-11.58-11.21-15.64-17.74
	C310.35,38.63,310.09,38.56,309.76,38.73 M71.74,42.39c4.54,6.68,11.45,13.14,16.6,18.36c0.2,0.2,0.4,0.21,0.62,0.01l3.82-3.56
	c0.2-0.19,0.2-0.38,0.02-0.56c-5.35-5.57-11.67-11.26-15.77-17.81c-0.12-0.2-0.38-0.27-0.58-0.16l-4.37,2.34
	C71.57,41.27,71.42,41.92,71.74,42.39 M183.76,39.71l-8.83-0.07c-0.27-0.01-0.43-0.14-0.47-0.4L174,35.81
	c-0.07-0.49-0.53-0.81-1.01-0.71l-4.75,0.97c-0.17,0.04-0.25,0.14-0.25,0.32l0.52,8.92c0.01,0.22,0.13,0.33,0.35,0.33l8.26-0.01
	c0.28,0,0.5,0.23,0.49,0.5l-0.16,4.55c-0.01,0.26,0.08,0.3,0.27,0.11c2.95-2.96,5.12-6.43,6.53-10.39
	C184.37,40.07,184.12,39.71,183.76,39.71 M362.99,123.34c0,4.1-3.32,7.41-7.41,7.41H19.42c-4.09,0-7.41-3.32-7.41-7.41V25.66
	c0-4.1,3.32-7.41,7.41-7.41h336.16c4.1,0,7.41,3.32,7.41,7.41V123.34"/>
<path class="st2" d="M183.76,39.71c0.36,0,0.61,0.35,0.49,0.69c-1.41,3.96-3.58,7.43-6.53,10.39c-0.19,0.19-0.28,0.15-0.27-0.11
	l0.16-4.55c0.01-0.28-0.21-0.5-0.49-0.5l-8.26,0.01c-0.22,0-0.34-0.11-0.35-0.33l-0.52-8.92c-0.01-0.17,0.07-0.28,0.25-0.32
	l4.75-0.97c0.48-0.1,0.95,0.22,1.01,0.71l0.46,3.43c0.04,0.26,0.2,0.4,0.47,0.4L183.76,39.71z"/>
<path class="st2" d="M88.33,60.75c-5.14-5.22-12.06-11.68-16.6-18.36c-0.32-0.47-0.17-1.12,0.34-1.39l4.37-2.34
	c0.2-0.11,0.46-0.05,0.58,0.16c4.1,6.56,10.42,12.24,15.77,17.81c0.19,0.19,0.18,0.38-0.02,0.56l-3.82,3.56
	C88.74,60.96,88.54,60.96,88.33,60.75z"/>
<path class="st2" d="M309.76,38.73c0.32-0.17,0.58-0.1,0.78,0.2c4.06,6.52,10.37,12.16,15.64,17.74c0.15,0.15,0.14,0.4-0.01,0.54
	l-3.74,3.52c-0.21,0.2-0.41,0.19-0.61-0.01c-6.68-6.76-11.5-11.8-14.46-15.11c-0.85-0.95-1.61-2.27-2.27-3.96
	c-0.08-0.22-0.02-0.38,0.18-0.49L309.76,38.73z"/>
<path class="st2" d="M86.04,45.44l-2.99-0.96c-0.32-0.1-0.43-0.32-0.34-0.65l1.4-4.56c0.05-0.17,0.17-0.25,0.35-0.22l7.9,0.89
	c0.2,0.02,0.32,0.13,0.35,0.33c0.62,4.07-0.28,7.7-2.68,10.9c-0.23,0.31-0.68,0.33-0.94,0.05l-3.11-3.37
	c-0.19-0.22-0.24-0.46-0.14-0.73l0.45-1.18C86.38,45.7,86.3,45.53,86.04,45.44z"/>
<path class="st2" d="M127.77,39.06c5.37,1.14,12.35,0.82,17.26,0.66c0.22-0.01,0.4,0.2,0.37,0.42l-0.71,5.1
	c-0.03,0.2-0.2,0.35-0.4,0.36c-4.66,0.06-13.85,0.97-17.98-0.68c-0.25-0.1-0.38-0.36-0.31-0.61l1.29-4.96
	C127.37,39.1,127.52,39,127.77,39.06z"/>
<path class="st2" d="M317.6,39.05c0.04-0.1,0.14-0.17,0.25-0.14c2.6,0.64,5.25,0.91,7.94,0.81c0.27-0.01,0.41,0.12,0.43,0.39
	c0.26,3.9-0.05,8.3-3.07,11.16c-0.16,0.15-0.4,0.15-0.55,0l-3.2-3.2c-0.21-0.21-0.27-0.46-0.18-0.74l0.44-1.39
	c0.08-0.26-0.01-0.44-0.28-0.52l-2.99-0.95c-0.28-0.09-0.38-0.27-0.29-0.55L317.6,39.05z"/>
<path class="st2" d="M50.24,39.11c5.94,1.15,12.53,0.74,18.58,0.68c0.34,0,0.4,0.13,0.19,0.4c-2.88,3.64-4.89,7.71-6.02,12.23
	c-0.02,0.09-0.11,0.15-0.2,0.13c-0.09-0.01-0.16-0.09-0.16-0.18v-6.35c0-0.21-0.17-0.38-0.38-0.38c-3.58-0.04-9.63,0.65-13.59-0.85
	c-0.23-0.09-0.31-0.26-0.24-0.49l1.28-4.84C49.77,39.17,49.95,39.06,50.24,39.11z"/>
<path class="st2" d="M159.4,46.1c-0.01-0.27-0.22-0.48-0.49-0.48c-3.65-0.01-8.48,0.53-11.96-0.74c-0.25-0.1-0.35-0.28-0.29-0.54
	l1.18-4.84c0.04-0.18,0.21-0.3,0.39-0.28c5.84,0.68,11.7,0.82,17.57,0.43c0.29-0.02,0.39,0.1,0.28,0.38
	c-1.52,3.81-3.59,7.29-6.19,10.44c-0.34,0.4-0.5,0.34-0.5-0.18V46.1z"/>
<path class="st2" d="M218.29,45.45l-2.47-0.51c-0.27-0.06-0.44-0.33-0.37-0.6l1.31-4.82c0.06-0.23,0.21-0.35,0.46-0.32l7.27,0.68
	c0.22,0.02,0.33,0.14,0.33,0.36v6.12c0,0.21,0.16,0.39,0.37,0.42c6.7,1.02,13.4,5.37,11.17,13.1c-0.08,0.25-0.24,0.37-0.49,0.37
	h-5.6c-0.26,0-0.46-0.25-0.4-0.5c1.73-7.24-4.99-8.32-10.74-8.87c-0.33-0.04-0.49-0.22-0.49-0.55v-4.47
	C218.62,45.63,218.51,45.5,218.29,45.45z"/>
<path class="st2" d="M228.03,39.2c0.03-0.09,0.12-0.14,0.21-0.13c2.44,0.5,4.93,0.74,7.44,0.72c0.23,0,0.37,0.11,0.42,0.34
	c0.73,3.16,0.27,6.09-1.38,8.8c-0.14,0.25-0.35,0.3-0.59,0.16l-4.27-2.43c-0.21-0.12-0.32-0.3-0.34-0.54l-0.02-0.45
	c-0.01-0.29-0.23-0.52-0.52-0.56c-0.71-0.1-1.39-0.26-2.06-0.48c-0.23-0.07-0.37-0.32-0.3-0.56L228.03,39.2z"/>
<path class="st2" d="M242.24,45.83l-3.74-0.85c-0.37-0.08-0.51-0.32-0.41-0.68l1.24-4.77c0.05-0.21,0.19-0.31,0.4-0.29l9.12,0.71
	c0.16,0.01,0.26,0.21,0.14,0.34c-2.76,3.28-4.81,6.95-6.14,11.03c-0.22,0.68-0.34,0.66-0.34-0.05l0.01-5.08
	C242.52,45.99,242.43,45.87,242.24,45.83z"/>
<path class="st2" d="M279.26,39.15c0.01-0.01,0.02-0.03,0.04-0.03c3.14,0.5,6.38,0.67,9.72,0.52c0.18-0.01,0.31,0.18,0.23,0.35
	c-2.14,4.87-5.81,6.53-11.02,5c-0.28-0.08-0.39-0.26-0.34-0.55C278.24,42.64,278.69,40.88,279.26,39.15z"/>
<path class="st2" d="M293.86,39.51c0.05-0.19,0.17-0.28,0.37-0.26l8.35,0.63c0.28,0.02,0.43,0.17,0.43,0.46v4.74
	c0,0.28-0.14,0.44-0.41,0.47c-3.28,0.35-6.51,0.15-9.7-0.61c-0.29-0.07-0.4-0.25-0.32-0.54L293.86,39.51z"/>
<path class="st2" d="M113.61,39.42c4.54-0.74,10.37,0.66,10.49,6.27c0.1,4.65,0.24,9.35,0.42,14.11c0.01,0.3-0.13,0.45-0.44,0.45
	h-5.73c-0.29,0-0.43-0.14-0.43-0.43c0.01-5.77,1.36-16.8-4.37-20.11C113.3,39.57,113.32,39.48,113.61,39.42z"/>
<path class="st2" d="M213.49,60.25h-5.9c-0.3,0-0.44-0.15-0.43-0.45c0.19-6.27,0.9-14.91-2.66-20.02c-0.09-0.13-0.05-0.2,0.1-0.21
	c12.26-0.7,9.26,12.94,9.37,20.2C213.97,60.09,213.81,60.25,213.49,60.25z"/>
<path class="st2" d="M251.4,40.13c9.51-1.75,16.86-1.96,16.21,10.42c-0.02,0.37-0.11,0.39-0.28,0.06c-3.04-6-9-5.63-14.94-4.75
	c-0.28,0.04-0.52-0.15-0.57-0.42l-0.74-4.86C251.05,40.33,251.15,40.18,251.4,40.13z"/>
<path class="st2" d="M195.26,40.23c4.76-1.6,10.38-0.71,10.37,5.59c0,0.22-0.1,0.31-0.32,0.26c-3-0.65-6.02-0.68-9.06-0.1
	c-0.3,0.06-0.47-0.06-0.52-0.37l-0.71-5C195.01,40.42,195.08,40.29,195.26,40.23z"/>
<path class="st2" d="M102.94,40.73c4.64-1.76,11.93-1.7,13.1,4.33c0.04,0.18-0.04,0.27-0.23,0.26c-4.07-0.11-8.08,0.27-12.06,1.14
	c-0.26,0.06-0.41-0.04-0.45-0.32l-0.65-4.96C102.65,40.96,102.74,40.81,102.94,40.73z"/>
<path class="st2" d="M69.03,41.93c0.11-0.16,0.37-0.08,0.37,0.11l-0.01,17.8c0,0.27-0.14,0.4-0.4,0.4h-5.95
	c-0.26,0-0.46-0.22-0.43-0.47C63.19,53.26,65.33,47.31,69.03,41.93z"/>
<path class="st2" d="M248.67,42.55c0.47-0.61,0.71-0.53,0.71,0.24v16.57c0,0.22-0.16,0.4-0.38,0.43l-5.96,0.7
	c-0.33,0.04-0.49-0.11-0.49-0.44C242.68,53.53,244.72,47.69,248.67,42.55z"/>
<path class="st2" d="M289.5,42.62v9.22c0,0.24-0.18,0.44-0.41,0.46l-5.98,0.75c-0.23,0.02-0.35-0.08-0.35-0.31l-0.03-5.69
	c0-0.27,0.13-0.43,0.4-0.47c2.58-0.43,4.57-1.79,5.97-4.07C289.21,42.32,289.5,42.4,289.5,42.62z"/>
<path class="st2" d="M166.12,43.33c0.49,3.53,0.38,6.75-0.33,9.65c-1.06,4.27-3.89,6.68-8.51,7.21c-0.21,0.02-0.4-0.1-0.46-0.31
	l-1.25-4.64c-0.07-0.28,0.01-0.46,0.28-0.58c4.73-2.08,7.86-6.84,9.92-11.38C165.85,43.12,166.1,43.15,166.12,43.33z"/>
<path class="st2" d="M184.06,44.05c1.68,8.32-1.36,13.79-9.11,16.4c-0.28,0.1-0.49,0.01-0.61-0.26l-2.05-4.56
	c-0.12-0.26-0.05-0.44,0.22-0.55c5.27-2.12,9.07-5.8,11.38-11.05C183.96,43.84,184.02,43.85,184.06,44.05z"/>
<path class="st2" d="M112.54,54.25h3.86c0.23,0,0.41,0.19,0.41,0.41v5.17c0,0.23-0.19,0.41-0.41,0.41h-10.42
	c-0.23,0-0.41-0.19-0.41-0.41V47.69c0-0.21,0.15-0.38,0.36-0.41l5.74-0.78c0.25-0.04,0.46,0.16,0.46,0.4v6.93
	C112.12,54.06,112.31,54.25,112.54,54.25z"/>
<path class="st2" d="M51.53,46.75l5.03,0.16c0.3,0.01,0.5,0.31,0.4,0.59c-1.27,3.55,0.02,7.14,1.49,11.36
	c0.11,0.32,0.01,0.52-0.32,0.62l-8.38,2.37c-0.32,0.1-0.54-0.01-0.64-0.34l-1.33-4.15c-0.1-0.31,0.01-0.52,0.32-0.61l2.71-0.85
	c0.27-0.09,0.35-0.26,0.22-0.52c-1.35-2.76-1.39-5.51-0.12-8.25C51.04,46.86,51.25,46.74,51.53,46.75z"/>
<path class="st2" d="M142.12,59.91c0,0.18-0.15,0.33-0.33,0.33h-6.12c-0.18,0-0.33-0.15-0.33-0.33V47.1c0-0.18,0.15-0.33,0.33-0.33
	h6.12c0.18,0,0.33,0.15,0.33,0.33V59.91z"/>
<path class="st2" d="M261.17,46.92c5.6,1.01,6.54,8.47,6.38,12.89c-0.01,0.26-0.15,0.4-0.42,0.4l-5.82,0.05
	c-0.31,0.01-0.46-0.15-0.47-0.46l-0.07-12.55C260.76,46.98,260.89,46.86,261.17,46.92z"/>
<path class="st2" d="M296.67,46.75h5.9c0.26,0,0.4,0.13,0.4,0.39c0.05,2.72,0.07,5.4,0.07,8.04c-0.01,6.54-7.66,5.83-11.91,4.82
	c-0.27-0.07-0.38-0.23-0.35-0.5l0.74-4.98c0.04-0.22,0.16-0.32,0.38-0.29l2.91,0.25c0.65,0.06,1.21-0.44,1.22-1.09l0.12-6.12
	C296.15,46.92,296.33,46.75,296.67,46.75z"/>
<path class="st2" d="M78.94,54.62h1.78c0.31,0,0.47,0.16,0.47,0.47v4.78c0,0.25-0.13,0.38-0.38,0.38h-8.46
	c-0.31,0-0.49-0.15-0.54-0.45c-0.61-3.52-0.21-8.66,2.52-11.4c0.16-0.16,0.41-0.15,0.56,0.01l3.46,3.68
	c0.14,0.14,0.21,0.32,0.21,0.53v1.63C78.56,54.5,78.69,54.62,78.94,54.62z"/>
<path class="st2" d="M307.51,48.42c0.16-0.24,0.5-0.28,0.7-0.08l3.5,3.46c0.19,0.19,0.29,0.41,0.29,0.68v1.67
	c0,0.32,0.16,0.47,0.46,0.47h1.69c0.32,0,0.47,0.16,0.47,0.47v4.78c0,0.25-0.13,0.38-0.38,0.38h-8.62c-0.22,0-0.35-0.1-0.38-0.32
	C304.49,55.73,305.24,51.89,307.51,48.42z"/>
<path class="st2" d="M153.56,49.38c0.23,0.04,0.32,0.17,0.28,0.4c-1.03,5.08-0.45,11.24-0.49,16.45c-0.01,0.23-0.13,0.36-0.36,0.38
	l-5.58,0.43c-0.26,0.02-0.39-0.11-0.39-0.37c-0.03-4.86-0.95-13.5,0.59-17.87c0.08-0.23,0.25-0.33,0.5-0.29L153.56,49.38z"/>
<path class="st2" d="M202.01,59.94c-0.02,0.26-0.24,0.46-0.5,0.46l-5.81-0.29c-0.26-0.01-0.47-0.24-0.46-0.5l0.5-9.89
	c0.02-0.26,0.24-0.46,0.5-0.46l5.81,0.29c0.26,0.01,0.47,0.24,0.46,0.5L202.01,59.94z"/>
<path class="st2" d="M217.81,60.25c-0.15,0-0.27-0.12-0.27-0.27l0.02-2.73c0.01-1.69,0.64-3.05,1.42-3.05l8.41,0.05
	c0.77,0,1.4,1.38,1.39,3.07l-0.01,2.73c0,0.15-0.12,0.27-0.27,0.27L217.81,60.25z"/>
<path class="st2" d="M131.83,93.62h-8.38c-0.2,0-0.32-0.11-0.32-0.31l-0.46-8.85c-0.01-0.22,0.09-0.35,0.3-0.4l4.93-1.06
	c0.27-0.06,0.54,0.13,0.59,0.4l0.65,3.97c0.04,0.23,0.17,0.34,0.4,0.35l9.13,0.07c0.2,0,0.35,0.2,0.28,0.4
	c-1.39,3.97-3.55,7.47-6.46,10.49c-0.26,0.28-0.39,0.23-0.38-0.16l0.14-4.52C132.23,93.76,132.1,93.62,131.83,93.62z"/>
<path class="st2" d="M160.38,92.98c-0.33-0.07-0.53-0.4-0.45-0.74l1.29-4.96c0.07-0.28,0.24-0.38,0.52-0.29
	c2.15,0.61,4.35,0.8,6.59,0.59c0.31-0.03,0.49,0.11,0.53,0.43c0.76,5.65-2.01,11.61-7.9,12.95c-0.24,0.05-0.42-0.22-0.27-0.41
	c1.46-1.97,2.25-4.18,2.36-6.64c0.02-0.23-0.09-0.36-0.31-0.41L160.38,92.98z"/>
<path class="st2" d="M109.9,93.09c-0.42-0.11-0.68-0.55-0.56-0.97l1.22-4.59c0.04-0.16,0.14-0.23,0.31-0.23l9.68,0.5
	c0.09,0.01,0.15,0.1,0.11,0.18C118.62,92.76,115.03,94.45,109.9,93.09z"/>
<path class="st2" d="M142.95,93.47l-2.31-0.62c-0.26-0.07-0.42-0.35-0.35-0.61l1.3-4.75c0.07-0.25,0.32-0.4,0.57-0.36l7.51,1.29
	c0.31,0.05,0.4,0.22,0.26,0.5c-2.36,4.93-5.24,9.15-5.41,15.01c-0.01,0.26-0.07,0.29-0.21,0.05c-2.11-3.65-1.86-6.47-1.03-9.96
	C143.35,93.74,143.24,93.55,142.95,93.47z"/>
<path class="st2" d="M150.19,92.54l1.43-5.17c0.04-0.14,0.18-0.24,0.33-0.22l7.51,1.11c0.17,0.02,0.28,0.19,0.25,0.36l-2.61,12.23
	c-0.03,0.13-0.15,0.23-0.29,0.24l-5.01,0.09c-0.2,0.01-0.34-0.17-0.3-0.37l1.57-6.94c0.04-0.16-0.06-0.32-0.22-0.36l-2.44-0.61
	C150.25,92.87,150.15,92.7,150.19,92.54z"/>
<path class="st2" d="M192,94.35c0-0.34-0.26-0.61-0.6-0.61l-11.14-0.35c-0.67-0.02-1.14-0.66-0.97-1.31l1.27-4.63
	c0.05-0.19,0.17-0.27,0.36-0.25c5.74,0.68,11.49,0.85,17.26,0.48c0.29-0.02,0.51,0.28,0.4,0.55c-1.46,3.76-3.49,7.19-6.1,10.25
	c-0.34,0.39-0.5,0.33-0.5-0.19V94.35z"/>
<path class="st2" d="M200.8,93.11c-0.31-0.04-0.52-0.35-0.43-0.66l1.34-5c0.07-0.29,0.26-0.4,0.55-0.34
	c4.5,0.97,11.91-0.34,15.57,1.59c6.01,3.18,1.28,10.34-3.04,12.11c-0.22,0.09-0.44-0.1-0.4-0.33c0.4-2,0.86-7.12-2.57-6.89
	C208.29,93.83,204.62,93.67,200.8,93.11z"/>
<path class="st2" d="M225.22,93.52l-2.47-0.67c-0.28-0.08-0.44-0.36-0.37-0.64l1.34-4.67c0.06-0.21,0.2-0.31,0.41-0.29l6.81,0.51
	c0.25,0.02,0.39,0.16,0.42,0.41c0.51,4.63,0.86,8.56,2.53,11.98c0.16,0.32,0.07,0.52-0.27,0.61l-5.19,1.44
	c-0.35,0.1-0.71-0.11-0.8-0.46l-2.08-7.91C225.5,93.67,225.4,93.57,225.22,93.52z"/>
<path class="st2" d="M236.83,93.54l-3.01-0.68c-0.17-0.04-0.26-0.2-0.23-0.36l1.31-5.07c0.08-0.33,0.29-0.45,0.62-0.37
	c2.15,0.55,4.38,0.73,6.68,0.54c0.92-0.08,1.69,0.7,1.61,1.62c-0.6,7.39,1.88,16.02-7.8,18.29c-0.2,0.04-0.25-0.02-0.16-0.21
	c1.75-3.76,1.39-9.85,1.33-13.31C237.19,93.76,237.04,93.58,236.83,93.54z"/>
<path class="st2" d="M255.52,88.04c-0.22-0.02-0.36-0.1-0.43-0.24c-0.12-0.22-0.05-0.34,0.2-0.35c6.06-0.09,9.4,2.79,9.43,8.87
	c0.02,3.82,0.04,7.65,0.07,11.48c0.01,0.29-0.14,0.44-0.43,0.44h-5.96c-0.27,0-0.4-0.13-0.4-0.4
	C258.04,101.59,258.94,93.4,255.52,88.04z"/>
<path class="st2" d="M256.06,94.17c-2.68-0.62-4.91-0.78-9.13-0.16c-0.3,0.04-0.47-0.08-0.5-0.39l-0.53-4.93
	c-0.02-0.26,0.09-0.43,0.35-0.5c5.23-1.33,10.18-0.57,10.17,5.68C256.42,94.12,256.3,94.22,256.06,94.17z"/>
<path class="st2" d="M120.58,90.41c0.1-0.17,0.36-0.1,0.36,0.1v9.33c0,0.28-0.13,0.43-0.41,0.47l-5.96,0.77
	c-0.24,0.03-0.36-0.07-0.36-0.32l-0.06-5.66c-0.01-0.27,0.13-0.43,0.39-0.48C117.2,94.13,119.22,92.72,120.58,90.41z"/>
<path class="st2" d="M198.2,91.79c0.36-0.74,0.58-0.7,0.66,0.12c0.65,6.87-0.08,15.4-8.93,16.3c-0.27,0.02-0.44-0.09-0.51-0.35
	l-1.22-4.64c-0.07-0.25,0.07-0.52,0.32-0.61C193.15,100.7,196.07,96.14,198.2,91.79z"/>
<path class="st2" d="M138.9,93.28c0.78,7.54-1.93,13.33-9.46,15.03c-0.28,0.07-0.47-0.03-0.59-0.29l-1.96-4.43
	c-0.12-0.27-0.04-0.46,0.23-0.56c5.42-2.15,9.25-5.92,11.5-11.32c0.11-0.29,0.25-0.29,0.42-0.03c0.17,0.28,0.17,0.59-0.01,0.91
	C138.92,92.81,138.88,93.03,138.9,93.28z"/>
<path class="st2" d="M146.85,107.82c-2.62-3.68-0.47-10.04,1.62-13.39c0.13-0.2,0.43-0.09,0.41,0.14c-0.26,2.62,0.28,5.05,1.61,7.3
	c0.13,0.22,0.32,0.33,0.56,0.34c6.46,0.2,13.82,1.25,17.29-5.57c0.06-0.11,0.2-0.16,0.31-0.12c0.12,0.05,0.19,0.17,0.16,0.3
	c-1.03,4.11-2.89,7.81-5.57,11.09c-0.18,0.23-0.41,0.34-0.7,0.34H147.7C147.35,108.25,147.06,108.11,146.85,107.82z"/>
<path class="st2" d="M209.62,108.38c-7.24-0.1-8.77-7.82-7.01-13.29c0.06-0.2,0.26-0.35,0.47-0.35l5.51,0.01
	c0.22,0,0.38,0.21,0.31,0.42c-1.21,3.77-2.29,9.76,0.85,12.9C209.96,108.29,209.91,108.39,209.62,108.38z"/>
<path class="st2" d="M215.07,108.28c-4.42,1.07-6.92-3.11-6.06-7.04c0.05-0.25,0.14-0.26,0.26-0.04c0.56,1.07,1.43,1.55,2.61,1.44
	c4.16-0.4,7.22-2.5,9.19-6.29c0.17-0.32,0.26-0.31,0.3,0.06C221.81,101.31,220.61,106.95,215.07,108.28z"/>
<path class="st2" d="M179.8,97.14c0.01-0.21,0.18-0.38,0.39-0.38l3.29,0.05c1.53,0.03,2.76,0.43,2.75,0.91l-0.29,16.42
	c-0.01,0.47-1.25,0.83-2.78,0.81l-3.29-0.06c-0.21,0-0.38-0.18-0.38-0.39L179.8,97.14z"/>
<path class="st2" d="M252.86,107.91c-0.01,0.28-0.25,0.49-0.52,0.48l-5.78-0.25c-0.28-0.01-0.49-0.24-0.48-0.52l0.43-9.85
	c0.01-0.28,0.25-0.49,0.52-0.48l5.78,0.25c0.28,0.01,0.49,0.24,0.48,0.52L252.86,107.91z"/>
<path class="st2" d="M235.92,101.37c0.53,7.19-4.96,7.9-10.42,8.65c-0.21,0.02-0.41-0.1-0.47-0.31l-1.35-4.82
	c-0.08-0.26,0.02-0.42,0.29-0.46c3.97-0.71,7.81-1.82,11.54-3.31C235.77,101.03,235.9,101.11,235.92,101.37z"/>
</svg>
