<?xml version="1.0" encoding="utf-8"?>
<!-- Generator: Adobe Illustrator 27.7.0, SVG Export Plug-In . SVG Version: 6.00 Build 0)  -->
<svg version="1.1" id="Layer_1" xmlns="http://www.w3.org/2000/svg" xmlns:xlink="http://www.w3.org/1999/xlink" x="0px" y="0px"
	 viewBox="0 0 375 96.69" style="enable-background:new 0 0 375 96.69;" xml:space="preserve">
<style type="text/css">
	.st0{fill:none;stroke:#808080;stroke-width:0;stroke-miterlimit:10;}
	.st1{fill:none;stroke:#726254;stroke-width:0;stroke-miterlimit:10;}
	.st2{fill:#E3C4A8;}
</style>
<g>
	<path class="st0" d="M337.46,27.31c0-3.91-3.17-7.07-7.07-7.07H44.61c-3.91,0-7.07,3.16-7.07,7.07v41.39
		c0,3.91,3.17,7.07,7.07,7.07h285.78c3.91,0,7.07-3.16,7.07-7.07V27.31"/>
	<path class="st1" d="M125.27,37.25l-9.12-0.14c-0.19,0-0.31-0.1-0.34-0.29l-0.68-3.93c-0.05-0.32-0.25-0.45-0.57-0.38l-4.95,1.06
		c-0.23,0.05-0.35,0.2-0.33,0.43l0.52,8.81c0.01,0.21,0.12,0.32,0.33,0.32h8.29c0.32,0,0.49,0.17,0.48,0.49l-0.11,4.4
		c-0.01,0.37,0.12,0.42,0.38,0.16c2.95-2.99,5.09-6.46,6.44-10.43C125.69,37.49,125.52,37.25,125.27,37.25"/>
	<path class="st1" d="M230.89,53.02c-4.89-5.34-10.75-10.48-14.54-16.66c-0.15-0.25-0.35-0.3-0.61-0.17l-4.65,2.48
		c-0.25,0.13-0.31,0.33-0.19,0.58c0.91,1.93,2.09,3.68,3.55,5.24c4.36,4.66,8.78,9.26,13.27,13.82c0.17,0.16,0.33,0.16,0.5,0.01
		l3.86-3.58c0.16-0.15,0.19-0.32,0.07-0.51C231.83,53.66,231.14,53.3,230.89,53.02"/>
	<path class="st1" d="M186.34,37.09c-5.67,0.29-13.3,1.01-18.76-0.61c-0.23-0.07-0.38,0.01-0.45,0.26l-1.25,4.66
		c-0.16,0.59,0.05,0.98,0.65,1.13c4.07,1.12,8.86,0.52,13.12,0.65c0.2,0.01,0.35,0.16,0.35,0.36v6.34c0,0.1,0.08,0.19,0.18,0.2
		c0.1,0.01,0.19-0.05,0.22-0.15c1.1-4.62,3.14-8.76,6.15-12.42C186.69,37.33,186.56,37.07,186.34,37.09"/>
	<path class="st1" d="M225.59,43.46l-0.61,1.27c-0.11,0.22-0.07,0.47,0.1,0.64l3.47,3.45c0.27,0.26,0.52,0.25,0.74-0.06
		c2.41-3.31,3.32-7.02,2.74-11.15c-0.04-0.28-0.19-0.4-0.47-0.39c-2.55,0.11-5.05-0.16-7.51-0.81c-0.26-0.07-0.53,0.08-0.61,0.34
		l-1.46,4.58c-0.1,0.28,0.07,0.6,0.36,0.69l3.01,0.92C225.64,43.02,225.72,43.2,225.59,43.46"/>
	<path class="st1" d="M237.99,43.65l-0.02,5.4c0,0.08,0.05,0.14,0.12,0.14c0.07,0.01,0.14-0.03,0.16-0.1
		c1.27-3.92,3.19-7.51,5.77-10.77c0.71-0.89,0.49-1.29-0.64-1.22c-2.74,0.19-5.44,0-8.1-0.55c-0.22-0.04-0.35,0.04-0.41,0.26
		l-1.31,4.99c-0.1,0.38,0.04,0.6,0.42,0.68l3.73,0.83C237.91,43.35,238,43.46,237.99,43.65"/>
	<path class="st1" d="M138.36,37.1c-2.78,0.29-5.77,0.12-9.31-0.49c-0.26-0.04-0.41,0.07-0.48,0.32l-1.22,4.69
		c-0.11,0.4,0.13,0.83,0.54,0.94c5.08,1.39,8.68-0.29,10.79-5.02C138.78,37.32,138.6,37.08,138.36,37.1"/>
	<path class="st1" d="M150.86,43.13h12.5c0.28,0,0.44-0.14,0.49-0.42l0.81-5.17c0.05-0.29-0.07-0.43-0.37-0.41
		c-6.47,0.26-12.95,0.25-19.43-0.05c-0.89-0.04-1.52-0.28-2.4-0.53c-0.26-0.08-0.54,0.07-0.61,0.34l-1.27,4.88
		c-0.07,0.27,0.02,0.46,0.29,0.56c3.99,1.55,6.94,2.27,9.19,6.32c0.21,0.38,0.32,0.35,0.32-0.08v-4.94
		C150.38,43.35,150.59,43.13,150.86,43.13"/>
	<path class="st1" d="M190.59,42.51c3.09,0.68,6.23,0.86,9.4,0.52c0.3-0.04,0.45-0.2,0.45-0.5v-5.01c0-0.28-0.24-0.5-0.52-0.47
		c-2.72,0.29-5.4,0.14-8.05-0.43c-0.23-0.04-0.46,0.09-0.52,0.31l-1.33,4.66C189.91,41.99,190.16,42.42,190.59,42.51"/>
	<path class="st1" d="M263.42,50.25c0.17-7.11,0-14.97-10.1-13.18c-0.19,0.03-0.2,0.11-0.06,0.23c3.34,2.77,3.41,8.99,3.22,12.91
		c-0.01,0.27,0.11,0.4,0.38,0.4h6.17C263.25,50.63,263.42,50.46,263.42,50.25"/>
	<path class="st1" d="M254.85,42.79c-0.09-4.18-3.83-6.23-7.63-5.21c-0.26,0.07-0.38,0.25-0.34,0.52l0.74,4.86
		c0.04,0.23,0.17,0.35,0.41,0.34l6.54-0.21C254.75,43.07,254.85,42.98,254.85,42.79"/>
	<path class="st1" d="M186.31,39.64c-3.58,5.06-5.93,11.45-6.27,17.74c-0.02,0.25,0.1,0.37,0.34,0.37h5.99
		c0.25,0,0.38-0.13,0.38-0.38v-17.6C186.75,39.27,186.6,39.23,186.31,39.64"/>
	<path class="st1" d="M244.35,39.76c-4.06,5.26-6.16,11.24-6.31,17.92c-0.01,0.26,0.12,0.38,0.38,0.35l6.03-0.7
		c0.24-0.02,0.42-0.23,0.42-0.47V39.94C244.88,39.37,244.7,39.31,244.35,39.76"/>
	<path class="st1" d="M138.58,39.92c-1.36,2.29-3.34,3.68-5.96,4.19c-0.29,0.06-0.44,0.24-0.44,0.53l0.01,5.62
		c0,0.25,0.13,0.36,0.38,0.32l5.96-0.77c0.28-0.04,0.41-0.19,0.41-0.46v-9.34C138.94,39.82,138.68,39.75,138.58,39.92"/>
	<path class="st1" d="M116.08,57.83c8.89-1.91,10.05-9.13,9.7-16.84c-0.01-0.16-0.22-0.19-0.29-0.04
		c-2.29,5.55-6.23,9.45-11.81,11.69c-0.22,0.08-0.27,0.23-0.17,0.44l2.09,4.51C115.69,57.77,115.89,57.87,116.08,57.83"/>
	<path class="st1" d="M162.19,44.6c0-0.19-0.16-0.35-0.35-0.35h-5.88c-0.19,0-0.34,0.16-0.34,0.35v12.81c0,0.19,0.16,0.35,0.34,0.35
		h5.88c0.19,0,0.35-0.16,0.35-0.35V44.6"/>
	<path class="st1" d="M168.01,53.5l-2.52,0.7c-0.34,0.1-0.45,0.31-0.34,0.64l1.45,4.22c0.08,0.26,0.26,0.35,0.52,0.28l8.41-2.38
		c0.29-0.08,0.38-0.27,0.29-0.55c-1.31-3.72-2.87-8.06-1.39-11.58c0.13-0.3,0.03-0.45-0.29-0.46l-5.21-0.1
		c-0.24-0.01-0.46,0.13-0.56,0.34c-1.67,3.28-0.79,5.31-0.04,8.32C168.38,53.18,168.25,53.43,168.01,53.5"/>
	<path class="st1" d="M189.88,51.67c-0.58-0.19-0.91,0.01-1,0.62l-0.66,4.85c-0.02,0.21,0.11,0.4,0.31,0.43
		c3.34,0.62,10.82,1.58,11.69-3.05c0.35-1.88,0.38-5.21,0.08-9.98c-0.01-0.19-0.11-0.29-0.31-0.29h-6.09
		c-0.25,0-0.38,0.13-0.38,0.38C193.44,47.45,195.13,53.39,189.88,51.67"/>
	<path class="st1" d="M150.23,57.37c0.81-4.76-1.07-10.66-5.93-12.72c-0.33-0.13-0.49-0.02-0.49,0.33v12.3
		c0,0.32,0.16,0.47,0.47,0.47h5.49C150.04,57.75,150.19,57.62,150.23,57.37"/>
	<path class="st1" d="M217.88,51.75V50c0-0.26-0.11-0.5-0.29-0.68l-3.23-3.23c-0.28-0.29-0.74-0.25-0.99,0.05
		c-2.5,3.13-2.69,7.31-2.38,11.06c0.02,0.31,0.29,0.55,0.6,0.55l8.45,0.01c0.26,0,0.48-0.21,0.47-0.47l-0.03-4.72
		c0-0.29-0.14-0.43-0.43-0.43h-1.79C218,52.13,217.88,52,217.88,51.75"/>
	<path class="st1" d="M247.12,51.99l0.01,5.58c0,0.12,0.1,0.22,0.22,0.22l16.94-0.06c0.66,0,1.19-0.16,1.19-0.35l-0.02-5.31
		c0-0.2-0.54-0.35-1.19-0.35l-16.93,0.06C247.22,51.77,247.12,51.87,247.12,51.99"/>
</g>
<path class="st2" d="M247.12,51.99l0.01,5.58c0,0.12,0.1,0.22,0.22,0.22l16.94-0.06c0.66,0,1.19-0.16,1.19-0.35l-0.02-5.31
	c0-0.2-0.54-0.35-1.19-0.35l-16.93,0.06C247.22,51.77,247.12,51.87,247.12,51.99z M217.88,51.75V50c0-0.26-0.11-0.5-0.29-0.68
	l-3.23-3.23c-0.28-0.29-0.74-0.25-0.99,0.05c-2.5,3.13-2.69,7.31-2.38,11.06c0.02,0.31,0.29,0.55,0.6,0.55l8.45,0.01
	c0.26,0,0.48-0.21,0.47-0.47l-0.03-4.72c0-0.29-0.14-0.43-0.43-0.43h-1.79C218,52.13,217.88,52,217.88,51.75 M150.23,57.37
	c0.81-4.76-1.07-10.66-5.93-12.72c-0.33-0.13-0.49-0.02-0.49,0.33v12.3c0,0.32,0.16,0.47,0.47,0.47h5.49
	C150.04,57.75,150.19,57.62,150.23,57.37 M189.88,51.67c-0.58-0.19-0.91,0.01-1,0.62l-0.66,4.85c-0.02,0.21,0.11,0.4,0.31,0.43
	c3.34,0.62,10.82,1.58,11.69-3.05c0.35-1.88,0.38-5.21,0.08-9.98c-0.01-0.19-0.11-0.29-0.31-0.29h-6.09c-0.25,0-0.38,0.13-0.38,0.38
	C193.44,47.45,195.13,53.39,189.88,51.67 M168.01,53.5l-2.52,0.7c-0.34,0.1-0.45,0.31-0.34,0.64l1.45,4.22
	c0.08,0.26,0.26,0.35,0.52,0.28l8.41-2.38c0.29-0.08,0.38-0.27,0.29-0.55c-1.31-3.72-2.87-8.06-1.39-11.58
	c0.13-0.3,0.03-0.45-0.29-0.46l-5.21-0.1c-0.24-0.01-0.46,0.13-0.56,0.34c-1.67,3.28-0.79,5.31-0.04,8.32
	C168.38,53.18,168.25,53.43,168.01,53.5 M162.19,44.6c0-0.19-0.16-0.35-0.35-0.35h-5.88c-0.19,0-0.34,0.16-0.34,0.35v12.81
	c0,0.19,0.16,0.35,0.34,0.35h5.88c0.19,0,0.35-0.16,0.35-0.35V44.6 M116.08,57.83c8.89-1.91,10.05-9.13,9.7-16.84
	c-0.01-0.16-0.22-0.19-0.29-0.04c-2.29,5.55-6.23,9.45-11.81,11.69c-0.22,0.08-0.27,0.23-0.17,0.44l2.09,4.51
	C115.69,57.77,115.89,57.87,116.08,57.83 M138.58,39.92c-1.36,2.29-3.34,3.68-5.96,4.19c-0.29,0.06-0.44,0.24-0.44,0.53l0.01,5.62
	c0,0.25,0.13,0.36,0.38,0.32l5.96-0.77c0.28-0.04,0.41-0.19,0.41-0.46v-9.34C138.94,39.82,138.68,39.75,138.58,39.92 M244.35,39.76
	c-4.06,5.26-6.16,11.24-6.31,17.92c-0.01,0.26,0.12,0.38,0.38,0.35l6.03-0.7c0.24-0.02,0.42-0.23,0.42-0.47V39.94
	C244.88,39.37,244.7,39.31,244.35,39.76 M186.31,39.64c-3.58,5.06-5.93,11.45-6.27,17.74c-0.02,0.25,0.1,0.37,0.34,0.37h5.99
	c0.25,0,0.38-0.13,0.38-0.38v-17.6C186.75,39.27,186.6,39.23,186.31,39.64 M254.85,42.79c-0.09-4.18-3.83-6.23-7.63-5.21
	c-0.26,0.07-0.38,0.25-0.34,0.52l0.74,4.86c0.04,0.23,0.17,0.35,0.41,0.34l6.54-0.21C254.75,43.07,254.85,42.98,254.85,42.79
	 M263.42,50.25c0.17-7.11,0-14.97-10.1-13.18c-0.19,0.03-0.2,0.11-0.06,0.23c3.34,2.77,3.41,8.99,3.22,12.91
	c-0.01,0.27,0.11,0.4,0.38,0.4h6.17C263.25,50.63,263.42,50.46,263.42,50.25 M190.59,42.51c3.09,0.68,6.23,0.86,9.4,0.52
	c0.3-0.04,0.45-0.2,0.45-0.5v-5.01c0-0.28-0.24-0.5-0.52-0.47c-2.72,0.29-5.4,0.14-8.05-0.43c-0.23-0.04-0.46,0.09-0.52,0.31
	l-1.33,4.66C189.91,41.99,190.16,42.42,190.59,42.51 M150.86,43.13h12.5c0.28,0,0.44-0.14,0.49-0.42l0.81-5.17
	c0.05-0.29-0.07-0.43-0.37-0.41c-6.47,0.26-12.95,0.25-19.43-0.05c-0.89-0.04-1.52-0.28-2.4-0.53c-0.26-0.08-0.54,0.07-0.61,0.34
	l-1.27,4.88c-0.07,0.27,0.02,0.46,0.29,0.56c3.99,1.55,6.94,2.27,9.19,6.32c0.21,0.38,0.32,0.35,0.32-0.08v-4.94
	C150.38,43.35,150.59,43.13,150.86,43.13 M138.36,37.1c-2.78,0.29-5.77,0.12-9.31-0.49c-0.26-0.04-0.41,0.07-0.48,0.32l-1.22,4.69
	c-0.11,0.4,0.13,0.83,0.54,0.94c5.08,1.39,8.68-0.29,10.79-5.02C138.78,37.32,138.6,37.08,138.36,37.1 M237.99,43.65l-0.02,5.4
	c0,0.08,0.05,0.14,0.12,0.14c0.07,0.01,0.14-0.03,0.16-0.1c1.27-3.92,3.19-7.51,5.77-10.77c0.71-0.89,0.49-1.29-0.64-1.22
	c-2.74,0.19-5.44,0-8.1-0.55c-0.22-0.04-0.35,0.04-0.41,0.26l-1.31,4.99c-0.1,0.38,0.04,0.6,0.42,0.68l3.73,0.83
	C237.91,43.35,238,43.46,237.99,43.65 M225.59,43.46l-0.61,1.27c-0.11,0.22-0.07,0.47,0.1,0.64l3.47,3.45
	c0.27,0.26,0.52,0.25,0.74-0.06c2.41-3.31,3.32-7.02,2.74-11.15c-0.04-0.28-0.19-0.4-0.47-0.39c-2.55,0.11-5.05-0.16-7.51-0.81
	c-0.26-0.07-0.53,0.08-0.61,0.34l-1.46,4.58c-0.1,0.28,0.07,0.6,0.36,0.69l3.01,0.92C225.64,43.02,225.72,43.2,225.59,43.46
	 M186.34,37.09c-5.67,0.29-13.3,1.01-18.76-0.61c-0.23-0.07-0.38,0.01-0.45,0.26l-1.25,4.66c-0.16,0.59,0.05,0.98,0.65,1.13
	c4.07,1.12,8.86,0.52,13.12,0.65c0.2,0.01,0.35,0.16,0.35,0.36v6.34c0,0.1,0.08,0.19,0.18,0.2c0.1,0.01,0.19-0.05,0.22-0.15
	c1.1-4.62,3.14-8.76,6.15-12.42C186.69,37.33,186.56,37.07,186.34,37.09 M230.89,53.02c-4.89-5.34-10.75-10.48-14.54-16.66
	c-0.15-0.25-0.35-0.3-0.61-0.17l-4.65,2.48c-0.25,0.13-0.31,0.33-0.19,0.58c0.91,1.93,2.09,3.68,3.55,5.24
	c4.36,4.66,8.78,9.26,13.27,13.82c0.17,0.16,0.33,0.16,0.5,0.01l3.86-3.58c0.16-0.15,0.19-0.32,0.07-0.51
	C231.83,53.66,231.14,53.3,230.89,53.02 M125.27,37.25l-9.12-0.14c-0.19,0-0.31-0.1-0.34-0.29l-0.68-3.93
	c-0.05-0.32-0.25-0.45-0.57-0.38l-4.95,1.06c-0.23,0.05-0.35,0.2-0.33,0.43l0.52,8.81c0.01,0.21,0.12,0.32,0.33,0.32h8.29
	c0.32,0,0.49,0.17,0.48,0.49l-0.11,4.4c-0.01,0.37,0.12,0.42,0.38,0.16c2.95-2.99,5.09-6.46,6.44-10.43
	C125.69,37.49,125.52,37.25,125.27,37.25 M337.46,68.69c0,3.91-3.17,7.07-7.07,7.07H44.61c-3.91,0-7.07-3.16-7.07-7.07V27.31
	c0-3.91,3.17-7.07,7.07-7.07h285.78c3.91,0,7.07,3.16,7.07,7.07V68.69"/>
<path d="M125.27,37.25c0.25,0,0.42,0.25,0.34,0.49c-1.34,3.97-3.49,7.45-6.44,10.43c-0.25,0.26-0.38,0.21-0.38-0.16l0.11-4.4
	c0.01-0.32-0.16-0.49-0.48-0.49h-8.29c-0.21,0-0.32-0.1-0.33-0.32L109.29,34c-0.02-0.23,0.1-0.38,0.33-0.43l4.95-1.06
	c0.32-0.07,0.52,0.06,0.57,0.38l0.68,3.93c0.03,0.19,0.14,0.29,0.34,0.29L125.27,37.25z"/>
<path d="M230.89,53.02c0.25,0.28,0.94,0.64,1.26,1.2c0.11,0.19,0.09,0.36-0.07,0.51l-3.86,3.58c-0.17,0.16-0.34,0.16-0.5-0.01
	c-4.49-4.55-8.91-9.16-13.27-13.82c-1.46-1.57-2.65-3.32-3.55-5.24c-0.11-0.25-0.05-0.44,0.19-0.58l4.65-2.48
	c0.26-0.13,0.46-0.08,0.61,0.17C220.15,42.54,226.01,47.68,230.89,53.02z"/>
<path d="M167.58,36.47c5.45,1.63,13.09,0.91,18.76,0.61c0.22-0.01,0.35,0.24,0.21,0.41c-3.01,3.66-5.05,7.8-6.15,12.42
	c-0.02,0.1-0.12,0.16-0.22,0.15c-0.1-0.01-0.18-0.1-0.18-0.2v-6.34c0-0.2-0.15-0.35-0.35-0.36c-4.27-0.12-9.05,0.48-13.12-0.65
	c-0.59-0.16-0.8-0.54-0.65-1.13l1.25-4.66C167.2,36.49,167.35,36.41,167.58,36.47z"/>
<path d="M225.36,42.94l-3.01-0.92c-0.29-0.09-0.46-0.4-0.36-0.69l1.46-4.58c0.08-0.26,0.35-0.4,0.61-0.34
	c2.46,0.65,4.96,0.92,7.51,0.81c0.28-0.01,0.44,0.11,0.47,0.39c0.58,4.13-0.34,7.85-2.74,11.15c-0.22,0.31-0.47,0.32-0.74,0.06
	l-3.47-3.45c-0.17-0.17-0.21-0.42-0.1-0.64l0.61-1.27C225.72,43.2,225.64,43.02,225.36,42.94z"/>
<path d="M237.72,43.31l-3.73-0.83c-0.38-0.08-0.52-0.31-0.42-0.68l1.31-4.99c0.06-0.22,0.19-0.3,0.41-0.26
	c2.66,0.55,5.36,0.74,8.1,0.55c1.13-0.07,1.34,0.33,0.64,1.22c-2.58,3.26-4.51,6.85-5.77,10.77c-0.02,0.07-0.09,0.11-0.16,0.1
	c-0.07-0.01-0.12-0.07-0.12-0.14l0.02-5.4C238,43.46,237.91,43.35,237.72,43.31z"/>
<path d="M129.05,36.62c3.54,0.61,6.52,0.77,9.31,0.49c0.24-0.02,0.42,0.22,0.32,0.44c-2.11,4.73-5.71,6.41-10.79,5.02
	c-0.4-0.11-0.64-0.53-0.54-0.94l1.22-4.69C128.64,36.68,128.8,36.58,129.05,36.62z"/>
<path d="M150.38,43.62v4.94c0,0.43-0.1,0.46-0.32,0.08c-2.26-4.05-5.21-4.77-9.19-6.32c-0.26-0.1-0.35-0.29-0.29-0.56l1.27-4.88
	c0.07-0.27,0.35-0.42,0.61-0.34c0.88,0.25,1.51,0.49,2.4,0.53c6.47,0.3,12.95,0.32,19.43,0.05c0.29-0.01,0.41,0.12,0.37,0.41
	l-0.81,5.17c-0.05,0.28-0.21,0.42-0.49,0.42h-12.5C150.59,43.13,150.38,43.35,150.38,43.62z"/>
<path d="M190.59,42.51c-0.43-0.09-0.68-0.52-0.56-0.94l1.33-4.66c0.06-0.22,0.29-0.35,0.52-0.31c2.65,0.58,5.32,0.72,8.05,0.43
	c0.28-0.03,0.52,0.19,0.52,0.47v5.01c0,0.3-0.15,0.47-0.45,0.5C196.82,43.37,193.68,43.19,190.59,42.51z"/>
<path d="M253.33,37.07c10.1-1.79,10.27,6.07,10.1,13.18c-0.01,0.21-0.17,0.38-0.38,0.38h-6.17c-0.27,0-0.4-0.13-0.38-0.4
	c0.18-3.92,0.12-10.15-3.22-12.91C253.12,37.18,253.14,37.1,253.33,37.07z"/>
<path d="M247.21,37.58c3.8-1.01,7.54,1.03,7.63,5.21c0,0.19-0.1,0.28-0.28,0.29l-6.54,0.21c-0.23,0.01-0.37-0.11-0.41-0.34
	l-0.74-4.86C246.84,37.82,246.95,37.65,247.21,37.58z"/>
<path d="M180.04,57.38c0.34-6.29,2.68-12.68,6.27-17.74c0.29-0.41,0.44-0.37,0.44,0.14v17.6c0,0.25-0.13,0.38-0.38,0.38h-5.99
	C180.13,57.75,180.02,57.63,180.04,57.38z"/>
<path d="M244.35,39.76c0.35-0.45,0.53-0.39,0.53,0.18v16.92c0,0.24-0.18,0.45-0.42,0.47l-6.03,0.7c-0.26,0.03-0.39-0.09-0.38-0.35
	C238.18,50.99,240.29,45.02,244.35,39.76z"/>
<path d="M138.58,39.92c0.1-0.17,0.35-0.1,0.35,0.09v9.34c0,0.28-0.13,0.43-0.41,0.46l-5.96,0.77c-0.25,0.04-0.38-0.07-0.38-0.32
	l-0.01-5.62c0-0.29,0.15-0.47,0.44-0.53C135.24,43.6,137.23,42.2,138.58,39.92z"/>
<path d="M125.78,40.99c0.35,7.71-0.81,14.93-9.7,16.84c-0.19,0.04-0.4-0.06-0.48-0.24l-2.09-4.51c-0.1-0.21-0.05-0.36,0.17-0.44
	c5.58-2.24,9.52-6.14,11.81-11.69C125.56,40.79,125.77,40.83,125.78,40.99z"/>
<path d="M162.19,57.41c0,0.19-0.16,0.35-0.35,0.35h-5.88c-0.19,0-0.34-0.16-0.34-0.35V44.6c0-0.19,0.16-0.35,0.34-0.35h5.88
	c0.19,0,0.35,0.16,0.35,0.35V57.41z"/>
<path d="M168.32,52.94c-0.75-3.01-1.63-5.05,0.04-8.32c0.1-0.21,0.32-0.35,0.56-0.34l5.21,0.1c0.32,0.01,0.42,0.16,0.29,0.46
	c-1.49,3.53,0.08,7.86,1.39,11.58c0.1,0.28,0.01,0.46-0.29,0.55l-8.41,2.38c-0.26,0.08-0.44-0.01-0.52-0.28l-1.45-4.22
	c-0.11-0.33,0-0.54,0.34-0.64l2.52-0.7C168.25,53.43,168.38,53.18,168.32,52.94z"/>
<path d="M189.88,51.67c5.24,1.73,3.56-4.21,3.65-7.04c0.01-0.25,0.14-0.38,0.38-0.38H200c0.19,0,0.3,0.1,0.31,0.29
	c0.3,4.78,0.27,8.1-0.08,9.98c-0.87,4.63-8.35,3.68-11.69,3.05c-0.2-0.04-0.34-0.22-0.31-0.43l0.66-4.85
	C188.97,51.68,189.31,51.47,189.88,51.67z"/>
<path d="M144.31,44.65c4.85,2.06,6.74,7.96,5.93,12.72c-0.04,0.26-0.19,0.38-0.46,0.38h-5.49c-0.32,0-0.47-0.16-0.47-0.47v-12.3
	C143.81,44.63,143.98,44.51,144.31,44.65z"/>
<path d="M218.25,52.13h1.79c0.29,0,0.43,0.14,0.43,0.43l0.03,4.72c0.01,0.26-0.21,0.47-0.47,0.47l-8.45-0.01
	c-0.31,0-0.58-0.24-0.6-0.55c-0.32-3.76-0.12-7.94,2.38-11.06c0.25-0.31,0.71-0.34,0.99-0.05l3.23,3.23
	c0.18,0.18,0.29,0.42,0.29,0.68v1.76C217.88,52,218,52.13,218.25,52.13z"/>
<path d="M247.12,51.99c0-0.12,0.1-0.22,0.22-0.22l16.93-0.06c0.65,0,1.19,0.16,1.19,0.35l0.02,5.31c0,0.2-0.53,0.35-1.19,0.35
	l-16.94,0.06c-0.12,0-0.22-0.1-0.22-0.22L247.12,51.99z"/>
</svg>
